<?xml version="1.0" standalone="no"?>
<!DOCTYPE svg PUBLIC "-//W3C//DTD SVG 20010904//EN"
 "http://www.w3.org/TR/2001/REC-SVG-20010904/DTD/svg10.dtd">
<svg version="1.0" xmlns="http://www.w3.org/2000/svg"
 width="735.000000pt" height="1102.000000pt" viewBox="0 0 735.000000 1102.000000"
 preserveAspectRatio="xMidYMid meet">

<g transform="translate(0.000000,1102.000000) scale(0.100000,-0.100000)"
fill="currentColor" stroke="currentColor">
<path d="M3593 10071 c-12 -10 -25 -30 -28 -44 -7 -26 -10 -28 -100 -43 -22
-4 -58 -15 -80 -25 -53 -25 -236 -27 -255 -4 -11 13 -50 15 -269 13 -287 -3
-265 3 -247 -75 7 -30 5 -33 -16 -33 -13 0 -29 9 -36 20 -16 25 -56 26 -79 1
-11 -11 -35 -21 -58 -23 -35 -3 -40 -6 -40 -27 0 -20 -17 -35 -89 -79 -81 -51
-87 -57 -84 -83 6 -36 12 -35 -269 -48 l-212 -11 -25 25 c-14 14 -32 25 -41
25 -17 0 -55 -34 -55 -50 0 -5 -9 -10 -19 -10 -14 0 -38 -28 -81 -94 -51 -80
-66 -95 -93 -100 -71 -13 -257 -79 -344 -122 -178 -88 -371 -236 -482 -372
-37 -44 -42 -56 -34 -75 5 -12 54 -125 109 -250 l99 -228 55 -16 c30 -8 57
-17 58 -18 2 -2 -18 -39 -44 -82 -103 -169 -155 -312 -238 -648 -54 -219 -65
-250 -82 -253 -28 -4 -64 -146 -43 -168 8 -7 79 -27 159 -45 80 -17 146 -33
148 -34 1 -1 -12 -32 -29 -69 -46 -99 -52 -226 -13 -320 7 -17 4 -18 -29 -12
-31 6 -41 3 -62 -18 -28 -28 -33 -77 -11 -95 20 -17 20 -19 71 -613 42 -487
44 -530 30 -552 -36 -55 22 -126 102 -126 29 0 33 -3 33 -27 0 -58 -23 -159
-41 -179 -20 -22 -25 -59 -9 -69 6 -3 10 -15 10 -26 0 -12 10 -23 26 -29 24
-10 25 -13 18 -53 -17 -95 -26 -85 270 -287 83 -56 102 -54 266 33 112 60 137
78 149 105 11 25 21 32 42 32 23 0 36 12 75 68 69 98 73 113 80 284 l7 154
-62 69 c-33 38 -61 76 -61 83 0 8 70 211 155 451 86 240 157 440 158 445 2 10
-33 21 -96 31 -37 6 -38 7 -31 38 9 44 12 47 41 47 18 0 39 14 69 47 51 55 94
169 94 246 0 48 0 49 28 42 35 -7 48 6 57 60 4 22 15 72 25 110 10 39 24 98
30 133 11 54 17 65 42 78 35 18 40 15 53 -39 7 -30 18 -45 37 -55 20 -9 34
-31 56 -90 36 -92 37 -99 28 -135 -9 -31 6 -57 33 -57 9 0 24 -12 33 -27 11
-19 30 -30 59 -38 l44 -10 13 -105 c8 -57 10 -106 6 -107 -5 -2 -24 -12 -41
-23 l-33 -20 0 -181 c0 -141 -3 -180 -12 -176 -7 2 -57 24 -112 47 -100 43
-155 52 -182 29 -12 -10 -14 -26 -9 -73 6 -64 3 -74 -30 -92 -25 -14 -31 -56
-11 -73 12 -10 5 -46 -50 -264 -73 -284 -262 -1013 -270 -1039 -3 -10 -14 -18
-24 -18 -17 0 -50 -34 -50 -52 0 -5 9 -17 21 -29 19 -19 20 -25 10 -66 -8 -29
-24 -57 -47 -79 -32 -29 -36 -38 -32 -71 3 -21 8 -45 12 -54 6 -13 -7 -25 -55
-54 -229 -140 -369 -394 -369 -672 0 -92 -2 -102 -19 -108 -11 -3 -34 -22 -51
-42 -31 -34 -32 -39 -28 -102 6 -78 -6 -121 -33 -121 -17 0 -39 -27 -39 -49 0
-5 7 -17 16 -25 14 -14 2 -59 -126 -468 -249 -796 -256 -816 -296 -861 -60
-66 -79 -118 -80 -227 -1 -116 -27 -208 -61 -221 -42 -16 -63 -46 -63 -92 0
-56 13 -71 80 -92 30 -10 57 -19 58 -21 6 -4 -69 -164 -104 -223 -50 -81 -89
-192 -109 -303 -10 -54 -21 -98 -27 -98 -17 0 -27 -44 -13 -65 7 -11 14 -56
17 -98 2 -55 8 -81 18 -87 9 -6 417 -9 1045 -7 l1030 2 3 148 3 147 -25 0
c-14 0 -27 3 -29 8 -6 9 11 443 17 449 2 3 41 13 85 23 117 26 131 37 131 105
0 41 6 65 24 93 38 59 49 107 44 192 -3 59 -11 88 -31 125 -26 45 -27 55 -27
181 l0 134 30 0 c23 0 33 6 39 23 6 18 32 517 31 623 0 26 5 32 32 40 26 8 34
16 39 44 4 19 10 187 13 374 7 308 6 340 -10 357 -21 23 -11 49 19 49 34 0 67
63 67 130 0 43 -4 56 -29 80 l-28 29 41 26 c33 21 47 39 66 88 l25 62 3 -74 3
-74 81 -88 81 -89 537 0 536 0 87 88 86 88 -6 80 c-6 89 1 90 38 1 19 -46 33
-64 65 -83 l42 -25 -29 -29 c-25 -24 -29 -36 -29 -80 0 -68 31 -126 71 -134
32 -6 38 -26 13 -47 -14 -12 -15 -49 -8 -363 4 -193 10 -362 13 -376 5 -16 17
-28 37 -34 l30 -9 13 -321 c8 -177 18 -329 23 -339 5 -10 20 -17 38 -17 l30 0
0 -134 c0 -122 -2 -137 -24 -177 -57 -105 -51 -237 14 -329 14 -20 20 -44 20
-84 0 -74 12 -82 191 -120 25 -6 26 -9 33 -98 3 -51 6 -154 7 -228 l1 -135
-26 -3 -27 -3 3 -147 3 -147 1020 -3 c561 -1 1030 0 1041 3 19 4 22 14 29 90
4 47 11 87 16 91 14 8 11 45 -5 63 -7 9 -23 63 -34 121 -22 111 -61 218 -106
288 -25 40 -106 208 -106 221 0 3 27 15 61 25 67 22 79 36 79 93 0 44 -26 79
-64 89 -34 8 -59 101 -61 224 -1 81 -5 103 -28 150 -14 31 -40 69 -57 85 -33
32 -36 40 -295 865 -129 411 -136 436 -122 460 18 30 8 56 -29 70 -26 10 -28
19 -24 121 2 62 0 69 -30 103 -18 20 -42 39 -54 42 -20 5 -21 11 -22 132 -1
114 -4 137 -31 220 -17 51 -50 125 -74 165 -52 88 -172 209 -257 261 -49 30
-62 42 -56 55 4 9 9 32 12 52 3 31 -2 41 -36 77 -47 49 -67 118 -38 134 9 5
16 22 16 39 0 25 -6 33 -30 42 -35 13 -24 -20 -144 442 -235 903 -227 868
-210 886 23 26 14 62 -20 78 -28 13 -29 15 -23 76 7 73 -4 96 -49 97 -34 1
-125 -29 -199 -66 -27 -14 -53 -26 -57 -26 -5 0 -8 81 -8 179 l0 179 -37 23
c-21 12 -40 24 -42 25 -1 2 3 50 10 108 l13 105 43 7 c35 5 47 12 59 35 8 17
23 29 34 29 27 0 46 41 32 67 -9 15 -3 40 24 114 30 81 39 97 63 106 24 8 30
18 36 54 10 60 11 61 50 38 31 -18 35 -28 50 -97 30 -139 56 -247 66 -270 8
-19 14 -22 38 -17 l28 6 5 -68 c10 -132 94 -273 162 -273 16 0 27 -7 30 -20 3
-11 8 -28 11 -39 5 -16 -3 -20 -57 -30 -34 -6 -65 -14 -68 -18 -4 -5 42 -143
101 -308 59 -165 132 -368 161 -452 l52 -151 -63 -72 -64 -72 6 -158 c5 -147
7 -162 31 -207 53 -95 94 -143 124 -143 22 0 30 -6 40 -32 10 -29 30 -42 156
-107 124 -64 149 -73 180 -68 41 7 352 219 361 246 3 9 0 32 -5 51 -15 54 -12
70 16 80 16 7 24 16 21 24 -3 8 1 20 9 26 20 18 17 57 -6 73 -18 13 -31 66
-43 181 -2 16 7 21 43 28 62 11 87 26 99 61 8 23 7 37 -5 62 -14 31 -12 67 26
507 56 639 55 632 74 659 23 33 20 66 -10 95 -21 22 -31 25 -61 19 -32 -6 -35
-4 -28 12 44 109 24 293 -41 364 -8 9 -12 19 -7 22 4 2 76 19 158 37 83 17
155 38 161 46 17 22 -23 164 -47 164 -21 0 -21 2 -74 225 -72 307 -143 504
-239 665 -31 51 -55 94 -54 95 2 2 28 10 59 19 l56 16 108 245 c101 232 107
248 94 273 -21 38 -183 197 -264 257 -83 61 -193 126 -283 167 -74 33 -249 93
-305 103 -34 7 -43 16 -98 101 -42 65 -67 94 -80 94 -11 0 -23 10 -29 24 -16
42 -74 43 -97 1 -8 -13 -38 -13 -233 -4 -277 13 -268 11 -263 46 4 26 -4 33
-87 85 -50 32 -90 63 -89 70 4 32 -2 38 -39 38 -25 0 -43 7 -55 20 -9 11 -27
20 -40 20 -13 0 -32 -9 -42 -20 -20 -22 -55 -27 -55 -7 0 6 4 26 9 44 6 21 5
35 -2 42 -7 7 -92 11 -258 11 -207 0 -250 -2 -263 -15 -23 -24 -191 -21 -255
5 -27 10 -79 24 -115 31 -58 10 -66 14 -66 33 0 13 -10 32 -23 44 -21 20 -33
22 -153 22 -110 -1 -132 -3 -151 -19z m284 -23 c4 -7 8 -40 8 -73 0 -48 3 -60
17 -63 11 -2 19 5 23 21 6 23 10 24 48 20 63 -8 157 -41 200 -70 62 -43 163
-157 193 -219 24 -51 29 -74 32 -161 l4 -101 -29 -6 c-15 -3 -163 -26 -327
-51 -278 -43 -305 -45 -375 -35 -84 12 -497 77 -548 85 l-33 6 0 96 c0 89 3
101 34 167 63 130 201 246 327 275 100 22 107 22 113 -4 7 -29 31 -33 40 -8 4
9 4 36 0 60 -10 69 -2 73 142 73 87 0 125 -4 131 -12z m-765 -175 c3 -55 4
-58 31 -61 15 -2 27 -6 27 -9 0 -3 -14 -21 -31 -40 -17 -20 -40 -56 -52 -82
-28 -58 -32 -61 -89 -61 l-48 0 0 -50 0 -50 -104 0 -104 0 -42 178 c-23 97
-45 189 -50 205 l-9 27 234 0 234 0 3 -57z m1728 46 c0 -6 -20 -95 -45 -198
-25 -103 -45 -191 -45 -194 0 -4 -47 -7 -105 -7 l-105 0 0 50 0 50 -47 0 c-58
0 -62 3 -90 61 -12 26 -35 62 -52 82 -17 19 -31 37 -31 40 0 3 12 7 28 9 26 3
27 6 30 61 l3 57 229 0 c156 0 230 -3 230 -11z m-1596 -44 c-27 -23 -49 -34
-71 -35 -31 0 -33 2 -33 35 l0 35 72 0 71 0 -39 -35z m1106 0 c0 -33 -2 -35
-32 -35 -23 1 -45 12 -72 35 l-39 35 71 0 72 0 0 -35z m-1815 -5 c3 -6 -4 -10
-17 -10 -18 0 -20 2 -8 10 19 12 18 12 25 0z m2455 -10 c0 -4 -12 -5 -26 -2
-17 3 -22 7 -13 12 13 9 39 2 39 -10z m-2328 -160 c38 -159 39 -151 -23 -135
-62 17 -71 14 -95 -32 -11 -20 -24 -38 -30 -40 -8 -3 -85 287 -84 320 0 4 46
6 102 5 l102 -3 28 -115z m2398 116 c0 -3 -14 -65 -31 -138 -18 -73 -34 -145
-37 -160 -6 -38 -18 -35 -41 11 -25 49 -37 53 -100 36 -62 -16 -61 -23 -24
137 l28 118 103 0 c56 0 102 -2 102 -4z m-2626 -193 c20 -82 36 -151 36 -155
0 -12 -85 -9 -136 3 -35 9 -45 17 -50 38 -3 14 -12 51 -20 82 -21 86 -20 90
54 136 37 23 70 43 74 43 3 0 22 -66 42 -147z m2737 102 c38 -24 69 -50 69
-56 0 -6 -9 -51 -21 -99 -14 -60 -26 -90 -37 -95 -33 -13 -162 -18 -162 -7 0
11 55 245 66 285 3 9 8 17 10 17 3 0 37 -20 75 -45z m-3486 -105 c4 -6 -5 -10
-20 -10 -15 0 -24 4 -20 10 3 6 12 10 20 10 8 0 17 -4 20 -10z m4160 0 c4 -6
-5 -10 -20 -10 -15 0 -24 4 -20 10 3 6 12 10 20 10 8 0 17 -4 20 -10z m-3616
-42 c5 -13 12 -38 16 -56 7 -32 6 -33 -22 -25 -43 12 -94 8 -104 -8 -5 -8 -12
-26 -16 -42 -3 -15 -9 -30 -13 -32 -5 -3 -41 -1 -82 4 -105 14 -202 21 -290
21 l-76 0 -22 66 c-12 36 -20 67 -19 69 5 4 387 21 522 23 93 2 98 1 106 -20z
m3396 11 c138 -6 253 -15 258 -18 4 -4 -2 -35 -14 -69 l-21 -62 -76 0 c-79 0
-283 -16 -339 -26 -30 -6 -32 -4 -44 36 -15 51 -42 64 -102 51 -23 -6 -43 -9
-44 -7 -2 2 2 26 8 55 l11 51 56 0 c31 0 170 -5 307 -11z m-2577 -106 l3 -101
-53 -17 c-29 -10 -61 -27 -70 -39 -9 -11 -19 -18 -22 -15 -3 3 -14 42 -24 87
l-19 82 58 0 59 0 0 56 0 55 33 -3 32 -3 3 -102z m1462 52 l0 -55 59 0 58 0
-20 -85 c-20 -80 -39 -107 -49 -67 -3 11 -26 24 -61 35 l-57 18 0 105 0 104
35 0 35 0 0 -55z m-2904 -79 c6 -24 4 -26 -27 -27 -19 0 -44 -2 -57 -5 -21 -4
-22 -2 -11 19 7 12 23 40 37 62 l25 40 13 -31 c7 -17 16 -43 20 -58z m1050 73
c27 -7 44 -17 44 -26 0 -17 -75 -346 -95 -418 -13 -46 -227 -983 -256 -1120
-7 -33 -15 -63 -18 -67 -3 -3 -27 12 -53 35 l-47 42 65 290 c35 160 107 479
159 710 52 231 101 453 110 493 18 79 18 79 91 61z m2291 -149 c19 -85 64
-283 99 -440 36 -157 80 -357 99 -445 19 -88 53 -243 76 -344 38 -168 40 -185
25 -193 -10 -5 -32 -23 -51 -39 l-34 -30 -10 38 c-5 21 -50 220 -101 443 -50
223 -130 568 -176 768 -47 199 -82 367 -79 372 8 13 64 29 94 27 22 -2 26 -11
58 -157z m1022 77 l24 -40 -24 6 c-13 4 -39 7 -56 7 -38 0 -40 7 -16 69 l17
44 15 -23 c9 -13 27 -41 40 -63z m-3116 -94 c38 -164 37 -173 -21 -200 -26
-12 -61 -25 -78 -28 -30 -6 -31 -5 -26 26 4 26 0 37 -21 53 l-26 21 27 123 27
122 45 0 45 0 28 -117z m1926 15 c13 -57 25 -113 28 -125 3 -15 -1 -23 -15
-27 -26 -8 -43 -56 -30 -80 9 -15 6 -17 -29 -10 -21 4 -60 18 -86 32 -57 29
-56 16 -11 200 l27 112 47 0 47 0 22 -102z m-2472 62 c87 -20 141 -27 167 -23
l37 6 -6 -39 c-12 -74 -102 -474 -250 -1109 -36 -154 -65 -281 -65 -282 0 -1
-19 5 -42 13 -24 9 -78 18 -120 21 l-78 6 0 52 c0 41 -7 62 -36 111 -21 32
-36 68 -36 79 1 11 33 157 71 325 38 168 95 418 126 555 65 291 72 315 90 315
7 0 71 -13 142 -30z m3041 3 c6 -16 70 -288 142 -606 l130 -578 -24 -32 c-37
-48 -56 -100 -56 -150 l0 -44 -72 -5 c-40 -3 -93 -13 -118 -21 -24 -9 -45 -15
-47 -14 -1 2 -20 86 -43 187 -23 102 -54 237 -70 300 -16 63 -38 156 -49 205
-11 50 -49 218 -84 375 -36 157 -67 304 -71 326 l-6 42 38 -10 c30 -7 61 -3
157 21 154 37 160 37 173 4z m-3375 -55 c108 -12 109 -12 104 -38 -2 -14 -59
-268 -126 -564 l-123 -539 21 -26 c35 -43 54 -93 55 -144 l1 -49 -55 -20 c-66
-25 -145 -74 -182 -114 -115 -124 -157 -322 -99 -473 23 -61 36 -58 -144 -27
l-130 22 3 239 c4 273 -5 345 -59 446 -39 72 -129 159 -207 198 -32 15 -98 43
-148 61 -73 25 -94 37 -104 58 -7 15 -52 119 -101 230 l-89 204 29 36 c52 67
205 206 278 255 164 109 382 200 543 227 36 6 88 14 115 19 76 13 296 12 418
-1z m3987 -2 c140 -21 237 -47 381 -104 185 -74 423 -250 533 -394 l28 -38
-97 -222 c-53 -123 -101 -227 -105 -232 -5 -4 -41 -19 -82 -33 -224 -75 -340
-174 -399 -339 -23 -65 -28 -187 -19 -464 l4 -145 -143 -23 c-79 -12 -146 -21
-148 -19 -2 2 4 24 13 48 22 64 29 168 14 241 -31 161 -150 299 -297 345 -34
11 -55 23 -59 36 -13 40 23 146 60 176 22 19 21 28 -24 223 -139 609 -211 930
-208 933 2 1 41 7 88 12 127 15 353 14 460 -1z m-2847 -121 c-1 -55 -5 -141
-8 -191 l-7 -92 -39 5 c-75 10 -107 -40 -89 -140 5 -26 4 -37 -4 -34 -8 3 -12
80 -14 254 l-2 250 67 26 c100 38 98 39 96 -78z m1353 79 l71 -25 -4 -252 c-2
-139 -7 -255 -11 -259 -4 -4 -6 26 -4 66 4 66 2 76 -18 96 -18 18 -30 21 -65
18 l-43 -5 -6 66 c-12 136 -19 290 -13 305 8 21 10 21 93 -10z m-1196 -46 c0
-126 214 -159 368 -57 24 16 54 29 68 29 l24 0 0 -328 0 -327 -76 -68 c-41
-37 -79 -67 -83 -67 -16 0 -244 81 -270 96 l-26 14 29 -2 c24 -3 32 3 49 36
36 69 22 209 -21 218 -10 2 -46 0 -81 -4 -36 -4 -71 -3 -81 2 -9 5 -24 33 -32
62 -14 52 -13 88 11 444 1 7 19 8 61 1 l60 -10 0 -39z m1076 -25 c13 -151 10
-364 -4 -400 -18 -41 -30 -45 -108 -34 -36 6 -72 7 -79 5 -44 -17 -54 -165
-17 -227 20 -31 28 -36 50 -31 54 11 -8 -17 -135 -62 -69 -25 -133 -42 -142
-39 -9 3 -47 34 -84 68 l-68 63 -2 325 -2 324 23 3 c14 2 40 -7 60 -22 155
-107 382 -76 382 52 l0 40 53 10 c28 5 55 10 59 11 3 0 10 -38 14 -86z m-852
32 c77 -14 141 -27 143 -29 6 -6 -59 -43 -100 -56 -22 -7 -71 -10 -114 -8 -67
3 -78 6 -99 31 -14 16 -24 41 -24 58 0 37 9 37 194 4z m693 -12 c-10 -61 -35
-77 -125 -81 -60 -3 -89 1 -134 18 -75 28 -91 47 -46 55 168 31 248 43 277 44
33 1 34 1 28 -36z m-1257 -153 c0 -93 -4 -150 -10 -150 -6 0 -10 54 -10 143 0
126 3 157 17 157 2 0 3 -67 3 -150z m1650 -6 c0 -89 -4 -144 -10 -144 -6 0
-10 57 -10 151 0 97 4 148 10 144 6 -4 10 -65 10 -151z m-1881 52 c9 -11 8
-18 -4 -30 -22 -21 -34 -13 -27 19 5 28 14 31 31 11z m2125 -2 c10 -26 7 -34
-13 -34 -26 0 -36 17 -21 35 16 19 26 19 34 -1z m-109 -96 c37 -32 79 -101 68
-112 -4 -3 -26 -6 -50 -6 -41 0 -44 2 -63 44 -12 24 -32 54 -46 66 -14 14 -24
35 -24 52 l0 28 40 -20 c22 -11 56 -34 75 -52z m-1830 38 c-2 -14 -13 -35 -25
-48 -12 -13 -31 -42 -42 -65 -19 -42 -20 -43 -69 -43 -48 0 -50 1 -43 23 11
37 43 76 96 118 58 46 87 51 83 15z m-168 -58 c-50 -68 -56 -142 -26 -323 12
-69 111 -268 179 -361 80 -107 152 -164 508 -400 l352 -235 0 -58 0 -58 -60
-6 c-78 -7 -188 -59 -257 -121 -29 -27 -53 -52 -53 -57 0 -22 44 -6 93 34 64
52 155 93 225 103 l52 7 0 -91 0 -90 -30 -7 c-40 -9 -87 -58 -99 -103 -20 -76
22 -157 96 -184 l33 -12 0 -204 0 -205 -52 7 c-60 8 -160 51 -214 93 -20 15
-61 62 -91 105 -52 74 -93 113 -93 88 0 -30 69 -141 121 -192 69 -70 176 -125
264 -136 l60 -7 3 -128 c1 -70 0 -127 -3 -127 -3 0 -34 15 -68 34 -34 18 -240
125 -457 236 -231 120 -416 221 -446 246 -97 78 -216 135 -396 188 -56 16 -57
17 -66 63 -10 46 -10 47 34 97 129 146 157 351 72 522 l-31 62 46 198 c48 206
114 499 189 832 l42 193 46 14 c25 7 46 14 48 14 2 1 -8 -14 -21 -31z m2128 0
c1 -2 10 -34 18 -73 51 -230 184 -815 218 -959 21 -92 39 -176 39 -186 0 -10
-11 -38 -25 -63 -87 -155 -59 -370 69 -522 41 -49 42 -51 33 -96 -9 -46 -9
-47 -65 -64 -191 -56 -331 -125 -417 -205 -25 -23 -938 -500 -957 -500 -3 0
-7 56 -7 125 -2 122 -1 125 21 129 120 23 151 32 203 60 33 17 85 56 115 86
53 53 125 170 118 190 -6 18 -47 -20 -82 -74 -73 -114 -200 -198 -319 -212
l-57 -7 0 201 0 201 43 19 c77 35 114 103 97 178 -10 44 -60 98 -103 111 l-32
9 -3 82 c-3 97 1 101 86 82 72 -16 144 -52 202 -101 43 -36 90 -52 90 -30 0 5
-23 30 -51 55 -62 56 -173 113 -237 121 -95 12 -92 10 -92 65 0 27 6 54 13 60
6 6 167 114 357 239 439 291 475 325 610 585 59 113 69 148 85 312 8 72 -7
136 -41 181 l-24 32 46 -14 c25 -7 47 -15 49 -17z m-1955 -35 c-4 -50 0 -62
20 -68 17 -6 20 -15 20 -75 0 -82 5 -99 36 -110 13 -5 32 -26 43 -47 29 -57
56 -77 176 -132 97 -44 110 -53 112 -76 1 -15 -1 -34 -5 -44 -7 -17 -11 -16
-73 9 -67 27 -126 66 -215 142 -66 56 -98 106 -132 204 -39 117 -41 136 -15
192 19 39 35 42 33 5z m1748 -19 l20 -47 -25 -81 c-14 -44 -39 -107 -55 -138
-49 -92 -189 -209 -308 -258 -71 -30 -78 -27 -79 33 -1 23 6 31 42 46 163 71
197 91 224 132 27 40 54 70 87 97 12 10 16 31 16 85 0 61 3 74 20 85 15 9 20
23 20 52 0 53 13 51 38 -6z m-1527 -108 c17 -65 36 -93 69 -104 30 -11 30 -12
30 -83 l0 -72 -41 7 c-89 14 -131 55 -159 152 -32 110 -26 145 25 156 37 8 64
-13 76 -56z m1380 38 c23 -28 -15 -183 -56 -233 -24 -28 -98 -61 -137 -61 -16
0 -18 9 -18 70 0 65 2 71 24 80 34 12 65 57 73 103 5 31 12 42 36 52 33 14 60
10 78 -11z m-1656 -91 c15 -49 34 -100 41 -115 l15 -28 -79 0 -79 0 -11 63
c-6 34 -14 86 -18 115 l-7 52 56 0 55 0 27 -87z m1950 35 c-4 -29 -12 -80 -19
-113 l-12 -60 -77 -3 -78 -3 14 28 c8 15 25 62 37 103 12 41 23 81 26 88 2 8
23 12 59 12 l56 0 -6 -52z m-1449 -93 c17 -41 18 -86 3 -137 -8 -32 -14 -38
-37 -38 -70 0 -72 3 -72 106 l0 93 28 4 c59 9 63 7 78 -28z m918 15 c4 -4 7
-45 5 -90 -5 -89 -12 -100 -66 -100 -26 0 -33 5 -42 31 -15 42 -14 104 1 147
12 33 14 34 53 27 22 -3 44 -10 49 -15z m-1280 -202 c85 -74 130 -103 223
-143 l72 -31 -21 -22 c-19 -18 -20 -25 -10 -47 7 -16 20 -25 34 -25 38 0 51
15 46 49 -2 17 -4 31 -3 31 1 0 24 -6 51 -14 64 -19 190 -36 264 -36 73 0 95
-7 79 -26 -14 -18 -8 -55 13 -67 26 -17 68 7 68 37 0 14 -5 28 -11 32 -21 13
15 24 78 24 77 0 203 17 267 36 61 17 59 18 48 -3 -16 -31 3 -63 37 -63 44 0
60 33 34 69 l-20 26 76 35 c86 39 155 84 233 152 51 44 56 46 126 50 39 2 72
3 72 2 0 -17 -38 -80 -68 -115 -111 -126 -317 -230 -547 -278 -28 -5 -107 -14
-175 -20 -478 -38 -853 53 -1074 260 -64 60 -114 138 -96 149 5 3 38 4 72 2
60 -4 66 -7 132 -64z m464 -113 c92 -32 57 -32 -85 0 -13 3 -23 12 -23 21 0
17 -1 17 108 -21z m722 21 c0 -9 -25 -19 -71 -30 -104 -23 -114 -19 -29 13 89
34 100 36 100 17z m-728 -61 c155 -28 302 -37 432 -25 111 10 242 31 288 45
12 4 18 1 18 -9 0 -18 -39 -30 -165 -52 -138 -24 -477 -16 -602 15 -51 12 -93
26 -93 30 0 13 14 22 27 17 7 -3 50 -12 95 -21z m441 10 c2 -11 -226 -20 -251
-10 -7 2 -10 10 -7 15 9 14 254 9 258 -5z m-780 -134 c108 -44 233 -78 359
-97 159 -23 542 -15 676 14 179 39 352 111 444 183 21 17 41 29 44 27 8 -9
-85 -125 -139 -174 -44 -40 -717 -494 -732 -494 -5 0 -399 258 -576 377 -129
87 -211 161 -268 242 l-42 61 81 -54 c44 -30 113 -68 153 -85z m205 56 c4 -22
-27 -35 -38 -16 -10 15 7 42 24 36 6 -2 12 -11 14 -20z m930 -5 c2 -14 -2 -22
-12 -22 -19 0 -29 17 -22 36 8 22 30 12 34 -14z m-460 -63 c4 -19 -19 -31 -38
-19 -18 11 -4 42 17 38 10 -2 19 -10 21 -19z m-2741 -57 c112 -57 195 -164
224 -288 7 -32 10 -141 7 -319 l-3 -269 110 -18 c256 -40 231 -32 300 -103 72
-75 158 -120 259 -137 36 -6 66 -16 66 -22 0 -26 -22 -86 -31 -86 -10 0 -342
75 -1119 251 -146 33 -266 62 -268 63 -6 6 89 393 123 503 55 174 108 287 211
450 16 26 23 24 121 -25z m5603 -47 c68 -112 114 -216 160 -357 40 -122 136
-516 128 -524 -4 -3 -417 -99 -648 -149 -36 -8 -213 -48 -395 -90 -181 -41
-335 -75 -341 -75 -10 0 -40 88 -32 95 2 1 32 7 68 14 99 16 199 70 263 141
l53 59 175 28 174 28 -4 255 c-2 161 1 277 8 315 17 91 63 175 129 236 55 50
186 124 203 113 4 -2 31 -42 59 -89z m-4465 -264 c125 -58 212 -175 236 -318
32 -183 -82 -377 -261 -444 -234 -88 -483 44 -546 291 -32 127 1 265 89 365
120 138 320 182 482 106z m3436 23 c110 -33 191 -92 247 -182 49 -77 65 -142
60 -238 -4 -72 -10 -94 -42 -159 -47 -91 -112 -155 -204 -198 -61 -29 -76 -32
-163 -32 -90 0 -99 2 -171 38 -215 106 -300 338 -200 550 84 180 289 275 473
221z m-1785 -611 c32 -21 57 -79 51 -119 -11 -66 -57 -104 -125 -104 -144 2
-167 206 -27 243 27 7 75 -3 101 -20z m-2568 -224 c573 -130 717 -160 736
-151 17 8 26 24 36 71 l12 60 51 11 c27 6 52 9 54 7 5 -5 -62 -286 -71 -294
-6 -6 -1475 328 -1538 350 -16 5 -28 16 -28 26 0 24 20 81 28 81 4 0 328 -72
720 -161z m5738 111 c7 -24 11 -46 8 -49 -4 -5 -613 -147 -1266 -296 -164 -38
-300 -66 -303 -63 -7 6 -74 292 -70 296 1 1 25 -2 53 -9 l51 -10 11 -55 c12
-56 31 -84 57 -84 9 0 127 25 262 56 489 110 730 165 936 213 116 27 219 48
229 48 13 -2 23 -15 32 -47z m-6061 -190 c36 -8 66 -25 106 -60 51 -45 155
-103 253 -144 87 -36 321 -41 420 -10 53 17 60 17 134 0 166 -38 152 -30 152
-85 0 -107 -75 -261 -126 -261 -15 0 -49 26 -96 73 -82 80 -196 144 -309 173
-118 31 -383 5 -521 -50 -102 -41 -141 -34 -169 31 -37 86 -18 248 36 319 28
36 25 36 120 14z m5759 -12 c51 -68 71 -221 40 -312 -25 -73 -66 -82 -172 -40
-138 55 -402 81 -522 50 -112 -29 -226 -92 -309 -173 -47 -47 -82 -73 -96 -73
-50 0 -125 153 -125 255 0 62 -9 56 150 91 76 16 84 16 138 0 127 -38 338 -26
454 26 95 42 161 82 224 135 36 31 68 47 110 57 81 20 80 20 108 -16z m-4189
-28 c104 -39 249 -134 328 -216 l38 -39 -154 -3 c-199 -3 -224 4 -248 73 -9
28 -31 88 -48 135 -17 47 -31 86 -31 87 0 3 54 -14 115 -37z m2561 -110 c-43
-123 -44 -125 -81 -138 -26 -8 -87 -12 -194 -10 l-156 3 49 48 c47 47 111 94
204 151 65 40 216 97 220 82 1 -6 -17 -67 -42 -136z m-3866 89 l95 -23 -63 -9
c-72 -10 -106 -1 -144 40 -21 24 -21 25 -3 20 11 -3 63 -16 115 -28z m5230 16
c-7 -8 -27 -24 -46 -36 -29 -18 -42 -19 -106 -13 l-73 7 105 28 c128 33 137
34 120 14z m-4867 -102 c64 -14 117 -30 117 -34 0 -14 -114 -22 -227 -15 -103
6 -120 9 -181 41 l-67 34 120 1 c96 0 144 -5 238 -27z m4675 -8 c-61 -32 -78
-35 -181 -41 -113 -7 -227 1 -227 15 0 4 48 19 108 33 86 22 132 27 237 27
l130 0 -67 -34z m-3808 -71 c0 -8 -4 -12 -10 -9 -5 3 -10 10 -10 16 0 5 5 9
10 9 6 0 10 -7 10 -16z m2668 4 c-2 -6 -10 -14 -16 -16 -7 -2 -10 2 -6 12 7
18 28 22 22 4z m-1593 -366 l230 -118 3 -363 2 -363 -29 18 c-16 11 -173 114
-350 229 l-321 210 0 100 c-1 266 -29 419 -95 528 -19 32 -35 60 -35 62 0 2
82 -39 183 -90 100 -52 286 -148 412 -213z m1077 271 c-77 -110 -100 -206
-108 -459 l-7 -201 -41 -25 c-23 -14 -176 -114 -341 -223 -165 -109 -306 -200
-312 -202 -10 -4 -13 71 -13 355 l0 359 353 181 c193 100 381 197 417 216 35
19 66 33 68 31 2 -2 -5 -16 -16 -32z m-3048 -59 l70 -29 -109 -3 c-109 -3
-161 4 -265 35 l-55 17 35 7 c19 4 85 6 145 5 95 -3 119 -7 179 -32z m1373 24
c42 -66 99 -265 91 -321 l-3 -24 -141 28 c-133 26 -195 46 -209 69 -3 5 -15
56 -25 112 -11 57 -22 113 -25 126 l-5 22 154 0 c113 0 157 -3 163 -12z m2003
-5 c0 -10 -9 -69 -21 -131 -18 -98 -25 -115 -47 -130 -26 -17 -191 -58 -279
-68 l-53 -7 0 31 c0 73 48 241 86 300 14 21 20 22 164 22 136 0 150 -2 150
-17z m1385 8 l40 -7 -55 -17 c-105 -31 -146 -37 -260 -36 l-115 0 45 21 c25
11 63 26 85 34 44 14 197 17 260 5z m-5133 -32 c120 -40 237 -59 371 -59 148
0 160 -4 230 -79 49 -53 54 -68 36 -120 -13 -36 -13 -36 -138 -12 -101 20 -96
16 -183 120 -26 31 -31 32 -275 77 -136 25 -249 47 -251 49 -2 2 23 11 55 20
32 9 63 18 68 20 18 6 25 5 87 -16z m5344 -5 c31 -9 54 -17 52 -19 -2 -2 -115
-24 -250 -49 -260 -47 -259 -47 -306 -113 -38 -54 -72 -71 -176 -89 -53 -9
-100 -14 -103 -11 -2 3 -11 23 -18 44 -15 44 -10 57 43 109 71 70 83 74 227
74 136 0 258 20 365 58 59 22 81 21 166 -4z m-5421 -89 c376 -70 352 -62 411
-137 11 -15 43 -40 70 -56 49 -28 65 -55 46 -74 -20 -20 -86 13 -152 78 l-65
63 -190 35 c-386 72 -518 101 -528 117 -17 27 -1 49 30 44 15 -3 186 -34 378
-70z m5739 69 c19 -7 21 -40 4 -51 -16 -10 -66 -20 -423 -89 l-290 -56 -65
-62 c-70 -67 -130 -97 -155 -76 -21 17 -8 36 45 69 26 16 66 51 89 79 49 57 4
45 466 132 171 32 311 59 312 59 1 1 8 -2 17 -5z m-5764 -170 l315 -58 63 -63
c41 -41 76 -66 102 -74 23 -7 39 -17 37 -23 -2 -6 -35 -151 -72 -323 l-69
-312 -112 -56 c-106 -52 -179 -108 -216 -163 l-16 -24 -146 30 c-81 16 -148
31 -150 33 -4 5 -87 1031 -86 1072 0 22 4 27 18 23 9 -2 159 -31 332 -62z
m5740 29 c0 -20 -4 -87 -10 -147 -10 -110 -23 -266 -57 -693 l-18 -222 -65
-15 c-36 -8 -102 -22 -148 -31 l-83 -17 -22 29 c-47 61 -107 106 -213 159
l-111 55 -67 307 c-37 169 -70 314 -72 323 -3 11 7 19 34 27 25 8 60 34 100
74 l61 62 328 62 c180 34 331 63 336 63 4 1 7 -16 7 -36z m-4202 -60 c-3 -25
1 -28 86 -54 49 -15 105 -30 125 -34 l36 -6 -5 -167 c-4 -148 -7 -167 -22
-170 -23 -4 -170 34 -225 58 l-43 19 0 180 c0 161 2 181 18 190 27 16 33 13
30 -16z m2343 17 c18 -10 19 -23 19 -190 l0 -179 -30 -16 c-35 -18 -206 -65
-237 -65 -22 0 -22 2 -25 170 l-3 169 37 6 c20 4 77 19 125 35 83 26 88 29 85
54 -4 29 0 31 29 16z m-3026 -141 c3 -3 -292 -826 -299 -835 -1 -1 -31 3 -68
8 -66 10 -68 11 -68 40 0 16 -4 38 -10 48 -7 13 10 104 66 347 66 288 79 330
100 346 18 14 24 28 24 56 l0 37 125 -22 c69 -12 127 -23 130 -25z m3959 -44
c20 -17 35 -68 99 -350 46 -203 72 -334 66 -339 -5 -6 -9 -27 -9 -47 l0 -37
-67 -10 c-38 -5 -69 -9 -69 -8 -8 6 -303 831 -299 834 2 3 60 14 127 26 l123
21 3 -35 c2 -22 12 -43 26 -55z m-2874 48 c3 -2 4 -64 2 -137 -2 -132 -2 -133
23 -146 18 -9 25 -22 25 -42 0 -24 -3 -28 -22 -24 -13 3 -48 8 -78 11 -87 9
-85 4 -88 175 -5 181 -3 184 77 174 31 -3 58 -9 61 -11z m1632 4 c10 -10 12
-49 8 -173 l-5 -159 -40 -6 c-22 -4 -62 -9 -89 -10 -41 -2 -50 0 -52 15 -1 9
10 28 25 42 27 24 27 24 23 133 -2 60 -2 121 2 135 6 25 7 25 98 34 9 1 23 -4
30 -11z m-2235 -216 c130 -62 281 -157 392 -245 97 -78 182 -216 235 -384 25
-81 26 -90 24 -320 -1 -185 -3 -216 -8 -142 -21 287 -56 443 -130 590 -29 57
-109 166 -152 206 -43 41 -375 240 -442 265 -70 26 -91 42 -82 64 9 25 61 15
163 -34z m2867 43 c39 -15 -4 -55 -84 -79 -48 -15 -376 -212 -423 -254 -115
-104 -214 -293 -251 -481 -20 -102 -36 -254 -36 -339 0 -38 -5 -73 -10 -76 -7
-4 -9 71 -7 232 4 238 4 238 36 337 58 174 133 294 234 374 159 125 443 286
514 291 6 1 18 -2 27 -5z m-2899 -135 c110 -57 303 -180 360 -230 106 -93 200
-280 239 -473 9 -43 19 -144 23 -225 5 -121 11 -158 32 -216 24 -68 25 -79 28
-355 l3 -285 -59 -173 -59 -173 -42 82 c-89 176 -194 297 -324 374 -192 114
-365 145 -626 111 -58 -8 -106 -13 -107 -12 -2 2 53 216 281 1093 75 288 136
525 136 528 0 11 20 3 115 -46z m2928 -91 c20 -79 87 -334 147 -568 248 -949
242 -923 217 -916 -12 3 -82 11 -155 18 -219 20 -375 -10 -541 -105 -41 -23
-98 -64 -128 -91 -72 -65 -166 -193 -216 -295 l-41 -83 -61 181 -60 181 0 268
1 267 28 70 c24 61 29 91 37 230 14 244 49 384 136 538 76 138 194 237 443
372 58 31 112 60 120 65 8 5 20 9 25 9 6 1 27 -63 48 -141z m-3117 35 c-11
-11 -19 6 -11 24 8 17 8 17 12 0 3 -10 2 -21 -1 -24z m3174 11 c0 -8 -4 -14
-10 -14 -5 0 -10 9 -10 21 0 11 5 17 10 14 6 -3 10 -13 10 -21z m-2409 -117
c99 -90 109 -103 109 -135 0 -42 2 -42 -115 68 -44 42 -108 101 -143 131 l-62
56 50 -10 c45 -9 64 -22 161 -110z m490 -83 c179 -117 320 -203 329 -201 9 2
155 95 324 206 169 110 310 201 312 201 2 0 4 -153 4 -340 l0 -340 -95 0 -95
0 0 54 c0 34 -5 58 -14 65 -9 8 -43 11 -93 9 l-78 -3 -5 -65 -5 -65 -248 -2
c-136 -1 -255 1 -262 4 -10 3 -15 20 -15 53 0 78 -2 80 -88 80 -95 0 -112 -12
-112 -82 l0 -48 -95 0 -95 0 0 340 c0 189 4 340 9 340 5 0 150 -93 322 -206z
m1292 154 c-31 -29 -102 -95 -156 -145 -54 -51 -102 -93 -106 -93 -4 0 -8 14
-8 30 0 26 16 45 101 124 56 52 104 97 108 101 6 6 90 32 111 34 5 1 -18 -23
-50 -51z m-1718 -17 c33 -22 41 -33 43 -65 l3 -39 -23 19 c-14 11 -51 42 -83
71 l-58 52 39 -5 c21 -3 57 -18 79 -33z m1610 30 c-53 -49 -151 -131 -156
-131 -4 0 -5 14 -4 30 4 50 47 87 115 101 52 10 55 10 45 0z m-1565 -345 l-1
-41 -29 64 c-17 35 -30 66 -30 69 0 3 14 -7 30 -23 24 -23 30 -37 30 -69z
m1443 26 c-31 -70 -47 -80 -37 -24 5 31 51 98 61 89 1 -2 -9 -31 -24 -65z
m-3048 -62 c12 -20 -6 -47 -42 -64 -71 -34 -148 -91 -214 -158 l-65 -68 -170
31 c-178 32 -203 43 -183 81 10 18 17 19 67 13 32 -4 95 -15 142 -26 123 -27
133 -26 165 21 35 50 79 84 180 137 82 43 109 51 120 33z m4733 -29 c88 -44
153 -95 194 -151 l28 -38 111 24 c61 13 136 25 167 26 l57 3 0 -30 0 -30 -170
-32 c-93 -18 -177 -30 -185 -27 -8 2 -26 20 -40 38 -40 52 -128 123 -207 167
-48 27 -73 46 -73 58 0 42 21 41 118 -8z m-4787 -123 c-4 -51 -4 -52 -13 -20
-5 20 -5 39 2 52 6 11 12 20 13 20 1 0 0 -24 -2 -52z m166 37 c37 -6 50 -15
98 -73 30 -37 55 -69 55 -72 0 -3 -48 -24 -106 -46 l-105 -41 -23 36 c-31 50
-46 97 -46 145 0 51 15 69 55 62 17 -2 49 -8 72 -11z m4511 3 c20 -20 14 -99
-14 -158 -39 -84 -33 -82 -139 -39 -52 22 -102 39 -111 39 -18 0 -2 25 68 103
38 41 50 48 98 56 79 12 85 12 98 -1z m60 -44 l-3 -39 -5 47 c-3 26 -1 43 3
39 5 -5 7 -26 5 -47z m-4773 14 c-2 -7 -24 -119 -49 -248 -56 -287 -54 -280
-65 -280 -10 0 -10 -3 45 280 51 255 52 260 64 260 5 0 7 -6 5 -12z m4824 -35
c25 -108 91 -455 90 -475 -1 -49 -19 20 -64 252 -26 129 -48 243 -51 253 -3 9
-1 17 4 17 6 0 15 -21 21 -47z m-2721 -100 l3 -113 -65 0 c-49 0 -65 4 -70 16
-12 30 -7 189 6 202 8 8 34 12 68 10 l55 -3 3 -112z m722 22 c3 -49 2 -100 -2
-113 -7 -21 -13 -23 -70 -20 l-63 3 -3 90 c-4 136 -4 137 71 133 l62 -3 5 -90z
m-2885 43 c-12 -76 -76 -412 -81 -430 -3 -10 -13 -18 -23 -18 -21 0 -311 67
-317 73 -6 5 38 280 45 289 3 4 40 0 81 -7 41 -8 88 -17 104 -20 25 -4 37 4
106 75 43 44 81 80 85 80 4 0 4 -19 0 -42z m5014 -48 c56 -69 62 -71 176 -50
55 10 102 16 104 14 6 -5 51 -288 47 -292 -9 -8 -303 -72 -321 -70 -17 3 -24
26 -57 198 -20 107 -40 217 -43 244 l-7 49 34 -26 c19 -15 49 -45 67 -67z
m-4919 24 c12 -19 20 -37 17 -40 -6 -6 -47 50 -47 65 0 19 7 12 30 -25z m4740
-14 c-30 -43 -38 -30 -9 16 12 21 25 32 27 26 2 -6 -6 -26 -18 -42z m-4744
-38 c-10 -9 -36 14 -36 32 0 20 1 20 20 -4 10 -14 17 -26 16 -28z m4762 7
c-24 -16 -29 -9 -11 18 15 23 18 24 21 9 2 -10 -2 -22 -10 -27z m-4693 -62
c24 -35 18 -37 -42 -16 -66 22 -78 32 -70 53 5 14 11 13 52 0 25 -9 52 -26 60
-37z m4713 21 c-6 -15 -128 -62 -128 -49 0 21 40 56 76 66 41 12 60 6 52 -17z
m-4433 -110 c-4 -73 -9 -137 -12 -141 -8 -14 -95 3 -130 24 -32 20 -36 31 -58
150 l-7 37 64 20 c78 24 130 40 142 41 5 1 5 -56 1 -131z m4128 107 c88 -23
120 -42 114 -68 -3 -12 -11 -48 -17 -80 -10 -48 -17 -62 -42 -77 -28 -17 -124
-37 -133 -29 -2 2 -6 66 -11 143 -7 133 -6 138 12 132 11 -3 46 -13 77 -21z
m-2573 -30 c0 -58 17 -67 118 -63 l77 3 3 53 3 52 264 0 264 0 3 -52 3 -53 70
-3 c108 -5 115 -1 115 58 l0 50 95 0 95 0 0 -415 0 -415 -95 0 -95 0 0 53 c0
29 -5 58 -12 65 -7 7 -44 12 -95 12 l-83 0 0 -65 0 -65 -265 0 -264 0 -3 63
-3 62 -84 3 c-98 3 -110 -5 -111 -80 l0 -48 -95 0 -95 0 0 415 0 415 95 0 95
0 0 -45z m-1885 -14 c46 -18 72 -41 44 -41 -30 0 -119 35 -119 47 0 18 16 16
75 -6z m4768 4 c3 -13 -102 -48 -121 -40 -20 7 -13 13 44 35 52 20 74 21 77 5z
m-4774 -46 c43 -13 52 -25 26 -36 -17 -6 -105 24 -105 36 0 13 13 22 26 17 7
-3 30 -10 53 -17z m4781 6 c0 -16 -65 -47 -89 -43 -31 6 -19 25 26 40 62 21
63 21 63 3z m-4651 -148 c1 -24 -2 -27 -23 -21 -13 3 -33 1 -44 -5 -24 -13
-72 7 -72 30 0 8 14 28 31 45 17 16 43 47 57 69 l26 40 12 -65 c7 -36 13 -77
13 -93z m4548 62 c24 -25 43 -52 43 -60 0 -20 -50 -42 -66 -28 -7 6 -28 9 -46
7 -38 -3 -37 -7 -19 96 14 78 15 79 30 55 9 -13 35 -45 58 -70z m-4700 38 c25
-9 30 -15 23 -27 -8 -12 -10 -12 -16 4 -4 10 -10 13 -13 8 -7 -12 -51 3 -51
18 0 13 16 12 57 -3z m4813 5 c0 -5 -11 -14 -25 -20 -19 -9 -25 -9 -25 1 0 6
-5 4 -11 -6 -6 -9 -14 -15 -20 -12 -17 11 -9 22 24 33 41 13 57 14 57 4z
m-4846 -42 c22 -8 38 -40 21 -40 -12 0 -55 33 -55 41 0 11 3 11 34 -1z m4856
0 c0 -5 -13 -16 -30 -25 -27 -14 -30 -14 -30 0 0 9 10 20 23 25 30 12 37 12
37 0z m-5353 -42 c-3 -8 -6 -5 -6 6 -1 11 2 17 5 13 3 -3 4 -12 1 -19z m5820
0 c-3 -8 -6 -5 -6 6 -1 11 2 17 5 13 3 -3 4 -12 1 -19z m-5321 -2 c10 -8 16
-17 13 -21 -8 -7 -59 15 -59 27 0 13 24 10 46 -6z m4845 -6 c-25 -22 -41 -26
-41 -10 0 11 30 29 50 29 10 0 8 -6 -9 -19z m-4851 -30 c8 -5 12 -12 8 -15 -9
-9 -48 4 -48 16 0 12 21 11 40 -1z m4870 2 c0 -5 -11 -14 -25 -20 -20 -9 -25
-9 -25 2 0 14 14 24 38 25 6 1 12 -3 12 -7z m-4557 -35 c53 -13 53 -12 2 -92
-26 -42 -41 -55 -59 -55 -38 0 -50 23 -42 84 8 73 15 89 35 81 9 -4 37 -12 64
-18z m4291 7 c15 -38 18 -124 6 -139 -27 -33 -58 -18 -100 47 -22 33 -40 64
-40 67 0 5 79 31 121 40 4 0 10 -6 13 -15z m-4624 -4 c8 -5 12 -12 9 -15 -8
-8 -39 5 -39 16 0 11 11 11 30 -1z m92 -51 c-8 -30 -12 -34 -38 -31 -16 2 -30
5 -32 7 -5 5 17 46 36 68 13 15 18 16 29 4 11 -11 12 -23 5 -48z m4734 21 c15
-22 25 -42 23 -44 -2 -2 -18 -7 -35 -10 -30 -7 -31 -5 -37 30 -5 32 4 64 19
64 2 0 16 -18 30 -40z m60 18 c-10 -6 -20 -7 -24 -3 -9 8 20 25 31 18 5 -3 2
-10 -7 -15z m-4692 -4 c3 -9 6 -37 6 -63 0 -26 7 -56 15 -67 29 -39 14 -37
-28 4 -23 23 -50 42 -60 42 -21 0 -22 22 -1 66 18 37 57 47 68 18z m4538 -1
c9 -10 19 -33 23 -50 6 -28 4 -33 -12 -33 -10 0 -36 -18 -58 -40 -42 -43 -56
-46 -30 -6 11 17 16 38 13 58 -11 70 28 112 64 71z m-4987 -42 c70 -16 129
-32 133 -35 10 -10 -135 -6 -188 5 -52 11 -122 58 -88 59 9 0 74 -13 143 -29z
m245 20 c0 -5 -7 -14 -15 -21 -12 -10 -15 -10 -15 2 0 8 3 18 7 21 9 10 23 9
23 -2z m4919 -17 c3 -16 1 -17 -13 -5 -19 16 -21 34 -3 29 6 -3 14 -13 16 -24z
m361 16 c0 -32 -112 -63 -216 -58 l-69 3 125 32 c138 34 160 38 160 23z
m-5601 -64 c31 -9 94 -16 145 -17 85 -1 89 -1 61 -14 -56 -26 -230 -11 -267
22 -21 19 -26 52 -5 35 6 -5 36 -17 66 -26z m5597 -5 c-31 -35 -214 -52 -271
-26 -28 13 -24 13 61 14 86 1 187 21 209 42 17 17 18 -11 1 -30z m-5212 -10
c8 -12 -50 -35 -65 -25 -9 5 -7 11 6 21 21 15 51 17 59 4z m4815 0 c8 -5 11
-16 8 -25 -6 -14 -9 -14 -36 1 -16 10 -27 21 -25 25 7 11 36 10 53 -1z m-4700
-43 c17 -23 31 -49 31 -58 0 -10 -39 -35 -106 -68 -59 -29 -108 -51 -110 -49
-2 2 5 27 16 55 11 29 20 65 20 80 0 24 8 32 53 54 28 14 55 26 59 27 3 0 20
-18 37 -41z m4629 13 c45 -20 52 -27 52 -52 0 -16 9 -52 20 -81 11 -28 18 -53
16 -55 -2 -3 -206 94 -215 102 -14 14 50 121 68 113 3 -2 30 -14 59 -27z
m-4824 -16 c9 -13 16 -37 16 -52 0 -35 -45 -133 -61 -133 -9 0 -209 166 -209
174 0 1 26 0 58 -2 41 -3 71 2 107 16 66 26 70 26 89 -3z m5006 4 c40 -15 70
-20 113 -17 31 2 57 3 57 2 0 -1 -46 -41 -101 -90 -113 -98 -119 -99 -150 -24
-23 57 -23 94 -3 125 20 30 16 30 84 4z m290 16 c0 -5 -131 -93 -160 -109 -8
-4 8 14 37 41 28 27 67 53 85 59 18 6 34 12 36 13 1 0 2 -1 2 -4z m-5552 -62
c28 -25 52 -46 52 -49 0 -5 -112 64 -143 89 l-22 18 30 -7 c17 -4 54 -27 83
-51z m777 -182 c-3 -12 -11 -21 -16 -21 -14 0 -11 38 4 43 17 6 20 2 12 -22z
m3903 2 c-5 -23 -23 -20 -26 4 -3 18 0 21 13 17 9 -4 15 -13 13 -21z m-2260
-166 l3 -108 -68 3 -68 3 -3 94 c-3 115 2 123 77 119 l56 -3 3 -108z m716 105
c6 -10 11 -200 5 -206 -2 -2 -33 -6 -69 -7 l-65 -3 -3 90 c-4 132 -3 134 68
134 32 0 61 -4 64 -8z m-1929 -92 c73 -11 186 -48 245 -81 19 -11 54 -29 78
-40 127 -63 343 -388 346 -523 1 -44 -2 -52 -24 -63 -22 -11 -26 -10 -32 5 -4
9 -7 28 -7 42 -1 32 -77 199 -123 271 -48 75 -186 190 -279 233 -147 68 -208
81 -369 81 -132 -1 -152 -3 -224 -28 -84 -30 -103 -27 -93 15 18 70 275 117
482 88z m3350 -9 c17 -6 48 -15 70 -20 43 -11 85 -43 85 -64 -1 -36 -16 -38
-96 -11 -63 21 -104 28 -200 32 -107 4 -132 2 -222 -21 -55 -15 -131 -41 -167
-58 -70 -33 -192 -125 -243 -183 -62 -71 -151 -252 -166 -338 -8 -46 -16 -52
-44 -32 -35 24 -29 81 19 188 23 50 61 121 85 158 63 94 178 214 232 242 26
13 61 31 77 39 53 28 169 67 230 77 71 11 297 5 340 -9z m-2305 -86 c0 -55 15
-65 104 -65 91 0 96 3 96 61 l0 49 264 0 265 0 3 -52 3 -53 78 -3 c94 -3 107
4 107 64 l0 44 95 0 95 0 0 -245 0 -245 -54 0 c-86 0 -86 0 -86 -94 0 -75 -3
-86 -27 -119 l-28 -36 -452 -1 -452 0 -25 33 c-23 29 -26 44 -26 109 0 96 -8
106 -85 110 l-60 3 -3 243 -2 242 95 0 95 0 0 -45z m-1003 -60 c186 -54 366
-203 453 -375 58 -115 75 -192 75 -340 0 -113 -4 -147 -24 -210 -75 -243 -250
-419 -497 -502 -59 -20 -89 -23 -214 -23 -133 0 -152 2 -235 29 -273 90 -472
336 -505 624 -41 360 185 696 535 797 119 35 292 35 412 0z m3326 5 c263 -66
470 -273 537 -537 27 -104 27 -262 0 -367 -66 -260 -276 -470 -538 -537 -92
-23 -246 -25 -347 -4 -87 18 -232 89 -305 149 -109 90 -192 214 -240 356 -31
90 -38 276 -16 380 32 149 134 317 250 411 79 64 197 125 288 149 101 26 267
26 371 0z m-2607 -503 c-26 -54 -55 -103 -69 -111 -31 -21 -87 -32 -87 -17 0
6 11 11 25 11 52 0 95 77 82 147 -4 24 34 148 75 238 12 28 13 23 16 -71 l3
-101 -45 -96z m1509 173 c28 -78 38 -118 36 -157 -3 -80 32 -133 89 -133 12 0
18 -4 15 -11 -10 -15 -66 -1 -91 22 -12 11 -40 60 -64 110 -40 85 -43 95 -44
185 -2 139 4 138 59 -16z m-1309 -186 l1 -82 43 -46 44 -46 461 0 461 1 42 49
c42 49 42 49 42 129 l0 81 50 0 50 0 0 -105 0 -105 -66 -70 -66 -70 -512 0
-512 0 -67 68 -68 69 -6 90 c-8 119 -5 125 54 121 l48 -3 1 -81z m-310 -200
c27 -7 44 -43 44 -92 0 -54 -23 -82 -67 -82 -32 0 -35 2 -29 23 4 12 9 52 13
90 3 37 9 67 12 67 3 0 16 -3 27 -6z m1757 -66 c3 -40 7 -80 9 -88 2 -10 -7
-16 -29 -18 -41 -4 -63 27 -63 88 0 58 21 86 66 89 7 1 13 -28 17 -71z m-3342
-140 c32 -122 161 -311 270 -398 109 -88 233 -144 373 -170 82 -15 234 -8 321
14 148 39 320 152 441 290 50 57 72 67 94 41 18 -22 6 -55 -44 -123 -86 -117
-252 -223 -426 -272 -93 -27 -312 -38 -416 -21 -101 15 -215 56 -314 109 -143
79 -310 261 -356 389 -21 59 -18 139 6 163 29 29 38 25 51 -22z m4938 21 c20
-19 23 -29 19 -83 -12 -175 -224 -413 -453 -509 -153 -64 -196 -72 -390 -72
-168 1 -186 3 -270 29 -176 54 -328 154 -415 272 -45 60 -58 98 -40 119 22 27
40 16 117 -65 94 -100 176 -162 278 -211 101 -48 176 -68 287 -76 231 -16 473
83 630 258 71 78 161 228 184 307 8 28 19 52 23 52 4 0 18 -10 30 -21z m-3395
-180 c-4 -46 -9 -77 -12 -69 -7 23 -44 60 -60 60 -8 0 -12 6 -9 13 52 124 49
120 69 99 18 -17 19 -28 12 -103z m1886 -5 c0 -2 -6 -4 -13 -4 -15 0 -50 -36
-63 -65 -6 -14 -10 6 -12 69 -2 73 0 92 15 108 16 18 18 17 45 -43 15 -34 28
-63 28 -65z m-3569 -67 c-8 -8 -11 -7 -11 4 0 20 13 34 18 19 3 -7 -1 -17 -7
-23z m5179 7 c0 -8 -4 -12 -10 -9 -5 3 -10 13 -10 21 0 8 5 12 10 9 6 -3 10
-13 10 -21z m-5071 -41 c85 -140 269 -290 436 -354 304 -118 652 -80 919 98
45 30 91 67 104 84 13 16 27 29 31 29 7 0 -73 -696 -125 -1080 l-27 -205 -38
-47 c-90 -115 -112 -271 -53 -389 13 -26 13 -26 -54 -52 -107 -40 -99 -40
-113 1 -87 271 -371 469 -734 512 -338 41 -725 -105 -876 -329 -31 -47 -37
-51 -69 -49 -19 2 -34 8 -34 13 1 6 95 298 209 650 113 352 245 760 293 908
47 147 88 267 91 267 3 0 21 -26 40 -57z m5018 -10 c20 -67 225 -700 449
-1389 63 -194 114 -359 114 -368 0 -11 -9 -16 -33 -16 -26 0 -36 6 -51 31 -55
93 -217 217 -361 275 -139 57 -248 77 -415 77 -124 0 -161 -4 -255 -27 -296
-72 -519 -256 -594 -488 -14 -41 -6 -41 -113 -1 l-67 26 14 26 c28 55 40 147
27 208 -15 71 -52 149 -90 188 -28 29 -30 40 -56 235 -47 348 -134 1085 -129
1090 2 2 15 -9 28 -26 58 -74 265 -185 420 -225 125 -33 360 -33 482 -1 236
61 457 217 565 398 18 30 35 54 39 54 3 0 15 -30 26 -67z m-1593 -249 c18
-137 31 -252 29 -256 -2 -5 -20 -8 -39 -8 l-34 0 -1 243 c-1 133 -3 252 -4
265 -1 14 1 20 7 14 4 -4 23 -121 42 -258z m-1854 -4 l0 -260 -40 0 c-41 0
-41 0 -35 33 3 17 16 120 30 227 28 213 35 260 41 260 2 0 4 -117 4 -260z
m-97 -735 l-8 -210 -24 -3 c-34 -5 -40 7 -31 68 5 30 21 154 37 275 24 189 28
210 31 150 1 -38 -1 -164 -5 -280z m2050 -27 c25 -188 25 -188 -22 -188 -16 0
-19 15 -24 137 -4 75 -6 200 -6 277 l2 141 13 -95 c8 -52 25 -175 37 -272z
m-2142 -441 c-13 -13 -15 14 -3 64 l7 34 3 -44 c2 -24 -2 -49 -7 -54z m2198
21 c1 -16 -3 -28 -9 -28 -6 0 -10 24 -9 53 1 41 3 47 9 27 4 -14 8 -37 9 -52z
m-3165 -4 c313 -54 550 -236 631 -482 9 -29 23 -56 29 -58 11 -4 45 5 208 53
10 3 19 -3 23 -18 6 -17 2 -28 -17 -44 -28 -24 -236 -111 -244 -102 -3 3 -30
58 -60 124 -30 65 -71 142 -91 171 -84 122 -263 233 -443 273 -117 27 -361 30
-450 6 -148 -40 -268 -102 -380 -196 -72 -61 -92 -84 -135 -157 l-36 -61 -81
19 c-44 10 -84 21 -89 24 -14 8 -11 58 4 79 14 19 24 19 128 0 34 -7 36 -5 83
58 117 159 316 273 546 312 105 18 269 18 374 -1z m4469 5 c255 -38 462 -160
602 -354 l21 -28 67 13 c61 13 68 12 87 -5 20 -18 26 -50 12 -72 -4 -7 -45
-21 -90 -31 l-83 -20 -14 29 c-78 150 -243 283 -440 354 -166 60 -388 68 -579
20 -152 -39 -348 -166 -414 -269 -29 -45 -132 -260 -132 -275 0 -24 -29 -20
-128 20 -117 46 -154 72 -150 104 4 25 19 24 132 -10 49 -14 94 -24 102 -21 7
3 18 24 24 48 64 236 320 436 630 492 93 17 258 19 353 5z m-3513 -85 c75 -64
98 -190 51 -286 -23 -49 -75 -102 -94 -95 -6 2 -24 27 -40 56 -55 96 -48 241
15 321 13 16 26 29 30 29 3 1 21 -11 38 -25z m2276 -2 c62 -80 70 -218 18
-318 -17 -32 -35 -59 -41 -61 -17 -6 -72 47 -94 89 -46 91 -31 211 37 281 20
20 41 37 48 36 6 0 20 -12 32 -27z m-3214 -31 c130 -31 221 -73 319 -148 68
-51 150 -152 180 -219 35 -81 69 -167 66 -170 -8 -9 -29 22 -78 116 -44 85
-70 121 -136 188 -70 71 -97 90 -175 127 -125 58 -176 72 -317 86 -146 14
-227 4 -359 -45 -126 -46 -232 -115 -327 -211 -45 -44 -89 -86 -98 -94 -16
-12 -17 -12 -11 5 26 71 170 216 278 279 55 32 167 74 241 90 95 21 318 19
417 -4z m4592 -21 c114 -39 209 -98 311 -192 60 -56 140 -168 120 -168 -4 0
-48 42 -99 93 -107 108 -208 175 -335 222 -132 49 -216 60 -360 46 -193 -18
-339 -75 -460 -178 -76 -65 -105 -103 -172 -227 -42 -80 -79 -132 -79 -113 0
13 33 96 64 160 71 149 200 268 360 332 136 55 189 64 381 61 163 -2 174 -4
269 -36z m-4688 -35 c191 -31 338 -106 451 -229 52 -56 123 -167 123 -191 0
-5 -26 17 -57 47 -77 72 -135 111 -248 164 -273 130 -582 136 -872 20 -46 -18
-83 -32 -83 -30 0 8 133 106 180 132 105 58 244 95 378 101 18 0 75 -6 128
-14z m4604 -16 c103 -28 204 -78 280 -139 91 -72 92 -74 30 -47 -131 58 -311
97 -450 97 -41 0 -116 -7 -166 -15 -210 -34 -365 -105 -533 -245 l-64 -53 37
70 c143 271 534 421 866 332z m-4890 -152 c0 -29 18 -47 45 -47 28 0 45 18 45
49 l0 24 99 -6 c147 -10 310 -62 450 -144 37 -21 42 -28 30 -37 -27 -20 -30
-45 -9 -66 26 -26 44 -25 68 5 l19 24 70 -72 c81 -84 123 -143 164 -230 30
-65 63 -187 73 -270 6 -46 5 -47 -19 -41 -31 8 -55 -10 -55 -41 0 -30 24 -48
55 -43 21 4 25 1 25 -17 0 -12 -6 -28 -14 -34 -10 -8 -269 -10 -962 -9 l-949
3 -3 53 c-6 107 39 316 90 417 45 87 153 229 169 220 15 -10 47 14 57 43 25
73 285 200 472 231 81 13 80 13 80 -12z m68 0 c4 -20 -25 -34 -40 -19 -15 15
-1 44 19 40 10 -2 19 -11 21 -21z m4692 -1 c0 -55 69 -63 85 -9 9 31 11 32 50
27 141 -20 292 -76 414 -154 60 -39 86 -61 96 -86 10 -25 22 -36 43 -40 54
-11 162 -165 211 -300 33 -92 64 -268 59 -339 l-3 -50 -949 -3 c-693 -1 -952
1 -962 9 -8 6 -14 22 -14 34 0 18 4 21 25 17 31 -5 55 13 55 43 0 30 -24 49
-54 41 -25 -6 -25 -5 -20 46 20 192 106 369 245 507 59 59 64 61 73 42 5 -12
20 -24 33 -27 46 -12 71 40 37 77 -14 16 -11 20 43 51 85 50 168 83 264 106
110 27 122 29 202 31 64 1 67 0 67 -23z m57 13 c14 -14 6 -39 -12 -39 -18 0
-28 17 -21 35 6 18 18 19 33 4z m-3487 -192 c0 -27 -17 -47 -41 -47 -15 0 -16
3 -6 23 29 54 47 64 47 24z m2225 -8 c19 -35 15 -44 -14 -34 -15 4 -21 15 -21
36 0 38 15 37 35 -2z m-2842 -3 c8 -20 -20 -43 -35 -28 -14 14 -3 42 16 42 7
0 16 -6 19 -14z m3464 -2 c3 -8 1 -20 -5 -26 -15 -15 -43 8 -35 28 7 19 32 18
40 -2z m-4757 -24 c0 -13 -7 -20 -20 -20 -13 0 -20 7 -20 20 0 13 7 20 20 20
13 0 20 -7 20 -20z m6050 0 c0 -13 -7 -20 -20 -20 -13 0 -20 7 -20 20 0 13 7
20 20 20 13 0 20 -7 20 -20z m-4370 -327 c0 -119 -2 -214 -6 -211 -3 3 -14 47
-24 98 -13 62 -34 123 -67 188 -26 53 -49 100 -51 103 -1 3 10 4 25 2 16 -3
48 5 73 16 25 11 46 21 48 21 1 0 2 -98 2 -217z m2697 196 c26 -11 60 -19 76
-16 15 2 27 3 27 3 0 -1 -22 -44 -49 -96 -29 -58 -55 -127 -66 -175 -28 -129
-33 -139 -34 -64 -1 36 -4 134 -8 217 -3 84 -4 152 0 152 3 0 27 -9 54 -21z
m-2645 -559 l3 -120 -1007 0 c-1001 0 -1008 0 -1008 20 0 20 7 20 933 21 512
1 944 1 959 0 18 0 33 8 48 27 19 24 22 36 18 100 l-5 72 28 0 28 0 3 -120z
m2600 45 c-4 -69 -3 -78 18 -100 l23 -24 955 -1 c526 0 958 -2 960 -5 3 -2 2
-11 -1 -20 -6 -13 -115 -15 -1013 -15 l-1006 0 6 23 c3 12 6 66 6 120 l0 97
28 0 29 0 -5 -75z m-2712 20 c13 -16 6 -35 -15 -35 -18 0 -28 17 -21 35 7 19
20 19 36 0z m2808 -8 c4 -21 -25 -34 -40 -19 -8 8 -8 16 2 27 16 19 34 15 38
-8z"/>
<path d="M3640 9951 c-21 -40 -3 -88 23 -62 14 14 157 15 157 1 0 -5 6 -10 14
-10 18 0 27 36 16 66 -9 23 -14 24 -104 24 -84 0 -97 -2 -106 -19z"/>
<path d="M3188 9499 c-36 -21 -16 -79 27 -79 12 0 26 5 33 12 7 7 12 21 12 33
0 40 -35 56 -72 34z m50 -32 c4 -20 -25 -34 -40 -19 -15 15 -1 44 19 40 10 -2
19 -11 21 -21z"/>
<path d="M4241 9496 c-7 -8 -11 -27 -9 -43 6 -52 88 -40 88 13 0 38 -56 58
-79 30z m57 -29 c4 -20 -25 -34 -40 -19 -15 15 -1 44 19 40 10 -2 19 -11 21
-21z"/>
<path d="M3723 9429 c-17 -6 -23 -16 -23 -39 0 -23 6 -33 23 -39 37 -14 62 2
62 39 0 37 -25 53 -62 39z m47 -39 c0 -15 -7 -20 -25 -20 -18 0 -25 5 -25 20
0 15 7 20 25 20 18 0 25 -5 25 -20z"/>
<path d="M2780 9901 c-40 -11 -30 -35 18 -45 74 -16 147 21 87 44 -29 11 -67
12 -105 1z"/>
<path d="M2805 9666 c-25 -25 -25 -44 -2 -73 12 -16 59 -17 75 -1 20 20 14 65
-10 82 -30 21 -35 20 -63 -8z m55 -21 c15 -18 5 -35 -20 -35 -10 0 -22 5 -25
10 -7 11 12 40 25 40 4 0 13 -7 20 -15z"/>
<path d="M4597 9898 c-65 -23 33 -60 105 -39 22 7 38 17 35 24 -8 24 -91 33
-140 15z"/>
<path d="M4611 9664 c-25 -32 -25 -33 -5 -62 17 -24 62 -30 82 -10 20 20 14
65 -10 82 -31 22 -43 20 -67 -10z m60 -20 c11 -14 10 -18 -6 -30 -16 -12 -21
-12 -32 -1 -16 15 -7 47 12 47 7 0 19 -7 26 -16z"/>
<path d="M2306 9664 c-40 -40 7 -109 59 -86 32 15 41 47 21 77 -19 29 -57 33
-80 9z m64 -39 c0 -15 -27 -28 -41 -19 -13 8 -11 42 4 47 15 5 37 -11 37 -28z"/>
<path d="M5106 9664 c-22 -21 -20 -50 4 -74 24 -24 38 -25 68 -4 41 29 19 94
-33 94 -13 0 -31 -7 -39 -16z m62 -38 c-2 -13 -10 -21 -23 -21 -23 0 -33 34
-14 45 20 13 40 -1 37 -24z"/>
<path d="M2268 9339 c-27 -15 -24 -67 5 -78 49 -20 88 43 45 73 -26 19 -27 19
-50 5z m50 -36 c5 -17 -26 -29 -40 -15 -6 6 -7 15 -3 22 9 14 37 9 43 -7z"/>
<path d="M2142 8838 c-28 -28 -7 -78 33 -78 27 0 45 18 45 47 0 35 -53 56 -78
31z m56 -31 c4 -20 -25 -34 -39 -20 -14 14 1 45 20 41 9 -2 17 -11 19 -21z"/>
<path d="M2022 8258 c-18 -18 -14 -56 6 -67 44 -23 92 28 62 64 -15 18 -51 20
-68 3z m56 -25 c5 -17 -26 -29 -40 -15 -6 6 -7 15 -3 22 9 14 37 9 43 -7z"/>
<path d="M5170 9330 c-25 -25 -25 -35 -1 -59 23 -23 57 -18 71 10 12 22 4 46
-21 59 -24 13 -26 13 -49 -10z m50 -30 c0 -13 -7 -20 -20 -20 -13 0 -20 7 -20
20 0 13 7 20 20 20 13 0 20 -7 20 -20z"/>
<path d="M5286 8834 c-30 -30 -13 -74 29 -74 12 0 26 5 33 12 7 7 12 21 12 33
0 42 -44 59 -74 29z m52 -27 c4 -20 -25 -34 -39 -20 -14 14 1 45 20 41 9 -2
17 -11 19 -21z"/>
<path d="M5402 8258 c-19 -19 -14 -46 12 -63 36 -24 68 -5 64 38 -3 27 -7 32
-33 35 -17 2 -36 -3 -43 -10z m58 -28 c0 -13 -7 -20 -18 -20 -24 0 -32 8 -25
26 8 22 43 17 43 -6z"/>
<path d="M3626 9111 c-3 -4 -8 -115 -12 -245 l-7 -238 24 4 24 3 3 236 c2 202
0 238 -13 242 -8 4 -17 3 -19 -2z"/>
<path d="M3476 9048 c-19 -111 -43 -434 -34 -445 18 -23 37 -14 42 20 10 61
35 440 30 448 -12 20 -33 7 -38 -23z"/>
<path d="M3827 9103 c-2 -4 -1 -111 2 -238 6 -229 6 -230 29 -233 22 -3 22 -2
21 115 -1 65 -4 172 -8 238 -5 101 -9 120 -23 123 -9 2 -18 -1 -21 -5z"/>
<path d="M3975 9071 c-3 -5 2 -114 12 -241 17 -236 23 -259 56 -231 11 8 10
45 -5 203 -23 257 -27 278 -43 278 -8 0 -16 -4 -20 -9z"/>
<path d="M2614 7791 c-58 -36 -76 -69 -72 -133 5 -62 27 -96 80 -124 66 -34
153 -2 188 70 60 125 -79 258 -196 187z m142 -42 c91 -85 -2 -236 -117 -189
-89 37 -93 173 -5 211 33 14 96 3 122 -22z"/>
<path d="M2649 7725 c-15 -8 -30 -27 -33 -41 -16 -62 68 -110 113 -65 56 56
-11 143 -80 106z"/>
<path d="M3193 7448 c2 -7 48 -87 100 -178 53 -91 94 -166 92 -168 -1 -2 -21
5 -44 14 l-41 16 0 57 c0 34 -6 65 -14 77 -16 21 -17 20 -31 -68 -3 -21 -10
-38 -14 -38 -5 0 -60 22 -122 50 -62 27 -114 48 -116 46 -2 -1 139 -123 314
-269 174 -147 318 -265 320 -264 1 2 -30 118 -71 258 -40 140 -72 255 -71 257
1 1 18 -5 38 -13 49 -20 55 -19 49 10 -7 40 7 92 34 125 19 22 22 31 12 34
-14 4 -418 66 -432 66 -4 0 -6 -6 -3 -12z m247 -49 c80 -12 146 -23 148 -24 2
-2 -6 -20 -17 -41 -12 -21 -21 -49 -21 -61 0 -26 -14 -28 -50 -8 -33 19 -42
18 -36 -2 76 -273 127 -465 124 -468 -3 -2 -425 348 -452 375 -11 11 86 -29
227 -93 42 -20 77 -31 77 -25 0 7 -45 91 -100 189 -55 98 -100 181 -100 184 0
4 12 5 28 2 15 -3 92 -15 172 -28z"/>
<path d="M2321 7216 c-7 -8 -11 -27 -9 -43 2 -23 8 -29 35 -31 27 -3 35 1 45
22 9 22 8 29 -7 46 -21 24 -48 26 -64 6z m49 -37 c0 -23 -28 -26 -37 -3 -6 16
15 37 29 28 4 -3 8 -14 8 -25z"/>
<path d="M2817 6973 c-11 -11 -8 -58 5 -71 33 -33 91 16 68 57 -10 20 -58 30
-73 14z m53 -32 c0 -11 -5 -23 -11 -27 -15 -9 -33 12 -26 30 9 23 37 20 37 -3z"/>
<path d="M4245 7455 c-11 -5 -180 -30 -305 -47 -47 -6 -87 -12 -89 -14 -2 -2
8 -17 22 -34 28 -33 42 -85 35 -125 -6 -29 -2 -30 45 -10 20 8 38 15 40 15 3
0 -29 -114 -69 -252 -41 -139 -73 -256 -71 -260 1 -4 145 112 320 259 174 146
316 267 314 269 -1 2 -55 -19 -120 -47 -64 -28 -121 -48 -127 -44 -5 3 -10 23
-11 43 0 20 -4 46 -8 57 -7 19 -9 18 -22 -5 -8 -15 -12 -46 -10 -76 l3 -50
-43 -17 c-23 -9 -44 -15 -46 -14 -1 2 42 81 97 175 55 95 100 174 100 177 0 6
-40 5 -55 0z m5 -30 c0 -2 -45 -84 -100 -182 -55 -98 -100 -181 -100 -185 0
-14 17 -8 160 57 79 36 145 64 147 62 1 -2 -100 -90 -227 -195 -126 -106 -230
-187 -230 -182 0 9 62 237 126 463 6 21 1 21 -37 1 -31 -16 -65 -12 -54 6 3 5
-3 31 -15 56 -11 26 -19 48 -18 49 4 3 308 52 331 54 9 0 17 -1 17 -4z"/>
<path d="M5107 7212 c-34 -37 -11 -76 40 -70 23 2 29 9 31 33 6 48 -40 71 -71
37z m53 -28 c0 -19 -28 -30 -42 -16 -8 8 -8 15 1 26 14 17 41 10 41 -10z"/>
<path d="M4600 6960 c-15 -29 -3 -59 26 -66 30 -8 54 11 54 40 0 46 -59 64
-80 26z m57 -16 c7 -20 -17 -37 -34 -23 -15 13 -6 39 13 39 8 0 17 -7 21 -16z"/>
<path d="M2870 8652 c-38 -13 -41 -67 -5 -84 50 -23 87 48 40 77 -11 7 -27 10
-35 7z m38 -39 c5 -17 -26 -29 -40 -15 -6 6 -7 15 -3 22 9 14 37 9 43 -7z"/>
<path d="M4582 8644 c-44 -31 -12 -95 38 -79 21 7 36 46 25 64 -14 24 -42 30
-63 15z m46 -31 c5 -17 -26 -29 -40 -15 -6 6 -7 15 -3 22 9 14 37 9 43 -7z"/>
<path d="M3246 8217 c-12 -9 -17 -23 -14 -42 2 -25 8 -31 33 -33 50 -6 67 43
27 76 -20 15 -24 15 -46 -1z m44 -37 c0 -13 -7 -20 -20 -20 -13 0 -20 7 -20
20 0 13 7 20 20 20 13 0 20 -7 20 -20z"/>
<path d="M4189 8211 c-21 -16 -22 -22 -11 -45 13 -28 49 -35 70 -14 18 18 14
56 -7 68 -25 13 -25 13 -52 -9z m51 -26 c0 -21 -30 -31 -40 -14 -11 17 -3 29
21 29 10 0 19 -7 19 -15z"/>
<path d="M3707 7923 c-16 -15 -6 -63 14 -74 44 -23 82 16 63 65 -6 16 -64 23
-77 9z m63 -33 c0 -15 -7 -20 -25 -20 -18 0 -25 5 -25 20 0 15 7 20 25 20 18
0 25 -5 25 -20z"/>
<path d="M1904 7960 c-112 -23 -215 -104 -266 -208 -31 -63 -33 -72 -33 -177
0 -106 1 -112 34 -173 125 -231 441 -278 615 -92 164 175 142 437 -47 580 -81
61 -207 90 -303 70z m218 -67 c139 -62 227 -229 197 -374 -59 -284 -402 -380
-594 -166 -89 98 -114 246 -62 360 83 182 282 260 459 180z"/>
<path d="M2026 7879 c-24 -34 -3 -69 42 -69 14 0 26 9 34 25 9 21 8 28 -7 45
-23 26 -50 25 -69 -1z m51 -10 c14 -14 6 -39 -12 -39 -18 0 -28 17 -21 35 6
18 18 19 33 4z"/>
<path d="M1671 7708 c-10 -28 -4 -45 19 -58 38 -20 80 22 60 60 -16 29 -68 27
-79 -2z m62 -12 c7 -18 -1 -26 -25 -26 -11 0 -18 7 -18 20 0 23 35 28 43 6z"/>
<path d="M2200 7491 c-20 -38 21 -82 59 -62 44 24 31 81 -19 81 -19 0 -33 -7
-40 -19z m60 -21 c0 -13 -7 -20 -20 -20 -13 0 -20 7 -20 20 0 13 7 20 20 20
13 0 20 -7 20 -20z"/>
<path d="M1862 7338 c-19 -19 -14 -46 12 -63 43 -29 80 8 60 59 -7 19 -55 21
-72 4z m56 -31 c2 -11 -3 -17 -17 -17 -23 0 -35 15 -26 31 10 15 39 6 43 -14z"/>
<path d="M5440 7960 c-120 -25 -227 -109 -278 -218 -24 -50 -27 -69 -27 -157
1 -121 22 -185 89 -261 149 -169 415 -171 570 -3 111 119 133 285 58 437 -34
70 -125 154 -195 181 -66 24 -157 33 -217 21z m210 -66 c97 -44 173 -133 196
-231 29 -126 -11 -250 -111 -341 -130 -119 -330 -114 -459 11 -80 79 -101 131
-101 247 0 78 5 103 23 141 88 178 279 251 452 173z"/>
<path d="M5396 7879 c-24 -34 -3 -69 42 -69 14 0 26 9 34 25 9 21 8 28 -7 45
-23 26 -50 25 -69 -1z m52 -27 c2 -14 -2 -22 -12 -22 -19 0 -29 17 -22 36 8
22 30 12 34 -14z"/>
<path d="M5747 7723 c-15 -14 -7 -63 12 -73 39 -20 82 22 61 60 -10 20 -58 28
-73 13z m53 -33 c0 -13 -7 -20 -20 -20 -13 0 -20 7 -20 20 0 13 7 20 20 20 13
0 20 -7 20 -20z"/>
<path d="M5233 7509 c-17 -6 -23 -16 -23 -38 0 -55 68 -64 85 -11 11 36 -24
64 -62 49z m42 -39 c0 -8 -10 -16 -22 -18 -18 -3 -23 2 -23 18 0 16 5 21 23
18 12 -2 22 -10 22 -18z"/>
<path d="M5560 7335 c-7 -8 -10 -25 -6 -39 11 -45 71 -45 82 0 8 30 -11 54
-41 54 -12 0 -28 -7 -35 -15z m58 -22 c5 -17 -26 -29 -40 -15 -6 6 -7 15 -3
22 9 14 37 9 43 -7z"/>
<path d="M3059 6414 c-19 -52 44 -87 75 -42 20 28 20 33 0 52 -25 26 -63 20
-75 -10z m58 -10 c8 -21 -13 -42 -28 -27 -13 13 -5 43 11 43 6 0 13 -7 17 -16z"/>
<path d="M3352 5994 c-32 -22 -30 -71 3 -86 60 -27 107 49 53 86 -12 9 -25 16
-28 16 -3 0 -16 -7 -28 -16z m48 -29 c15 -18 5 -35 -20 -35 -10 0 -22 5 -25
10 -7 11 12 40 25 40 4 0 13 -7 20 -15z"/>
<path d="M4348 6415 c-9 -21 -8 -28 7 -45 33 -37 75 -19 75 31 0 45 -63 56
-82 14z m59 -11 c9 -23 -13 -40 -32 -24 -12 10 -13 16 -4 26 15 18 28 18 36
-2z"/>
<path d="M4073 5986 c-27 -24 -27 -26 -13 -53 21 -37 62 -43 84 -11 21 30 20
44 -4 68 -26 26 -33 25 -67 -4z m55 -32 c2 -12 -4 -24 -12 -27 -19 -7 -40 18
-32 39 8 22 40 13 44 -12z"/>
<path d="M977 6463 c-4 -3 -7 -18 -7 -33 0 -49 42 -66 75 -30 26 29 7 70 -33
70 -16 0 -32 -3 -35 -7z m56 -27 c8 -20 -20 -43 -35 -28 -14 14 -3 42 16 42 7
0 16 -6 19 -14z"/>
<path d="M1452 6268 c-7 -7 -12 -21 -12 -33 0 -44 60 -63 80 -26 14 27 13 37
-6 55 -18 19 -45 21 -62 4z m47 -22 c9 -10 8 -16 -4 -26 -19 -16 -41 1 -32 24
8 20 21 20 36 2z"/>
<path d="M1325 5700 c-15 -17 -16 -24 -7 -46 10 -21 18 -25 45 -22 27 3 32 7
35 33 3 19 -2 33 -14 42 -25 18 -38 16 -59 -7z m55 -26 c0 -20 -30 -30 -40
-13 -11 17 7 40 26 32 8 -3 14 -12 14 -19z"/>
<path d="M870 5515 c-17 -20 -5 -62 20 -70 44 -14 80 41 48 73 -17 17 -53 15
-68 -3z m58 -22 c5 -17 -26 -29 -40 -15 -6 6 -7 15 -3 22 9 14 37 9 43 -7z"/>
<path d="M6440 6455 c-19 -22 -4 -64 25 -71 31 -8 55 10 55 40 0 43 -53 63
-80 31z m57 -21 c3 -8 1 -20 -6 -27 -14 -14 -47 15 -37 32 10 16 36 13 43 -5z"/>
<path d="M5978 6269 c-36 -21 -16 -79 27 -79 12 0 26 5 33 12 7 7 12 21 12 33
0 40 -35 56 -72 34z m50 -32 c4 -21 -25 -34 -40 -19 -8 8 -8 16 2 27 16 19 34
15 38 -8z"/>
<path d="M6100 5700 c-25 -25 -25 -35 -1 -59 40 -40 97 8 66 55 -19 29 -38 31
-65 4z m50 -31 c0 -12 -7 -19 -20 -19 -22 0 -29 35 -7 43 18 6 27 -2 27 -24z"/>
<path d="M6546 5514 c-20 -51 17 -88 60 -59 42 27 25 75 -27 75 -15 0 -29 -7
-33 -16z m59 -24 c0 -8 -10 -16 -22 -18 -22 -3 -32 16 -16 32 12 11 38 2 38
-14z"/>
<path d="M1750 6284 c-10 -11 -11 -23 -4 -42 17 -48 84 -38 84 12 0 43 -53 63
-80 30z m57 -20 c3 -8 1 -20 -5 -26 -15 -15 -43 8 -35 28 7 19 32 18 40 -2z"/>
<path d="M5672 6288 c-17 -17 -15 -53 3 -68 20 -17 62 -5 70 20 14 44 -41 80
-73 48z m45 -24 c8 -21 -13 -42 -28 -27 -13 13 -5 43 11 43 6 0 13 -7 17 -16z"/>
<path d="M2606 5757 c-12 -9 -17 -23 -14 -42 3 -26 8 -30 35 -33 27 -3 35 1
45 22 9 22 8 29 -7 46 -21 23 -34 25 -59 7z m48 -48 c-9 -15 -34 -10 -41 7 -9
23 19 38 34 17 7 -9 10 -20 7 -24z"/>
<path d="M2862 5138 c-36 -36 7 -91 54 -69 42 19 26 81 -21 81 -12 0 -26 -5
-33 -12z m54 -19 c3 -6 0 -17 -7 -25 -18 -17 -44 -2 -36 20 7 18 33 21 43 5z"/>
<path d="M2315 4620 c-15 -17 -16 -24 -7 -45 19 -42 82 -31 82 14 0 50 -42 68
-75 31z m53 -23 c4 -22 -27 -35 -38 -16 -10 15 7 42 24 36 6 -2 12 -11 14 -20z"/>
<path d="M2806 4269 c-23 -33 -6 -64 34 -64 24 0 35 6 41 21 9 27 -14 64 -41
64 -10 0 -26 -10 -34 -21z m52 -27 c3 -17 -2 -22 -17 -22 -14 0 -21 6 -21 18
0 38 33 41 38 4z"/>
<path d="M4826 5751 c-22 -24 -18 -49 9 -67 18 -12 24 -11 43 2 26 18 28 46 6
68 -21 21 -37 20 -58 -3z m50 -40 c-9 -14 -33 -14 -41 -1 -4 6 -1 18 6 26 11
13 14 13 27 0 8 -8 11 -19 8 -25z"/>
<path d="M4562 5138 c-17 -17 -15 -53 3 -68 38 -31 96 27 65 65 -15 18 -51 20
-68 3z m54 -19 c3 -6 0 -17 -7 -25 -18 -17 -44 -2 -36 20 7 18 33 21 43 5z"/>
<path d="M5112 4628 c-17 -17 -15 -65 4 -72 51 -20 88 17 59 60 -17 26 -44 31
-63 12z m45 -19 c14 -14 6 -39 -12 -39 -18 0 -28 17 -21 35 6 18 18 19 33 4z"/>
<path d="M4615 4270 c-27 -30 -7 -70 35 -70 24 0 31 5 36 27 13 52 -36 82 -71
43z m53 -29 c-5 -24 -38 -27 -38 -3 0 10 3 21 6 25 11 11 35 -5 32 -22z"/>
<path d="M3347 5572 c-32 -35 -11 -92 33 -92 45 0 66 62 32 93 -24 22 -45 21
-65 -1z m57 -28 c8 -21 -1 -34 -24 -34 -10 0 -21 4 -24 9 -10 16 5 41 24 41
10 0 21 -7 24 -16z"/>
<path d="M4070 5570 c-11 -11 -20 -26 -20 -33 0 -22 31 -57 51 -57 23 0 59 34
59 55 0 19 -36 55 -55 55 -8 0 -24 -9 -35 -20z m58 -33 c4 -20 -25 -34 -40
-19 -15 15 -1 44 19 40 10 -2 19 -11 21 -21z"/>
<path d="M1110 5010 c-15 -29 -3 -59 26 -66 30 -8 54 11 54 40 0 46 -59 64
-80 26z m57 -16 c9 -23 -13 -40 -32 -24 -12 10 -13 16 -4 26 15 18 28 18 36
-2z"/>
<path d="M6312 5018 c-26 -26 -7 -78 28 -78 19 0 50 30 50 48 0 32 -54 54 -78
30z m47 -22 c9 -10 8 -16 -4 -26 -19 -16 -41 1 -32 24 8 20 21 20 36 2z"/>
<path d="M3347 5112 c-32 -35 -11 -92 33 -92 47 0 67 67 28 94 -29 21 -41 20
-61 -2z m56 -24 c7 -21 -4 -38 -23 -38 -23 0 -32 13 -24 34 7 19 40 21 47 4z"/>
<path d="M4070 5110 c-11 -11 -20 -26 -20 -33 0 -22 31 -57 51 -57 23 0 59 34
59 55 0 8 -9 24 -20 35 -11 11 -27 20 -35 20 -8 0 -24 -9 -35 -20z m58 -33 c4
-20 -25 -34 -40 -19 -15 15 -1 44 19 40 10 -2 19 -11 21 -21z"/>
<path d="M3346 4694 c-24 -24 -20 -61 9 -80 23 -15 27 -15 50 0 30 20 33 56 7
79 -23 21 -46 22 -66 1z m58 -30 c8 -21 -1 -34 -24 -34 -20 0 -30 17 -22 38 6
17 39 15 46 -4z"/>
<path d="M4070 4690 c-11 -11 -20 -27 -20 -35 0 -8 9 -24 20 -35 11 -11 27
-20 35 -20 8 0 24 9 35 20 11 11 20 27 20 35 0 8 -9 24 -20 35 -11 11 -27 20
-35 20 -8 0 -24 -9 -35 -20z m58 -33 c4 -20 -25 -34 -40 -19 -15 15 -1 44 19
40 10 -2 19 -11 21 -21z"/>
<path d="M3346 4234 c-32 -31 -10 -94 33 -94 23 0 51 31 51 57 0 23 -29 53
-53 53 -8 0 -23 -7 -31 -16z m57 -26 c7 -21 -4 -38 -23 -38 -10 0 -20 6 -23
13 -7 20 4 37 23 37 10 0 20 -6 23 -12z"/>
<path d="M4070 4230 c-11 -11 -20 -27 -20 -35 0 -8 9 -24 20 -35 11 -11 27
-20 35 -20 18 0 55 35 55 53 0 22 -31 57 -51 57 -10 0 -28 -9 -39 -20z m58
-33 c4 -20 -25 -34 -40 -19 -15 15 -1 44 19 40 10 -2 19 -11 21 -21z"/>
<path d="M3346 3814 c-24 -24 -20 -61 9 -80 23 -15 27 -15 50 0 46 30 26 96
-29 96 -8 0 -22 -7 -30 -16z m57 -28 c6 -15 -11 -36 -29 -36 -14 0 -27 28 -18
41 8 14 41 11 47 -5z"/>
<path d="M4064 3805 c-19 -29 -11 -60 18 -76 26 -14 64 2 73 31 9 30 -19 70
-50 70 -15 0 -31 -10 -41 -25z m63 -39 c-8 -20 -36 -21 -43 -1 -4 8 0 22 7 31
11 13 14 13 27 0 8 -8 12 -22 9 -30z"/>
<path d="M1920 4214 c-238 -45 -454 -245 -514 -475 -94 -362 115 -718 478
-816 97 -26 252 -21 351 11 207 66 364 220 436 426 20 56 23 85 23 205 0 132
-2 144 -31 222 -74 194 -222 338 -413 404 -50 17 -92 23 -185 25 -66 1 -131 0
-145 -2z m324 -62 c102 -35 177 -85 253 -165 113 -121 167 -259 166 -427 -1
-125 -24 -210 -84 -312 -40 -67 -56 -85 -44 -49 10 34 -40 65 -71 43 -35 -24
-10 -87 31 -79 32 6 23 -11 -31 -58 -67 -60 -160 -113 -239 -138 -94 -29 -273
-31 -355 -3 -171 58 -303 167 -378 313 -23 44 -42 85 -42 90 0 5 12 9 26 8 33
0 55 31 43 63 -6 16 -17 22 -38 22 -16 0 -33 -5 -37 -12 -25 -40 -32 165 -9
257 28 112 91 222 171 302 171 168 412 223 638 145z m-749 -737 c0 -28 -29
-25 -33 3 -3 19 0 23 15 20 10 -2 18 -12 18 -23z m1012 -201 c8 -21 -13 -42
-28 -27 -13 13 -5 43 11 43 6 0 13 -7 17 -16z"/>
<path d="M2112 4148 c-32 -32 4 -87 48 -73 25 8 37 50 20 70 -15 18 -51 20
-68 3z m54 -19 c3 -6 0 -17 -7 -25 -18 -17 -44 -2 -36 20 7 18 33 21 43 5z"/>
<path d="M1546 3914 c-19 -18 -20 -28 -6 -55 20 -37 80 -18 80 26 0 42 -44 59
-74 29z m51 -20 c9 -23 -13 -40 -32 -24 -12 10 -13 16 -4 26 15 18 28 18 36
-2z"/>
<path d="M2562 3718 c-26 -26 -7 -78 28 -78 9 0 25 9 35 20 37 41 -24 97 -63
58z m51 -22 c8 -20 -20 -43 -35 -28 -14 14 -3 42 16 42 7 0 16 -6 19 -14z"/>
<path d="M1898 3069 c-36 -21 -16 -79 27 -79 44 0 63 60 26 80 -24 12 -31 12
-53 -1z m42 -24 c13 -16 6 -35 -15 -35 -18 0 -28 17 -21 35 7 19 20 19 36 0z"/>
<path d="M5273 4201 c-238 -70 -413 -251 -468 -484 -22 -92 -19 -237 6 -327
64 -231 242 -405 479 -466 85 -22 234 -22 320 1 318 83 534 401 489 721 -21
152 -83 279 -190 384 -74 74 -148 121 -247 158 -93 34 -295 41 -389 13z m276
-22 c293 -47 522 -318 520 -614 0 -79 -12 -146 -21 -122 -11 25 -64 23 -78 -4
-17 -30 13 -73 46 -66 21 4 24 1 18 -17 -20 -67 -85 -167 -149 -231 -235 -236
-605 -245 -859 -23 -59 52 -69 70 -36 61 40 -11 68 45 38 75 -31 31 -86 -2
-72 -45 12 -38 -37 33 -70 102 -117 239 -68 522 123 711 148 146 337 206 540
173z m479 -761 c-2 -13 -10 -23 -18 -23 -8 0 -16 10 -18 23 -3 17 2 22 18 22
16 0 21 -5 18 -22z m-1011 -204 c8 -21 -13 -42 -28 -27 -13 13 -5 43 11 43 6
0 13 -7 17 -16z"/>
<path d="M5310 4145 c-17 -20 -5 -62 20 -70 44 -14 80 41 48 73 -17 17 -53 15
-68 -3z m55 -15 c4 -6 1 -18 -6 -26 -11 -13 -14 -13 -27 0 -8 8 -11 19 -8 25
9 14 33 14 41 1z"/>
<path d="M5876 3908 c-13 -19 -14 -25 -2 -43 17 -26 49 -31 70 -10 20 21 20
39 0 59 -22 22 -50 20 -68 -6z m52 -26 c2 -14 -2 -22 -12 -22 -19 0 -29 17
-22 36 8 22 30 12 34 -14z"/>
<path d="M4860 3715 c-17 -20 -5 -62 20 -70 44 -14 80 41 48 73 -17 17 -53 15
-68 -3z m57 -21 c7 -20 -17 -37 -34 -23 -15 13 -6 39 13 39 8 0 17 -7 21 -16z"/>
<path d="M5532 3068 c-7 -7 -12 -21 -12 -33 0 -12 5 -26 12 -33 27 -27 78 -7
78 29 0 39 -52 63 -78 37z m54 -47 c-10 -16 -36 -13 -43 5 -8 22 18 37 36 20
7 -8 10 -19 7 -25z"/>
<path d="M1482 2788 c-17 -17 -15 -53 3 -68 20 -17 62 -5 70 20 14 44 -41 80
-73 48z m48 -27 c0 -11 -5 -23 -11 -27 -15 -9 -33 12 -26 30 9 23 37 20 37 -3z"/>
<path d="M2566 2777 c-12 -9 -17 -23 -14 -42 3 -27 7 -30 38 -30 31 0 35 3 38
28 6 48 -26 70 -62 44z m44 -38 c0 -25 -33 -22 -38 4 -2 12 3 17 17 17 15 0
21 -6 21 -21z"/>
<path d="M2055 2630 c-35 -39 17 -92 61 -62 19 13 23 39 8 61 -19 26 -46 27
-69 1z m50 -26 c0 -10 -8 -20 -17 -22 -18 -3 -26 27 -11 42 12 11 28 0 28 -20z"/>
<path d="M1266 1804 c-41 -41 2 -101 50 -69 29 18 31 46 6 68 -23 21 -36 21
-56 1z m49 -34 c0 -22 -39 -19 -43 3 -3 15 1 18 20 15 12 -2 23 -10 23 -18z"/>
<path d="M1892 1738 c-17 -17 -15 -53 3 -68 8 -7 25 -10 40 -6 24 6 30 21 25
56 -4 29 -46 40 -68 18z m45 -24 c8 -21 -13 -42 -28 -27 -13 13 -5 43 11 43 6
0 13 -7 17 -16z"/>
<path d="M782 1598 c-17 -17 -15 -53 3 -68 36 -30 87 18 64 62 -11 20 -49 24
-67 6z m45 -24 c8 -21 -13 -42 -28 -27 -13 13 -5 43 11 43 6 0 13 -7 17 -16z"/>
<path d="M2330 1315 c-17 -20 -5 -62 20 -70 44 -14 80 41 48 73 -17 17 -53 15
-68 -3z m55 -15 c4 -6 1 -18 -6 -26 -11 -13 -14 -13 -27 0 -8 8 -11 19 -8 25
9 14 33 14 41 1z"/>
<path d="M5940 2785 c-31 -38 27 -96 65 -65 18 15 20 51 3 68 -17 17 -53 15
-68 -3z m57 -21 c3 -8 1 -20 -5 -26 -15 -15 -43 8 -35 28 7 19 32 18 40 -2z"/>
<path d="M4866 2774 c-19 -18 -19 -16 -6 -48 7 -20 17 -26 39 -26 43 0 59 60
22 80 -27 14 -37 13 -55 -6z m54 -29 c0 -9 -7 -18 -16 -22 -18 -7 -39 11 -30
26 11 17 46 13 46 -4z"/>
<path d="M5366 2629 c-21 -31 -6 -63 32 -67 42 -4 61 28 37 64 -19 30 -49 31
-69 3z m52 -27 c3 -17 -2 -22 -17 -22 -14 0 -21 6 -21 18 0 38 33 41 38 4z"/>
<path d="M6166 1804 c-22 -22 -20 -50 6 -68 12 -9 26 -16 30 -16 14 0 38 32
38 50 0 22 -25 50 -45 50 -7 0 -21 -7 -29 -16z m52 -31 c5 -17 -26 -29 -40
-15 -6 6 -7 15 -3 22 9 14 37 9 43 -7z"/>
<path d="M5536 1734 c-19 -18 -20 -28 -6 -55 20 -37 80 -18 80 26 0 42 -44 59
-74 29z m51 -20 c9 -23 -13 -40 -32 -24 -12 10 -13 16 -4 26 15 18 28 18 36
-2z"/>
<path d="M6640 1590 c-15 -29 -3 -59 26 -66 30 -8 54 11 54 40 0 46 -59 64
-80 26z m57 -16 c3 -8 1 -20 -5 -26 -15 -15 -43 8 -35 28 7 19 32 18 40 -2z"/>
<path d="M5092 1318 c-21 -21 -14 -57 13 -70 22 -10 29 -9 47 10 19 18 20 25
10 47 -13 27 -49 34 -70 13z m54 -19 c3 -6 0 -17 -7 -25 -18 -17 -44 -2 -36
20 7 18 33 21 43 5z"/>
</g>
</svg>
