<?xml version="1.0" standalone="no"?>
<!DOCTYPE svg PUBLIC "-//W3C//DTD SVG 20010904//EN"
 "http://www.w3.org/TR/2001/REC-SVG-20010904/DTD/svg10.dtd">
<svg version="1.0" xmlns="http://www.w3.org/2000/svg"
 width="735.000000pt" height="1102.000000pt" viewBox="0 0 735.000000 1102.000000"
 preserveAspectRatio="xMidYMid meet">

<g transform="translate(0.000000,1102.000000) scale(0.100000,-0.100000)"
fill="#000000" stroke="none">
<path d="M59 10997 c-67 -45 -75 -139 -18 -196 106 -106 277 28 199 156 -38
63 -120 81 -181 40z"/>
<path d="M7163 11006 c-39 -18 -63 -53 -70 -104 -18 -134 166 -195 237 -79 24
38 25 75 6 122 -26 61 -108 90 -173 61z"/>
<path d="M3623 10122 c-26 -4 -79 -52 -88 -81 -3 -11 -9 -20 -13 -19 -24 5
-126 -17 -139 -31 -13 -12 -37 -16 -115 -16 -54 0 -98 -3 -98 -7 0 -3 -11 -1
-25 5 -14 7 -25 15 -25 20 0 11 -463 8 -498 -4 -31 -11 -58 -59 -46 -83 3 -6
0 -4 -8 4 -19 22 -88 26 -88 6 0 -14 -12 -20 -32 -17 -5 0 -8 -3 -8 -8 0 -4
-12 -7 -27 -5 -30 3 -59 -21 -65 -52 -4 -25 -23 -44 -43 -44 -9 0 -26 -10 -38
-22 -13 -13 -26 -23 -29 -23 -9 0 -65 -51 -75 -69 -6 -12 -32 -16 -113 -18
-58 -2 -108 -7 -112 -12 -4 -6 -13 -4 -22 3 -12 10 -16 10 -16 2 0 -9 -25 -11
-87 -8 -67 3 -88 7 -88 18 0 10 -15 14 -55 14 -39 0 -54 -4 -52 -12 2 -12 -11
-17 -31 -14 -4 1 -10 -6 -13 -14 -4 -8 -12 -15 -19 -15 -15 0 -30 -29 -34 -62
0 -6 -4 -9 -7 -5 -10 10 -32 -17 -36 -44 -2 -14 -9 -23 -17 -21 -8 2 -11 -3
-8 -13 4 -8 2 -15 -4 -15 -6 0 -7 -4 -4 -10 6 -10 -21 -15 -59 -11 -11 1 -27
-6 -37 -15 -10 -9 -22 -13 -27 -10 -6 3 -13 -1 -16 -10 -4 -10 -13 -13 -26 -9
-12 4 -20 2 -20 -5 0 -7 -8 -9 -20 -5 -11 4 -20 2 -20 -4 0 -6 -3 -10 -7 -10
-23 4 -44 -3 -60 -20 -10 -10 -26 -17 -36 -16 -9 2 -17 -1 -17 -6 0 -5 -5 -9
-11 -9 -12 0 -81 -31 -89 -40 -3 -3 -17 -11 -32 -17 -16 -7 -28 -17 -28 -23 0
-6 -4 -8 -10 -5 -5 3 -10 1 -10 -5 0 -7 -6 -10 -12 -8 -7 3 -17 1 -23 -4 -5
-5 -27 -24 -49 -43 -21 -19 -42 -35 -46 -35 -4 0 -18 -9 -31 -21 -13 -12 -31
-26 -40 -33 -8 -6 -23 -22 -32 -36 -9 -13 -17 -21 -17 -17 0 4 -22 -16 -50
-44 -27 -28 -47 -55 -45 -59 3 -5 -3 -11 -12 -14 -10 -3 -23 -16 -29 -29 -11
-25 -7 -97 6 -97 9 0 28 -44 35 -79 2 -14 10 -28 17 -32 7 -4 9 -11 6 -15 -4
-3 4 -18 18 -32 13 -15 24 -39 24 -54 0 -16 4 -28 10 -28 5 0 7 -7 4 -15 -4
-8 -1 -15 6 -15 6 0 8 -4 5 -10 -3 -5 -1 -10 5 -10 6 0 8 -4 5 -10 -3 -5 -1
-10 5 -10 6 0 9 -4 6 -9 -4 -5 -2 -11 3 -13 5 -1 11 -18 14 -36 7 -46 52 -102
75 -94 6 2 12 -1 12 -7 0 -6 7 -8 15 -5 9 4 15 0 15 -10 0 -9 6 -16 13 -16 7
0 4 -7 -7 -15 -11 -8 -21 -23 -22 -32 -2 -10 -11 -23 -20 -30 -10 -7 -14 -13
-10 -13 5 0 3 -6 -3 -13 -6 -8 -8 -17 -4 -20 3 -4 1 -7 -5 -7 -15 0 -77 -133
-73 -157 1 -7 -3 -13 -9 -13 -6 0 -8 -5 -5 -11 4 -6 -1 -17 -11 -24 -15 -11
-16 -14 -4 -15 12 0 13 -2 1 -9 -13 -8 -17 -23 -20 -78 0 -12 -8 -28 -16 -37
-8 -8 -15 -24 -15 -34 0 -11 -6 -23 -12 -25 -10 -4 -10 -8 1 -15 8 -6 9 -11 2
-13 -6 -2 -13 -26 -16 -52 -3 -27 -15 -72 -26 -100 -12 -29 -20 -53 -20 -55 3
-6 -11 -59 -19 -74 -6 -11 -5 -18 3 -21 9 -4 9 -6 -1 -6 -7 -1 -10 -5 -7 -11
3 -5 1 -10 -5 -10 -6 0 -8 -4 -5 -10 3 -5 1 -10 -4 -10 -6 0 -11 -7 -11 -15 0
-9 -7 -18 -15 -21 -8 -3 -17 -21 -21 -40 -3 -19 -11 -34 -18 -34 -6 0 -4 -5 4
-10 11 -7 11 -10 2 -10 -7 0 -10 -4 -7 -10 3 -5 1 -19 -6 -32 -10 -19 -7 -25
27 -56 30 -27 44 -33 66 -28 15 3 28 1 28 -4 0 -5 21 -11 48 -15 26 -3 65 -11
87 -17 43 -12 68 -28 45 -28 -7 0 -10 -3 -7 -7 4 -3 0 -14 -8 -23 -8 -9 -17
-36 -19 -60 -3 -23 -8 -46 -13 -49 -10 -7 -10 -47 0 -57 12 -12 8 -82 -5 -87
-10 -4 -10 -6 0 -6 6 -1 12 -13 12 -28 0 -22 -2 -25 -10 -13 -9 13 -14 7 -11
-12 0 -5 -5 -8 -12 -8 -16 0 -61 -41 -66 -60 -2 -8 -3 -24 -2 -35 1 -11 3 -26
3 -32 1 -7 7 -13 15 -13 14 0 16 -6 14 -67 0 -24 3 -43 8 -43 8 0 21 -149 24
-292 1 -43 5 -78 8 -78 3 0 5 -24 5 -52 -1 -29 2 -66 7 -83 4 -16 10 -57 12
-90 2 -33 7 -105 11 -160 4 -55 7 -128 8 -162 0 -34 4 -65 8 -68 4 -4 1 -23
-7 -42 -8 -20 -15 -48 -15 -64 0 -51 81 -115 137 -110 22 2 22 1 9 -41 -7 -24
-12 -52 -10 -61 1 -9 -1 -17 -6 -17 -4 0 -6 -10 -2 -22 3 -13 1 -19 -5 -15 -6
4 -18 -4 -27 -18 -17 -26 -22 -65 -8 -65 11 0 34 -49 28 -59 -3 -4 6 -16 20
-26 19 -14 22 -20 12 -27 -11 -6 -11 -8 0 -8 8 0 10 -5 5 -12 -10 -17 -11 -68
-1 -68 4 0 8 -6 8 -13 0 -16 69 -79 80 -72 4 3 11 -2 14 -11 3 -8 9 -13 14
-11 8 6 42 -17 45 -30 1 -4 6 -7 11 -5 5 2 15 -6 23 -18 8 -11 19 -20 25 -20
5 0 27 -13 48 -30 21 -16 43 -30 50 -30 6 0 8 -4 5 -10 -3 -5 1 -11 9 -11 24
-2 30 -4 41 -10 19 -12 96 5 110 24 6 8 22 17 37 20 15 4 39 18 54 32 15 13
30 22 35 19 5 -3 9 0 9 6 0 7 7 9 16 6 9 -3 24 4 37 17 12 12 35 31 50 40 15
10 25 23 21 29 -4 7 -3 8 4 4 7 -4 12 -3 12 1 0 5 18 16 40 26 23 9 39 21 36
26 -3 5 1 11 9 15 8 3 15 17 15 31 0 15 4 24 10 20 6 -3 10 -2 10 3 0 5 15 31
32 57 l33 49 0 133 c0 73 4 133 9 133 12 0 -3 72 -19 90 -8 8 -36 38 -63 66
l-49 52 16 33 c37 76 65 148 83 214 11 38 23 75 29 81 5 6 6 13 3 16 -3 4 1
19 10 36 8 16 17 41 20 55 2 14 10 36 17 49 7 12 14 30 15 38 0 8 4 24 8 35 4
11 13 34 19 50 6 17 16 34 21 38 8 6 7 10 -2 14 -10 4 -8 11 9 29 12 13 20 27
16 30 -3 4 0 19 9 35 8 16 12 29 9 29 -4 0 1 7 10 16 9 10 14 25 12 35 -3 10
0 17 5 16 6 -1 12 13 14 31 4 45 -26 76 -65 67 -20 -4 -35 0 -52 14 l-24 20
27 1 c15 0 31 6 35 13 4 7 22 23 39 35 17 12 39 37 48 57 9 19 22 35 28 35 7
0 7 5 -1 14 -10 11 -8 17 9 29 16 11 18 16 8 20 -10 5 -10 9 3 19 9 7 14 22
12 33 -2 11 -1 35 2 53 5 26 10 32 24 27 10 -3 23 2 32 12 24 31 40 63 34 73
-3 4 1 11 7 13 11 4 11 6 0 6 -8 1 -9 6 -3 19 14 26 33 102 37 146 2 22 8 42
12 45 5 3 8 14 6 24 -1 9 3 17 9 17 13 0 47 -20 35 -20 -14 0 26 -40 40 -40 7
0 10 -4 7 -10 -3 -5 1 -10 9 -10 9 0 16 -6 16 -14 0 -8 5 -27 12 -43 6 -15 11
-31 10 -35 -1 -4 3 -19 8 -33 6 -15 7 -32 3 -38 -10 -16 -11 -47 -2 -47 4 0
10 -11 13 -25 4 -14 13 -25 21 -25 8 0 15 -5 15 -11 0 -5 5 -7 10 -4 6 3 10 1
10 -5 0 -6 4 -9 9 -5 5 3 12 -4 16 -15 8 -24 41 -43 64 -37 13 3 17 -2 15 -24
-1 -16 2 -29 6 -29 4 0 8 -15 8 -34 0 -19 3 -43 6 -54 5 -14 1 -24 -11 -31
-10 -6 -15 -11 -10 -11 4 0 -7 -13 -25 -29 l-32 -28 -2 -134 c-1 -74 2 -139 7
-144 4 -6 4 -16 0 -23 -6 -10 -15 -9 -42 5 -19 10 -37 22 -41 28 -4 5 -10 6
-14 3 -4 -4 -19 1 -33 11 -14 10 -28 19 -31 19 -3 0 -18 4 -33 7 -37 10 -113
-19 -115 -43 -1 -9 -2 -42 -2 -72 0 -50 -2 -56 -29 -71 -24 -14 -29 -22 -26
-53 1 -20 -3 -36 -8 -36 -6 0 -3 -6 8 -13 14 -11 16 -20 9 -43 -8 -30 -14 -67
-15 -96 0 -10 -4 -18 -9 -18 -5 0 -7 -7 -3 -16 3 -9 0 -20 -7 -24 -7 -4 -14
-25 -17 -46 -2 -22 -8 -43 -13 -48 -5 -5 -6 -15 -3 -22 3 -8 -1 -14 -8 -14
-10 0 -10 -3 -1 -12 9 -9 7 -14 -6 -24 -12 -10 -13 -13 -3 -14 11 0 11 -3 1
-15 -7 -8 -10 -22 -6 -30 3 -8 2 -15 -3 -15 -5 0 -12 -21 -16 -47 -4 -27 -10
-52 -15 -58 -4 -5 -11 -31 -14 -57 -4 -27 -12 -48 -18 -48 -6 0 -9 -2 -6 -6 3
-3 -1 -26 -8 -52 -8 -26 -17 -60 -20 -77 -3 -16 -10 -48 -15 -70 -6 -22 -19
-74 -29 -116 -9 -42 -20 -81 -24 -87 -3 -6 -9 -32 -12 -59 -3 -26 -12 -58 -20
-71 -9 -13 -13 -30 -10 -38 3 -7 -2 -20 -10 -29 -9 -8 -11 -15 -4 -15 7 0 6
-5 -2 -14 -7 -8 -16 -12 -20 -9 -5 2 -8 0 -8 -6 0 -6 -10 -19 -22 -31 -27 -25
-30 -55 -7 -75 13 -12 15 -24 9 -50 -4 -19 -6 -36 -3 -39 3 -2 -7 -12 -22 -22
-43 -28 -66 -113 -41 -153 6 -10 5 -12 -2 -7 -7 4 -12 3 -12 -3 0 -6 -11 -13
-25 -17 -14 -3 -23 -10 -20 -14 3 -4 -9 -13 -25 -20 -16 -7 -28 -16 -25 -19 2
-4 -19 -25 -48 -47 -29 -21 -58 -47 -65 -57 -8 -10 -23 -27 -35 -37 -11 -11
-17 -20 -11 -20 5 0 4 -4 -2 -8 -13 -9 -77 -102 -69 -102 3 0 -6 -22 -21 -50
-14 -27 -27 -60 -28 -73 -2 -13 -6 -28 -9 -34 -3 -5 -7 -29 -8 -54 -1 -24 -6
-49 -11 -56 -15 -20 -22 -149 -9 -158 9 -5 8 -12 -5 -26 -9 -10 -13 -19 -8
-19 5 0 -5 -9 -22 -19 -38 -23 -68 -83 -61 -124 2 -18 1 -44 -4 -59 -4 -16 -4
-28 2 -28 5 0 1 -8 -8 -18 -10 -10 -20 -17 -22 -16 -2 2 -10 -4 -18 -12 -11
-10 -14 -29 -10 -62 4 -46 -11 -142 -22 -142 -3 0 -7 -17 -8 -37 -1 -21 -6
-39 -12 -41 -5 -2 -7 -10 -4 -18 3 -8 1 -14 -4 -14 -5 0 -10 -12 -11 -27 -4
-50 -8 -64 -19 -71 -5 -4 -9 -17 -8 -30 1 -12 -2 -22 -7 -22 -5 0 -6 -5 -3
-10 3 -6 1 -10 -6 -10 -7 0 -9 -3 -6 -7 4 -3 2 -12 -4 -19 -6 -8 -9 -21 -5
-29 3 -8 1 -15 -5 -15 -6 0 -7 -5 -4 -10 3 -6 2 -10 -2 -10 -5 0 -9 -10 -10
-21 -1 -12 -9 -29 -18 -39 -12 -13 -13 -20 -5 -25 7 -4 8 -10 3 -14 -5 -3 -17
-36 -27 -73 -10 -38 -21 -68 -26 -68 -4 0 -6 -14 -5 -31 1 -17 -5 -37 -13 -45
-7 -8 -12 -21 -9 -28 3 -8 0 -17 -8 -20 -7 -2 -12 -13 -11 -23 2 -10 -5 -31
-14 -48 -9 -16 -16 -40 -15 -53 1 -12 -3 -22 -8 -22 -5 0 -7 -9 -4 -20 3 -10
1 -20 -5 -22 -5 -2 -11 -10 -12 -18 -13 -61 -20 -80 -27 -80 -4 0 -6 -9 -4
-21 2 -11 -3 -31 -11 -44 -8 -13 -14 -29 -13 -37 3 -27 -1 -38 -17 -38 -8 0
-13 -4 -10 -9 6 -9 -13 -29 -29 -30 -5 0 -11 -10 -11 -22 -1 -12 -6 -24 -12
-28 -6 -3 -14 -20 -18 -36 -4 -17 -12 -33 -17 -36 -5 -4 -10 -21 -11 -38 0
-17 -5 -31 -11 -31 -5 0 -3 -5 5 -10 10 -6 11 -10 3 -10 -17 0 -17 -27 -1 -33
10 -4 10 -7 0 -15 -11 -7 -10 -12 4 -26 14 -15 15 -19 3 -27 -8 -5 -9 -9 -4
-9 6 0 4 -4 -3 -9 -7 -4 -14 -19 -16 -32 -1 -14 -6 -30 -10 -37 -4 -7 -4 -16
-1 -22 3 -6 -1 -7 -9 -4 -10 4 -18 -1 -22 -10 -4 -9 -19 -23 -34 -31 -14 -7
-27 -20 -28 -27 -7 -65 -7 -108 0 -108 5 0 6 -4 3 -10 -3 -5 0 -10 8 -10 8 0
20 -7 27 -15 7 -8 21 -15 31 -15 11 0 19 -4 19 -10 0 -5 12 -10 28 -10 15 0
23 -4 17 -8 -5 -4 -10 -11 -10 -17 0 -14 -54 -117 -73 -137 -12 -15 -13 -18
-1 -18 8 0 2 -11 -15 -25 -16 -14 -26 -25 -22 -25 4 0 -1 -15 -12 -32 -11 -18
-22 -45 -26 -60 -3 -16 -10 -28 -15 -28 -8 0 -27 -107 -24 -137 0 -7 -3 -11
-7 -8 -4 3 -8 -14 -8 -36 -1 -26 -8 -49 -20 -63 -26 -28 -36 -64 -23 -80 6 -7
13 -36 15 -63 5 -53 21 -120 34 -141 7 -10 220 -12 1053 -11 574 0 1049 1
1056 2 7 0 15 14 19 30 10 47 10 277 0 277 -5 0 -7 3 -3 6 3 3 -5 16 -18 29
-14 12 -22 25 -18 28 3 4 0 7 -7 7 -10 0 -11 18 -5 88 4 48 9 129 11 181 2 52
7 98 11 101 16 14 74 29 90 23 9 -4 21 1 28 11 7 9 22 18 34 19 12 1 21 4 21
7 0 3 11 17 24 31 23 25 32 79 13 79 -5 0 0 12 11 27 10 16 23 42 29 58 6 17
15 39 19 50 4 11 6 26 5 33 -1 8 2 19 8 25 9 12 9 33 -4 121 -3 21 -17 62 -30
90 -21 45 -23 63 -21 156 2 105 8 130 27 130 23 0 36 29 39 90 2 36 5 79 7 95
9 75 19 258 17 342 -1 63 2 93 10 93 6 0 4 5 -4 10 -13 9 -13 10 0 10 13 0 13
1 0 10 -12 8 -12 10 -1 10 8 0 29 15 46 33 32 32 33 36 37 135 2 56 0 102 -4
102 -5 0 -6 10 -3 23 3 12 7 101 9 197 3 96 10 191 15 210 6 19 11 65 11 102
0 39 4 68 10 68 6 0 9 3 8 8 -4 15 13 50 27 56 18 7 20 53 3 59 -10 3 -10 7
-1 17 8 9 9 20 2 38 -11 28 -3 78 13 88 6 4 8 2 5 -3 -4 -6 3 -13 14 -16 11
-3 23 -15 26 -26 3 -11 9 -18 14 -15 5 3 9 1 9 -5 0 -5 30 -39 66 -74 l66 -65
171 -1 c95 -1 253 -4 352 -7 259 -10 551 3 572 25 9 9 39 27 67 41 44 22 86
65 121 124 9 16 12 16 33 0 21 -14 22 -18 8 -33 -27 -29 -40 -128 -21 -151 18
-20 66 -141 60 -150 -2 -4 0 -22 5 -39 6 -23 5 -39 -3 -52 -8 -13 -9 -22 -2
-27 7 -4 10 -106 10 -288 0 -224 3 -284 14 -297 7 -10 10 -17 7 -17 -4 0 9
-14 28 -31 29 -25 34 -35 30 -59 -4 -15 -1 -43 5 -62 7 -20 13 -129 14 -259 2
-124 7 -230 11 -237 4 -7 2 -12 -5 -12 -7 0 -3 -10 9 -23 12 -13 22 -30 22
-38 0 -8 9 -31 20 -52 11 -20 20 -46 20 -57 0 -11 5 -20 11 -20 7 0 8 -13 4
-38 -4 -20 -7 -48 -8 -62 -1 -14 -10 -38 -20 -53 -9 -15 -14 -27 -11 -27 4 0
0 -8 -9 -18 -20 -22 -36 -162 -18 -162 6 0 11 -9 11 -21 0 -24 29 -129 40
-144 15 -21 21 -67 9 -81 -8 -10 -8 -14 0 -14 6 0 11 -5 11 -11 0 -20 29 -40
80 -55 27 -8 50 -18 50 -23 0 -5 11 -6 25 -3 16 3 25 0 25 -8 0 -7 8 -10 19
-7 14 3 18 1 14 -9 -3 -8 -1 -14 4 -14 5 0 9 -38 8 -85 0 -47 3 -85 7 -85 4 0
7 -42 5 -93 -2 -88 -11 -117 -36 -117 -6 0 -11 -7 -11 -15 0 -8 -3 -15 -7 -15
-7 0 -10 -217 -4 -230 2 -3 4 -20 5 -38 1 -18 7 -37 12 -42 11 -11 2078 -15
2095 -5 5 4 9 3 9 -1 0 -4 8 2 18 14 13 15 18 36 18 76 -1 31 3 56 8 56 5 0 7
3 4 6 -4 3 -2 20 3 37 9 31 -6 107 -33 164 -6 12 -8 29 -5 37 4 9 2 16 -4 16
-5 0 -7 11 -3 25 3 14 2 25 -4 25 -5 0 -12 21 -15 47 -3 26 -11 52 -19 57 -8
6 -13 16 -11 23 6 17 -47 104 -58 97 -5 -3 -9 0 -9 5 0 6 5 11 12 11 15 0 0
15 -15 15 -7 1 -11 7 -9 15 2 7 -2 16 -7 20 -6 3 -12 18 -13 32 -1 17 -10 29
-23 32 -17 5 -18 8 -5 16 11 7 11 10 2 10 -7 0 -11 4 -7 9 3 5 0 13 -6 16 -7
5 -3 14 11 27 18 17 24 18 31 7 6 -11 9 -10 15 4 3 9 12 17 19 17 8 0 22 12
32 27 15 23 18 38 12 79 -7 52 -40 104 -66 104 -7 0 -13 8 -14 18 0 14 -2 14
-9 -3 -7 -17 -9 -15 -9 13 -1 17 -6 32 -12 32 -5 0 -7 5 -4 10 4 6 0 24 -9 40
-9 19 -11 30 -4 30 6 0 9 3 6 6 -4 3 -2 19 3 36 5 18 5 36 0 42 -7 9 -16 60
-23 124 -1 6 -5 12 -10 12 -4 0 -8 7 -8 15 0 8 -9 19 -20 25 -11 6 -20 17 -20
26 0 8 -7 17 -15 20 -8 4 -15 13 -15 20 0 8 -6 17 -14 20 -8 3 -12 13 -8 26 3
13 -1 26 -12 34 -10 7 -20 27 -23 46 -3 18 -9 39 -15 45 -6 7 -8 22 -5 33 3
11 1 20 -5 20 -5 0 -6 9 -3 20 3 11 2 20 -3 20 -10 0 -30 60 -35 102 -2 15 -6
30 -10 34 -4 4 -7 16 -7 26 0 10 -5 18 -11 18 -5 0 -7 5 -4 11 4 5 -1 19 -11
30 -12 13 -13 19 -4 19 10 0 9 5 -3 18 -10 10 -17 33 -17 50 0 18 -9 49 -20
69 -10 20 -17 40 -14 45 3 4 0 8 -6 8 -7 0 -9 7 -6 16 3 9 -1 25 -9 37 -8 12
-15 32 -15 44 0 13 -5 23 -11 23 -5 0 -7 5 -3 11 5 9 -1 27 -37 101 -5 10 -6
24 -3 33 3 8 2 15 -4 15 -6 0 -8 9 -5 20 3 12 0 20 -7 20 -7 0 -10 8 -7 20 3
11 1 20 -5 20 -6 0 -8 9 -5 20 3 11 1 20 -4 20 -4 0 -6 6 -3 14 3 8 1 17 -5
21 -6 3 -11 15 -11 26 0 10 -5 19 -11 19 -5 0 -7 4 -4 10 3 5 1 10 -5 10 -8 0
-10 9 -6 26 4 16 3 23 -3 20 -14 -9 -7 40 8 58 11 13 10 22 -3 51 -9 19 -20
34 -24 34 -19 -3 -33 2 -27 10 3 5 0 13 -5 16 -7 4 -10 35 -9 74 1 38 -2 74
-7 82 -5 8 -9 17 -9 21 0 14 -46 58 -60 58 -12 0 -15 11 -14 54 1 29 -2 59 -6
66 -4 7 -2 16 6 21 10 6 11 9 1 9 -9 0 -10 11 -6 40 5 29 3 40 -6 40 -7 0 -10
7 -6 15 9 24 -60 225 -77 225 -5 0 -5 4 -2 10 7 11 -33 68 -82 118 -17 17 -31
32 -29 32 2 0 -11 16 -30 35 -18 19 -37 35 -43 35 -5 0 -13 9 -16 20 -3 11
-13 20 -21 20 -8 0 -17 7 -20 15 -4 8 -23 24 -43 35 -35 21 -36 23 -36 80 0
55 -3 62 -39 99 -21 21 -35 44 -32 50 4 6 2 11 -3 11 -20 0 -11 34 16 62 24
25 25 29 11 45 -8 10 -18 26 -21 36 -4 9 -16 17 -27 17 -12 0 -18 5 -15 10 3
6 -2 10 -12 10 -15 0 -16 2 -3 10 12 8 12 10 -3 16 -11 4 -17 17 -17 35 0 16
-3 29 -7 29 -5 0 -8 19 -9 42 0 24 -5 43 -12 46 -10 3 -10 7 -2 17 8 9 8 15 0
20 -5 3 -10 17 -10 31 0 13 -4 24 -9 24 -9 0 -27 76 -23 93 1 4 -3 7 -10 7 -9
0 -9 3 -1 11 9 9 8 17 -2 33 -13 19 -18 40 -27 111 -2 11 -7 23 -11 26 -5 4
-10 22 -11 41 -1 19 -7 41 -11 49 -5 8 -8 22 -7 32 2 9 -2 17 -8 17 -6 0 -9 8
-6 18 3 9 -1 29 -8 44 -9 17 -11 28 -4 30 6 2 4 10 -5 20 -9 8 -13 18 -10 21
3 4 3 12 1 19 -3 7 -5 16 -4 19 0 3 -5 13 -13 22 -7 10 -10 17 -6 17 4 0 2 7
-5 15 -6 8 -14 34 -16 57 -3 24 -6 52 -7 63 -1 11 -5 22 -9 25 -4 4 -9 23 -10
43 -2 20 -7 37 -12 37 -5 0 -6 3 -3 7 4 3 2 12 -5 20 -6 8 -12 30 -13 49 -1
20 -7 39 -14 43 -9 6 -6 14 14 29 26 21 29 52 5 52 -5 0 -10 7 -10 15 0 7 -7
18 -16 23 -10 6 -16 21 -16 38 0 16 1 44 2 63 1 23 -5 38 -19 47 -11 8 -26 20
-33 27 -16 15 -88 22 -88 9 0 -11 -34 -23 -65 -25 -11 -1 -26 -9 -33 -19 -7
-9 -19 -15 -26 -12 -8 3 -24 1 -35 -6 -20 -10 -21 -8 -22 37 -1 26 -1 97 -1
158 1 99 -1 111 -20 132 -11 12 -24 21 -27 19 -7 -5 -8 180 -1 187 3 3 18 8
34 11 15 3 38 15 50 28 13 13 37 34 55 47 29 22 31 27 28 75 -2 38 3 63 20 97
13 26 23 54 23 62 0 16 24 40 32 32 11 -11 39 35 40 64 1 31 18 56 18 27 0 -9
5 -16 10 -16 6 0 9 -3 9 -7 -1 -5 0 -10 1 -13 1 -3 3 -24 4 -48 1 -24 8 -47
15 -51 8 -6 9 -11 3 -15 -12 -7 -4 -46 10 -46 5 0 6 -4 3 -10 -3 -5 -2 -10 3
-10 5 0 9 -10 8 -22 -1 -13 4 -32 11 -43 7 -11 13 -32 13 -47 0 -28 36 -72 52
-62 4 3 8 2 9 -3 0 -4 3 -17 6 -28 2 -11 7 -35 10 -52 3 -18 9 -33 15 -33 5 0
6 -4 3 -10 -3 -5 -3 -16 2 -22 4 -7 8 -20 10 -28 1 -8 7 -16 13 -18 5 -2 8 -7
6 -11 -3 -4 8 -22 23 -39 16 -17 27 -33 25 -35 -3 -3 34 -28 86 -57 21 -13 10
-19 -40 -21 -25 -1 -53 -9 -62 -17 -22 -19 -23 -55 -2 -76 8 -9 13 -16 9 -16
-3 0 2 -14 10 -31 9 -17 14 -37 11 -45 -3 -8 -2 -14 3 -14 7 0 30 -62 38 -103
2 -10 10 -28 18 -41 8 -12 12 -26 8 -29 -3 -4 -1 -7 6 -7 8 0 11 -7 7 -15 -3
-8 -1 -15 5 -15 6 0 8 -4 4 -9 -3 -5 2 -16 10 -24 8 -9 13 -22 10 -30 -3 -7 3
-34 14 -60 11 -25 25 -74 31 -108 14 -74 45 -160 75 -209 12 -19 25 -48 29
-65 4 -16 13 -33 19 -37 9 -6 9 -8 0 -8 -7 0 -22 -9 -33 -20 -11 -11 -15 -20
-8 -20 12 0 2 -15 -10 -15 -10 0 -63 -55 -54 -55 4 0 -2 -7 -12 -15 -11 -8
-16 -15 -12 -15 5 0 3 -7 -4 -15 -9 -11 -9 -15 -1 -15 7 0 9 -9 5 -25 -4 -15
-2 -25 5 -25 7 0 7 -8 0 -27 -6 -15 -6 -29 -1 -32 5 -3 8 -48 7 -99 -2 -50 1
-92 5 -92 5 0 12 -10 15 -22 4 -13 17 -33 29 -46 11 -13 20 -27 20 -30 -3 -16
12 -40 52 -79 32 -32 44 -39 53 -30 9 9 14 8 21 -3 5 -8 6 -18 4 -22 -3 -5 8
-21 25 -37 19 -18 34 -25 38 -19 4 7 11 5 19 -6 7 -11 18 -15 25 -10 8 4 10 3
5 -4 -6 -11 6 -17 27 -13 4 1 10 -6 13 -14 4 -8 12 -15 20 -15 8 0 14 -5 14
-11 0 -5 5 -7 11 -3 6 3 14 2 18 -4 3 -6 19 -13 35 -16 16 -3 39 -15 51 -26
22 -21 24 -21 74 -4 29 9 71 32 93 50 22 19 49 34 59 34 35 0 108 42 136 77
16 19 43 50 61 69 31 31 33 37 28 86 -4 39 -1 57 10 69 9 10 17 25 18 34 1 9
9 24 17 33 18 22 16 56 -5 77 -9 9 -16 17 -17 18 0 1 -6 39 -13 85 -11 77 -11
82 6 76 10 -3 18 0 18 6 0 6 7 10 15 8 18 -4 73 31 81 52 14 34 15 71 1 84
-10 10 -13 42 -10 132 2 66 6 126 9 134 3 8 7 58 10 110 3 52 9 107 15 121 6
14 9 30 8 35 -2 5 1 52 5 104 5 52 10 121 11 153 2 32 6 61 9 64 3 3 0 13 -7
21 -9 13 -9 14 1 8 9 -5 12 8 13 56 1 106 10 182 22 190 7 4 8 8 3 8 -4 0 -1
12 9 26 23 36 11 135 -15 119 -5 -3 -19 4 -30 15 -12 12 -28 19 -36 16 -17 -7
-19 10 -1 17 9 4 8 8 -3 16 -10 7 -11 11 -2 11 8 0 12 22 12 78 0 43 -3 82 -7
85 -3 4 -8 19 -9 33 -2 15 -6 34 -10 43 -4 9 -8 21 -9 26 0 6 -6 9 -13 8 -8
-2 -9 3 -1 20 6 13 16 24 22 25 66 9 140 22 174 30 23 5 44 8 46 5 3 -2 17 7
32 21 29 27 29 29 13 154 -1 6 -5 12 -10 12 -5 0 -6 5 -3 11 9 13 -33 59 -54
59 -13 0 -13 2 -3 9 11 6 10 11 -3 24 -9 10 -16 34 -17 57 0 22 -5 40 -10 40
-6 0 -8 7 -5 15 4 8 2 17 -2 19 -5 3 -6 17 -4 31 4 17 0 27 -12 31 -13 5 -14
9 -3 15 8 6 9 9 1 9 -6 0 -9 9 -6 20 3 11 1 20 -5 20 -5 0 -9 8 -9 18 1 9 -4
28 -10 42 -8 20 -41 139 -56 205 -2 6 -7 17 -12 25 -5 8 -11 26 -13 40 -2 13
-8 27 -14 31 -5 3 -10 10 -11 15 0 11 -33 82 -47 104 -5 8 -20 39 -32 68 -12
28 -26 52 -30 52 -5 0 -7 4 -3 9 3 5 1 12 -5 16 -16 10 -12 25 8 23 34 -3 53
2 47 12 -3 5 0 7 8 4 15 -5 41 41 32 57 -4 5 -1 9 5 9 6 0 9 4 6 9 -3 5 1 11
9 15 8 3 15 14 15 25 0 11 5 21 11 23 5 2 11 10 13 18 6 32 27 82 70 167 14
29 26 59 26 68 0 8 5 15 11 15 5 0 8 4 4 9 -3 5 -1 12 5 16 6 4 7 11 4 17 -4
6 -1 14 5 18 19 11 16 88 -4 110 -10 11 -22 17 -28 13 -6 -3 -7 -1 -3 6 5 7
-17 36 -58 76 -36 36 -66 70 -66 75 0 6 -6 10 -13 8 -8 -2 -26 12 -41 30 -15
17 -32 30 -37 26 -5 -3 -9 -1 -9 5 0 6 -11 13 -25 17 -13 3 -27 14 -30 24 -3
11 -12 17 -19 14 -7 -3 -16 2 -19 10 -4 9 -13 16 -22 16 -8 0 -15 5 -15 10 0
6 -3 9 -7 9 -17 -4 -72 23 -77 37 -3 8 -12 14 -21 14 -8 0 -15 5 -15 11 0 6
-6 9 -12 6 -7 -2 -24 4 -37 14 -12 10 -38 21 -57 25 -18 3 -38 12 -44 19 -6 8
-18 11 -25 9 -8 -3 -24 1 -37 10 -12 9 -33 16 -45 16 -13 0 -23 5 -23 10 0 6
-3 9 -7 8 -5 -1 -28 2 -53 7 -25 5 -48 8 -52 7 -4 -1 -5 4 -2 12 3 7 -2 16
-11 20 -9 3 -14 10 -10 16 3 5 -3 15 -15 22 -11 7 -20 18 -20 25 0 7 -5 13
-11 13 -5 0 -7 4 -4 10 6 10 -4 26 -45 67 -14 14 -26 20 -28 13 -2 -6 -15 2
-28 17 -19 22 -31 27 -56 25 -18 -2 -40 -13 -49 -24 -15 -19 -23 -20 -125 -14
-332 18 -323 17 -329 37 -4 11 -11 19 -16 19 -5 0 -9 9 -9 21 0 11 -4 18 -9
14 -5 -3 -21 6 -35 20 -14 14 -32 25 -41 25 -8 0 -15 5 -15 11 0 5 -4 7 -10 4
-5 -3 -10 -1 -10 4 0 6 -7 11 -15 11 -8 0 -15 8 -15 18 -1 31 -24 59 -48 57
-13 -1 -25 2 -27 6 -3 4 -15 5 -28 2 -12 -3 -19 -2 -15 2 11 11 -31 45 -55 45
-12 0 -31 -10 -44 -22 -26 -24 -32 -19 -7 6 8 9 11 16 5 16 -6 0 -11 9 -11 20
0 11 -7 20 -15 20 -8 0 -15 5 -15 10 0 17 -466 12 -515 -5 -57 -20 -263 -15
-279 7 -9 12 -100 38 -133 38 -2 0 -1 5 2 10 3 6 2 10 -3 10 -5 0 -12 8 -14
18 -10 36 -73 54 -187 56 -58 0 -116 0 -128 -2z m-1388 -2990 c-3 -3 -11 0
-18 7 -9 10 -8 11 6 5 10 -3 15 -9 12 -12z"/>
<path d="M63 240 c-63 -38 -81 -120 -40 -181 62 -93 212 -64 232 45 21 110
-97 194 -192 136z"/>
<path d="M7163 245 c-88 -38 -95 -174 -11 -225 116 -70 248 62 178 178 -34 55
-104 75 -167 47z"/>
</g>
</svg>
