<?xml version="1.0" standalone="no"?>
<!DOCTYPE svg PUBLIC "-//W3C//DTD SVG 20010904//EN"
 "http://www.w3.org/TR/2001/REC-SVG-20010904/DTD/svg10.dtd">
<svg version="1.0" xmlns="http://www.w3.org/2000/svg"
 width="735.000000pt" height="1102.000000pt" viewBox="0 0 735.000000 1102.000000"
 preserveAspectRatio="xMidYMid meet">

<g transform="translate(0.000000,1102.000000) scale(0.100000,-0.100000)"
fill="#000000" stroke="none">
<path d="M82 11004 c-131 -67 -94 -265 52 -281 115 -13 200 106 151 211 -35
73 -131 106 -203 70z"/>
<path d="M7132 11003 c-97 -48 -108 -192 -19 -255 41 -30 113 -34 157 -10 39
21 80 90 80 135 0 104 -122 178 -218 130z"/>
<path d="M4580 9060 c-8 -19 -10 -49 -5 -89 7 -62 -3 -97 -43 -149 -17 -22
-18 -21 -14 46 6 105 -31 160 -40 60 -11 -133 -105 -227 -265 -264 -37 -8 -71
-20 -75 -26 -3 -6 1 -22 9 -35 12 -18 21 -21 42 -17 49 12 16 -4 -92 -44 -59
-23 -127 -44 -151 -47 -42 -7 -45 -5 -112 54 -38 33 -76 61 -84 61 -19 0 -53
-22 -107 -71 -59 -54 -81 -57 -182 -24 -70 22 -217 88 -159 71 10 -3 25 2 34
11 15 16 13 18 -37 28 -115 23 -230 110 -298 225 l-32 55 3 -47 c3 -45 -7 -54
-14 -13 -1 11 -9 26 -17 34 -9 10 -11 28 -7 58 l6 43 -55 0 c-63 0 -60 8 -44
-111 12 -95 46 -164 113 -238 107 -115 289 -204 471 -230 39 -6 93 -17 120
-25 28 -8 84 -20 125 -26 63 -9 82 -8 112 5 20 8 101 22 179 30 78 9 155 23
170 30 15 8 46 17 70 21 57 8 197 76 257 124 84 68 142 125 147 145 2 11 11
38 19 60 8 22 15 56 16 75 0 19 5 53 10 74 9 41 -4 140 -23 164 -16 20 -34 14
-47 -18z"/>
<path d="M6565 8344 c-16 -7 -55 -21 -85 -30 -78 -24 -124 -58 -180 -133 -58
-76 -86 -145 -100 -239 -11 -75 -2 -513 11 -534 15 -24 63 12 67 50 2 18 7 32
13 32 5 0 9 24 9 53 0 36 14 92 45 182 82 234 131 289 307 341 96 28 97 35 13
169 -30 48 -55 89 -55 91 0 2 8 4 18 4 15 1 15 2 -2 15 -23 17 -22 17 -61 -1z"/>
<path d="M896 8332 c-27 -29 -86 -112 -86 -122 0 -5 -9 -25 -21 -44 -20 -34
-20 -36 -2 -36 10 0 26 -7 37 -15 10 -8 38 -17 63 -21 35 -5 51 -15 83 -52 77
-87 149 -205 179 -292 16 -47 42 -114 59 -149 17 -35 36 -85 43 -112 13 -49
31 -63 43 -33 13 33 6 448 -8 515 -36 167 -161 302 -337 364 -33 12 -39 11
-53 -3z"/>
<path d="M1553 7474 c12 -72 53 -150 114 -212 99 -101 227 -150 362 -138 46 5
84 14 100 25 14 10 46 23 71 29 41 10 47 9 69 -11 l24 -22 -6 36 c-5 34 -1 42
54 103 32 37 59 71 59 76 0 4 3 15 6 24 5 14 2 14 -33 2 -21 -8 -67 -28 -101
-45 -92 -46 -161 -61 -287 -61 -151 0 -173 11 -384 189 l-54 46 6 -41z"/>
<path d="M5873 7425 c-28 -27 -91 -67 -152 -98 l-104 -52 -146 0 c-143 0 -148
1 -211 31 -36 17 -85 46 -110 65 -72 55 -74 56 -66 23 8 -32 92 -154 106 -154
5 0 12 -9 15 -20 4 -11 15 -20 26 -20 11 0 41 -14 66 -32 26 -17 59 -32 75
-33 15 -2 56 -6 91 -9 136 -14 274 41 376 151 49 52 67 80 82 127 22 72 21 66
9 66 -5 0 -31 -20 -57 -45z"/>
<path d="M2330 7063 c5 -45 6 -47 55 -63 104 -35 300 -156 364 -224 l21 -22
-109 4 c-103 4 -109 3 -124 -18 -14 -20 -14 -27 0 -74 20 -68 49 -122 68 -129
8 -4 15 -2 15 3 0 6 17 -1 38 -14 59 -37 169 -90 252 -121 41 -16 78 -32 81
-38 24 -36 31 130 9 212 -6 23 -9 46 -6 49 12 11 274 -127 398 -209 69 -46
145 -95 167 -109 23 -13 72 -53 108 -87 36 -35 71 -63 76 -63 6 0 18 6 26 13
9 7 68 46 131 86 63 41 138 91 165 111 28 21 76 47 107 58 32 10 54 22 50 27
-4 4 3 5 16 2 12 -3 20 -1 16 4 -6 10 120 71 170 83 27 7 28 5 22 -19 -18 -70
-18 -113 -1 -149 9 -20 25 -36 34 -36 37 0 145 62 194 113 29 29 98 95 155
147 104 96 117 114 106 144 -5 13 -23 16 -117 16 l-111 0 33 34 c89 92 277
196 353 196 20 0 23 16 8 56 -10 25 -14 26 -58 22 -79 -8 -235 -88 -330 -170
-39 -33 -104 -68 -128 -68 -10 0 -27 -9 -38 -19 -24 -22 -248 -141 -316 -167
-25 -10 -83 -40 -130 -67 -47 -27 -123 -69 -170 -93 -47 -25 -100 -56 -119
-69 -48 -35 -100 -34 -143 3 -18 16 -219 124 -447 242 -273 140 -434 229 -474
261 -89 72 -248 149 -325 158 -34 4 -68 13 -74 19 -20 20 -24 14 -18 -35z"/>
<path d="M6450 7073 c-14 -2 -45 -10 -70 -18 -25 -8 -83 -21 -130 -29 -47 -9
-134 -31 -195 -50 -94 -29 -148 -41 -303 -72 -40 -8 -22 -37 33 -55 108 -35
139 -39 276 -29 113 8 141 14 186 36 29 15 61 35 70 44 10 9 38 28 63 43 68
40 131 102 124 121 -6 16 -9 17 -54 9z"/>
<path d="M1050 7056 c-14 -9 -34 -15 -45 -16 -15 0 -8 -10 30 -46 55 -49 89
-69 208 -120 90 -39 206 -56 330 -49 123 7 222 46 190 75 -4 4 -81 24 -170 44
-89 21 -219 55 -289 77 -150 46 -218 56 -254 35z"/>
<path d="M1160 6749 c-91 -12 -148 -25 -213 -49 -51 -19 -57 -25 -57 -50 0
-33 -27 -25 289 -85 l244 -46 51 -52 c28 -29 66 -62 84 -72 24 -15 32 -27 33
-50 2 -66 -3 -102 -22 -141 -10 -22 -19 -53 -19 -68 0 -15 -11 -60 -25 -100
-24 -70 -62 -225 -91 -376 -8 -41 -17 -88 -20 -105 -3 -16 -10 -40 -16 -52
-16 -32 -5 -38 66 -39 34 -1 80 -7 103 -13 52 -14 66 -8 81 32 141 399 275
774 290 815 l20 53 -21 8 c-12 5 -43 11 -69 15 -50 7 -54 11 -39 35 6 9 2 29
-10 55 -10 22 -19 51 -19 63 0 53 -200 183 -336 218 -63 16 -196 18 -304 4z"/>
<path d="M6020 6745 c-100 -28 -219 -95 -293 -166 l-69 -66 4 -65 3 -65 -67
-18 -66 -19 30 -80 c17 -45 68 -189 114 -321 101 -293 173 -487 184 -499 5 -5
29 -4 57 2 26 6 65 14 86 17 36 6 37 7 38 48 0 23 4 65 9 92 7 43 0 87 -51
315 -32 146 -68 283 -79 306 -11 23 -20 51 -20 62 0 11 -4 24 -10 27 -24 15
-8 45 39 73 26 17 67 52 90 80 41 48 45 50 134 70 51 11 173 35 272 52 99 17
181 33 183 35 2 2 -4 17 -12 33 -27 53 -176 90 -391 98 -97 3 -144 0 -185 -11z"/>
<path d="M2500 6111 c0 -35 12 -52 49 -70 40 -21 130 -86 231 -167 52 -42 76
-71 115 -140 58 -103 82 -202 135 -548 12 -81 15 -707 4 -841 -5 -57 -2 -78
14 -114 l20 -43 20 53 c10 30 27 78 37 108 10 30 26 68 35 85 10 17 37 112 60
211 81 347 102 404 175 484 64 69 128 105 231 131 171 44 335 12 444 -86 50
-45 160 -193 194 -261 30 -60 51 -147 61 -248 3 -38 13 -103 21 -144 8 -41 13
-80 10 -88 -7 -18 81 -343 98 -363 7 -8 18 -30 24 -48 6 -18 18 -42 27 -54 14
-22 15 -21 15 23 0 25 -15 90 -34 145 l-33 100 -7 374 c-9 430 -3 490 64 640
20 47 47 119 60 160 12 41 33 95 47 120 14 25 39 71 55 103 45 91 94 157 169
225 38 35 69 72 69 82 0 9 7 23 15 30 8 7 15 23 15 35 0 12 6 28 14 34 16 13
31 69 22 78 -3 4 -14 -1 -25 -11 -10 -9 -27 -19 -37 -21 -114 -26 -167 -35
-210 -35 -28 0 -102 -9 -165 -21 -63 -12 -132 -21 -155 -20 -47 1 -135 -50
-216 -125 -26 -24 -56 -44 -67 -44 -11 0 -88 -45 -172 -101 -171 -114 -179
-118 -179 -95 0 20 -17 21 -22 1 -2 -10 -46 14 -148 81 -80 52 -176 106 -215
121 -52 20 -84 42 -124 81 -30 30 -82 73 -115 95 -34 22 -71 49 -83 60 -18 16
-24 17 -45 6 -16 -10 -63 -13 -158 -12 -206 3 -286 12 -311 34 -27 24 -29 24
-29 0z"/>
<path d="M2816 3629 c-4 -12 -12 -200 -19 -480 -2 -48 -8 -93 -14 -101 -7 -7
-15 -45 -18 -83 -3 -39 -13 -122 -21 -185 -22 -165 -32 -246 -49 -406 -8 -78
-24 -215 -35 -305 -12 -90 -26 -198 -31 -239 -5 -41 -11 -93 -14 -115 -6 -37
-3 -43 39 -85 l46 -44 0 131 0 132 38 3 37 3 6 135 c3 74 10 225 14 336 l8
201 31 9 c24 7 32 16 37 44 4 19 10 186 14 372 5 262 4 341 -6 356 -10 17 -10
23 0 36 8 9 19 16 25 16 17 0 53 39 65 71 13 37 -13 123 -45 148 -23 18 -24
20 -7 30 26 14 11 23 -47 29 -36 3 -51 1 -54 -9z"/>
<path d="M4592 3613 c-6 -2 -10 -8 -7 -13 3 -5 -4 -11 -15 -15 -29 -9 -43 -41
-44 -101 0 -63 33 -119 76 -128 31 -6 36 -27 12 -47 -14 -11 -15 -51 -9 -373
4 -199 12 -369 17 -378 5 -10 19 -20 32 -24 21 -5 24 -12 30 -96 3 -50 6 -157
6 -237 0 -156 14 -311 31 -342 6 -12 21 -19 39 -19 l30 0 0 -129 c0 -125 1
-129 23 -135 40 -10 46 -7 58 36 8 32 8 69 -1 153 -7 60 -14 130 -16 155 -2
25 -8 65 -13 90 -17 72 -31 196 -31 265 0 35 -4 75 -10 90 -9 23 -63 443 -74
565 -2 25 -14 76 -26 113 l-22 68 28 41 c16 22 37 46 46 52 23 14 23 25 -1 50
-22 24 -61 133 -61 170 0 13 -13 53 -30 88 -16 34 -30 73 -30 86 0 21 -11 26
-38 15z"/>
<path d="M6035 3445 c20 -55 19 -56 -55 -125 -84 -79 -155 -120 -260 -149
-105 -30 -273 -61 -324 -61 -92 0 -320 76 -386 129 -20 16 -53 38 -75 49 -22
11 -55 32 -74 46 -19 14 -37 24 -39 21 -2 -2 10 -34 26 -70 29 -60 70 -111
193 -235 42 -43 152 -101 234 -125 82 -24 248 -24 335 -1 184 50 340 178 425
348 51 103 53 122 14 168 -17 20 -20 21 -14 5z"/>
<path d="M1444 3306 c-8 -21 53 -121 115 -189 79 -85 152 -129 289 -173 103
-34 128 -38 209 -37 99 1 198 25 288 70 52 27 147 96 177 129 15 17 41 104 34
111 -2 2 -16 -3 -32 -12 -16 -8 -38 -15 -49 -15 -16 0 -107 -28 -230 -71 -65
-22 -179 -22 -311 0 -142 24 -201 42 -254 76 -19 13 -53 26 -75 30 -57 10
-109 39 -123 69 -13 29 -30 34 -38 12z"/>
<path d="M1335 1506 c-62 -13 -153 -44 -208 -73 -31 -15 -263 -231 -280 -260
-4 -7 14 0 40 15 67 40 206 98 283 119 51 14 103 18 240 18 185 -1 269 -14
356 -56 22 -10 67 -26 100 -35 88 -23 131 -53 239 -166 86 -90 104 -116 147
-208 77 -163 99 -218 113 -288 8 -35 16 -66 19 -69 3 -3 22 1 43 8 l38 15 2
252 3 252 -24 0 c-14 0 -41 -10 -61 -21 -42 -25 -104 -22 -136 7 -10 9 -42 60
-70 113 -120 223 -323 351 -604 381 -113 12 -164 11 -240 -4z"/>
<path d="M5895 1510 c-150 -14 -266 -60 -350 -140 -33 -31 -80 -67 -103 -79
-29 -15 -54 -39 -76 -74 -19 -29 -42 -59 -51 -67 -9 -7 -28 -36 -41 -62 -14
-27 -29 -46 -34 -43 -4 3 -22 -8 -39 -25 -29 -29 -32 -30 -77 -20 -25 6 -55
15 -65 21 -14 7 -25 6 -41 -6 -13 -8 -18 -15 -12 -15 13 0 23 -129 25 -320 1
-135 1 -135 -22 -139 -16 -2 -4 -8 36 -16 33 -7 63 -11 67 -9 3 2 9 32 13 66
11 104 74 276 118 320 8 7 20 26 28 40 22 42 156 185 205 218 24 17 73 42 110
56 36 13 82 33 102 43 21 10 75 28 122 39 296 73 565 29 833 -135 61 -37 102
-55 120 -54 24 1 28 -2 25 -22 -4 -31 96 -167 123 -167 16 0 12 12 -28 101
-35 76 -44 102 -34 108 16 10 -8 21 -45 21 -14 0 -39 7 -56 16 -28 15 -30 15
-25 0 11 -29 -28 0 -70 50 -75 93 -245 208 -371 252 -145 51 -208 58 -387 42z"/>
<path d="M2338 493 c7 -3 16 -2 19 1 4 3 -2 6 -13 5 -11 0 -14 -3 -6 -6z"/>
<path d="M78 280 c-43 -23 -78 -83 -78 -132 0 -18 10 -51 23 -72 72 -125 258
-86 274 58 14 119 -113 204 -219 146z"/>
<path d="M7135 272 c-17 -15 -41 -34 -54 -42 -32 -21 -40 -93 -16 -144 70
-147 295 -87 282 75 -9 113 -136 180 -212 111z"/>
</g>
</svg>
