<?xml version="1.0" standalone="no"?>
<!DOCTYPE svg PUBLIC "-//W3C//DTD SVG 20010904//EN"
 "http://www.w3.org/TR/2001/REC-SVG-20010904/DTD/svg10.dtd">
<svg version="1.0" xmlns="http://www.w3.org/2000/svg"
 width="735.000000pt" height="1102.000000pt" viewBox="0 0 735.000000 1102.000000"
 preserveAspectRatio="xMidYMid meet">

<g transform="translate(0.000000,1102.000000) scale(0.100000,-0.100000)"
fill="#000000" stroke="none">
<path d="M82 11004 c-131 -67 -94 -265 52 -281 115 -13 200 106 151 211 -35
73 -131 106 -203 70z"/>
<path d="M7132 11003 c-97 -48 -108 -192 -19 -255 41 -30 113 -34 157 -10 39
21 80 90 80 135 0 104 -122 178 -218 130z"/>
<path d="M3640 10092 c-39 -11 -68 -35 -75 -64 -7 -27 -10 -29 -100 -44 -22
-4 -58 -15 -80 -25 -52 -24 -202 -26 -249 -4 -26 13 -75 15 -281 13 l-250 -3
3 -52 4 -52 -114 -3 c-113 -3 -113 -3 -113 -28 0 -17 -10 -30 -35 -43 -19 -11
-59 -36 -88 -55 -47 -31 -53 -39 -50 -64 6 -35 13 -34 -307 -48 -366 -16 -326
-4 -397 -115 -50 -78 -65 -94 -91 -99 -69 -13 -257 -80 -344 -122 -176 -86
-370 -236 -481 -370 -38 -47 -42 -56 -38 -96 5 -55 56 -177 101 -239 19 -27
41 -64 49 -84 l15 -36 113 6 c114 7 189 25 518 125 113 35 240 95 321 152 59
41 214 209 262 284 14 21 55 70 91 108 36 38 66 75 66 82 0 20 54 25 200 16
147 -8 247 6 341 47 58 26 67 37 85 103 25 94 -12 170 -91 188 -49 11 -58 6
-81 -38 -13 -23 -28 -38 -43 -40 -12 -2 -25 -10 -28 -18 -6 -17 -81 -19 -133
-4 -76 22 -174 39 -196 34 -20 -5 -30 -20 -48 -78 -5 -14 -13 -17 -39 -12 -81
14 -271 27 -364 24 -57 -2 -103 0 -103 3 0 4 15 18 33 32 31 24 45 26 203 36
93 6 233 11 310 12 158 1 148 -4 174 81 12 39 66 88 97 88 11 0 32 14 48 30
28 29 31 30 130 30 99 0 102 1 115 26 8 14 13 41 13 61 l-1 35 41 -8 c23 -5
103 -7 178 -5 152 3 179 -1 179 -30 0 -14 7 -19 30 -19 35 0 38 -10 9 -36 -12
-10 -32 -38 -45 -60 l-25 -42 31 -45 c35 -52 32 -51 240 -66 336 -25 615 -34
687 -22 39 6 94 11 121 11 108 0 192 47 192 108 0 20 3 22 14 13 12 -10 17 -8
25 7 9 16 3 30 -30 76 -39 54 -39 56 -17 56 13 0 29 5 35 11 5 5 77 14 159 19
207 13 192 14 187 -15 -4 -18 3 -32 25 -52 49 -46 59 -52 84 -51 12 1 61 1
106 0 75 -2 84 -4 89 -22 3 -11 12 -20 20 -20 8 0 41 -18 73 -40 32 -22 63
-40 68 -40 5 0 19 -11 32 -25 45 -48 186 -74 445 -82 105 -3 200 -9 211 -14
12 -4 24 -17 27 -29 5 -21 4 -21 -86 -14 -82 5 -313 -8 -386 -22 -25 -5 -28
-2 -41 36 -20 61 -40 65 -170 35 -127 -29 -211 -33 -235 -9 -8 9 -24 33 -35
54 -23 45 -33 50 -80 38 -19 -5 -48 -13 -65 -17 -26 -6 -31 -12 -36 -51 -6
-41 0 -78 36 -237 4 -18 12 -23 38 -23 63 0 132 -12 140 -26 12 -21 37 -17 37
6 0 41 55 37 185 -14 33 -13 92 -36 132 -51 39 -14 76 -32 82 -39 6 -7 20 -57
32 -112 16 -76 26 -104 45 -119 13 -12 24 -26 24 -33 0 -7 4 -11 9 -7 5 3 12
-4 16 -14 8 -28 97 -105 164 -144 84 -50 313 -146 399 -168 51 -14 139 -24
257 -31 434 -25 423 -26 442 41 7 23 31 83 53 134 90 201 85 185 70 212 -34
63 -194 217 -298 285 -190 125 -416 228 -565 255 -23 5 -42 15 -49 29 -6 11
-31 51 -55 88 -54 80 -22 73 -388 89 -143 6 -268 16 -277 21 -10 5 -18 19 -18
31 0 17 -22 36 -91 80 -63 40 -89 62 -85 72 8 22 -10 28 -93 30 -149 4 -134
-1 -129 49 3 25 1 49 -5 55 -7 7 -96 11 -258 11 -207 0 -250 -2 -263 -15 -23
-24 -191 -21 -255 5 -27 10 -79 24 -115 31 -58 10 -66 14 -66 33 0 13 -11 33
-24 45 -22 20 -37 23 -128 27 -57 1 -114 0 -128 -4z"/>
<path d="M3691 9242 c-17 -27 -38 -71 -45 -98 -39 -142 -107 -403 -131 -507
-39 -167 -53 -157 237 -162 208 -3 269 3 243 23 -5 4 -11 48 -13 97 -4 116
-27 271 -53 366 -26 95 -99 224 -159 284 l-47 46 -32 -49z"/>
<path d="M4733 8612 c-17 -26 -43 -71 -58 -100 -17 -36 -62 -90 -131 -158
-109 -108 -217 -186 -444 -319 -63 -37 -126 -80 -140 -95 -14 -15 -60 -50
-102 -78 -93 -63 -129 -67 -191 -23 -23 16 -121 81 -217 143 -96 62 -224 147
-283 188 -60 41 -134 89 -165 107 -106 59 -169 143 -180 241 -3 26 -14 61 -26
79 l-20 31 -76 -5 c-67 -5 -79 -9 -112 -39 -20 -18 -45 -37 -55 -43 -50 -26
-74 -84 -124 -308 -27 -120 -53 -235 -58 -255 -7 -30 -6 -38 5 -38 7 0 28 -17
46 -37 18 -20 42 -43 52 -52 65 -53 106 -95 106 -108 0 -8 13 -19 29 -24 16
-6 32 -16 35 -24 2 -7 24 -16 48 -20 24 -4 103 -27 176 -51 73 -24 165 -51
205 -60 40 -9 137 -34 216 -56 132 -36 158 -40 310 -46 112 -5 214 -3 314 7
137 12 149 12 167 -4 10 -9 23 -15 27 -12 5 3 67 11 139 17 191 17 422 78 569
151 138 68 231 134 272 193 31 45 33 53 33 131 0 46 4 95 9 108 7 17 2 53 -15
126 -13 57 -24 130 -24 164 0 98 -57 207 -111 212 -4 0 -19 12 -34 27 -35 35
-111 78 -139 78 -14 0 -31 -16 -53 -48z"/>
<path d="M831 8239 c-69 -117 -120 -236 -170 -396 -53 -171 -119 -409 -126
-458 l-6 -40 76 -39 c88 -46 109 -41 74 18 -18 32 -21 47 -16 109 5 73 66 287
129 452 17 44 47 126 66 183 21 62 44 111 59 125 22 20 43 57 57 99 6 21 -21
38 -61 38 -25 0 -34 -11 -82 -91z"/>
<path d="M6504 8311 c-33 -15 -44 -26 -49 -50 -8 -37 3 -54 45 -71 36 -15 74
-79 125 -210 20 -52 47 -113 59 -135 67 -114 119 -359 114 -536 -2 -81 1 -121
10 -131 6 -8 9 -18 5 -21 -3 -4 -1 -13 6 -21 10 -12 25 -11 104 6 51 11 97 26
103 34 17 22 -23 164 -47 164 -20 0 -20 -2 -74 230 -72 306 -138 487 -238 658
-56 94 -63 102 -91 102 -17 0 -50 -9 -72 -19z"/>
<path d="M5475 8030 c-88 -8 -103 -13 -193 -57 -47 -24 -77 -45 -85 -62 -9
-19 -21 -27 -45 -29 -27 -3 -32 -7 -32 -28 0 -14 -8 -36 -17 -50 -12 -19 -13
-28 -5 -33 7 -4 16 -28 21 -54 12 -65 54 -122 110 -149 41 -21 60 -23 176 -22
112 1 146 5 246 32 64 17 133 38 155 48 21 9 43 16 48 15 31 -7 34 83 6 139
-11 22 -48 72 -82 111 -53 62 -73 77 -145 110 -46 22 -84 38 -86 38 -1 -1 -33
-5 -72 -9z"/>
<path d="M1855 8010 c-97 -38 -179 -97 -221 -160 -21 -31 -23 -42 -15 -59 6
-11 11 -28 11 -39 0 -11 7 -22 15 -25 8 -4 18 -21 23 -39 7 -29 16 -36 78 -60
84 -32 226 -53 305 -44 32 3 95 15 141 26 72 18 88 27 121 62 34 38 37 45 37
102 0 54 -3 65 -25 84 -14 12 -25 30 -25 41 0 23 -65 74 -96 76 -12 0 -31 8
-41 17 -44 41 -222 51 -308 18z"/>
<path d="M645 6675 c-28 -27 -33 -70 -10 -95 11 -12 18 -60 26 -176 6 -87 19
-233 30 -324 10 -91 26 -255 34 -366 8 -110 18 -215 21 -233 5 -22 1 -42 -12
-66 -23 -44 -12 -81 33 -105 31 -16 35 -16 66 -1 80 38 86 77 91 566 3 239 8
364 19 420 11 61 12 104 5 185 -5 58 -9 118 -9 133 0 15 -4 39 -9 53 -8 21
-13 23 -29 14 -28 -14 -129 -12 -176 5 -52 19 -52 19 -80 -10z"/>
<path d="M6700 6685 c-47 -8 -92 -13 -100 -12 -29 3 -88 -36 -108 -72 -19 -33
-20 -49 -17 -181 3 -80 7 -253 11 -385 9 -327 10 -347 28 -455 9 -52 16 -118
16 -147 l0 -51 53 13 c28 7 74 22 102 33 46 18 50 23 62 68 7 27 13 85 13 129
0 45 13 225 29 400 17 176 33 363 37 415 6 81 10 98 30 119 24 23 32 74 16 97
-12 18 -56 44 -72 43 -8 -1 -53 -7 -100 -14z"/>
<path d="M2196 6114 c-3 -9 -6 -28 -6 -43 0 -15 -13 -74 -29 -132 -40 -141
-290 -1108 -308 -1189 -9 -36 -25 -99 -38 -140 -12 -41 -28 -99 -35 -128 -7
-28 -16 -55 -22 -58 -5 -3 -2 -14 8 -25 9 -10 21 -16 25 -13 15 9 148 44 168
44 16 0 26 11 36 40 1 3 9 22 18 42 10 21 17 44 17 52 0 8 20 64 44 125 25 61
48 127 51 148 4 21 13 67 21 103 8 36 26 128 40 205 14 77 55 241 91 365 102
351 100 338 79 407 -13 43 -30 71 -63 103 -24 25 -53 60 -64 78 -24 37 -25 37
-33 16z"/>
<path d="M5250 6094 c-13 -20 -52 -61 -87 -93 l-62 -56 13 -55 c8 -30 25 -86
39 -125 14 -38 32 -124 40 -190 9 -72 28 -156 46 -210 17 -49 44 -159 61 -244
20 -99 47 -194 76 -270 25 -64 54 -138 65 -166 18 -47 45 -154 56 -221 5 -29
7 -31 93 -48 49 -10 97 -24 107 -32 41 -31 41 -14 4 136 -40 157 -53 195 -107
305 -67 137 -82 196 -93 360 -7 97 -18 166 -46 270 -42 160 -128 484 -159 597
l-21 77 -25 -35z"/>
<path d="M1905 4210 c-58 -12 -122 -37 -153 -58 -15 -11 -43 -27 -62 -36 -52
-25 -77 -48 -84 -79 -4 -19 -3 -26 3 -22 7 4 9 -5 5 -23 -10 -52 15 -81 181
-208 33 -25 107 -68 165 -96 58 -27 119 -56 135 -65 223 -117 287 -147 383
-178 66 -22 126 -35 143 -33 16 3 29 1 29 -3 0 -20 33 7 50 41 16 32 18 46 9
104 -5 37 -22 106 -38 154 -16 48 -36 113 -45 144 -42 146 -239 308 -426 352
-69 17 -228 19 -295 6z"/>
<path d="M5295 4201 c-49 -11 -110 -27 -134 -37 -91 -36 -237 -177 -296 -286
-25 -46 -30 -66 -33 -150 l-4 -98 34 -34 c41 -41 104 -60 167 -51 24 4 95 24
155 45 61 22 154 48 206 60 52 11 158 42 235 69 77 27 172 59 211 70 89 26
112 44 125 98 13 59 -10 112 -72 166 -167 146 -364 195 -594 148z"/>
<path d="M1218 3203 c-42 -49 -81 -157 -232 -641 -91 -290 -184 -581 -206
-647 -23 -66 -47 -145 -54 -176 -7 -31 -16 -61 -20 -67 -3 -6 -15 -51 -25
-100 -11 -50 -37 -124 -60 -172 -23 -45 -41 -88 -41 -94 0 -10 85 -36 117 -36
13 0 173 153 173 165 0 5 6 16 14 24 17 20 32 66 18 57 -14 -9 -11 3 96 344
52 168 110 359 129 425 44 159 81 266 99 286 8 9 19 41 25 73 5 31 17 75 25
98 8 23 21 69 29 102 8 34 23 88 34 121 l20 60 -35 50 c-18 28 -34 57 -34 65
-1 8 -13 30 -29 48 -26 30 -29 31 -43 15z"/>
<path d="M6270 3147 c-103 -54 -138 -95 -121 -141 6 -15 11 -48 11 -74 0 -25
6 -64 14 -87 8 -22 22 -74 31 -115 21 -97 63 -221 113 -337 22 -50 54 -142 72
-204 18 -62 43 -138 57 -169 13 -30 30 -84 38 -120 8 -36 34 -119 58 -185 25
-66 51 -140 58 -165 7 -25 20 -54 29 -65 10 -11 23 -36 29 -56 7 -20 21 -45
33 -55 11 -11 34 -39 50 -63 28 -40 33 -43 64 -38 19 3 47 15 63 26 l29 21
-25 87 c-14 49 -48 138 -75 198 -46 102 -88 233 -88 276 0 52 -357 1184 -384
1218 -6 8 -15 25 -21 37 -9 22 -12 23 -35 11z"/>
<path d="M5925 1359 c-166 -21 -335 -88 -472 -186 -89 -64 -203 -192 -252
-283 -34 -64 -58 -149 -45 -159 5 -3 17 -18 26 -32 24 -37 98 -61 253 -79 44
-5 114 -14 155 -19 137 -19 424 -25 593 -12 326 23 407 32 476 51 39 11 88 20
108 20 58 0 114 19 143 49 25 24 27 32 23 81 -3 30 -15 78 -28 105 -25 59 -87
143 -120 165 -12 8 -48 46 -79 83 -44 52 -74 76 -127 103 -202 101 -430 141
-654 113z"/>
<path d="M1145 1336 c-80 -23 -195 -72 -208 -89 -7 -8 -32 -21 -57 -27 -24 -7
-60 -25 -79 -40 -19 -16 -38 -27 -42 -25 -11 7 -34 -26 -34 -49 0 -13 -7 -22
-20 -24 -11 -1 -35 -24 -53 -51 -28 -41 -32 -54 -28 -91 10 -86 24 -94 229
-135 142 -28 234 -39 509 -60 161 -12 219 -12 420 1 284 17 353 26 405 52 60
31 68 45 64 120 -1 36 -7 75 -13 87 -16 31 -50 65 -59 59 -5 -3 -29 14 -55 38
-64 60 -128 104 -215 148 -138 70 -173 78 -384 84 -104 3 -221 8 -260 11 -45
3 -88 0 -120 -9z"/>
<path d="M78 280 c-43 -23 -78 -83 -78 -132 0 -18 10 -51 23 -72 72 -125 258
-86 274 58 14 119 -113 204 -219 146z"/>
<path d="M7132 283 c-44 -21 -74 -66 -79 -117 -18 -159 194 -228 275 -90 74
127 -63 273 -196 207z"/>
</g>
</svg>
