<?xml version="1.0" standalone="no"?>
<!DOCTYPE svg PUBLIC "-//W3C//DTD SVG 20010904//EN"
 "http://www.w3.org/TR/2001/REC-SVG-20010904/DTD/svg10.dtd">
<svg version="1.0" xmlns="http://www.w3.org/2000/svg"
 width="1547.000000pt" height="2349.000000pt" viewBox="0 0 1547.000000 2349.000000"
 preserveAspectRatio="xMidYMid meet">

<g transform="translate(0.000000,2349.000000) scale(0.100000,-0.100000)"
fill="#000000" stroke="none">
<path d="M51 23476 c-87 -48 -50 -186 49 -186 51 0 100 49 100 99 0 75 -83
124 -149 87z"/>
<path d="M15321 23476 c-87 -48 -50 -186 49 -186 51 0 100 49 100 99 0 75 -83
124 -149 87z"/>
<path d="M1475 19972 c-22 -15 -53 -50 -68 -77 -24 -43 -27 -58 -23 -104 4
-47 10 -60 46 -96 22 -23 37 -45 33 -50 -5 -4 -3 -5 3 -2 6 3 39 -23 75 -59
35 -36 73 -69 85 -74 11 -4 25 -24 31 -43 10 -32 9 -36 -10 -41 -21 -5 -41 14
-42 41 0 7 -54 67 -120 135 -124 126 -193 205 -214 246 -16 30 -69 62 -101 61
-22 -1 -21 -2 8 -10 19 -6 32 -16 32 -26 0 -18 60 -93 164 -203 39 -41 96
-106 126 -144 30 -38 71 -87 91 -108 20 -21 35 -39 33 -39 -2 -1 -8 -2 -13 -3
-21 -3 -20 -16 6 -67 21 -40 34 -54 51 -55 20 -1 21 1 9 15 -22 24 -49 81 -39
81 15 0 53 -46 45 -54 -5 -4 -3 -6 2 -4 12 3 113 -104 210 -225 53 -65 72 -83
78 -71 10 17 -3 35 -122 164 -139 150 -182 203 -172 213 5 5 39 -7 81 -28 40
-20 74 -34 77 -31 3 2 -17 16 -44 30 -94 48 -94 42 -6 126 102 99 241 220 252
220 13 0 368 -393 501 -555 19 -24 129 -148 244 -276 114 -129 254 -286 311
-349 316 -355 470 -526 481 -535 7 -5 26 -26 41 -46 15 -19 67 -78 115 -130
47 -52 191 -211 318 -354 128 -143 283 -316 344 -384 107 -119 140 -162 100
-131 -19 14 -19 14 0 -8 20 -23 32 -30 20 -10 -4 7 -3 8 4 4 6 -4 9 -13 5 -21
-3 -10 2 -15 16 -15 12 0 21 -4 21 -10 0 -5 9 -10 20 -10 11 0 20 1 20 3 0 2
-30 35 -68 73 -37 38 -87 92 -112 119 -25 28 -88 97 -140 155 -98 108 -292
328 -366 416 -23 27 -118 136 -212 243 l-171 195 25 41 c13 23 24 48 24 56 -1
8 -25 40 -54 72 -58 63 -69 64 -117 20 -38 -35 -45 -13 -15 45 l25 49 -52 61
c-57 69 -78 75 -119 37 -15 -14 -33 -25 -40 -25 -8 0 -9 3 -3 8 30 21 64 102
43 102 -4 0 -8 6 -8 13 0 7 -13 26 -30 42 -16 16 -30 35 -30 42 0 22 -23 15
-63 -18 -27 -22 -35 -35 -28 -42 8 -8 18 -4 36 13 l25 24 38 -35 c20 -19 39
-35 42 -37 3 -2 -10 -16 -28 -30 -28 -23 -31 -30 -20 -42 7 -8 0 -4 -16 10
-15 14 -46 47 -69 73 l-40 48 16 35 c28 58 22 85 -32 145 l-49 54 -40 -38
c-48 -47 -62 -35 -33 27 13 26 19 51 14 62 -7 21 -74 104 -83 104 -3 0 -21
-16 -41 -35 -35 -32 -38 -33 -53 -16 -21 23 -20 28 9 63 14 16 25 36 25 45 0
8 -22 38 -49 66 l-50 52 -40 -40 c-37 -35 -41 -37 -41 -17 0 13 6 38 14 56
l14 33 -74 94 c-41 52 -80 101 -87 109 -7 8 -12 43 -12 80 0 53 5 74 28 112
15 26 27 52 27 58 0 20 -40 70 -56 70 -9 0 -41 -22 -72 -49 -31 -26 -82 -66
-113 -89 l-56 -41 -84 99 c-92 108 -115 119 -155 72 -20 -24 -21 -24 -47 -7
-41 27 -55 15 -47 -39 7 -44 5 -48 -25 -75 -18 -16 -36 -38 -40 -49 -9 -30
-53 -62 -85 -62 -15 0 -45 13 -66 29 -57 42 -188 181 -209 221 -10 19 -26 46
-36 59 -42 53 -8 142 71 185 26 14 61 26 78 26 32 0 33 -1 197 -180 71 -77
103 -105 110 -98 3 2 -20 31 -51 64 -30 32 -83 93 -116 134 -33 41 -68 78 -77
82 -9 4 -41 7 -71 7 -44 0 -63 -5 -95 -27z m996 -313 l21 -21 -28 -61 c-19
-44 -28 -79 -28 -122 -1 -66 -8 -55 117 -192 l57 -63 -21 -24 c-24 -27 -33
-25 -64 13 -11 14 -80 93 -153 175 l-132 149 42 36 c59 50 160 131 164 131 2
0 13 -9 25 -21z m259 -574 l34 -35 -29 -30 -29 -30 -33 32 c-18 18 -33 36 -33
42 0 11 40 56 50 56 3 0 21 -16 40 -35z m-762 -80 c-3 -3 -25 18 -48 47 l-43
53 48 -47 c27 -26 46 -50 43 -53z m942 -128 c0 -5 -11 -22 -24 -38 l-24 -28
-37 40 -37 41 28 29 28 29 33 -32 c18 -18 33 -36 33 -41z m119 -192 l-30 -30
-35 39 -34 40 27 28 27 28 38 -37 38 -37 -31 -31z m29 -50 c-6 -14 -13 -23
-16 -21 -7 7 9 46 18 46 5 0 4 -11 -2 -25z m295 -307 c-27 -27 -33 -29 -45
-16 -7 8 -26 28 -42 46 l-30 32 29 30 29 31 45 -46 44 -46 -30 -31z m170 -189
l-31 -31 -38 42 c-22 23 -40 46 -42 50 -1 3 10 19 25 34 l27 27 45 -45 46 -46
-32 -31z"/>
<path d="M990 19911 c-14 -5 -40 -16 -58 -25 -18 -9 -37 -14 -42 -11 -6 3 -10
-1 -10 -9 0 -21 12 -20 62 6 24 13 68 28 98 34 53 12 53 12 15 12 -22 0 -51
-3 -65 -7z"/>
<path d="M713 19663 c-28 -61 -40 -160 -29 -237 6 -40 18 -57 109 -151 55 -58
107 -103 114 -101 7 3 15 1 18 -4 4 -6 14 -10 24 -10 25 0 70 -40 53 -46 -9
-4 -7 -13 8 -31 14 -18 17 -29 10 -38 -8 -9 9 -33 61 -89 39 -42 70 -78 68
-80 -2 -1 -22 -16 -44 -32 -22 -16 -43 -33 -46 -38 -4 -4 -24 8 -45 29 -22 21
-31 32 -21 25 49 -36 13 8 -103 125 -124 124 -130 129 -144 109 -8 -11 -39
-32 -69 -47 l-54 -28 3 -61 c2 -36 11 -72 22 -89 10 -16 87 -99 171 -184 l154
-155 -24 -58 c-23 -53 -28 -112 -10 -112 20 0 161 351 161 401 0 9 10 19 23
23 12 3 40 22 61 42 32 29 36 38 25 46 -11 8 -10 9 4 4 13 -4 49 21 132 94
108 95 135 113 135 90 0 -15 212 -227 258 -257 20 -14 41 -32 45 -39 5 -9 26
-14 58 -14 44 0 55 4 79 30 29 31 60 107 60 147 0 16 6 23 20 23 11 0 20 4 20
9 0 14 -27 20 -38 9 -8 -8 -16 -7 -27 2 -13 11 -14 10 -9 -5 5 -13 4 -16 -4
-11 -8 5 -10 2 -6 -8 3 -9 11 -13 17 -9 17 10 0 -70 -18 -83 -8 -6 -15 -15
-15 -20 0 -16 -60 -46 -99 -50 -27 -2 -43 2 -57 15 -67 65 -245 254 -265 280
-30 40 -46 39 -89 -6 -57 -61 -180 -163 -195 -163 -3 0 -26 19 -51 42 -50 46
-79 92 -68 110 4 7 3 8 -4 4 -8 -4 -16 3 -22 18 -5 14 -14 26 -19 26 -5 0 -23
24 -40 54 -26 44 -37 55 -64 60 -38 7 -203 141 -225 182 -23 43 -27 154 -8
212 10 28 24 56 32 62 16 14 19 40 3 40 -5 0 -22 -25 -36 -57z m120 -660 c34
-38 98 -105 143 -150 l80 -82 -21 -65 c-12 -36 -24 -68 -27 -71 -6 -7 -21 8
-202 198 -66 71 -125 136 -130 145 -7 12 1 25 35 54 24 21 48 38 52 38 5 0 36
-30 70 -67z"/>
<path d="M2019 19582 c-24 -5 -41 -49 -29 -72 13 -24 41 -40 69 -40 32 0 25
15 -11 25 -37 11 -45 41 -16 59 13 8 23 8 38 -2 27 -17 32 -15 21 7 -11 19
-43 30 -72 23z"/>
<path d="M2097 19516 c-4 -10 -5 -21 -2 -24 9 -9 17 6 13 25 -3 17 -4 17 -11
-1z"/>
<path d="M2059 19238 c-8 -19 -4 -68 5 -68 18 0 61 49 51 57 -4 5 -10 3 -12
-3 -2 -6 -11 -20 -19 -30 -14 -18 -15 -17 -11 14 2 17 0 32 -5 32 -4 0 -8 -1
-9 -2z"/>
<path d="M1768 19133 c11 -16 35 -41 53 -58 21 -19 15 -9 -16 28 -52 61 -69
75 -37 30z"/>
<path d="M2558 18990 c14 -16 16 -50 3 -50 -5 0 -12 10 -14 23 -3 15 -5 12 -6
-11 -1 -27 2 -33 17 -30 24 4 28 51 5 68 -15 12 -16 12 -5 0z"/>
<path d="M7973 18964 c-33 -15 -2 -22 130 -27 78 -3 171 -13 206 -22 52 -13
66 -13 73 -3 5 9 8 8 8 -5 0 -35 40 -106 72 -128 43 -29 165 -156 184 -191 37
-70 76 -201 89 -298 27 -194 33 -225 54 -280 12 -30 21 -62 21 -71 0 -9 7 -22
16 -29 12 -11 18 -10 31 3 15 15 14 23 -7 99 -12 46 -24 90 -26 98 -3 11 8 19
33 27 21 6 70 24 108 41 39 16 139 53 224 81 85 29 160 59 168 67 8 8 13 14
11 14 -32 0 -147 -30 -238 -62 -105 -37 -288 -88 -317 -88 -6 0 -14 19 -18 43
-3 23 -13 78 -22 122 -16 76 -27 101 -127 275 -41 71 -111 149 -167 185 -24
16 -41 38 -53 69 -26 69 -53 77 -266 82 -96 2 -181 1 -187 -2z"/>
<path d="M7725 18953 c-72 -9 -193 -37 -227 -51 -26 -12 -45 -30 -63 -63 -29
-54 -30 -59 -10 -59 8 0 23 17 32 37 18 38 19 38 147 71 70 17 172 37 225 44
69 9 89 14 71 19 -26 7 -125 9 -175 2z"/>
<path d="M1195 18940 c3 -5 8 -10 11 -10 2 0 4 5 4 10 0 6 -5 10 -11 10 -5 0
-7 -4 -4 -10z"/>
<path d="M1209 18813 c-13 -15 -12 -15 11 -3 34 17 36 20 18 20 -9 0 -22 -7
-29 -17z"/>
<path d="M7395 18760 c-3 -5 -2 -10 4 -10 5 0 13 5 16 10 3 6 2 10 -4 10 -5 0
-13 -4 -16 -10z"/>
<path d="M7295 18687 c-39 -41 -90 -98 -113 -128 -53 -70 -126 -219 -146 -296
-19 -72 -37 -238 -35 -309 1 -28 -1 -56 -5 -62 -3 -6 -49 -34 -102 -62 -52
-29 -93 -57 -92 -63 6 -30 -25 -87 -58 -108 -19 -12 -33 -23 -30 -26 3 -3 1
-16 -5 -30 -6 -18 -4 -33 9 -58 l17 -35 1 40 c2 48 11 60 83 108 51 33 126
103 190 175 14 15 26 42 27 59 1 18 7 34 13 36 7 2 11 40 11 102 0 270 66 446
237 630 46 50 83 92 83 95 0 14 -20 -2 -85 -68z m-387 -902 c-37 -35 -75 -68
-86 -74 -17 -9 -18 -8 -9 22 8 24 29 44 81 78 39 25 73 44 76 42 3 -3 -25 -33
-62 -68z"/>
<path d="M7409 18678 c0 -18 -3 -49 -6 -68 -7 -48 -7 -44 7 -145 7 -49 10
-116 7 -150 -5 -52 -4 -58 8 -42 10 13 12 39 8 91 -4 47 -2 76 5 80 7 4 6 15
-3 33 -8 16 -13 55 -13 102 1 53 3 67 9 46 6 -29 7 -29 8 -4 2 38 -10 89 -20
89 -5 0 -9 -15 -10 -32z"/>
<path d="M10199 18579 c-106 -10 -228 -39 -334 -77 -96 -35 -154 -61 -139 -62
15 0 148 44 204 68 101 43 195 57 390 57 l185 0 -90 12 c-103 13 -102 13 -216
2z"/>
<path d="M10550 18549 c25 -4 61 -7 80 -7 29 1 26 2 -15 8 -69 11 -126 10 -65
-1z"/>
<path d="M11214 18550 c-39 -4 -82 -14 -95 -21 -27 -14 -149 -18 -193 -6 -26
7 -27 7 -12 -8 25 -26 102 -25 206 1 80 21 119 25 239 24 79 0 142 2 140 4
-10 8 -220 13 -285 6z"/>
<path d="M10742 18538 c32 -7 60 -7 85 0 34 9 28 10 -47 10 -81 0 -83 -1 -38
-10z"/>
<path d="M11555 18510 c3 -5 27 -16 54 -24 70 -21 121 -50 160 -90 19 -20 39
-36 44 -36 11 0 100 -81 106 -96 2 -5 18 -25 35 -44 43 -48 88 -116 111 -168
10 -23 20 -40 22 -38 19 19 -118 227 -195 296 -133 120 -168 144 -257 180 -83
33 -89 34 -80 20z"/>
<path d="M8230 18429 c-14 -4 -97 -8 -185 -8 -157 -1 -477 -25 -495 -36 -6 -4
-10 2 -10 12 -1 15 -5 13 -26 -11 -14 -15 -23 -30 -21 -32 2 -3 33 2 68 10 35
8 96 17 134 21 39 4 86 10 105 12 19 3 130 8 245 10 116 3 214 8 218 13 13 12
-5 18 -33 9z"/>
<path d="M9659 18436 c-2 -2 -25 -6 -52 -8 -53 -6 -76 -18 -31 -18 40 1 146
28 113 29 -14 1 -28 -1 -30 -3z"/>
<path d="M8290 18412 c0 -4 19 -13 43 -21 29 -9 49 -23 64 -47 17 -26 19 -34
8 -34 -8 0 -15 -4 -15 -10 0 -13 11 -12 32 4 16 12 16 15 -3 45 -24 40 -129
91 -129 63z"/>
<path d="M8218 18353 c6 -2 18 -2 25 0 6 3 1 5 -13 5 -14 0 -19 -2 -12 -5z"/>
<path d="M8295 18320 c42 -33 65 -40 44 -12 -22 28 -42 42 -62 42 -16 0 -12
-7 18 -30z"/>
<path d="M7576 18317 c-21 -7 -46 -23 -55 -37 l-16 -24 30 22 c17 12 57 27 90
33 33 6 62 13 64 15 9 9 -76 2 -113 -9z"/>
<path d="M4290 18242 c-67 -67 -109 -145 -146 -269 -33 -112 -37 -279 -9 -388
10 -38 19 -77 19 -85 2 -20 37 -92 43 -86 3 2 0 13 -5 23 -38 73 -50 429 -19
537 34 119 87 214 151 272 39 35 53 54 42 54 -10 0 -44 -26 -76 -58z"/>
<path d="M4390 18292 c0 -7 124 -150 167 -192 14 -13 14 -13 8 8 -11 38 11 25
67 -40 29 -35 94 -110 144 -168 71 -83 89 -110 84 -125 -10 -29 -3 -44 54
-105 69 -74 80 -76 23 -3 -26 32 -47 70 -47 84 -1 42 -22 74 -147 226 -67 81
-131 159 -142 173 -17 22 -22 23 -40 13 -11 -7 -23 -13 -25 -13 -2 0 -33 34
-67 75 -59 70 -79 87 -79 67z"/>
<path d="M7454 18245 c11 -8 27 -15 35 -15 11 0 10 4 -5 15 -10 8 -26 14 -34
14 -11 0 -10 -3 4 -14z"/>
<path d="M4362 18230 c-11 -18 -10 -20 18 -20 32 0 37 9 18 28 -16 16 -21 15
-36 -8z"/>
<path d="M8764 17938 c-31 -34 -54 -71 -54 -85 0 -15 39 22 63 60 24 37 17 54
-9 25z"/>
<path d="M3583 17913 c9 -9 19 -14 23 -11 10 10 -6 28 -24 28 -15 0 -15 -1 1
-17z"/>
<path d="M12131 17860 c11 -41 27 -120 35 -175 8 -55 21 -136 29 -180 7 -44
16 -112 19 -151 l6 -71 -61 -9 -62 -9 -47 -83 c-26 -46 -50 -85 -54 -85 -3 -1
-23 12 -44 30 -68 57 -249 182 -342 235 -413 237 -831 340 -1066 263 -42 -14
-91 -25 -109 -25 -43 0 -67 -9 -58 -23 3 -5 1 -7 -5 -3 -16 10 -190 -37 -252
-69 -30 -15 -72 -41 -92 -57 -42 -33 -184 -108 -191 -101 -12 11 -108 -51
-168 -109 -36 -35 -68 -63 -70 -64 -34 -9 -49 -18 -49 -31 0 -9 -6 -13 -14
-10 -8 3 -31 1 -50 -4 -24 -7 -48 -7 -72 0 -28 8 -36 7 -41 -5 -3 -8 -11 -14
-18 -14 -6 0 -20 -9 -30 -20 -10 -11 -23 -20 -28 -20 -6 0 -18 -6 -26 -14 -14
-13 -171 -99 -508 -278 -62 -33 -113 -62 -113 -64 0 -2 35 13 78 32 42 20 106
49 142 64 69 29 277 136 248 126 -28 -8 -21 2 12 19 35 18 44 19 34 3 -9 -14
-1 -9 86 47 115 75 164 100 198 100 24 1 31 -3 27 -14 -4 -10 -2 -11 8 -3 7 6
22 10 34 9 20 -1 18 -5 -16 -47 -21 -25 -56 -72 -78 -105 -40 -60 -167 -295
-159 -295 2 0 -8 -33 -23 -72 -18 -49 -33 -74 -45 -76 -15 -3 -16 -1 -7 16 17
32 14 33 -26 17 -39 -16 -51 -14 -37 8 5 7 0 2 -11 -12 -23 -29 -38 -43 -117
-105 -32 -26 -65 -46 -74 -46 -12 0 -14 -3 -6 -13 6 -7 32 -13 59 -14 26 0 40
1 31 4 -10 2 -18 8 -18 11 0 11 102 52 128 52 19 0 21 -3 12 -19 -15 -29 -13
-38 11 -44 14 -4 23 1 29 16 4 12 4 26 0 30 -11 12 -1 45 17 51 10 4 13 1 9
-12 -12 -43 -17 -110 -8 -116 5 -3 19 31 31 78 30 123 97 305 119 330 11 11
31 44 45 73 37 78 67 123 82 123 8 0 28 27 45 61 50 99 217 299 249 299 10 0
23 6 29 12 10 10 15 10 21 -1 7 -11 14 -9 35 12 15 15 27 26 29 25 1 -1 34 17
72 39 130 75 315 150 460 186 120 30 415 45 518 27 201 -35 305 -65 432 -126
175 -83 303 -159 375 -222 8 -8 39 -31 69 -53 158 -114 344 -326 421 -480 17
-36 41 -76 51 -89 16 -19 14 -13 -5 27 -15 29 -26 59 -26 67 0 8 -28 51 -62
96 -118 153 -123 163 -122 254 1 90 21 147 60 172 23 16 94 21 113 10 29 -18
26 29 -16 256 -8 47 -12 91 -8 97 3 7 -7 60 -24 119 -16 59 -33 124 -36 144
-4 20 -13 45 -20 55 -9 12 -7 -6 6 -57z m-2291 -524 c0 -3 -4 -8 -10 -11 -5
-3 -10 -1 -10 4 0 6 5 11 10 11 6 0 10 -2 10 -4z m2190 -266 c0 -5 -5 -10 -11
-10 -5 0 -7 5 -4 10 3 6 8 10 11 10 2 0 4 -4 4 -10z m-2850 -545 c0 -13 -24
-54 -30 -50 -4 2 -27 -8 -51 -23 -24 -16 -53 -32 -64 -36 -17 -6 -17 -4 4 18
14 15 30 26 37 26 7 0 20 10 28 22 20 28 76 60 76 43z"/>
<path d="M3618 17828 c-5 -59 0 -71 62 -138 42 -45 31 -27 -24 42 -26 32 -29
43 -27 92 3 71 -6 73 -11 4z"/>
<path d="M8525 17692 l-29 -37 31 23 c37 27 47 39 35 46 -4 2 -21 -12 -37 -32z"/>
<path d="M3767 17611 c-17 -6 -17 -8 -3 -20 12 -10 16 -10 16 -1 0 13 77 10
115 -4 11 -4 9 -1 -5 7 -30 17 -98 27 -123 18z"/>
<path d="M7440 17583 c13 -10 69 -51 124 -91 54 -41 112 -82 130 -92 17 -9 64
-37 104 -60 40 -23 84 -42 96 -42 13 0 56 19 96 43 39 24 97 58 128 74 32 17
75 43 97 59 115 85 145 109 141 114 -3 2 -22 -9 -43 -25 -55 -42 -111 -77
-181 -112 -33 -17 -72 -42 -86 -56 -24 -24 -40 -29 -78 -26 -9 1 -22 -7 -28
-18 -13 -25 -59 -28 -98 -7 -15 8 -47 24 -72 34 -25 11 -88 51 -140 89 -52 38
-122 84 -155 102 -33 18 -49 24 -35 14z"/>
<path d="M5020 17542 c0 -5 13 -21 30 -37 16 -16 42 -46 56 -67 15 -21 31 -38
36 -38 5 0 -19 34 -53 75 -62 75 -69 82 -69 67z"/>
<path d="M6675 17519 c-4 -11 -23 -32 -44 -47 -84 -61 -150 -126 -156 -152 -5
-23 -14 -30 -52 -39 -75 -19 -164 -68 -238 -131 -39 -33 -73 -60 -76 -60 -10
0 -120 -137 -167 -206 -57 -85 -100 -174 -115 -233 -6 -28 -15 -51 -19 -51 -4
0 -11 18 -14 41 -5 29 -15 47 -36 62 -39 29 -101 114 -93 127 3 5 -1 10 -11
10 -24 0 -2 24 42 45 24 11 34 21 30 32 -3 8 -6 19 -6 24 0 10 -60 39 -80 39
-5 0 -10 -7 -10 -15 0 -8 -17 -26 -37 -40 -23 -15 -31 -25 -21 -25 9 0 30 11
46 25 33 28 70 33 78 10 4 -10 -12 -31 -44 -60 l-50 -45 15 -38 c8 -21 43 -69
79 -107 35 -38 61 -71 57 -74 -3 -4 -8 0 -10 7 -3 6 -12 12 -20 12 -9 0 -22 8
-29 18 -12 16 -13 15 -8 -5 4 -14 28 -32 71 -53 35 -18 67 -39 70 -47 12 -30
75 65 88 132 14 80 81 206 181 340 55 74 61 80 164 161 90 71 104 78 172 83 9
0 46 30 82 66 39 39 73 65 86 65 12 0 18 4 15 10 -3 5 15 35 40 67 25 32 45
61 45 66 0 16 -19 6 -25 -14z"/>
<path d="M6742 17440 c-5 -14 -17 -42 -26 -64 -9 -21 -16 -51 -16 -66 0 -15
-7 -44 -15 -63 -20 -49 -19 -74 5 -80 17 -4 20 0 20 32 0 49 26 147 50 192 17
31 18 38 6 55 -14 18 -15 18 -24 -6z"/>
<path d="M5190 17421 c0 -7 -5 -9 -12 -5 -8 5 -9 2 -5 -9 4 -10 0 -20 -9 -25
-9 -5 -12 -15 -8 -25 5 -13 10 -15 27 -5 18 9 25 6 51 -24 17 -19 61 -69 98
-111 45 -50 66 -81 62 -91 -3 -9 -10 -16 -14 -16 -26 0 102 -165 135 -174 10
-3 21 -4 22 -2 4 3 -61 87 -94 122 -16 18 -21 32 -17 56 4 30 -3 41 -66 108
-38 41 -77 88 -85 105 -19 38 -85 113 -85 96z"/>
<path d="M9669 17163 l-34 -38 38 34 c20 19 37 36 37 38 0 8 -8 0 -41 -34z"/>
<path d="M6666 17118 c11 -61 53 -193 68 -213 9 -12 15 -42 16 -77 0 -53 -2
-57 -34 -77 -19 -12 -41 -18 -50 -15 -9 3 -16 2 -16 -4 0 -19 -212 -162 -240
-162 -7 0 -26 -12 -43 -26 -16 -14 -56 -38 -88 -55 -56 -28 -229 -161 -278
-214 -13 -14 -27 -25 -32 -25 -5 0 -18 -18 -29 -40 -11 -22 -26 -40 -33 -40
-18 0 -96 -101 -132 -170 -8 -16 -15 -48 -15 -71 0 -43 -7 -53 -112 -166 -24
-26 -29 -38 -24 -59 l7 -27 18 29 c10 16 31 40 46 54 61 56 154 220 124 220
-20 0 -7 40 31 91 48 64 63 73 90 59 30 -16 25 -39 -7 -37 -27 2 -28 0 -27
-44 2 -46 59 -199 74 -199 5 0 -4 29 -20 64 -30 65 -52 174 -33 163 6 -4 16
-28 22 -54 29 -112 105 -260 180 -349 44 -51 81 -98 90 -112 12 -19 149 -32
179 -17 21 11 15 14 -57 24 -97 14 -142 41 -204 120 -69 88 -134 250 -143 356
-2 27 -7 57 -10 67 -3 10 -3 18 1 18 14 0 71 -34 82 -49 7 -9 13 -11 13 -6 0
11 148 12 292 1 56 -4 89 -3 93 4 3 5 34 9 68 8 l62 -1 -60 -7 -60 -7 67 1 68
2 -27 -28 -27 -28 40 1 c21 1 53 5 69 10 22 6 16 7 -23 3 l-53 -5 16 25 c12
17 28 26 63 30 26 4 61 9 77 13 30 5 30 5 11 -16 -11 -11 -15 -21 -9 -21 14 0
44 35 36 43 -6 7 11 11 35 8 6 -1 12 3 12 10 0 8 -11 9 -32 5 -18 -4 -70 -10
-115 -13 -46 -3 -83 -9 -83 -12 0 -3 -87 -3 -192 0 -201 7 -267 16 -345 46
-26 9 -31 10 -58 12 -14 0 -25 5 -25 9 0 5 11 14 25 20 19 9 25 19 25 42 0 39
37 78 82 87 22 4 51 26 89 65 31 32 78 72 105 89 27 17 60 41 74 54 14 12 70
48 125 80 55 32 107 63 115 70 8 6 28 12 43 13 15 1 37 7 48 13 31 16 67 3
122 -46 27 -25 65 -49 85 -55 53 -14 192 -13 192 2 0 9 3 9 11 1 7 -7 25 -9
40 -6 46 9 93 -5 158 -47 34 -22 67 -40 74 -40 7 0 30 -9 52 -20 22 -11 45
-20 53 -20 7 0 11 -4 7 -9 -3 -6 16 -24 41 -42 l47 -32 -22 -19 c-13 -10 -32
-18 -42 -18 -23 0 -47 -39 -29 -50 14 -9 -47 -20 -111 -20 -41 0 -78 -17 -109
-50 -3 -3 -12 -6 -20 -7 -8 0 -69 -15 -135 -31 -66 -17 -142 -33 -169 -37 -27
-4 -45 -10 -40 -15 5 -5 65 4 139 20 72 16 140 30 153 30 12 0 30 5 40 11 14
9 26 8 51 -6 19 -9 30 -11 26 -5 -5 9 -1 10 16 5 l24 -8 -25 21 c-28 23 -33
20 70 46 127 33 170 48 165 56 -3 4 3 6 12 4 10 -3 65 11 123 30 58 18 125 39
149 46 23 6 41 13 39 16 -3 2 -27 -3 -54 -11 -84 -25 -73 -15 21 20 50 19 83
34 75 34 -8 0 -33 -7 -55 -15 -22 -8 -60 -19 -85 -24 -25 -6 -56 -13 -70 -16
-13 -3 -27 -10 -31 -15 -6 -11 -39 -2 -39 11 0 5 -25 22 -55 39 -30 17 -55 35
-55 40 0 5 -26 21 -57 35 -32 15 -67 32 -78 39 -47 27 -181 89 -217 100 -9 3
-33 -3 -54 -14 -43 -21 -99 -24 -174 -8 -71 15 -112 54 -140 131 -12 35 -27
74 -33 88 -6 14 -12 32 -13 40 -1 8 -16 57 -33 108 -17 51 -31 103 -31 115 0
27 -17 47 -42 47 -14 0 -16 -6 -12 -32z m1094 -748 c-8 -5 -22 -9 -30 -9 -10
0 -8 3 5 9 27 12 43 12 25 0z m-70 -22 c-12 -5 -25 -6 -28 -3 -3 3 0 5 7 5 7
0 10 4 7 9 -4 5 4 7 16 3 l22 -5 -24 -9z m-375 -146 c-3 -3 -11 0 -18 7 -9 10
-8 11 6 5 10 -3 15 -9 12 -12z m-662 -109 c-7 -2 -21 -2 -30 0 -10 3 -4 5 12
5 17 0 24 -2 18 -5z m-849 -137 c-6 -16 -24 -23 -24 -8 0 10 22 33 27 28 2 -2
1 -11 -3 -20z"/>
<path d="M9385 17010 c-10 -11 -16 -22 -13 -25 3 -3 13 6 22 20 20 30 16 32
-9 5z"/>
<path d="M9331 16967 c-9 -12 -10 -17 -2 -17 7 0 9 -6 5 -12 -5 -10 -4 -10 5
-2 7 7 11 20 9 29 -3 17 -4 17 -17 2z"/>
<path d="M9270 16885 c-7 -8 -18 -15 -26 -15 -19 0 -64 -22 -64 -31 0 -11 78
25 98 45 9 9 14 16 10 16 -3 0 -11 -7 -18 -15z"/>
<path d="M9195 16779 c-36 -54 -58 -76 -86 -88 -22 -9 -39 -19 -39 -23 0 -15
15 -8 83 35 49 30 75 55 93 87 l26 45 -29 -34 c-15 -19 -34 -42 -41 -50 -8 -9
0 10 17 42 17 31 29 57 27 57 -2 0 -25 -32 -51 -71z"/>
<path d="M9240 16695 c-7 -8 -19 -15 -27 -15 -9 0 -45 -19 -82 -43 -36 -24
-82 -53 -101 -65 -19 -12 -29 -22 -21 -22 8 0 55 27 103 60 49 33 95 60 102
60 7 0 21 9 31 20 10 11 16 20 13 20 -3 0 -11 -7 -18 -15z"/>
<path d="M8637 16673 c-10 -9 -9 -23 2 -23 5 0 11 7 15 15 5 15 -5 20 -17 8z"/>
<path d="M8574 16625 c4 -12 2 -16 -8 -12 -8 3 -20 -1 -27 -9 -19 -23 -3 -28
30 -8 32 19 36 34 11 42 -9 3 -11 -1 -6 -13z"/>
<path d="M9169 16613 c-13 -16 -12 -17 4 -4 16 13 21 21 13 21 -2 0 -10 -8
-17 -17z"/>
<path d="M8290 16581 c-36 -11 -93 -42 -87 -47 4 -5 136 42 146 51 7 7 -30 4
-59 -4z"/>
<path d="M12305 16560 c9 -18 39 -70 66 -115 27 -46 49 -87 49 -90 0 -4 13
-24 29 -44 42 -53 137 -221 196 -347 29 -62 59 -116 67 -120 8 -5 40 -57 72
-116 31 -59 61 -110 66 -113 16 -10 40 -62 42 -92 1 -15 13 -44 27 -63 l25
-35 -32 29 c-33 30 -45 27 -17 -4 15 -16 13 -17 -22 -11 -60 11 -333 5 -346
-8 -6 -6 -7 -14 -3 -18 4 -5 104 -11 222 -15 210 -6 304 -18 322 -41 18 -22
88 -162 146 -292 32 -71 65 -144 73 -162 8 -17 16 -38 17 -46 1 -8 7 -21 13
-28 12 -15 43 -87 43 -100 0 -5 -10 -13 -22 -19 -21 -10 -21 -10 -6 3 10 8 15
16 13 19 -3 3 -21 -10 -41 -28 -19 -19 -42 -34 -50 -34 -8 0 -32 -8 -52 -18
l-37 -18 -32 32 c-19 19 -27 34 -21 36 7 3 -15 19 -48 37 -47 26 -78 34 -149
42 -96 10 -220 19 -170 12 78 -10 195 -37 238 -54 27 -11 46 -15 42 -9 -3 5
-2 10 2 10 16 0 33 -24 33 -44 0 -35 42 -72 102 -91 52 -17 59 -17 75 -3 10 9
41 27 68 42 64 33 95 60 95 82 0 23 -77 212 -100 244 -27 39 -75 140 -94 197
-9 28 -35 76 -56 106 -22 31 -40 62 -40 69 0 21 -38 53 -90 76 -52 22 -105 75
-113 112 -7 27 -88 175 -123 225 -12 17 -50 86 -84 155 -34 69 -71 137 -81
151 -10 14 -48 79 -85 145 -36 65 -69 121 -73 124 -10 8 -106 160 -129 207
-12 23 -27 45 -33 48 -6 4 -3 -7 6 -25z"/>
<path d="M8804 16565 c-10 -8 -14 -15 -8 -15 6 0 17 7 24 15 16 19 9 19 -16 0z"/>
<path d="M8900 16548 c-12 -22 -12 -22 6 -6 10 10 15 20 12 24 -4 3 -12 -5
-18 -18z"/>
<path d="M8669 16463 c-13 -16 -12 -17 4 -4 9 7 17 15 17 17 0 8 -8 3 -21 -13z"/>
<path d="M7975 16440 c-38 -16 -65 -29 -59 -29 20 -2 134 41 134 50 0 5 -1 9
-2 8 -2 0 -34 -14 -73 -29z"/>
<path d="M8802 16418 c-21 -29 -48 -67 -60 -84 -17 -25 -61 -49 -219 -119
-525 -234 -1156 -455 -1528 -536 -55 -12 -104 -22 -110 -24 -22 -5 -52 -17
-87 -35 -20 -11 -72 -25 -115 -31 -43 -6 -82 -15 -87 -20 -6 -5 -28 -9 -50 -9
-28 0 -37 -3 -30 -10 8 -8 46 -7 125 1 110 11 175 27 119 30 l-25 1 25 8 c33
10 60 -20 60 -66 0 -28 6 -36 33 -50 17 -9 36 -23 40 -31 5 -7 12 -11 18 -8
13 9 11 -21 -5 -59 -14 -34 -63 -86 -81 -86 -5 0 -18 18 -27 40 -12 29 -22 40
-38 40 -13 0 -18 -4 -15 -11 14 -22 -31 15 -60 49 -31 37 -23 36 33 -6 17 -13
32 -20 32 -14 0 28 -148 110 -221 121 -75 12 -68 0 13 -23 49 -14 73 -26 73
-36 0 -20 14 -34 52 -54 17 -8 40 -26 50 -39 10 -13 26 -26 37 -30 10 -4 16
-13 13 -21 -6 -14 31 -56 49 -56 5 0 26 11 46 25 42 28 80 100 80 150 0 33
-16 66 -30 63 -4 -1 -20 4 -35 10 -27 11 -28 15 -25 69 l3 56 105 27 c532 137
1072 327 1569 552 97 44 198 89 224 100 30 13 46 26 43 34 -3 7 8 31 25 53 32
45 40 71 9 31 -11 -14 -20 -20 -20 -14 0 6 9 23 21 38 11 14 18 26 15 26 -3 0
-23 -24 -44 -52z m-2 -38 c-6 -11 -13 -20 -16 -20 -2 0 0 9 6 20 6 11 13 20
16 20 2 0 0 -9 -6 -20z m-2083 -806 c-3 -3 -12 -4 -19 -1 -8 3 -5 6 6 6 11 1
17 -2 13 -5z"/>
<path d="M8550 16368 c-78 -65 -115 -103 -78 -82 18 11 175 154 168 153 -3 0
-43 -32 -90 -71z"/>
<path d="M8640 16399 c-14 -11 -47 -39 -73 -62 -27 -23 -60 -52 -75 -64 -19
-16 -22 -23 -11 -23 9 0 31 17 51 38 19 20 59 58 89 84 53 47 68 67 19 27z"/>
<path d="M7550 16390 c0 -5 5 -10 11 -10 5 0 7 5 4 10 -3 6 -8 10 -11 10 -2 0
-4 -4 -4 -10z"/>
<path d="M9063 16383 c9 -2 23 -2 30 0 6 3 -1 5 -18 5 -16 0 -22 -2 -12 -5z"/>
<path d="M8855 16345 c-50 -82 -50 -73 0 -73 24 0 49 -3 55 -7 5 -3 10 -1 10
4 0 6 -13 11 -30 11 -34 0 -37 7 -15 36 16 22 20 54 5 54 -5 0 -16 -11 -25
-25z"/>
<path d="M8913 16323 c9 -14 47 -24 47 -12 0 5 -4 9 -9 9 -5 0 -17 3 -27 7
-11 4 -15 3 -11 -4z"/>
<path d="M3470 16141 c0 -22 -85 -114 -157 -169 -43 -33 -138 -115 -212 -183
-74 -68 -149 -137 -168 -152 -18 -16 -33 -34 -33 -40 0 -7 54 -83 119 -171 66
-87 149 -213 186 -280 37 -66 75 -130 84 -141 38 -45 92 -135 126 -207 19 -42
40 -80 46 -84 6 -3 20 2 30 13 20 19 20 20 -24 79 -42 57 -287 414 -434 631
-66 97 -71 108 -55 119 15 12 14 13 -10 14 -15 0 -30 5 -33 10 -4 6 6 10 24
10 39 0 50 18 14 22 l-28 4 27 13 c15 8 78 63 140 122 62 60 116 109 120 109
4 0 32 20 62 44 30 25 56 43 58 41 2 -2 19 16 38 41 19 25 50 63 68 85 33 42
39 63 22 74 -5 3 -10 2 -10 -4z m20 -1406 c0 -5 -9 1 -20 15 -11 14 -20 30
-20 35 0 6 9 -1 20 -15 11 -14 20 -29 20 -35z"/>
<path d="M3780 16140 c0 -10 200 -248 279 -332 105 -112 61 -48 -94 136 -86
102 -154 186 -151 186 5 0 204 -230 279 -322 34 -43 44 -63 39 -77 -4 -10 -77
-80 -162 -155 -85 -76 -221 -196 -302 -267 -81 -72 -150 -139 -153 -150 -4
-10 -3 -28 0 -40 6 -19 8 -20 26 -3 11 10 19 30 19 48 0 27 14 43 98 118 53
48 115 103 137 124 38 35 292 254 328 283 16 12 21 11 45 -12 28 -27 56 -35
66 -19 3 5 -37 56 -88 113 -51 57 -142 162 -202 233 -74 88 -118 132 -136 137
-16 4 -28 3 -28 -1z"/>
<path d="M6848 16113 c7 -3 16 -2 19 1 4 3 -2 6 -13 5 -11 0 -14 -3 -6 -6z"/>
<path d="M6097 16012 c3 -12 9 -25 14 -28 14 -8 11 10 -6 32 -13 18 -14 18 -8
-4z"/>
<path d="M5621 15652 c0 -12 -19 -59 -42 -104 -31 -62 -39 -87 -33 -107 8 -30
6 -64 -6 -71 -4 -3 -13 -22 -19 -42 -7 -21 -16 -38 -20 -38 -4 0 -45 -34 -90
-75 -78 -70 -109 -88 -112 -65 -1 6 -2 14 -3 19 0 5 -17 26 -37 47 -54 58
-130 144 -258 291 -103 119 -117 132 -140 126 -14 -3 -35 -14 -47 -24 -11 -11
-24 -17 -27 -14 -4 3 -5 2 -2 -2 6 -8 -14 -33 -27 -33 -5 0 -6 5 -2 12 9 13
-7 5 -53 -30 -35 -26 -54 -23 -46 8 6 24 -1 25 -26 4 -18 -16 -18 -46 1 -70
15 -20 60 -6 97 29 20 18 55 48 77 65 l41 32 39 -44 c22 -23 93 -105 159 -182
170 -196 235 -264 263 -271 20 -5 37 7 106 76 45 44 84 81 88 81 10 0 -1 -115
-12 -118 -7 -3 -7 -8 -1 -15 5 -7 5 -32 1 -62 -5 -27 -9 -76 -9 -108 -1 -51 2
-60 19 -64 13 -3 20 -14 20 -29 0 -12 5 -26 11 -30 8 -5 10 5 5 32 -4 22 -9
82 -12 135 -5 81 -4 98 11 112 9 9 15 27 14 40 -1 12 1 44 6 71 l8 49 13 -33
c8 -18 17 -30 20 -27 3 3 1 14 -5 25 -14 27 -14 101 1 159 9 39 9 47 -5 55
-15 8 -15 14 8 58 13 26 28 50 33 52 5 1 6 26 2 53 -4 28 -8 40 -9 27z m-891
-117 c-13 -14 -26 -23 -28 -20 -7 7 29 45 41 45 6 0 0 -11 -13 -25z"/>
<path d="M4817 15643 c-4 -3 -7 -11 -7 -17 0 -6 5 -5 12 2 6 6 9 14 7 17 -3 3
-9 2 -12 -2z"/>
<path d="M6360 15513 c-40 -13 -141 -90 -151 -114 -6 -15 -19 -35 -30 -45 -10
-9 -19 -23 -19 -30 0 -8 -16 -43 -36 -80 -20 -37 -33 -73 -29 -82 8 -21 18 -7
40 52 9 26 32 64 49 84 17 20 25 33 19 28 -25 -15 -13 24 13 40 19 13 28 14
37 5 6 -6 16 -11 22 -11 5 1 0 9 -12 19 l-22 18 29 26 c36 32 83 57 108 57 11
0 22 9 25 20 5 20 -9 25 -43 13z"/>
<path d="M12375 15440 c-34 -7 -31 -7 22 -6 35 1 66 5 69 9 9 9 -37 7 -91 -3z"/>
<path d="M12236 15429 c4 -7 -12 -9 -52 -5 -44 4 -51 3 -29 -4 26 -8 25 -9
-15 -6 -47 4 -465 -86 -571 -123 -82 -28 -123 -51 -112 -62 7 -7 73 11 189 50
178 59 293 87 493 119 62 10 106 22 109 30 2 6 -1 12 -8 12 -6 0 -8 -5 -4 -11z
m-129 -25 c-3 -3 -12 -4 -19 -1 -8 3 -5 6 6 6 11 1 17 -2 13 -5z"/>
<path d="M12285 15430 c-18 -8 -17 -9 8 -9 16 -1 26 3 22 9 -3 6 -7 10 -8 9
-1 0 -11 -4 -22 -9z"/>
<path d="M5600 15207 c0 -2 57 -61 127 -132 109 -111 148 -144 60 -50 -16 16
-35 45 -42 63 -8 18 -21 35 -29 38 -8 3 -33 23 -57 45 -36 33 -59 47 -59 36z"/>
<path d="M11380 15200 c-8 -5 -12 -11 -9 -14 3 -3 14 1 25 9 21 16 8 20 -16 5z"/>
<path d="M11260 15144 c-36 -18 -61 -33 -56 -34 16 0 126 53 126 61 0 5 -1 9
-2 8 -2 -1 -32 -16 -68 -35z"/>
<path d="M2124 15126 c-28 -13 -54 -29 -58 -34 -7 -12 112 -271 178 -387 84
-150 119 -219 146 -293 16 -42 56 -131 90 -197 33 -66 71 -150 85 -186 14 -36
36 -80 48 -96 22 -30 23 -30 60 -16 20 8 37 22 37 30 0 11 -5 13 -17 8 -52
-22 -58 -19 -90 47 -67 135 -233 493 -233 502 0 10 64 6 80 -4 12 -8 10 -14
-15 -40 -16 -16 -24 -30 -18 -30 7 0 21 12 33 27 12 16 24 23 30 17 5 -5 30
-56 55 -114 26 -58 63 -142 83 -188 44 -99 52 -95 16 8 -14 41 -26 81 -26 88
-1 6 -4 12 -7 12 -3 0 -35 56 -71 125 l-65 124 -34 -4 c-35 -5 -86 4 -77 12 2
3 -7 21 -20 40 -13 20 -24 40 -24 44 0 5 20 14 45 20 25 6 45 16 45 21 0 6 -8
7 -17 3 -10 -4 -33 -11 -51 -15 -30 -7 -34 -6 -44 18 -6 15 -25 56 -41 92 -16
36 -50 112 -74 170 -24 58 -48 109 -54 115 -16 16 -10 33 15 39 13 3 31 8 39
12 19 7 90 -120 82 -147 -4 -13 -2 -19 9 -19 15 0 30 -31 31 -64 0 -11 6 -21
14 -24 17 -6 10 17 -36 123 -72 164 -82 185 -90 185 -4 0 -31 -11 -59 -24z"/>
<path d="M11210 15099 c-36 -17 -73 -37 -82 -46 -10 -9 -18 -13 -18 -9 0 8
-160 -76 -250 -131 -44 -27 -49 -29 -25 -8 17 14 59 42 95 62 36 20 71 41 78
46 7 6 49 27 93 47 83 39 116 60 64 40 -167 -62 -613 -354 -615 -402 0 -20 34
-4 94 42 88 67 277 191 354 230 34 18 62 37 62 42 0 5 4 7 8 4 5 -3 49 14 98
38 138 68 174 105 44 45z"/>
<path d="M9223 15089 c-26 -10 -28 -2 44 -152 24 -49 62 -143 84 -210 23 -67
45 -126 49 -132 4 -5 24 -53 45 -105 20 -52 40 -99 46 -104 5 -6 9 -18 9 -29
0 -10 18 -55 39 -100 39 -82 122 -311 144 -398 7 -25 17 -52 23 -60 6 -8 25
-52 43 -99 49 -127 63 -160 71 -160 3 0 35 32 71 72 35 40 79 88 97 106 17 19
32 36 32 39 0 14 115 155 169 206 34 33 59 63 56 67 -5 9 87 90 102 90 6 0 15
12 22 27 11 23 6 21 -36 -17 -27 -25 -90 -81 -141 -125 -50 -44 -92 -84 -92
-89 0 -5 11 1 25 14 14 13 25 21 25 19 0 -3 -14 -18 -32 -35 -17 -16 -28 -23
-24 -16 4 6 4 12 0 12 -8 0 -64 -63 -64 -72 0 -5 0 -10 0 -13 0 -3 -8 -14 -17
-24 -10 -10 -45 -49 -78 -85 -33 -36 -65 -66 -72 -66 -6 0 -13 -4 -15 -9 -8
-22 -36 20 -67 99 -18 47 -48 117 -66 155 -18 39 -42 95 -54 125 -13 30 -29
69 -37 85 -7 17 -34 82 -58 145 -74 192 -126 322 -153 380 -28 62 -88 228
-133 369 -17 52 -31 96 -33 97 -1 1 -12 -2 -24 -7z m957 -1113 c0 -2 -8 -10
-17 -17 -16 -13 -17 -12 -4 4 13 16 21 21 21 13z m-90 -94 c0 -4 -10 -13 -22
-21 -23 -14 -23 -14 -4 8 20 22 26 25 26 13z"/>
<path d="M9425 14985 c56 -162 98 -271 143 -370 70 -154 85 -189 82 -194 -1
-2 3 -7 8 -10 5 -3 26 -34 46 -68 32 -54 56 -84 56 -69 0 2 -36 78 -80 168
-44 89 -80 168 -80 173 0 6 -12 27 -26 48 -14 21 -24 44 -21 50 4 12 -3 28
-50 115 -13 23 -23 48 -23 57 0 9 -14 39 -31 68 -17 29 -28 43 -24 32z"/>
<path d="M5360 14835 c-19 -13 -71 -58 -115 -101 -44 -42 -70 -69 -57 -59 12
10 22 15 22 11 0 -4 33 22 72 58 40 36 74 64 75 62 2 -2 -34 -39 -79 -84 -45
-44 -79 -84 -75 -89 5 -4 13 0 18 9 5 9 45 46 89 83 44 37 80 73 80 81 0 8 6
17 14 20 8 3 12 12 9 20 -7 18 -11 17 -53 -11z"/>
<path d="M12317 14813 c-40 -7 -110 -15 -157 -19 -47 -3 -107 -13 -135 -21
-346 -102 -453 -137 -469 -153 -5 -5 -24 -10 -42 -10 -38 0 -60 -9 -294 -122
-356 -172 -623 -353 -845 -573 -129 -127 -273 -295 -253 -295 15 0 86 78 161
177 27 35 67 76 90 92 23 16 85 65 137 110 52 45 108 89 124 97 15 9 53 40 84
71 43 42 83 68 171 109 64 31 130 62 146 71 17 8 47 21 68 29 21 7 93 47 161
89 188 114 226 126 271 80 34 -33 31 -61 -7 -99 -35 -35 -39 -66 -9 -66 14 0
28 -30 64 -142 26 -79 54 -174 62 -213 19 -85 32 -118 44 -110 12 7 -10 86
-84 310 -30 93 -55 173 -55 179 0 6 12 29 26 50 24 35 26 43 17 82 -12 51 4
84 40 84 12 0 60 13 107 29 117 40 237 73 285 79 22 2 45 8 50 12 23 17 376
59 513 61 107 2 85 7 -76 17 -84 5 -145 4 -195 -5z"/>
<path d="M5521 14758 c-17 -99 -30 -212 -25 -217 13 -14 24 27 34 136 13 139
9 181 -9 81z"/>
<path d="M2325 14797 c-4 -10 -5 -21 -1 -24 10 -10 18 4 13 24 -4 17 -4 17
-12 0z"/>
<path d="M2295 14720 c-3 -5 -1 -10 4 -10 6 0 11 5 11 10 0 6 -2 10 -4 10 -3
0 -8 -4 -11 -10z"/>
<path d="M5328 14632 c-96 -80 -171 -152 -165 -159 7 -6 28 11 129 106 26 25
51 42 54 38 4 -4 -32 -43 -79 -88 -48 -44 -87 -85 -87 -90 0 -5 11 -9 24 -9
16 0 45 21 90 66 55 54 70 64 88 58 13 -4 28 -14 35 -23 6 -9 15 -13 19 -9 4
4 -12 32 -35 62 -54 73 -37 80 24 10 26 -30 49 -53 52 -51 5 6 -87 127 -96
127 -4 0 -27 -17 -53 -38z"/>
<path d="M10440 14644 c-69 -49 -120 -97 -113 -108 3 -6 3 -8 -2 -4 -4 4 -42
-19 -84 -50 -42 -32 -89 -66 -106 -77 -16 -10 -35 -23 -41 -29 -7 -6 -24 -20
-38 -30 -14 -10 -26 -23 -26 -28 0 -5 -6 -15 -12 -22 -7 -8 -20 -24 -28 -37
-28 -43 -68 -79 -89 -79 -22 0 -28 -14 -11 -25 6 -4 1 -18 -12 -35 -12 -17
-18 -33 -14 -37 9 -9 237 228 230 239 -3 5 -2 7 3 6 4 -2 10 2 12 7 7 15 28
35 38 35 5 0 22 14 39 31 16 17 65 58 109 91 44 33 102 81 130 107 27 25 59
51 70 58 20 12 20 12 0 12 -11 0 -36 -12 -55 -25z m-5 -24 c-3 -5 -16 -15 -28
-21 -21 -10 -21 -9 2 10 25 23 36 27 26 11z"/>
<path d="M3995 14605 c-29 -13 -29 -13 -5 -14 28 -1 57 14 44 22 -5 3 -22 -1
-39 -8z"/>
<path d="M10999 14574 c-61 -21 -237 -131 -489 -305 -54 -37 -90 -66 -90 -73
0 -16 27 -2 78 42 69 59 116 92 131 92 10 0 167 103 200 132 28 24 166 98 183
98 15 0 35 18 27 24 -2 1 -20 -3 -40 -10z"/>
<path d="M3815 14561 c-81 -20 -105 -48 -134 -159 -10 -36 -9 -48 8 -87 20
-44 20 -45 0 -55 -10 -6 -19 -20 -19 -31 0 -26 -28 -81 -50 -96 -52 -37 -65
-185 -21 -244 13 -17 21 -32 19 -33 -1 -1 -20 -10 -40 -19 -52 -24 -71 -79
-66 -189 2 -46 11 -99 19 -118 l16 -35 21 41 c14 28 18 44 11 51 -13 13 -15
136 -3 155 5 7 9 21 10 31 1 9 2 21 3 26 0 5 15 11 33 15 18 3 42 16 55 28 25
24 23 56 -8 96 -21 27 -44 91 -35 99 3 4 2 11 -3 17 -11 13 67 156 85 156 10
0 46 48 62 82 2 4 -8 24 -22 45 -39 57 -36 112 10 162 19 22 54 46 77 55 43
15 25 20 -28 7z"/>
<path d="M4050 14546 c0 -2 7 -7 16 -10 8 -3 12 -2 9 4 -6 10 -25 14 -25 6z"/>
<path d="M4980 14532 c0 -12 5 -22 11 -22 5 0 8 -4 5 -9 -3 -5 3 -20 14 -34
12 -14 32 -52 46 -83 28 -63 46 -67 20 -4 -9 22 -14 40 -11 40 10 0 35 -60 35
-84 0 -14 9 -49 21 -78 14 -37 22 -84 25 -152 2 -55 9 -105 15 -110 8 -8 10
-5 5 10 -4 12 -4 29 0 38 10 26 103 -65 136 -133 22 -47 27 -52 27 -29 1 15
-3 29 -8 33 -5 3 -15 22 -21 43 -7 20 -27 53 -44 72 -93 102 -105 123 -108
194 -2 41 2 70 8 74 6 4 13 22 16 39 3 25 -1 38 -19 55 -13 12 -22 31 -22 42
1 16 2 17 6 4 5 -18 52 -53 60 -44 3 2 -10 23 -28 45 -18 23 -35 39 -37 36 -3
-3 -12 1 -20 8 -13 10 -15 8 -9 -13 6 -23 5 -24 -8 -6 -7 10 -18 15 -24 12 -5
-4 -13 -1 -18 6 -4 7 -23 26 -41 42 -31 29 -32 29 -32 8z"/>
<path d="M4142 14514 c2 -10 14 -21 28 -24 15 -3 31 -18 40 -35 17 -37 73 -65
126 -65 39 1 39 1 14 14 -14 8 -29 12 -33 9 -5 -3 -21 6 -35 20 -15 14 -53 41
-85 62 -47 29 -58 33 -55 19z"/>
<path d="M11480 14356 c0 -17 62 -245 71 -260 6 -10 13 -44 15 -75 3 -31 7
-70 9 -88 3 -29 0 -33 -36 -47 -21 -9 -39 -20 -39 -26 0 -13 10 -12 40 5 37
21 75 18 94 -7 l17 -23 -4 28 c-2 15 0 27 4 27 5 0 9 5 9 11 0 5 -4 8 -10 4
-5 -3 -14 14 -20 37 -6 24 -22 77 -35 118 -12 41 -35 114 -50 162 -15 49 -31
90 -36 94 -5 3 -5 13 1 25 9 16 7 19 -10 19 -11 0 -20 -2 -20 -4z"/>
<path d="M9812 14153 c17 -41 26 -49 40 -35 9 9 6 17 -12 37 -31 33 -42 32
-28 -2z"/>
<path d="M11677 13883 c-4 -3 -7 -11 -7 -17 0 -6 5 -5 12 2 6 6 9 14 7 17 -3
3 -9 2 -12 -2z"/>
<path d="M11363 13835 c-57 -26 -112 -73 -96 -84 5 -3 -20 -30 -56 -59 l-66
-54 60 56 c33 30 54 56 47 56 -7 0 -10 5 -6 12 4 7 3 8 -5 4 -6 -4 -9 -11 -7
-15 3 -4 -27 -37 -67 -72 -39 -35 -67 -57 -63 -49 5 8 -5 2 -22 -14 -17 -15
-33 -40 -37 -55 -3 -14 -17 -42 -30 -62 -33 -51 -39 -96 -21 -149 32 -90 11
-442 -34 -585 -35 -112 -51 -199 -44 -245 9 -66 -47 -299 -82 -341 -8 -8 -19
-31 -25 -50 -7 -19 -20 -46 -31 -61 -10 -14 -18 -32 -18 -40 0 -7 -11 -37 -25
-65 -16 -36 -28 -51 -38 -47 -10 3 -16 -5 -21 -27 -5 -26 0 -42 23 -78 l30
-45 -77 -41 c-125 -67 -162 -95 -162 -121 0 -34 -29 -101 -47 -108 -8 -3 -57
-33 -108 -66 -89 -58 -94 -63 -105 -108 -11 -48 -1 -131 19 -157 5 -5 11 -45
13 -88 4 -63 12 -91 42 -152 26 -53 41 -73 51 -68 19 7 19 4 0 -41 -11 -25
-14 -57 -11 -106 4 -61 9 -77 40 -118 38 -52 91 -104 147 -145 53 -40 136 -35
191 11 16 13 18 12 27 -9 35 -92 66 -155 84 -170 56 -48 208 -62 301 -28 29
11 38 10 60 -5 14 -9 26 -25 26 -36 0 -33 36 -42 169 -44 142 -1 170 8 264 86
l47 40 65 -12 c52 -10 85 -10 167 1 l102 14 67 57 c74 64 84 80 68 110 -11 20
-14 18 -61 -36 -29 -32 -72 -68 -100 -82 -54 -27 -145 -47 -154 -33 -3 5 -12
9 -20 9 -8 0 -13 -4 -9 -9 3 -6 -6 -6 -25 0 -16 5 -43 13 -60 18 -25 8 -30 7
-30 -6 0 -9 -3 -14 -6 -10 -3 3 -27 -9 -53 -27 -82 -58 -166 -85 -253 -82 -81
2 -95 8 -178 76 -64 52 -65 52 -95 24 -18 -17 -30 -22 -35 -14 -5 8 -14 8 -34
0 -105 -40 -208 19 -264 151 -30 71 -21 68 -124 47 -54 -10 -61 -9 -113 16
-64 32 -141 118 -151 170 -7 40 1 121 15 159 6 16 11 40 11 55 0 15 7 40 15
56 8 15 12 32 10 37 -7 10 24 73 31 66 3 -3 19 -1 35 3 27 8 34 4 77 -38 79
-78 246 -203 315 -236 156 -73 224 -104 245 -110 12 -4 22 -11 22 -15 0 -21
193 -72 345 -92 141 -18 520 -11 500 10 -4 3 -93 7 -198 7 -217 1 -401 23
-512 61 -38 13 -79 25 -90 27 -39 7 -117 44 -310 146 -144 77 -180 103 -272
198 l-83 85 0 64 c0 50 3 65 17 70 15 6 15 7 0 12 -13 5 -3 29 61 134 42 71
94 159 114 195 20 37 41 68 47 70 6 2 11 10 11 18 0 26 49 93 79 108 16 9 31
22 34 30 3 8 19 17 36 21 17 4 31 10 31 15 0 4 -21 1 -47 -7 -28 -8 -64 -12
-86 -8 -25 3 -36 2 -32 -5 3 -5 0 -10 -8 -10 -18 0 -43 29 -50 57 -4 19 4 27
54 52 32 16 77 32 99 36 22 4 38 10 36 14 -3 4 8 5 25 3 22 -3 29 0 29 12 0
21 1 21 -116 -9 -53 -14 -100 -22 -103 -20 -3 3 7 29 21 58 14 29 33 86 43
127 9 41 28 111 41 155 14 44 31 118 38 163 11 68 19 89 42 113 32 34 140 89
173 89 12 0 21 5 21 10 0 21 -114 -20 -171 -61 -17 -12 -32 -19 -35 -17 -2 3
7 67 21 144 13 76 28 180 33 229 13 133 15 357 3 388 -7 17 -7 28 -1 32 6 4
10 13 10 22 0 36 59 131 120 193 88 89 213 187 249 195 19 4 29 12 29 23 0 9
3 25 7 35 10 23 -8 21 -72 -8z m-283 -250 c-7 -9 -15 -13 -17 -11 -7 7 7 26
19 26 6 0 6 -6 -2 -15z m-290 -1880 c0 -26 -218 -397 -249 -425 -19 -17 -29
-52 -24 -88 5 -34 1 -48 -18 -74 -36 -49 -65 -107 -80 -160 -7 -27 -17 -48
-21 -48 -10 0 -41 47 -72 107 -33 66 -33 80 -2 60 l24 -16 -20 40 c-10 22 -23
37 -28 34 -11 -7 -50 53 -49 75 0 8 9 -5 20 -29 25 -58 31 -50 13 19 -8 30
-13 73 -12 95 3 34 9 44 50 75 26 19 69 46 95 60 58 30 95 66 108 105 8 24 36
46 130 102 115 69 135 80 135 68z m-270 -624 c-5 -11 -15 -23 -22 -27 -6 -4
-9 -3 -6 2 3 5 8 17 11 27 4 9 11 17 17 17 8 0 8 -6 0 -19z"/>
<path d="M11660 13840 c0 -5 5 -10 10 -10 6 0 10 5 10 10 0 6 -4 10 -10 10 -5
0 -10 -4 -10 -10z"/>
<path d="M5327 13793 c-2 -4 -15 -59 -27 -120 -13 -62 -27 -113 -32 -113 -4 0
-8 -16 -8 -35 0 -20 -7 -51 -14 -70 -13 -31 -13 -35 0 -35 18 0 18 -5 -2 -38
l-16 -27 20 25 c12 14 26 37 32 52 7 14 20 28 31 31 10 3 19 12 19 21 0 9 2
16 5 16 3 0 46 -21 96 -46 50 -25 93 -44 95 -42 2 3 -38 27 -89 54 -55 30 -91
56 -91 64 1 8 9 52 19 98 20 97 14 119 -10 37 -21 -75 -30 -65 -12 14 8 34 11
63 8 66 -4 2 -18 -46 -31 -106 -13 -61 -28 -112 -32 -115 -5 -3 -6 5 -4 18 3
12 17 74 31 137 23 100 27 140 12 114z m6 -251 c-3 -12 -9 -19 -14 -16 -5 3
-4 14 2 25 13 26 20 21 12 -9z m-13 -39 c0 -5 -5 -15 -10 -23 -8 -12 -10 -11
-10 8 0 12 5 22 10 22 6 0 10 -3 10 -7z m-49 -46 c-10 -9 -11 -8 -5 6 3 10 9
15 12 12 3 -3 0 -11 -7 -18z"/>
<path d="M5591 13372 c13 -10 62 -40 109 -67 47 -26 100 -57 118 -67 17 -11
32 -16 32 -11 0 5 -15 16 -32 25 -18 8 -79 43 -136 77 -103 61 -135 77 -91 43z"/>
<path d="M5191 13308 c-19 -62 -132 -215 -151 -203 -4 2 -28 -27 -55 -65 -26
-39 -54 -70 -64 -70 -28 0 -73 -43 -66 -63 4 -9 11 -17 15 -17 15 0 77 57 180
165 92 96 108 118 124 170 11 33 27 75 37 93 14 24 15 32 5 32 -7 0 -19 -19
-25 -42z"/>
<path d="M4390 13085 c-14 -7 -97 -37 -185 -66 -88 -29 -162 -55 -165 -57 -2
-2 0 -6 5 -10 6 -4 30 -34 55 -67 24 -33 75 -90 112 -126 57 -57 73 -68 110
-72 24 -3 63 -11 87 -18 35 -11 45 -11 48 -1 5 14 23 16 23 3 0 -22 269 -251
353 -301 44 -26 142 -79 199 -107 45 -22 49 -23 73 -7 42 27 45 25 -125 96
-52 22 -128 58 -170 81 -78 42 -200 134 -200 150 0 5 -16 25 -36 43 l-35 34
28 1 c24 0 26 1 8 9 -11 5 -29 11 -40 15 -17 6 -15 9 15 20 19 7 39 10 43 8 5
-3 18 4 30 15 12 10 51 35 87 55 36 20 74 43 85 53 19 15 18 15 -7 0 -31 -18
-42 -20 -33 -6 10 15 -4 12 -33 -9 -95 -66 -230 -106 -326 -95 -60 7 -60 7
-156 103 -53 53 -102 106 -109 119 -11 20 -9 23 14 32 15 6 35 10 46 10 21 0
197 55 215 67 8 6 17 46 10 43 -1 -1 -12 -7 -26 -15z"/>
<path d="M7180 13067 c-69 -4 -176 -5 -237 -2 -75 4 -113 2 -113 -5 0 -5 5
-10 12 -10 6 0 3 -7 -8 -15 -18 -13 -18 -14 -1 -15 14 0 18 -6 15 -26 -2 -22
-11 -29 -43 -39 -56 -16 -112 -47 -165 -89 -42 -33 -46 -35 -58 -18 -12 15
-13 13 -7 -15 3 -18 2 -34 -4 -38 -15 -9 -14 -28 2 -19 7 4 9 3 4 -2 -5 -5
-14 -9 -20 -9 -7 0 -25 -27 -42 -60 -28 -55 -30 -68 -30 -165 0 -89 4 -111 22
-145 26 -48 29 -29 7 55 -53 208 119 445 355 490 93 17 208 -12 269 -70 12
-12 28 -20 35 -17 15 5 -65 64 -123 90 -25 11 -75 22 -111 25 -64 4 -67 6 -71
32 -4 27 -3 28 61 34 163 16 455 24 585 16 40 -3 61 0 64 8 3 9 -20 12 -80 13
-45 0 -108 1 -138 2 -30 1 -111 -2 -180 -6z m-673 -439 c-3 -8 -6 -5 -6 6 -1
11 2 17 5 13 3 -3 4 -12 1 -19z m-10 -40 c-3 -8 -6 -5 -6 6 -1 11 2 17 5 13 3
-3 4 -12 1 -19z"/>
<path d="M6635 13049 c3 -4 1 -10 -5 -14 -5 -3 -10 -1 -10 5 0 18 -60 9 -105
-16 -22 -12 -63 -29 -91 -38 -28 -9 -60 -24 -70 -32 -19 -15 -18 -15 1 -8 11
4 54 16 95 26 123 30 173 47 203 67 l29 19 -26 0 c-14 0 -23 -4 -21 -9z m-60
-19 c-3 -5 -14 -10 -23 -9 -14 0 -13 2 3 9 27 11 27 11 20 0z"/>
<path d="M6725 13041 c-3 -5 -1 -12 4 -16 14 -8 62 5 55 16 -7 12 -51 12 -59
0z"/>
<path d="M6780 12995 c0 -14 5 -25 10 -25 6 0 10 11 10 25 0 14 -4 25 -10 25
-5 0 -10 -11 -10 -25z"/>
<path d="M6683 12978 c-52 -27 -130 -94 -121 -104 4 -4 32 16 62 45 31 29 68
54 86 57 16 4 30 10 30 15 0 13 -11 11 -57 -13z"/>
<path d="M4788 12883 c7 -3 16 -2 19 1 4 3 -2 6 -13 5 -11 0 -14 -3 -6 -6z"/>
<path d="M4828 12873 c7 -3 16 -2 19 1 4 3 -2 6 -13 5 -11 0 -14 -3 -6 -6z"/>
<path d="M5744 12350 c-33 -16 -78 -45 -99 -63 -22 -19 -85 -63 -140 -99 -55
-35 -134 -94 -175 -129 -41 -36 -108 -91 -149 -122 -184 -141 -683 -624 -816
-789 -6 -7 -65 -80 -132 -163 -141 -175 -154 -200 -142 -273 4 -29 10 -56 14
-61 3 -5 0 -13 -6 -17 -8 -5 -9 -3 -4 6 5 8 3 11 -6 8 -8 -3 -13 -12 -13 -21
1 -9 -2 -15 -5 -12 -7 4 -58 -49 -130 -134 -11 -13 -18 -28 -15 -32 3 -5 1 -9
-4 -9 -5 0 -42 -51 -82 -112 -113 -175 -232 -268 -339 -268 -32 0 -79 -9 -110
-21 -34 -12 -90 -22 -151 -26 -138 -8 -134 -3 -142 -181 -3 -81 -10 -192 -13
-247 -6 -81 -4 -112 10 -165 10 -36 23 -101 30 -145 6 -44 16 -89 21 -100 11
-25 12 -131 1 -165 l-8 -25 18 23 c11 13 30 29 43 35 23 12 25 18 27 97 l1 84
-19 -25 c-18 -24 -19 -24 -19 -2 0 12 12 36 26 53 15 17 24 33 21 36 -3 3 -15
-8 -28 -25 -13 -17 -25 -31 -29 -31 -3 0 -11 18 -16 40 -11 38 -10 40 28 70
21 17 43 28 49 24 7 -4 10 -1 7 7 -2 7 5 22 16 31 21 18 21 18 -6 7 -21 -9
-31 -9 -43 1 -23 19 -19 28 26 50 23 12 39 24 36 26 -3 3 -23 -4 -46 -15 -22
-12 -44 -21 -48 -21 -4 0 -20 18 -36 39 -21 31 -28 54 -32 110 -3 39 -1 80 4
90 6 10 11 57 12 105 l2 87 41 43 c34 35 51 44 90 49 73 10 276 8 406 -4 159
-14 413 -58 422 -72 4 -7 5 -19 2 -27 -25 -61 -44 -124 -41 -133 1 -5 11 18
22 52 10 33 21 61 25 61 4 0 12 -11 19 -24 25 -47 107 -61 149 -27 26 22 28
31 7 31 -8 0 -14 4 -13 8 2 4 -13 27 -34 51 -30 36 -39 41 -55 32 -25 -13 -71
-8 -160 18 -61 18 -227 51 -254 51 -17 0 2 26 36 49 20 13 33 26 30 29 -2 3
-23 -7 -45 -22 l-40 -26 0 22 c0 13 27 66 60 118 33 52 72 115 87 140 16 25
45 63 67 85 49 51 96 112 76 100 -21 -13 34 60 95 123 l50 54 50 -6 c28 -3 68
-9 90 -12 26 -4 37 -3 30 4 -17 16 -109 43 -161 46 -36 2 -49 7 -55 22 -15 38
-8 53 56 122 36 38 65 76 65 83 0 14 92 128 205 254 33 36 77 75 98 86 36 19
52 37 21 25 -32 -12 28 53 217 238 105 103 232 223 283 268 50 44 112 99 137
122 26 22 64 55 85 71 22 17 59 48 84 71 92 84 271 221 349 267 71 42 91 57
78 57 -2 0 -31 -13 -63 -30z m-1714 -1800 c-37 -47 -52 -55 -18 -9 13 17 27
37 33 45 5 7 11 11 13 9 3 -2 -10 -22 -28 -45z m155 -687 c3 -9 3 -18 0 -22
-9 -8 -40 14 -43 32 -4 20 34 11 43 -10z m60 -13 c4 -6 -2 -7 -16 -1 -13 4
-25 14 -27 20 -3 10 0 10 16 2 12 -6 24 -16 27 -21z m-1082 -417 c-23 -8 -14
-24 10 -18 15 4 28 0 38 -11 12 -15 10 -20 -21 -45 -40 -34 -46 -29 -55 46 -4
27 -9 59 -12 70 -4 17 0 15 23 -9 19 -19 25 -30 17 -33z"/>
<path d="M10598 11265 c-14 -14 41 -195 59 -195 4 0 44 -29 88 -65 71 -58 213
-144 255 -154 28 -6 -35 41 -93 70 -32 16 -68 40 -80 52 -12 12 -25 22 -30 22
-4 0 -26 18 -48 40 -23 22 -47 40 -53 40 -6 0 -10 11 -9 23 2 13 -1 21 -6 18
-5 -4 -16 -3 -25 0 -13 5 -14 9 -5 20 12 15 5 29 -14 29 -6 0 -15 20 -19 44
-10 57 -12 64 -20 56z"/>
<path d="M11020 10843 c0 -17 209 -113 290 -134 126 -33 273 -57 286 -48 6 5
16 3 22 -3 9 -9 12 -9 12 0 0 9 10 11 35 6 23 -4 35 -2 35 5 0 6 -15 11 -33
11 -19 0 -37 3 -40 7 -4 4 -31 6 -60 4 -28 -1 -73 3 -100 8 -26 6 -64 14 -83
17 -50 8 -256 80 -315 110 -27 13 -49 21 -49 17z"/>
<path d="M4150 10762 c8 -5 40 -13 70 -16 42 -5 51 -4 38 4 -10 6 -42 13 -70
16 -36 4 -48 2 -38 -4z"/>
<path d="M11730 10670 c-11 -7 0 -10 38 -8 28 0 52 5 52 10 0 11 -72 10 -90
-2z"/>
<path d="M6985 10633 c8 -17 40 -59 71 -92 58 -63 63 -82 10 -33 l-31 27 28
-31 c15 -17 25 -33 22 -35 -8 -9 40 -49 65 -54 31 -6 112 -86 105 -103 -3 -8
4 -25 15 -39 11 -14 20 -22 20 -18 0 5 -7 17 -17 27 -9 10 -13 21 -9 26 4 4
23 -11 42 -33 18 -22 34 -37 34 -33 0 5 -17 27 -37 50 l-38 42 35 -21 c19 -12
52 -43 72 -69 61 -79 162 -256 160 -281 -2 -28 -2 -28 50 0 57 29 136 30 175
1 71 -52 90 -125 57 -219 -15 -46 -15 -46 16 -95 37 -58 110 -244 110 -281 0
-15 12 -71 26 -125 14 -55 32 -127 39 -160 7 -34 24 -81 36 -105 12 -24 35
-81 50 -127 15 -45 37 -95 47 -110 11 -15 30 -61 42 -102 13 -41 31 -97 41
-125 l18 -50 -4 40 c-2 22 -23 94 -45 160 -23 66 -43 133 -44 150 -1 16 -28
107 -59 200 -31 94 -81 269 -112 390 -31 121 -60 222 -65 223 -6 2 -8 7 -5 12
3 4 -4 37 -14 72 -26 84 -51 186 -51 206 -1 27 -74 140 -134 207 -46 51 -69
68 -133 95 -126 53 -243 108 -274 131 -16 11 -32 18 -36 16 -5 -3 -15 -2 -24
2 -14 5 -171 176 -242 262 l-28 34 16 -32z m151 -188 c2 -12 -1 -12 -22 2 -28
18 -31 25 -7 16 12 -5 14 -3 8 8 -6 11 -5 12 5 2 8 -7 15 -19 16 -28z m280
-201 c18 -14 18 -14 -6 -3 -31 14 -36 19 -24 19 6 0 19 -7 30 -16z m134 -52
c74 -29 111 -60 53 -46 -33 8 -163 72 -163 80 0 7 15 2 110 -34z m-70 -42 c56
-82 93 -151 85 -158 -8 -9 -24 13 -82 110 -25 43 -52 83 -59 89 -19 15 -18 30
1 22 9 -3 33 -31 55 -63z m52 1 c52 -35 94 -101 76 -119 -7 -7 -15 -12 -19
-12 -4 0 -26 30 -50 68 -24 37 -47 73 -52 80 -12 19 -2 15 45 -17z m138 -11
c0 -5 -5 -10 -11 -10 -5 0 -7 5 -4 10 3 6 8 10 11 10 2 0 4 -4 4 -10z m-33
-35 c12 -9 26 -15 30 -14 4 1 17 1 27 0 19 -1 19 -2 1 -21 -14 -15 -21 -17
-26 -8 -6 9 -11 9 -22 0 -12 -10 -18 -6 -36 23 -22 38 -12 46 26 20z"/>
<path d="M10480 10586 c0 -2 8 -10 18 -17 15 -13 16 -12 3 4 -13 16 -21 21
-21 13z"/>
<path d="M10520 10555 c0 -8 61 -36 70 -33 5 2 -9 11 -30 20 -22 9 -40 15 -40
13z"/>
<path d="M7357 10199 c10 -17 27 -38 37 -47 11 -9 5 4 -13 31 -36 53 -52 64
-24 16z"/>
<path d="M3221 9820 c-15 -70 -14 -78 10 -90 43 -24 88 8 103 71 4 19 2 26 -9
26 -9 0 -15 -10 -15 -22 0 -13 -7 -29 -17 -36 -15 -13 -15 -12 -5 8 7 12 11
37 11 55 l-1 33 -8 -38 c-4 -20 -10 -40 -13 -44 -9 -8 -39 65 -32 77 4 6 2 10
-4 10 -5 0 -14 -23 -20 -50z m18 -73 c1 -5 -3 -5 -9 -2 -5 3 -10 16 -9 28 0
21 1 21 9 2 5 -11 9 -24 9 -28z"/>
<path d="M3387 9847 c-11 -29 -9 -43 4 -30 6 6 9 19 7 29 -3 18 -4 18 -11 1z"/>
<path d="M4280 9852 c0 -4 37 -23 83 -41 282 -114 553 -306 708 -503 38 -48
69 -90 69 -93 0 -4 -13 3 -29 14 -16 12 -33 21 -39 21 -19 0 -36 33 -33 62 2
21 -1 28 -9 23 -7 -4 -33 18 -67 54 -66 73 -253 226 -294 240 -18 6 -27 6 -24
1 4 -6 11 -10 16 -10 19 0 125 -88 240 -199 106 -102 113 -111 101 -131 -15
-24 -8 -42 13 -34 8 4 36 -7 62 -22 51 -30 93 -40 93 -22 0 15 -41 69 -119
157 -138 154 -130 142 -118 168 9 20 7 28 -10 45 l-21 21 -26 -29 c-24 -28
-25 -29 -43 -10 -17 18 -17 18 7 6 20 -10 23 -10 13 0 -7 7 -20 14 -30 15 -10
0 -45 19 -78 42 -91 61 -239 144 -343 191 -91 41 -122 50 -122 34z m621 -315
c-8 -8 -11 -7 -11 4 0 20 13 34 18 19 3 -7 -1 -17 -7 -23z"/>
<path d="M4410 9741 c0 -10 36 -21 65 -20 16 0 13 4 -10 14 -35 16 -55 19 -55
6z"/>
<path d="M3365 9601 c-10 -17 12 -21 25 -6 10 12 10 15 -3 15 -9 0 -18 -4 -22
-9z"/>
<path d="M3270 9530 c0 -12 27 -12 55 0 16 7 13 9 -17 9 -21 1 -38 -3 -38 -9z"/>
<path d="M5011 9456 c-8 -9 -8 -16 -2 -20 6 -4 15 3 21 14 12 23 -2 27 -19 6z"/>
<path d="M5133 9166 c-31 -15 -36 -34 -11 -42 22 -7 38 9 38 39 0 9 -1 16 -2
16 -2 -1 -13 -6 -25 -13z"/>
<path d="M3008 8788 c-28 -43 -40 -71 -29 -64 11 7 55 86 47 86 -2 0 -10 -10
-18 -22z"/>
<path d="M2947 8678 c-22 -38 -99 -363 -105 -442 -5 -70 13 -262 34 -361 9
-38 20 -92 25 -120 5 -27 15 -72 23 -100 l15 -50 0 47 c1 26 -5 67 -13 90 -8
24 -24 96 -36 161 -18 93 -20 124 -11 143 14 31 15 55 1 34 -16 -24 -12 175 5
299 9 60 31 158 50 218 19 59 33 108 32 110 -1 1 -10 -12 -20 -29z"/>
<path d="M9960 8664 l-85 -25 65 8 c118 13 323 7 458 -13 106 -16 291 -63 390
-100 37 -14 80 -30 95 -36 43 -16 44 -1 1 17 -77 33 -398 135 -473 151 -42 8
-141 17 -221 19 -132 4 -153 2 -230 -21z"/>
<path d="M9486 8589 c-122 -41 -246 -96 -281 -123 -11 -8 22 3 74 25 51 22 95
38 98 36 2 -3 -31 -19 -74 -36 -67 -27 -144 -67 -281 -147 -28 -17 -34 -17
-43 -4 -9 12 -10 11 -6 -7 3 -14 0 -23 -10 -25 -12 -2 -10 -7 8 -23 21 -19 22
-19 15 -1 -5 16 -4 17 8 7 11 -10 15 -9 18 5 7 36 314 201 453 244 39 11 94
30 122 41 29 12 86 27 125 34 l73 13 -90 1 c-80 1 -103 -4 -209 -40z"/>
<path d="M11030 8438 c0 -7 24 -26 53 -42 111 -61 216 -138 322 -235 61 -56
126 -111 145 -122 l34 -21 -44 49 c-24 26 -73 77 -109 113 -36 36 -92 93 -124
128 -47 51 -61 61 -73 51 -15 -13 -49 -4 -40 10 6 9 -27 36 -71 60 -36 18 -27
5 13 -19 58 -36 33 -32 -39 6 -44 23 -67 31 -67 22z m235 -108 c3 -5 2 -10 -4
-10 -5 0 -13 5 -16 10 -3 6 -2 10 4 10 5 0 13 -4 16 -10z"/>
<path d="M8900 8280 c0 -16 10 -25 34 -29 21 -3 12 25 -10 36 -21 10 -24 9
-24 -7z"/>
<path d="M8850 8220 c-8 -5 -10 -10 -5 -10 6 0 17 5 25 10 8 5 11 10 5 10 -5
0 -17 -5 -25 -10z"/>
<path d="M8715 8085 c-59 -58 -111 -105 -116 -105 -5 0 -8 -3 -7 -7 3 -9 -114
-172 -122 -173 -3 0 -28 62 -55 138 -37 100 -51 130 -53 109 -2 -15 11 -72 29
-127 35 -110 35 -150 0 -218 -10 -21 -31 -73 -46 -117 -14 -44 -40 -103 -56
-131 -38 -67 -30 -93 38 -125 26 -12 51 -22 55 -21 3 1 17 -12 30 -29 12 -17
34 -43 47 -58 13 -14 37 -46 52 -70 16 -24 68 -83 117 -131 98 -95 133 -155
156 -261 l14 -64 1 72 c1 52 5 72 13 70 8 -1 13 13 13 42 1 25 7 47 13 49 7 2
12 11 12 20 0 15 -2 15 -10 2 -9 -13 -10 -13 -10 1 0 33 22 130 35 156 8 16
15 38 15 51 0 45 88 240 133 296 52 63 107 142 107 152 0 4 -12 -3 -27 -17
l-28 -24 24 27 c13 15 27 25 31 23 4 -3 14 3 21 12 10 12 10 14 2 9 -7 -4 -13
-2 -13 3 0 6 7 11 15 11 8 0 15 6 15 14 0 14 74 82 164 149 30 23 42 37 32 37
-10 0 -36 -15 -59 -32 -63 -50 -270 -260 -283 -288 -29 -63 -37 -86 -35 -93 1
-5 -3 -6 -7 -3 -5 3 -16 -2 -25 -12 -27 -30 -80 -152 -82 -190 -3 -48 -14 -84
-31 -97 -18 -14 -38 -148 -30 -206 6 -44 5 -46 -18 -46 -19 0 -26 6 -31 28 -4
16 -11 31 -16 34 -5 4 -5 15 2 27 10 19 9 20 -15 16 -14 -3 -23 -2 -21 2 3 4
-1 13 -9 19 -8 7 -17 23 -20 36 -3 13 -21 34 -39 47 -43 30 -59 46 -167 163
-97 105 -137 138 -157 130 -22 -8 -15 13 43 125 30 61 53 113 50 118 -6 11 41
99 93 174 55 78 130 166 243 285 79 82 96 103 84 103 -2 0 -52 -47 -111 -105z
m245 -685 c-6 -11 -13 -20 -16 -20 -2 0 0 9 6 20 6 11 13 20 16 20 2 0 0 -9
-6 -20z m-143 -412 c-3 -7 -5 -2 -5 12 0 14 2 19 5 13 2 -7 2 -19 0 -25z"/>
<path d="M8341 8124 c0 -11 3 -14 6 -6 3 7 2 16 -1 19 -3 4 -6 -2 -5 -13z"/>
<path d="M8793 6515 c0 -44 2 -61 4 -37 2 23 2 59 0 80 -2 20 -4 1 -4 -43z"/>
<path d="M8787 6407 c-15 -39 -41 -307 -53 -537 -4 -70 -3 -73 11 -50 l14 25
1 -27 c0 -15 5 -30 10 -33 6 -4 8 -10 5 -15 -3 -5 -1 -11 4 -14 18 -11 20 26
10 137 -13 134 -4 335 18 430 15 61 15 69 1 83 -13 13 -16 13 -21 1z"/>
<path d="M11797 5728 c-2 -18 -1 -34 4 -36 5 -2 9 -11 10 -20 1 -9 5 3 10 27
5 24 6 48 3 52 -11 18 -22 8 -27 -23z"/>
<path d="M11892 5703 c-6 -16 -14 -58 -17 -94 -6 -54 -4 -67 8 -72 12 -5 15 3
15 39 0 59 12 126 24 142 8 8 6 12 -5 12 -8 0 -19 -12 -25 -27z"/>
<path d="M8785 5609 c4 -52 12 -116 17 -144 6 -27 14 -81 18 -120 5 -38 21
-113 36 -165 25 -88 27 -108 28 -287 0 -106 3 -193 8 -193 4 0 10 -16 14 -37
6 -31 8 -34 19 -20 15 21 14 44 -20 392 -7 75 -42 359 -56 450 -7 44 -17 87
-24 95 -7 8 -16 36 -19 62 -4 26 -12 50 -18 54 -7 5 -8 -22 -3 -87z"/>
<path d="M11795 5585 c2 -55 5 -111 8 -125 2 -14 10 -59 17 -100 8 -44 31
-114 57 -169 23 -52 43 -106 43 -120 1 -35 30 -98 77 -163 21 -29 48 -73 61
-98 13 -25 34 -58 48 -75 18 -21 10 0 -25 70 -38 76 -47 101 -36 103 21 5 18
29 -5 45 -12 8 -36 45 -55 82 -19 37 -44 82 -54 99 -10 17 -22 46 -26 65 -4
18 -15 48 -25 65 -31 54 -51 146 -59 270 -5 76 -9 102 -11 71 l-3 -50 -8 65
c-6 54 -6 48 -4 -35z"/>
<path d="M11920 5660 c0 -5 5 -10 10 -10 6 0 10 5 10 10 0 6 -4 10 -10 10 -5
0 -10 -4 -10 -10z"/>
<path d="M11916 5588 c-4 -29 -9 -62 -10 -73 -2 -11 -4 -31 -6 -45 l-2 -25 -8
25 c-12 37 -12 2 1 -66 5 -32 21 -81 34 -109 12 -27 39 -84 58 -126 19 -42 51
-102 72 -134 30 -48 40 -56 60 -53 13 3 26 0 29 -6 2 -6 5 -2 5 10 1 11 -8 29
-19 39 -19 17 -20 17 -20 0 0 -56 -107 116 -145 233 -9 29 -15 55 -13 58 3 2
10 -15 17 -38 16 -55 78 -188 98 -210 9 -10 27 -18 40 -18 19 0 23 5 22 28 -2
23 -2 24 -6 4 l-4 -22 -31 21 c-67 48 -164 345 -157 482 5 81 -6 97 -15 25z
m21 -220 c-3 -8 -6 -5 -6 6 -1 11 2 17 5 13 3 -3 4 -12 1 -19z"/>
<path d="M3510 5427 c0 -56 5 -120 10 -142 6 -22 15 -117 20 -211 5 -94 14
-195 20 -224 15 -81 12 -280 -6 -368 -21 -101 -77 -274 -103 -315 -11 -19 -18
-37 -15 -40 6 -6 -46 -41 -128 -85 -58 -32 -69 -47 -38 -57 13 -4 23 -18 27
-36 7 -38 24 -49 18 -12 -5 26 -1 30 52 56 32 16 98 58 146 93 83 61 87 66 87
102 0 21 -2 41 -5 44 -3 2 -7 204 -8 449 -2 244 -7 467 -10 494 -4 28 -11 110
-17 183 -12 144 -15 158 -36 166 -12 4 -14 -12 -14 -97z"/>
<path d="M11870 5521 c0 -5 7 -11 15 -15 8 -3 15 -1 15 3 0 5 -7 11 -15 15 -8
3 -15 1 -15 -3z"/>
<path d="M14950 5150 c0 -12 -74 -115 -89 -124 -5 -3 -19 3 -32 13 -14 10 -41
26 -62 35 -34 14 -43 14 -72 2 -44 -19 -60 -48 -46 -88 7 -19 7 -36 1 -48 -5
-9 -6 -21 -2 -24 4 -4 -4 -15 -17 -25 -23 -18 -24 -18 -85 28 -75 57 -228 133
-313 155 -79 21 -326 15 -418 -9 -33 -9 -69 -18 -81 -18 -11 -1 -38 -14 -60
-28 -22 -15 -59 -36 -84 -49 -82 -42 -174 -123 -186 -165 -3 -12 -46 -44 -104
-79 -173 -103 -408 -280 -409 -306 -1 -9 -6 -21 -13 -28 -6 -6 -8 -15 -4 -19
4 -4 28 16 54 44 26 28 67 64 92 80 25 15 71 51 102 79 39 36 79 60 130 80 40
15 87 40 105 55 17 15 38 31 45 36 7 4 25 26 40 48 48 73 147 165 203 191 30
14 87 29 128 33 40 5 83 13 95 20 11 6 34 11 49 11 16 0 33 4 39 10 6 6 23 6
44 1 19 -5 75 -12 124 -16 125 -9 215 -40 331 -115 118 -77 180 -92 216 -54
17 18 20 30 15 56 -19 94 -19 95 8 113 21 14 31 15 61 5 20 -7 52 -26 71 -42
l34 -30 38 31 c51 40 112 115 112 137 0 15 -3 14 -25 -6 -25 -23 -37 -16 -13
8 9 9 8 12 -5 12 -9 0 -17 -5 -17 -10z"/>
<path d="M8943 4555 c-3 -9 0 -96 7 -193 7 -110 11 -350 9 -632 -1 -272 3
-544 10 -676 l13 -221 -51 -129 c-44 -111 -51 -138 -50 -194 l1 -65 13 65 c7
36 19 79 25 95 7 17 14 45 15 63 3 33 20 62 36 62 9 0 24 -40 21 -54 -2 -5 4
-16 11 -25 8 -9 29 -44 46 -78 17 -35 36 -63 41 -63 6 0 10 -8 10 -17 0 -9 9
-26 19 -37 11 -12 29 -57 41 -101 12 -44 29 -102 37 -130 8 -27 20 -69 27 -93
7 -23 14 -41 17 -38 2 2 5 -5 6 -17 3 -44 27 -123 31 -100 7 42 -39 246 -69
304 -19 39 -29 73 -29 104 0 30 -13 77 -38 138 -21 50 -47 114 -58 141 -21 55
-70 92 -106 80 -19 -6 -18 -2 7 30 l27 35 -7 163 c-3 90 -10 186 -16 215 -7
37 -7 64 2 95 8 32 9 154 4 463 -4 231 -8 443 -10 470 -6 107 -28 355 -32 355
-2 0 -6 -7 -10 -15z"/>
<path d="M12393 4452 c9 -9 37 -23 62 -31 26 -8 49 -20 52 -27 2 -7 11 -10 18
-8 7 3 31 -6 54 -20 52 -33 69 -33 73 1 5 45 66 44 109 -1 22 -23 25 -23 51
-10 15 8 28 19 28 24 0 5 10 18 22 30 28 26 14 26 -22 0 l-28 -20 -37 21 c-61
36 -145 14 -145 -37 0 -24 -1 -24 -29 -9 -16 8 -35 20 -43 27 -27 27 -74 52
-101 55 -16 2 -37 7 -47 13 -28 15 -35 12 -17 -8z m391 -62 c27 -27 11 -38
-17 -13 -12 11 -31 26 -42 32 -18 11 -17 12 10 6 17 -3 39 -15 49 -25z"/>
<path d="M13260 3981 c-13 -9 -13 -11 0 -15 8 -3 31 -7 50 -8 32 -3 35 -6 38
-38 6 -88 24 -170 37 -170 10 0 12 22 9 96 l-3 97 39 -6 c22 -3 60 -15 85 -27
48 -23 58 -49 33 -83 -20 -25 -120 -82 -190 -107 -73 -27 -88 -37 -66 -45 19
-8 209 88 254 127 l34 30 0 -24 c0 -21 32 -68 46 -68 28 0 66 49 85 110 6 20
8 15 9 -25 2 -48 2 -49 12 -20 15 42 15 42 51 8 17 -16 40 -33 50 -36 29 -11
63 33 77 98 6 31 15 53 20 49 12 -14 20 -123 9 -129 -5 -4 -9 -13 -9 -21 0
-30 158 17 161 49 1 6 4 -1 8 -17 8 -40 31 -46 31 -8 0 22 6 31 22 35 25 7 38
-7 38 -40 0 -12 5 -25 11 -29 7 -4 10 8 8 36 -3 35 0 45 16 51 19 7 19 8 -2 8
-16 1 -25 11 -35 43 -8 23 -19 43 -26 46 -12 4 -42 -48 -42 -73 0 -18 -12 -19
-69 -2 l-44 14 54 19 c106 38 55 73 -81 55 -42 -5 -70 -5 -78 2 -18 14 -27 1
-12 -18 29 -34 -10 -145 -51 -145 -25 0 -65 42 -81 86 -8 22 -21 37 -40 43
-30 11 -48 -3 -29 -22 6 -6 11 -19 11 -29 0 -27 -38 -98 -57 -105 -22 -9 -43
23 -44 66 -1 49 -42 81 -148 115 -96 31 -169 41 -191 27z m801 -52 c-53 -21
-101 -28 -101 -14 0 16 21 23 80 23 39 1 42 -1 21 -9z m112 -49 c4 -15 0 -20
-14 -20 -20 0 -23 8 -13 34 7 20 20 13 27 -14z m-153 -24 c25 -7 45 -19 45
-27 0 -15 -80 -47 -91 -37 -10 10 -17 78 -7 78 4 0 28 -6 53 -14z"/>
<path d="M3223 3962 c-13 -2 -23 -8 -23 -13 0 -5 -11 -9 -25 -9 -14 0 -25 -4
-25 -10 0 -13 19 -13 61 1 56 19 64 40 12 31z"/>
<path d="M3436 3945 c4 -8 12 -15 20 -15 20 0 17 7 -6 20 -16 9 -18 8 -14 -5z"/>
<path d="M14285 3930 c-12 -4 -27 -16 -35 -25 -12 -15 -12 -19 1 -29 18 -13
39 -68 39 -102 0 -13 5 -24 10 -24 13 0 13 23 0 90 -8 41 -7 56 2 62 22 14 33
9 13 -6 -19 -14 -19 -15 -2 -34 28 -31 137 -80 213 -96 38 -8 70 -13 72 -12 1
2 -37 19 -85 39 -49 21 -104 46 -123 58 l-34 21 27 20 c44 32 35 48 -25 47
-29 0 -62 -4 -73 -9z"/>
<path d="M2996 3894 c-22 -8 -113 -32 -202 -54 -89 -22 -191 -50 -227 -63 -65
-24 -66 -24 -52 -3 8 11 15 27 15 36 0 8 -9 1 -19 -17 -15 -23 -29 -33 -53
-35 -31 -4 -32 -5 -10 -14 21 -9 15 -13 -53 -39 -41 -15 -93 -44 -115 -63 -51
-43 -100 -114 -100 -144 0 -20 -5 -23 -37 -23 l-38 0 -7 -55 c-5 -30 -5 -81
-2 -113 4 -40 2 -62 -7 -73 -10 -12 -10 -17 -1 -23 16 -9 -17 -141 -34 -141
-7 0 -21 -16 -33 -35 -20 -34 -20 -35 -1 -35 12 0 20 8 22 23 2 13 10 22 19
21 12 -1 18 10 23 43 3 25 21 84 40 131 29 73 35 98 33 154 -1 36 2 70 6 75 5
4 30 8 56 8 45 0 81 16 81 36 0 5 -11 9 -25 9 -29 0 -31 7 -9 40 34 50 88 100
110 100 20 0 206 68 289 105 17 7 50 18 75 25 25 6 54 15 65 20 30 13 225 68
268 76 20 3 37 10 37 15 0 4 -13 3 -30 -2 -21 -8 -38 -8 -57 0 l-28 11 30 -5
c20 -4 26 -3 16 4 -11 7 -10 10 5 14 11 3 13 5 4 5 -8 0 -33 -6 -54 -14z m21
-30 c-3 -3 -12 -4 -19 -1 -8 3 -5 6 6 6 11 1 17 -2 13 -5z m-40 -10 c-3 -3
-12 -4 -19 -1 -8 3 -5 6 6 6 11 1 17 -2 13 -5z m-40 -10 c-3 -3 -12 -4 -19 -1
-8 3 -5 6 6 6 11 1 17 -2 13 -5z m-52 -14 c-11 -5 -27 -9 -35 -9 -9 0 -8 4 5
9 11 5 27 9 35 9 9 0 8 -4 -5 -9z m-70 -20 c-11 -5 -27 -9 -35 -9 -9 0 -8 4 5
9 11 5 27 9 35 9 9 0 8 -4 -5 -9z"/>
<path d="M14618 3743 c7 -3 16 -2 19 1 4 3 -2 6 -13 5 -11 0 -14 -3 -6 -6z"/>
<path d="M14665 3730 c11 -5 34 -8 50 -8 29 0 29 0 5 8 -14 4 -36 8 -50 8 -23
1 -23 0 -5 -8z"/>
<path d="M13890 3656 c0 -33 -2 -35 -37 -38 -47 -4 -46 -22 2 -26 30 -3 35 -7
35 -28 0 -33 18 -31 22 4 3 23 8 27 38 30 55 5 61 22 7 22 l-47 0 0 35 c0 19
-4 35 -10 35 -5 0 -10 -15 -10 -34z"/>
<path d="M10810 2929 c-162 -23 -309 -53 -388 -79 -95 -31 -236 -102 -225
-114 4 -4 0 -4 -10 -1 -21 9 -100 -35 -205 -112 -128 -94 -171 -134 -249 -230
-42 -51 -79 -93 -84 -93 -5 0 -9 -7 -9 -15 0 -8 -11 -22 -25 -31 -14 -9 -25
-20 -25 -24 0 -4 -38 -65 -86 -135 -47 -71 -91 -143 -99 -161 -9 -21 -28 -40
-54 -53 -26 -14 -39 -16 -36 -9 2 7 -9 23 -26 36 l-29 24 0 -61 c0 -33 4 -62
8 -65 10 -6 7 -44 -8 -83 -7 -20 -22 -35 -41 -42 -16 -5 -29 -14 -29 -19 0
-16 28 -34 47 -30 10 1 23 0 28 -4 7 -4 20 24 35 70 13 42 33 86 44 98 60 59
89 106 106 176 8 32 30 66 78 120 274 310 351 392 394 419 26 17 48 35 48 40
0 5 5 9 12 9 6 0 34 18 62 39 65 50 164 108 293 172 77 38 123 54 189 64 47 8
94 17 103 19 55 17 220 29 366 27 165 -3 174 -4 310 -43 103 -29 159 -51 211
-83 38 -24 82 -49 96 -54 15 -5 50 -27 80 -48 l53 -38 -44 62 c-38 54 -54 68
-130 107 -92 47 -270 118 -336 134 -58 15 -349 22 -425 11z m-1584 -1286 c-7
-7 -26 7 -26 19 0 6 6 6 15 -2 9 -7 13 -15 11 -17z"/>
<path d="M8872 2380 c0 -14 2 -19 5 -12 2 6 2 18 0 25 -3 6 -5 1 -5 -13z"/>
<path d="M8871 2249 c0 -30 4 -63 9 -74 5 -12 6 8 3 50 -7 85 -13 98 -12 24z"/>
<path d="M8891 2122 c-2 -71 89 -281 144 -332 l37 -35 -40 62 c-21 34 -49 88
-62 120 -12 32 -29 74 -38 93 -9 19 -21 55 -28 80 -12 43 -13 43 -13 12z"/>
<path d="M1 147 l0 -112 42 -18 c53 -21 86 -21 113 1 83 66 39 182 -68 182
-27 0 -29 2 -17 17 12 15 12 16 -5 10 -27 -10 -56 1 -49 19 3 7 0 14 -6 14 -7
0 -10 -39 -10 -113z m37 26 c-10 -13 -13 -12 -19 4 -15 36 -10 47 11 28 16
-14 18 -21 8 -32z"/>
<path d="M210 190 c0 -5 5 -10 10 -10 6 0 10 5 10 10 0 6 -4 10 -10 10 -5 0
-10 -4 -10 -10z"/>
<path d="M15321 186 c-87 -48 -50 -186 49 -186 51 0 100 49 100 100 0 73 -85
122 -149 86z"/>
<path d="M195 41 c-3 -5 -1 -12 5 -16 12 -7 30 2 30 16 0 12 -27 12 -35 0z"/>
<path d="M6398 3 c7 -3 16 -2 19 1 4 3 -2 6 -13 5 -11 0 -14 -3 -6 -6z"/>
</g>
</svg>
