<?xml version="1.0" standalone="no"?>
<!DOCTYPE svg PUBLIC "-//W3C//DTD SVG 20010904//EN"
 "http://www.w3.org/TR/2001/REC-SVG-20010904/DTD/svg10.dtd">
<svg version="1.0" xmlns="http://www.w3.org/2000/svg"
 width="1547.000000pt" height="2349.000000pt" viewBox="0 0 1547.000000 2349.000000"
 preserveAspectRatio="xMidYMid meet">
<metadata>
Created by potrace 1.16, written by Peter Selinger 2001-2019
</metadata>
<g transform="translate(0.000000,2349.000000) scale(0.100000,-0.100000)"
fill="#000000" stroke="none">
<path d="M51 23476 c-87 -48 -50 -186 49 -186 51 0 100 49 100 99 0 75 -83
124 -149 87z"/>
<path d="M15321 23476 c-87 -48 -50 -186 49 -186 51 0 100 49 100 99 0 75 -83
124 -149 87z"/>
<path d="M10655 17603 c-16 -2 -66 -13 -111 -23 -44 -10 -121 -26 -172 -35
-75 -13 -112 -26 -204 -75 -62 -32 -138 -68 -168 -80 -96 -37 -175 -96 -227
-169 -26 -36 -70 -91 -98 -122 -48 -53 -136 -170 -203 -270 -17 -26 -36 -69
-42 -95 -6 -27 -26 -101 -44 -164 -57 -195 -64 -262 -56 -545 4 -144 14 -297
23 -360 9 -60 22 -146 28 -190 7 -44 32 -136 56 -205 24 -69 53 -163 64 -210
12 -47 29 -105 39 -130 28 -67 120 -319 120 -328 0 -30 82 -237 100 -252 3 -3
29 -38 58 -79 57 -82 109 -124 134 -110 13 7 15 34 10 211 -5 220 12 425 48
568 10 41 24 109 30 150 43 270 83 426 185 734 95 287 163 460 216 549 72 120
180 267 254 346 146 155 369 293 550 340 135 35 364 81 404 81 85 0 128 11
140 37 6 13 11 26 11 28 0 7 -100 77 -113 79 -7 1 -56 33 -107 72 -100 74
-182 115 -264 134 -27 6 -61 17 -75 25 -31 16 -127 47 -233 73 -74 19 -269 27
-353 15z"/>
<path d="M13260 3981 c-13 -9 -13 -11 0 -15 8 -3 31 -7 50 -8 32 -3 35 -6 38
-38 6 -88 24 -170 37 -170 10 0 12 22 9 96 l-3 97 39 -6 c22 -3 60 -15 85 -27
48 -23 58 -49 33 -83 -20 -25 -120 -82 -190 -107 -73 -27 -88 -37 -66 -45 19
-8 209 88 254 127 l34 30 0 -24 c0 -21 32 -68 46 -68 28 0 66 49 85 110 6 20
8 15 9 -25 2 -48 2 -49 12 -20 15 42 15 42 51 8 17 -16 40 -33 50 -36 29 -11
63 33 77 98 6 31 15 53 20 49 12 -14 20 -123 9 -129 -5 -4 -9 -13 -9 -21 0
-30 158 17 161 49 1 6 4 -1 8 -17 8 -40 31 -46 31 -8 0 22 6 31 22 35 25 7 38
-7 38 -40 0 -12 5 -25 11 -29 7 -4 10 8 8 36 -3 35 0 45 16 51 19 7 19 8 -2 8
-16 1 -25 11 -35 43 -8 23 -19 43 -26 46 -12 4 -42 -48 -42 -73 0 -18 -12 -19
-69 -2 l-44 14 54 19 c106 38 55 73 -81 55 -42 -5 -70 -5 -78 2 -18 14 -27 1
-12 -18 29 -34 -10 -145 -51 -145 -25 0 -65 42 -81 86 -8 22 -21 37 -40 43
-30 11 -48 -3 -29 -22 6 -6 11 -19 11 -29 0 -27 -38 -98 -57 -105 -22 -9 -43
23 -44 66 -1 49 -42 81 -148 115 -96 31 -169 41 -191 27z"/>
<path d="M14285 3930 c-12 -4 -27 -16 -35 -25 -12 -15 -12 -19 1 -29 18 -13
39 -68 39 -102 0 -13 5 -24 10 -24 13 0 13 23 0 90 -8 41 -7 56 2 62 22 14 33
9 13 -6 -19 -14 -19 -15 -2 -34 28 -31 137 -80 213 -96 38 -8 70 -13 72 -12 1
2 -37 19 -85 39 -49 21 -104 46 -123 58 l-34 21 27 20 c44 32 35 48 -25 47
-29 0 -62 -4 -73 -9z"/>
<path d="M1 174 l0 -139 42 -18 c53 -21 86 -21 113 1 54 43 58 100 10 148 -27
27 -42 34 -72 34 -36 0 -37 0 -19 20 19 21 8 29 -12 9 -6 -6 -21 -8 -34 -4
l-22 7 22 17 22 17 -25 24 -26 23 1 -139z"/>
<path d="M15321 186 c-87 -48 -50 -186 49 -186 51 0 100 49 100 100 0 73 -85
122 -149 86z"/>
</g>
</svg>
