<?xml version="1.0" standalone="no"?>
<!DOCTYPE svg PUBLIC "-//W3C//DTD SVG 20010904//EN"
 "http://www.w3.org/TR/2001/REC-SVG-20010904/DTD/svg10.dtd">
<svg version="1.0" xmlns="http://www.w3.org/2000/svg"
 width="1547.000000pt" height="2349.000000pt" viewBox="0 0 1547.000000 2349.000000"
 preserveAspectRatio="xMidYMid meet">

<g transform="translate(0.000000,2349.000000) scale(0.100000,-0.100000)"
fill="#000000" stroke="none">
<path d="M51 23476 c-87 -48 -50 -186 49 -186 51 0 100 49 100 99 0 75 -83
124 -149 87z"/>
<path d="M15321 23476 c-87 -48 -50 -186 49 -186 51 0 100 49 100 99 0 75 -83
124 -149 87z"/>
<path d="M8260 13076 c-123 -15 -162 -35 -219 -110 -25 -33 -65 -81 -88 -106
-55 -60 -62 -82 -65 -197 -2 -109 8 -148 63 -239 26 -43 53 -68 119 -113 117
-79 150 -93 207 -87 132 12 169 21 212 46 25 15 67 39 93 54 26 15 60 45 76
69 31 44 75 150 87 204 8 39 -11 171 -32 221 -31 74 -91 149 -154 191 -51 34
-176 84 -198 80 -3 -1 -49 -7 -101 -13z"/>
<path d="M11845 5770 c-3 -6 -14 -9 -23 -8 -12 2 -19 -11 -28 -57 -20 -92 -16
-176 12 -298 26 -114 40 -147 133 -317 29 -52 58 -111 65 -130 19 -54 89 -88
178 -88 l68 1 6 36 c4 20 11 41 16 48 42 53 -7 410 -77 570 -58 130 -163 225
-263 237 -29 4 -58 9 -66 12 -8 3 -17 0 -21 -6z"/>
<path d="M13260 3981 c-13 -9 -13 -11 0 -15 8 -3 31 -7 50 -8 32 -3 35 -6 38
-38 6 -88 24 -170 37 -170 10 0 12 22 9 96 l-3 97 39 -6 c22 -3 60 -15 85 -27
78 -38 58 -84 -67 -150 -34 -19 -57 -35 -50 -38 16 -5 118 52 155 86 l27 26 0
-25 c0 -22 31 -69 46 -69 28 0 66 49 85 110 6 20 8 15 9 -25 2 -48 2 -49 12
-20 15 42 15 42 51 8 17 -16 40 -33 50 -36 29 -11 63 33 77 98 6 31 15 53 20
49 12 -14 20 -123 9 -129 -5 -4 -9 -13 -9 -21 0 -30 158 17 161 49 1 6 4 -1 8
-17 8 -40 31 -46 31 -8 0 22 6 31 22 35 25 7 38 -7 38 -40 0 -12 5 -25 11 -29
7 -4 10 8 8 36 -3 35 0 45 16 51 19 7 19 8 -2 8 -16 1 -25 11 -35 43 -8 23
-19 43 -26 46 -12 4 -42 -48 -42 -73 0 -18 -12 -19 -69 -2 l-44 14 54 19 c106
38 55 73 -81 55 -42 -5 -70 -5 -78 2 -18 14 -27 1 -12 -18 29 -34 -10 -145
-51 -145 -25 0 -65 42 -81 86 -8 22 -21 37 -40 43 -30 11 -48 -3 -29 -22 6 -6
11 -19 11 -29 0 -27 -38 -98 -57 -105 -22 -9 -43 23 -44 66 -1 49 -42 81 -148
115 -96 31 -169 41 -191 27z m801 -52 c-53 -21 -101 -28 -101 -14 0 16 21 23
80 23 39 1 42 -1 21 -9z m112 -49 c4 -15 0 -20 -14 -20 -20 0 -23 8 -13 34 7
20 20 13 27 -14z m-153 -24 c25 -7 45 -19 45 -27 0 -15 -80 -47 -91 -37 -10
10 -17 78 -7 78 4 0 28 -6 53 -14z"/>
<path d="M14285 3930 c-12 -4 -27 -16 -35 -25 -12 -15 -12 -19 1 -29 18 -13
39 -68 39 -102 0 -13 5 -24 10 -24 13 0 13 23 0 90 -8 41 -7 56 2 62 22 14 33
9 13 -6 -19 -14 -19 -15 -2 -34 28 -31 137 -80 213 -96 38 -8 70 -13 72 -12 1
2 -37 19 -85 39 -49 21 -104 46 -123 58 l-34 21 27 20 c44 32 35 48 -25 47
-29 0 -62 -4 -73 -9z"/>
<path d="M14618 3743 c7 -3 16 -2 19 1 4 3 -2 6 -13 5 -11 0 -14 -3 -6 -6z"/>
<path d="M14665 3730 c11 -5 34 -8 50 -8 29 0 29 0 5 8 -14 4 -36 8 -50 8 -23
1 -23 0 -5 -8z"/>
<path d="M13890 3656 c0 -33 -2 -35 -37 -38 -47 -4 -46 -22 2 -26 30 -3 35 -7
35 -28 0 -33 18 -31 22 4 3 23 8 27 38 30 55 5 61 22 7 22 l-47 0 0 35 c0 19
-4 35 -10 35 -5 0 -10 -15 -10 -34z"/>
<path d="M0 233 c0 -3 11 -14 25 -25 21 -16 23 -23 14 -35 -11 -12 -14 -10
-25 14 -10 25 -12 18 -13 -62 l0 -90 42 -18 c52 -21 81 -22 112 -1 21 14 25
24 25 70 0 30 -4 54 -8 54 -5 0 -46 22 -90 49 -45 27 -82 47 -82 44z"/>
<path d="M15321 186 c-87 -48 -50 -186 49 -186 51 0 100 49 100 100 0 73 -85
122 -149 86z"/>
</g>
</svg>
