<?xml version="1.0" standalone="no"?>
<!DOCTYPE svg PUBLIC "-//W3C//DTD SVG 20010904//EN"
 "http://www.w3.org/TR/2001/REC-SVG-20010904/DTD/svg10.dtd">
<svg version="1.0" xmlns="http://www.w3.org/2000/svg"
 width="1547.000000pt" height="2349.000000pt" viewBox="0 0 1547.000000 2349.000000"
 preserveAspectRatio="xMidYMid meet">
<metadata>
Created by potrace 1.16, written by Peter Selinger 2001-2019
</metadata>
<g transform="translate(0.000000,2349.000000) scale(0.100000,-0.100000)"
fill="#000000" stroke="none">
<path d="M51 23476 c-87 -48 -50 -186 49 -186 51 0 100 49 100 99 0 75 -83
124 -149 87z"/>
<path d="M15321 23476 c-87 -48 -50 -186 49 -186 51 0 100 49 100 99 0 75 -83
124 -149 87z"/>
<path d="M6771 16633 c-28 -6 -174 -99 -214 -137 -15 -14 -35 -26 -43 -26 -7
0 -13 -3 -11 -8 2 -7 -123 -130 -147 -144 -7 -4 -33 -33 -58 -65 -38 -48 -44
-62 -35 -80 19 -44 150 -57 407 -42 121 7 208 23 430 75 58 14 118 27 135 29
53 6 308 71 358 90 10 4 23 19 28 33 12 30 9 33 -116 116 -154 103 -272 152
-340 142 -25 -4 -43 -11 -41 -15 8 -12 -102 -1 -169 16 -64 17 -144 24 -184
16z"/>
<path d="M9142 16226 c-31 -35 -70 -138 -78 -205 -3 -19 -8 -41 -13 -50 -15
-30 -13 -171 2 -194 17 -27 33 -262 18 -272 -7 -4 -7 -14 -1 -28 15 -34 28
-194 23 -278 -4 -52 0 -89 10 -120 33 -95 67 -179 106 -261 23 -47 41 -101 41
-119 0 -18 7 -40 16 -50 15 -17 14 -18 -14 -14 -45 6 -60 -18 -25 -40 l28 -18
-20 23 -20 24 25 -17 c14 -10 25 -22 25 -28 0 -6 16 -23 35 -37 l35 -25 -35
31 c-68 61 -12 31 64 -33 52 -45 78 -62 81 -52 3 7 -12 58 -34 113 -21 54 -49
133 -61 174 -12 41 -44 140 -71 220 -53 159 -75 276 -85 470 -4 69 -10 130
-15 136 -4 5 -11 93 -15 195 -6 159 -4 195 12 264 18 79 21 202 5 218 -4 4
-22 -8 -39 -27z"/>
<path d="M12400 15034 c-14 -3 -34 -9 -45 -13 -36 -16 -109 -34 -181 -46 -58
-9 -71 -9 -67 2 4 10 -1 10 -26 2 -41 -14 -51 -31 -14 -24 25 5 26 4 5 -4 -12
-6 -30 -7 -39 -4 -9 4 -14 2 -11 -3 4 -5 -7 -10 -23 -11 -16 -1 -27 1 -25 6 6
10 -74 -8 -164 -37 -36 -11 -99 -28 -140 -37 -45 -11 -106 -35 -155 -62 -44
-25 -87 -48 -95 -53 -32 -16 -16 -44 40 -72 52 -26 63 -27 200 -28 80 0 161 5
180 10 111 33 414 50 516 30 33 -7 163 -15 291 -19 194 -5 234 -9 250 -23 10
-9 34 -23 54 -31 50 -21 84 -61 113 -133 45 -111 58 -218 55 -424 -4 -180 -5
-187 -32 -243 -16 -32 -42 -67 -58 -79 -18 -13 -29 -31 -29 -45 0 -22 -6 -20
-127 41 -71 36 -168 81 -218 101 -49 20 -99 40 -110 45 -32 14 -84 28 -185 50
-139 30 -287 28 -410 -6 -77 -21 -109 -25 -167 -21 -77 6 -85 2 -97 -45 -5
-22 -3 -28 11 -28 9 0 30 -4 47 -9 17 -6 108 -14 201 -20 210 -13 432 -49 590
-96 66 -20 141 -42 167 -49 51 -14 119 -60 115 -78 -1 -6 4 -13 12 -16 9 -3
11 0 6 8 -5 9 -4 11 4 6 6 -4 9 -11 6 -16 -7 -12 76 -81 94 -78 9 2 15 -2 14
-8 -1 -7 7 -20 19 -30 19 -17 21 -17 15 -2 -4 11 -2 15 6 12 24 -9 87 94 152
251 66 157 67 163 82 305 8 80 12 177 9 215 -18 215 -30 305 -46 353 l-19 52
31 16 c17 9 45 18 62 21 69 11 108 47 119 110 10 52 -21 76 -153 121 -63 22
-158 52 -210 66 -52 15 -108 31 -125 36 -69 21 -159 31 -310 35 -88 2 -171 2
-185 -1z"/>
<path d="M8880 14695 c-102 -22 -225 -78 -394 -179 -123 -74 -176 -109 -176
-116 0 -4 -38 -22 -85 -40 -47 -17 -98 -42 -114 -55 l-28 -24 -34 25 c-19 14
-73 45 -120 69 -48 24 -89 51 -93 60 -4 11 -12 15 -22 11 -21 -8 -181 20 -253
44 -52 17 -173 44 -317 69 -185 33 -501 41 -619 16 -370 -79 -597 -155 -765
-255 -36 -21 -76 -50 -89 -64 -14 -14 -30 -26 -36 -26 -7 0 -20 -9 -30 -20
-15 -17 -16 -22 -4 -37 8 -10 20 -22 27 -26 7 -5 16 -17 20 -26 7 -17 11 -17
60 -3 32 9 51 20 50 27 -3 14 35 51 97 94 73 50 324 138 510 177 39 9 99 22
135 29 145 32 354 30 605 -5 39 -6 89 -12 112 -14 23 -2 46 -7 52 -11 6 -3 11
-1 11 4 0 6 7 11 15 11 8 0 15 -4 15 -10 0 -5 12 -12 28 -16 72 -16 234 -57
292 -75 71 -22 320 -138 320 -149 0 -4 11 -10 25 -12 25 -5 34 5 15 17 -5 3
-10 11 -10 18 0 6 12 -5 26 -24 l25 -34 -7 30 -7 30 26 -24 26 -23 28 19 c15
11 37 23 48 26 45 13 93 33 118 50 15 9 27 15 27 12 0 -9 59 24 135 75 117 79
164 102 195 95 18 -4 31 -1 40 10 8 9 27 23 43 32 23 12 27 17 16 24 -10 6 -5
10 18 15 18 4 31 9 29 13 -2 3 24 19 57 36 34 16 67 36 73 44 10 12 19 9 60
-21 57 -41 74 -51 74 -44 0 2 -23 21 -52 42 -68 50 -43 57 30 8 100 -69 112
-76 112 -71 0 3 -34 30 -75 58 -71 50 -89 69 -64 69 8 0 8 4 -1 14 -6 8 -17
13 -23 10 -7 -2 -30 5 -52 16 -44 22 -47 22 -125 5z"/>
<path d="M6711 14224 c-62 -8 -119 -19 -127 -25 -16 -13 -132 -49 -159 -49
-37 0 -118 -52 -175 -112 -44 -46 -60 -57 -76 -52 -16 7 -17 6 -6 -8 7 -9 9
-19 4 -22 -24 -15 -143 -210 -151 -248 -6 -24 -20 -51 -31 -60 -12 -10 -19
-22 -16 -27 3 -5 -1 -14 -9 -21 -8 -7 -15 -23 -15 -37 0 -31 55 -149 105 -227
l38 -60 43 93 c24 52 41 98 37 104 -3 5 -2 7 4 4 6 -4 16 12 23 36 7 23 18 53
26 67 l13 25 1 -24 c0 -45 27 -3 41 64 9 44 22 77 43 102 57 70 154 159 204
186 55 30 190 77 225 78 21 0 21 1 2 9 -13 5 -1 7 35 4 41 -3 50 -2 35 6 -14
7 2 9 60 5 117 -6 179 -16 163 -26 -8 -6 0 -7 19 -3 44 9 190 -23 238 -51 22
-12 78 -35 125 -49 159 -48 291 -140 482 -332 76 -77 163 -159 195 -183 52
-39 123 -119 123 -138 0 -4 -16 9 -36 28 -32 31 -30 26 19 -46 30 -44 66 -104
81 -133 15 -29 32 -54 39 -56 7 -2 45 -12 84 -23 58 -16 75 -18 83 -8 13 15
-7 25 -53 26 -29 0 -30 1 -9 9 33 14 47 51 33 91 -15 42 -14 47 5 45 9 0 19 5
21 12 3 6 -2 12 -11 12 -9 0 -16 4 -16 8 0 5 -30 42 -67 83 -141 154 -201 253
-74 119 50 -52 94 -103 97 -112 3 -10 12 -18 21 -18 22 0 -13 40 -219 248
-162 162 -215 209 -192 170 4 -8 3 -10 -2 -5 -5 5 -9 12 -9 16 0 4 -50 54
-111 112 -94 89 -128 114 -235 171 -68 36 -142 71 -164 78 -61 19 -62 27 -4
39 51 10 49 10 -31 5 -79 -4 -94 -2 -210 36 -218 71 -359 87 -559 64z"/>
<path d="M10309 13752 c-13 -11 -37 -25 -53 -33 -20 -9 -43 -38 -70 -89 -45
-81 -90 -120 -139 -120 -17 0 -64 16 -106 36 -102 49 -171 63 -210 43 -26 -12
-259 -218 -331 -290 -14 -15 -38 -50 -53 -78 l-26 -51 93 -45 c52 -25 143 -58
203 -74 59 -15 127 -38 151 -50 64 -33 92 -42 92 -31 0 6 -7 10 -17 10 -9 0
-14 3 -10 6 3 3 15 3 27 -1 14 -5 19 -12 15 -24 -4 -13 2 -21 22 -29 62 -24
71 -24 78 -2 5 16 13 20 28 16 11 -3 29 0 39 5 40 21 28 0 -14 -25 l-43 -27
34 3 c29 3 43 14 85 65 71 86 124 157 167 222 35 55 77 97 191 193 63 53 77
88 68 179 -11 117 -155 242 -221 191z"/>
<path d="M9955 12706 c-17 -7 -45 -30 -63 -50 -27 -31 -32 -45 -32 -87 0 -29
8 -65 19 -87 10 -20 28 -68 41 -107 32 -98 127 -319 167 -387 39 -66 42 -117
17 -249 -9 -47 -14 -116 -12 -156 3 -61 8 -78 34 -114 57 -78 123 -96 225 -60
113 40 133 55 153 113 15 42 38 72 116 150 l97 97 16 123 c19 140 15 348 -9
433 -25 94 -123 174 -242 200 -43 9 -267 113 -309 143 -72 51 -155 66 -218 38z"/>
<path d="M7122 10423 c-57 -28 -66 -88 -26 -173 30 -64 27 -84 -20 -133 -19
-20 -56 -72 -82 -114 -65 -106 -85 -126 -175 -173 -46 -24 -80 -49 -84 -60 -8
-27 -37 -53 -165 -153 -58 -45 -141 -117 -185 -159 -77 -73 -155 -138 -345
-284 -121 -93 -319 -188 -457 -220 -59 -14 -162 -39 -228 -55 -66 -16 -169
-38 -229 -48 -60 -11 -114 -25 -122 -33 -28 -28 -45 -297 -23 -368 5 -19 14
-64 20 -100 21 -147 108 -290 191 -315 44 -14 160 -87 237 -149 42 -35 98 -73
124 -84 26 -12 68 -38 93 -58 54 -45 155 -165 212 -254 23 -36 69 -104 103
-153 81 -116 104 -162 133 -261 13 -46 40 -119 59 -162 36 -84 66 -181 117
-384 17 -69 52 -187 76 -263 25 -75 47 -150 48 -165 2 -15 5 -27 6 -27 1 0 3
-9 5 -20 2 -11 18 -74 35 -140 90 -341 150 -691 150 -872 0 -79 6 -160 15
-203 8 -39 19 -135 24 -213 6 -78 12 -151 15 -162 18 -71 36 -172 45 -245 36
-291 39 -362 19 -359 -29 3 -41 -3 -18 -10 20 -5 26 -14 28 -41 l2 -35 -37 41
c-24 26 -50 44 -71 48 -37 6 -34 11 -52 -83 -14 -77 -43 -137 -122 -252 -72
-106 -230 -262 -292 -289 -58 -24 -157 -44 -196 -38 -25 4 -36 -1 -60 -28 -27
-32 -29 -38 -26 -111 2 -55 9 -90 23 -118 l21 -40 -54 2 c-36 1 -62 8 -79 21
-47 37 -221 228 -257 283 -20 31 -44 61 -53 69 -14 12 -15 10 -5 -14 5 -15 15
-37 21 -49 12 -22 12 -22 -9 -3 -12 10 -24 34 -28 52 -3 18 -31 66 -62 108
-32 41 -69 94 -85 116 -15 22 -37 44 -50 49 -12 5 -40 31 -62 58 -23 29 -77
75 -126 107 -102 67 -189 143 -264 232 -44 53 -56 62 -67 51 -10 -11 -17 -11
-40 2 -30 17 -34 26 -17 37 11 6 -6 18 -71 49 -52 25 -234 93 -325 122 -44 14
-87 27 -95 30 -8 4 -21 7 -29 9 -63 13 -120 29 -143 40 -41 21 -124 14 -203
-16 -11 -5 -41 -14 -67 -20 -41 -11 -47 -16 -46 -36 2 -20 8 -24 38 -25 60 -3
64 -4 95 -20 17 -9 50 -20 75 -24 139 -23 410 -178 510 -292 18 -20 58 -54 89
-75 115 -77 218 -161 255 -208 17 -21 59 -64 93 -95 34 -30 87 -92 118 -136
40 -57 66 -84 88 -91 27 -10 29 -12 11 -19 -10 -4 31 -5 91 -2 157 8 183 -8
255 -157 23 -47 53 -102 68 -122 33 -46 127 -107 165 -108 69 0 112 -50 127
-144 15 -94 42 -170 74 -204 34 -38 245 -166 289 -176 15 -4 26 -10 23 -14 -2
-4 26 -9 62 -10 37 -1 114 -7 172 -14 170 -19 356 -17 413 6 26 10 47 23 47
27 0 5 5 9 12 9 7 0 28 16 48 35 l35 34 -9 191 c-9 190 -9 191 15 238 22 44
24 59 26 222 1 96 4 202 7 235 4 33 2 94 -3 135 -7 56 -7 77 2 82 9 6 9 8 0 8
-9 0 -13 23 -13 81 0 54 3 78 11 74 6 -4 8 -14 4 -24 -5 -12 -3 -13 6 -4 19
19 6 232 -21 333 -19 73 -22 101 -17 196 3 60 1 132 -4 160 -5 27 -16 112 -25
189 -8 77 -21 167 -28 200 -8 33 -14 76 -14 95 -1 37 -24 201 -47 335 -16 93
-30 213 -28 235 1 8 -4 38 -12 65 -19 64 -55 259 -55 295 0 15 -20 87 -44 161
-87 269 -107 335 -120 409 -8 41 -23 113 -35 160 -11 47 -39 162 -62 255 -23
94 -50 187 -60 207 -14 27 -16 38 -6 41 7 3 6 6 -4 6 -20 1 -33 28 -16 34 21
7 -10 86 -36 93 -24 5 -83 99 -187 299 -29 55 -63 113 -75 130 -13 16 -47 73
-76 125 -29 52 -71 119 -94 148 -22 30 -49 69 -60 86 -11 18 -32 47 -47 64
-15 18 -30 42 -33 54 -4 13 -14 31 -23 40 -11 14 -12 23 -4 45 6 16 14 44 17
63 8 42 71 161 131 248 25 35 54 82 66 105 55 109 151 233 258 331 41 39 86
86 100 106 29 43 118 116 264 215 56 39 137 97 180 130 43 33 93 70 112 83 22
14 34 30 34 45 0 17 25 43 94 98 65 52 131 119 219 225 69 82 132 155 139 162
8 6 52 25 97 41 46 16 90 36 100 44 9 8 44 18 78 22 38 4 67 13 76 23 12 15
50 133 44 138 -1 0 -46 16 -99 33 -130 43 -244 91 -325 138 -38 21 -72 38 -78
38 -5 0 -22 14 -38 31 -32 38 -66 46 -105 27z"/>
<path d="M10512 10390 c-17 -17 -36 -48 -41 -68 -11 -43 -15 -302 -8 -592 3
-153 1 -210 -8 -225 -12 -18 -27 -102 -30 -163 -1 -27 59 -109 103 -139 18
-12 70 -34 114 -49 50 -16 92 -37 107 -54 14 -14 39 -34 54 -44 16 -9 57 -42
92 -71 54 -46 64 -52 67 -35 3 17 12 12 62 -32 61 -54 89 -103 111 -193 11
-46 14 -50 60 -69 l49 -20 20 29 c28 39 75 83 107 100 15 8 41 40 59 72 18 32
43 71 56 86 30 36 47 97 38 145 -6 37 -29 126 -104 397 -21 77 -46 185 -55
240 -9 54 -25 124 -36 155 -11 30 -31 98 -45 150 -35 134 -42 150 -91 197 -56
54 -70 57 -118 33 -94 -48 -190 -5 -270 121 l-23 36 -99 7 c-54 3 -107 9 -119
12 -15 4 -30 -4 -52 -26z"/>
<path d="M12145 4598 c-5 -17 -17 -263 -18 -353 0 -103 13 -216 28 -250 35
-77 83 -444 105 -790 14 -208 34 -357 70 -505 25 -100 46 -174 116 -404 5 -14
3 -16 -7 -11 -8 5 -6 0 3 -11 29 -33 26 -344 -2 -344 -5 0 -10 6 -13 13 -2 6
-2 -1 1 -18 5 -35 5 -31 3 -75 l-2 -35 -31 60 c-16 33 -42 74 -57 90 -36 39
-97 137 -94 150 4 15 -41 90 -54 90 -6 0 -15 4 -20 9 -5 5 -3 6 5 2 26 -15 10
15 -38 71 -28 32 -81 94 -119 138 -78 91 -182 192 -252 242 -126 90 -376 209
-524 248 -27 7 -112 16 -187 19 -115 5 -150 3 -220 -14 -46 -10 -137 -23 -203
-28 -207 -17 -400 -95 -649 -266 -127 -86 -257 -202 -303 -270 -15 -22 -34
-45 -40 -49 -7 -4 -13 -14 -13 -21 0 -8 -24 -45 -54 -82 -29 -38 -70 -95 -90
-127 -48 -75 -173 -318 -173 -337 0 -8 -10 -38 -21 -66 -33 -83 -15 -86 65
-13 38 35 104 95 146 132 53 47 90 91 119 140 23 40 69 105 102 146 34 41 80
97 103 125 51 62 91 107 78 86 -6 -10 -3 -9 12 4 12 10 22 21 21 25 -3 18 168
175 242 223 110 70 320 161 436 188 79 18 114 20 285 17 l194 -3 178 -54 c128
-38 200 -66 255 -98 42 -25 97 -56 122 -69 109 -61 347 -277 426 -388 21 -30
70 -95 107 -143 89 -114 143 -225 161 -327 8 -44 12 -92 9 -106 -3 -16 5 -44
20 -75 14 -27 31 -68 38 -91 7 -24 16 -43 20 -43 8 0 49 53 49 63 0 3 17 32
39 64 74 112 95 169 106 283 1 14 3 27 4 30 8 17 10 115 10 436 0 269 -3 384
-14 455 -8 52 -20 132 -25 179 -15 119 -51 319 -114 637 -30 149 -60 318 -66
375 -5 56 -19 155 -29 218 -10 63 -24 146 -29 183 -13 88 -64 195 -131 275
-50 60 -77 76 -86 50z"/>
<path d="M13260 3981 c-13 -9 -13 -11 0 -15 8 -3 31 -7 50 -8 32 -3 35 -6 38
-38 6 -88 24 -170 37 -170 10 0 12 22 9 96 l-3 97 39 -6 c22 -3 60 -15 85 -27
48 -23 58 -49 33 -83 -20 -25 -120 -82 -190 -107 -73 -27 -88 -37 -66 -45 19
-8 209 88 254 127 l34 30 0 -24 c0 -21 32 -68 46 -68 28 0 66 49 85 110 6 20
8 15 9 -25 2 -48 2 -49 12 -20 15 42 15 42 51 8 17 -16 40 -33 50 -36 29 -11
63 33 77 98 6 31 15 53 20 49 12 -14 20 -123 9 -129 -5 -4 -9 -13 -9 -21 0
-30 158 17 161 49 1 6 4 -1 8 -17 8 -40 31 -46 31 -8 0 22 6 31 22 35 25 7 38
-7 38 -40 0 -12 5 -25 11 -29 7 -4 10 8 8 36 -3 35 0 45 16 51 19 7 19 8 -2 8
-16 1 -25 11 -35 43 -8 23 -19 43 -26 46 -12 4 -42 -48 -42 -73 0 -18 -12 -19
-69 -2 l-44 14 54 19 c106 38 55 73 -81 55 -42 -5 -70 -5 -78 2 -18 14 -27 1
-12 -18 29 -34 -10 -145 -51 -145 -25 0 -65 42 -81 86 -8 22 -21 37 -40 43
-30 11 -48 -3 -29 -22 6 -6 11 -19 11 -29 0 -27 -38 -98 -57 -105 -22 -9 -43
23 -44 66 -1 49 -42 81 -148 115 -96 31 -169 41 -191 27z"/>
<path d="M14285 3930 c-12 -4 -27 -16 -35 -25 -12 -15 -12 -19 1 -29 18 -13
39 -68 39 -102 0 -13 5 -24 10 -24 13 0 13 23 0 90 -8 41 -7 56 2 62 22 14 33
9 13 -6 -19 -14 -19 -15 -2 -34 28 -31 137 -80 213 -96 38 -8 70 -13 72 -12 1
2 -37 19 -85 39 -49 21 -104 46 -123 58 l-34 21 27 20 c44 32 35 48 -25 47
-29 0 -62 -4 -73 -9z"/>
<path d="M0 269 c0 -32 6 -46 25 -61 21 -16 23 -23 14 -35 -11 -12 -14 -10
-25 14 -10 25 -12 18 -13 -62 l0 -90 42 -18 c71 -29 117 -17 146 40 15 29 14
49 -4 88 -18 36 -50 55 -98 55 l-32 1 30 24 c34 28 26 33 -15 9 -20 -12 -32
-14 -45 -6 -17 9 -16 12 13 29 l32 20 -35 16 -35 17 0 -41z"/>
<path d="M15321 186 c-87 -48 -50 -186 49 -186 51 0 100 49 100 100 0 73 -85
122 -149 86z"/>
</g>
</svg>
