<?xml version="1.0" standalone="no"?>
<!DOCTYPE svg PUBLIC "-//W3C//DTD SVG 20010904//EN"
 "http://www.w3.org/TR/2001/REC-SVG-20010904/DTD/svg10.dtd">
<svg version="1.0" xmlns="http://www.w3.org/2000/svg"
 width="1547.000000pt" height="2349.000000pt" viewBox="0 0 1547.000000 2349.000000"
 preserveAspectRatio="xMidYMid meet">

<g transform="translate(0.000000,2349.000000) scale(0.100000,-0.100000)"
fill="#000000" stroke="none">
<path d="M51 23476 c-87 -48 -50 -186 49 -186 51 0 100 49 100 99 0 75 -83
124 -149 87z"/>
<path d="M15321 23476 c-87 -48 -50 -186 49 -186 51 0 100 49 100 99 0 75 -83
124 -149 87z"/>
<path d="M1484 19978 c-31 -21 -59 -51 -77 -83 -52 -94 -21 -185 100 -285 48
-41 87 -89 79 -98 -14 -13 -268 258 -319 340 -20 33 -79 65 -135 74 -47 7
-143 -11 -195 -38 -21 -10 -42 -16 -47 -13 -6 3 -10 -2 -10 -13 0 -10 -11 -24
-24 -30 -13 -5 -41 -32 -62 -59 -22 -26 -44 -51 -50 -55 -23 -15 -57 -115 -62
-180 -9 -132 -3 -148 111 -265 56 -57 107 -101 114 -99 7 3 15 1 18 -4 4 -6
14 -10 23 -10 24 -1 70 -40 54 -47 -9 -3 -7 -12 8 -30 14 -18 17 -30 10 -38
-7 -8 6 -29 45 -73 l55 -61 -22 -45 c-12 -25 -27 -47 -33 -50 -6 -2 -60 50
-120 115 -129 140 -184 187 -195 169 -8 -12 -68 -51 -106 -69 -19 -9 -21 -16
-18 -72 2 -37 11 -73 22 -90 10 -16 87 -98 171 -184 l153 -155 -23 -57 c-13
-32 -23 -61 -22 -65 2 -4 5 -25 8 -47 2 -22 9 -58 14 -80 6 -30 5 -45 -5 -60
-12 -17 -10 -23 19 -53 72 -74 188 -203 273 -301 99 -117 124 -130 190 -102
64 27 88 17 100 -41 4 -23 0 -36 -20 -57 -14 -15 -28 -38 -32 -51 -10 -43 5
-61 358 -425 155 -159 171 -173 197 -168 16 3 36 1 45 -6 15 -11 15 -15 -4
-52 -11 -21 -20 -42 -20 -45 0 -7 88 -119 122 -157 l20 -21 45 20 c66 29 80
19 47 -34 -31 -48 -30 -51 49 -143 38 -43 53 -54 69 -49 12 3 27 -1 39 -12 23
-21 24 -32 2 -56 -15 -17 -13 -21 43 -80 74 -79 74 -79 104 -73 19 3 31 -3 49
-26 20 -26 22 -33 11 -53 -16 -30 3 -69 59 -119 46 -41 62 -45 86 -20 16 15
18 14 41 -13 31 -38 39 -65 23 -74 -17 -11 9 -50 75 -113 44 -42 54 -47 81
-41 16 3 34 13 38 20 11 19 19 18 44 -6 17 -15 20 -26 14 -46 -12 -47 -32 -51
-101 -22 l-61 27 -50 -26 c-27 -15 -59 -39 -70 -55 -11 -15 -26 -28 -33 -28
-15 0 -38 -50 -60 -130 -8 -30 -36 -95 -61 -145 -25 -49 -45 -96 -45 -102 0
-7 -4 -13 -10 -13 -16 0 -12 -18 10 -40 19 -19 18 -20 -68 -78 -74 -50 -290
-172 -306 -172 -2 0 -19 25 -36 55 -29 50 -34 54 -58 49 -23 -6 -62 -26 -105
-55 -5 -4 -11 -24 -14 -45 -2 -22 -17 -86 -34 -143 -21 -75 -27 -107 -19 -116
6 -7 8 -25 4 -39 -4 -16 2 -50 17 -91 19 -54 26 -65 46 -65 33 0 51 -43 43
-105 -4 -27 -4 -60 -2 -73 7 -34 68 -93 88 -85 14 5 15 0 9 -44 -10 -77 23
-142 75 -146 31 -2 56 -63 39 -94 -10 -19 -10 -30 4 -58 9 -19 23 -35 32 -35
8 0 15 -6 15 -14 0 -8 9 -18 21 -21 15 -5 18 -10 10 -18 -20 -20 -13 -84 11
-107 12 -11 25 -20 28 -20 3 0 21 -27 40 -60 19 -33 36 -60 40 -60 3 0 30 16
60 37 30 20 62 37 71 38 21 2 49 29 49 48 0 8 8 25 19 38 10 13 25 38 34 56
17 32 141 107 220 133 21 6 55 28 74 48 20 20 64 56 97 81 34 24 97 74 141
110 44 36 87 72 96 79 14 11 20 7 40 -25 12 -21 22 -41 21 -45 -6 -23 40 -1
93 43 33 28 83 68 110 89 78 59 197 169 234 217 l34 44 24 -25 c13 -15 30 -26
38 -26 8 0 15 -5 15 -10 0 -6 10 -4 22 4 28 17 62 24 65 12 1 -5 12 -14 25
-20 13 -6 32 -30 43 -53 12 -24 37 -60 56 -80 19 -21 60 -69 90 -108 l56 -70
-8 -120 c-12 -191 -28 -370 -34 -386 -8 -21 -25 -172 -30 -264 -3 -67 -7 -83
-26 -97 -28 -24 -42 -23 -87 6 -21 13 -72 41 -113 61 -40 21 -92 52 -114 69
-64 51 -107 74 -170 91 -33 8 -63 15 -67 15 -4 0 -22 -28 -39 -62 -17 -34 -44
-74 -58 -88 -41 -38 -68 -130 -38 -130 13 -1 113 -81 274 -220 54 -47 117 -98
140 -114 23 -16 55 -43 71 -62 l28 -33 32 20 c18 10 41 19 52 19 22 0 293 137
341 172 46 34 59 67 70 191 14 145 74 449 99 498 24 46 26 86 5 109 -13 15
-13 23 5 76 25 71 29 155 9 207 -13 33 -17 37 -50 37 -99 0 -197 39 -232 94
-8 11 -16 40 -19 64 l-6 42 34 0 c49 0 42 17 -10 22 -32 4 -57 16 -90 43 -25
21 -46 41 -46 45 0 5 -27 34 -61 67 -49 47 -109 133 -109 157 0 3 18 26 40 52
31 35 68 60 152 102 126 63 138 62 150 -9 11 -61 83 -162 184 -258 46 -44 84
-84 84 -89 0 -5 7 -15 15 -22 9 -8 15 -8 15 -2 0 6 -6 13 -12 15 -10 4 -10 6
-1 6 7 1 17 -8 23 -19 6 -11 21 -20 33 -21 59 -1 225 -96 250 -142 11 -19 36
-47 57 -63 37 -28 38 -31 33 -74 -3 -29 0 -58 10 -82 10 -23 14 -51 10 -72 -5
-31 -2 -36 36 -62 44 -29 123 -125 150 -184 19 -42 28 -50 61 -50 14 0 39 -9
55 -20 48 -32 155 -23 155 13 1 18 55 85 157 195 l93 99 -39 26 c-22 15 -61
57 -87 94 -27 37 -72 95 -101 129 -45 52 -53 67 -53 102 0 43 -52 187 -63 175
-10 -9 -8 22 2 50 5 13 11 136 14 273 5 216 8 257 26 307 27 77 44 210 36 277
-10 81 -49 197 -89 262 -19 32 -40 75 -46 95 -7 21 -20 47 -29 58 -30 35 -51
74 -51 93 0 18 -34 56 -57 63 -21 7 -153 130 -153 142 0 7 8 17 18 23 15 10
26 3 70 -37 32 -29 52 -56 52 -69 0 -32 53 -80 87 -80 35 0 53 -13 82 -62 13
-21 26 -38 31 -38 4 0 19 -19 33 -43 14 -24 52 -63 84 -86 57 -44 58 -44 103
-32 47 12 99 61 100 94 0 9 4 17 9 17 4 0 11 27 15 60 9 77 34 107 100 119 37
7 58 19 89 49 37 37 41 47 45 101 4 52 1 67 -22 105 -15 25 -51 63 -85 88 -33
24 -64 55 -70 70 -5 14 -18 35 -29 46 -11 11 -23 30 -27 41 -3 12 -10 19 -15
16 -5 -3 -14 5 -21 17 -7 13 -40 54 -73 91 -34 37 -62 77 -62 88 -1 11 13 32
33 48 29 24 33 31 24 53 -13 35 -91 64 -91 34 0 -14 -58 -56 -76 -56 -6 0 -15
12 -22 28 -6 15 -32 52 -56 82 -35 42 -45 63 -46 91 0 21 -7 42 -17 50 -9 8
-45 50 -79 94 -123 156 -139 174 -142 165 -2 -6 -9 -7 -15 -3 -6 4 -8 0 -4
-10 4 -10 1 -17 -6 -17 -15 1 -65 68 -103 139 -27 51 -126 161 -145 161 -5 0
-9 12 -9 28 -1 50 -36 106 -161 253 -68 80 -134 159 -145 175 -20 27 -24 28
-45 15 -21 -12 -24 -12 -39 10 -8 13 -37 48 -65 77 -65 69 -88 69 -160 1 -64
-60 -114 -152 -150 -274 -34 -114 -38 -280 -10 -390 10 -38 19 -77 20 -85 3
-32 25 -68 79 -134 102 -124 276 -304 314 -324 20 -10 37 -26 37 -35 0 -9 19
-36 41 -59 23 -24 61 -70 86 -103 26 -33 62 -76 82 -94 20 -19 36 -38 36 -42
0 -4 -14 -12 -31 -19 -30 -13 -31 -12 -88 48 -31 34 -62 62 -68 62 -6 0 -16
13 -23 29 -6 16 -42 60 -78 97 -145 149 -605 666 -717 805 -16 21 -89 104
-162 185 l-132 147 24 42 c14 23 25 48 25 56 -1 8 -25 40 -54 72 l-54 58 -35
-15 c-19 -8 -39 -22 -45 -31 -6 -12 -12 -14 -16 -7 -4 6 4 33 18 60 l25 49
-52 61 c-58 70 -77 75 -119 35 -36 -34 -43 -26 -16 17 23 37 30 70 16 70 -4 0
-8 6 -8 13 0 7 -13 26 -30 42 -16 16 -30 35 -30 42 0 7 -4 13 -9 13 -18 0 -66
-30 -83 -52 -15 -20 -18 -21 -23 -6 -4 9 1 30 9 47 28 53 21 82 -33 142 l-49
54 -40 -38 c-48 -47 -62 -35 -33 27 25 51 20 70 -33 131 -32 36 -36 38 -53 24
-25 -21 -73 -40 -84 -34 -15 10 -11 25 16 57 14 16 25 35 25 42 0 17 -41 71
-74 97 -23 18 -29 19 -44 8 -29 -24 -62 -40 -62 -30 0 5 7 24 15 43 16 41 14
45 -72 144 -50 58 -53 65 -64 140 -6 43 -13 82 -15 86 -3 4 7 30 21 57 14 28
25 57 25 64 0 20 -39 67 -55 67 -13 0 -107 -67 -203 -145 l-33 -27 -52 54
c-29 30 -68 73 -88 95 -42 48 -75 53 -106 14 l-20 -24 -64 49 c-65 49 -178
169 -190 202 -10 24 -49 59 -82 71 -50 19 -92 13 -143 -21z m-269 -442 c35
-15 55 -42 55 -73 0 -24 -55 -78 -94 -93 -26 -9 -31 -7 -57 20 -16 16 -29 37
-29 45 0 29 28 82 51 99 28 20 31 20 74 2z"/>
<path d="M2530 15270 c0 -5 5 -10 10 -10 6 0 10 5 10 10 0 6 -4 10 -10 10 -5
0 -10 -4 -10 -10z"/>
<path d="M4005 14554 c11 -3 33 -10 50 -15 21 -7 26 -6 19 1 -6 6 -28 13 -50
15 -21 2 -30 2 -19 -1z"/>
<path d="M13260 3981 c-13 -9 -13 -11 0 -15 8 -3 31 -7 50 -8 32 -3 35 -6 38
-38 6 -88 24 -170 37 -170 10 0 12 22 9 96 l-3 97 39 -6 c22 -3 60 -15 85 -27
48 -23 58 -49 33 -83 -20 -25 -120 -82 -190 -107 -73 -27 -88 -37 -66 -45 19
-8 209 88 254 127 l34 30 0 -24 c0 -21 32 -68 46 -68 28 0 66 49 85 110 6 20
8 15 9 -25 2 -48 2 -49 12 -20 15 42 15 42 51 8 17 -16 40 -33 50 -36 29 -11
63 33 77 98 6 31 15 53 20 49 12 -14 20 -123 9 -129 -5 -4 -9 -13 -9 -21 0
-30 158 17 161 49 1 6 4 -1 8 -17 8 -40 31 -46 31 -8 0 22 6 31 22 35 25 7 38
-7 38 -40 0 -12 5 -25 11 -29 7 -4 10 8 8 36 -3 35 0 45 16 51 19 7 19 8 -2 8
-16 1 -25 11 -35 43 -8 23 -19 43 -26 46 -12 4 -42 -48 -42 -73 0 -18 -12 -19
-69 -2 l-44 14 54 19 c106 38 55 73 -81 55 -42 -5 -70 -5 -78 2 -18 14 -27 1
-12 -18 29 -34 -10 -145 -51 -145 -25 0 -65 42 -81 86 -8 22 -21 37 -40 43
-30 11 -48 -3 -29 -22 6 -6 11 -19 11 -29 0 -27 -38 -98 -57 -105 -22 -9 -43
23 -44 66 -1 49 -42 81 -148 115 -96 31 -169 41 -191 27z m801 -52 c-53 -21
-101 -28 -101 -14 0 16 21 23 80 23 39 1 42 -1 21 -9z m112 -49 c4 -15 0 -20
-14 -20 -20 0 -23 8 -13 34 7 20 20 13 27 -14z m-153 -24 c25 -7 45 -19 45
-27 0 -15 -80 -47 -91 -37 -10 10 -17 78 -7 78 4 0 28 -6 53 -14z"/>
<path d="M14285 3930 c-12 -4 -27 -16 -35 -25 -12 -15 -12 -19 1 -29 18 -13
39 -68 39 -102 0 -13 5 -24 10 -24 13 0 13 23 0 90 -8 41 -7 56 2 62 22 14 33
9 13 -6 -19 -14 -19 -15 -2 -34 28 -31 137 -80 213 -96 38 -8 70 -13 72 -12 1
2 -37 19 -85 39 -49 21 -104 46 -123 58 l-34 21 27 20 c44 32 35 48 -25 47
-29 0 -62 -4 -73 -9z"/>
<path d="M14618 3743 c7 -3 16 -2 19 1 4 3 -2 6 -13 5 -11 0 -14 -3 -6 -6z"/>
<path d="M14665 3730 c11 -5 34 -8 50 -8 29 0 29 0 5 8 -14 4 -36 8 -50 8 -23
1 -23 0 -5 -8z"/>
<path d="M13890 3656 c0 -33 -2 -35 -37 -38 -47 -4 -46 -22 2 -26 30 -3 35 -7
35 -28 0 -33 18 -31 22 4 3 23 8 27 38 30 55 5 61 22 7 22 l-47 0 0 35 c0 19
-4 35 -10 35 -5 0 -10 -15 -10 -34z"/>
<path d="M0 244 c0 -9 11 -25 25 -36 21 -16 23 -23 14 -35 -11 -12 -14 -10
-25 14 -10 25 -12 18 -13 -62 l0 -90 42 -17 c53 -22 86 -22 113 0 83 66 39
182 -68 182 -27 0 -29 2 -17 17 12 15 12 16 -5 10 -27 -10 -56 1 -49 19 3 7 0
14 -6 14 -6 0 -11 -7 -11 -16z"/>
<path d="M15321 186 c-87 -48 -50 -186 49 -186 51 0 100 49 100 100 0 73 -85
122 -149 86z"/>
<path d="M195 30 c3 -5 8 -10 11 -10 2 0 4 5 4 10 0 6 -5 10 -11 10 -5 0 -7
-4 -4 -10z"/>
</g>
</svg>
