<?xml version="1.0" standalone="no"?>
<!DOCTYPE svg PUBLIC "-//W3C//DTD SVG 20010904//EN"
 "http://www.w3.org/TR/2001/REC-SVG-20010904/DTD/svg10.dtd">
<svg version="1.0" xmlns="http://www.w3.org/2000/svg"
 width="1547.000000pt" height="2349.000000pt" viewBox="0 0 1547.000000 2349.000000"
 preserveAspectRatio="xMidYMid meet">
<metadata>
Created by potrace 1.16, written by Peter Selinger 2001-2019
</metadata>
<g transform="translate(0.000000,2349.000000) scale(0.100000,-0.100000)"
fill="#000000" stroke="none">
<path d="M51 23476 c-87 -48 -50 -186 49 -186 51 0 100 49 100 99 0 75 -83
124 -149 87z"/>
<path d="M15321 23476 c-87 -48 -50 -186 49 -186 51 0 100 49 100 99 0 75 -83
124 -149 87z"/>
<path d="M7884 19010 c-159 -13 -319 -56 -438 -118 -46 -24 -102 -68 -172
-135 -165 -157 -211 -233 -265 -433 -36 -136 -80 -253 -114 -304 -37 -56 -106
-170 -141 -235 -23 -42 -35 -80 -40 -125 l-6 -65 -152 -150 c-83 -83 -169
-159 -191 -170 -43 -21 -107 -67 -183 -129 -80 -66 -256 -259 -285 -314 -31
-57 -77 -185 -77 -213 0 -42 23 -121 46 -154 13 -20 24 -42 24 -49 0 -7 9 -30
19 -53 18 -35 27 -42 77 -58 71 -22 87 -14 95 47 10 64 31 100 93 152 34 30
64 67 81 101 14 30 39 65 56 77 16 13 63 51 104 85 42 35 86 68 98 74 12 6 51
41 87 78 59 61 184 161 201 161 4 0 39 20 79 44 39 24 83 47 98 51 15 3 36 15
47 25 11 10 49 34 85 54 l65 35 2 53 c6 128 10 137 86 215 39 40 74 73 78 73
5 0 18 -11 31 -24 13 -12 43 -31 68 -40 25 -10 68 -39 95 -65 28 -27 66 -57
85 -67 19 -11 51 -31 70 -45 75 -55 162 -92 224 -93 53 -1 60 2 85 29 24 28
29 30 62 22 43 -12 59 -2 197 116 103 86 131 122 114 139 -20 20 -113 -8 -170
-51 -72 -55 -134 -73 -226 -68 -54 3 -83 10 -111 27 -36 23 -38 23 -89 6 -110
-34 -183 -15 -287 76 -76 67 -90 94 -94 182 -1 39 -8 109 -15 155 -17 116 -9
249 22 332 32 86 185 322 253 391 62 62 128 101 207 122 31 8 74 26 96 40 75
47 130 59 259 54 139 -5 169 -17 300 -122 45 -36 85 -66 90 -66 5 0 25 -14 46
-31 44 -37 65 -31 40 12 -33 55 -293 290 -352 317 -78 36 -255 48 -457 32z"/>
<path d="M10805 18458 c-145 -12 -247 -42 -303 -90 -44 -39 -243 -173 -297
-200 -17 -9 -39 -25 -49 -37 -18 -20 -18 -21 10 -32 21 -8 100 -9 272 -4 155
4 260 3 290 -4 70 -15 376 -33 538 -32 156 2 210 -11 280 -64 44 -34 134 -153
170 -225 15 -30 42 -74 61 -97 40 -50 63 -101 63 -142 0 -17 11 -63 24 -103
20 -60 66 -216 66 -225 0 -1 -60 27 -132 63 -73 35 -149 69 -168 74 -19 5 -50
23 -69 40 -95 88 -418 195 -741 246 -89 14 -121 15 -210 5 -58 -7 -127 -14
-155 -17 -27 -3 -54 -9 -60 -13 -5 -5 -53 -21 -105 -35 -52 -15 -126 -38 -164
-52 -73 -26 -194 -93 -216 -118 -7 -9 -17 -16 -22 -16 -5 0 -21 -14 -35 -30
-13 -17 -29 -28 -34 -24 -5 3 -9 -2 -9 -10 0 -8 -26 -35 -57 -58 -147 -108
-244 -215 -318 -347 -22 -40 -67 -116 -100 -169 -73 -117 -157 -306 -261 -584
-10 -28 -14 -103 -15 -300 0 -145 2 -284 6 -310 6 -37 4 -48 -6 -48 -10 0 -11
-2 -2 -8 14 -9 57 -217 49 -237 -3 -8 -1 -15 3 -17 8 -3 81 -238 81 -260 0
-28 56 -186 78 -218 52 -77 83 -159 93 -245 7 -69 18 -104 60 -192 67 -144
104 -241 129 -339 21 -86 64 -172 147 -295 127 -188 225 -237 345 -172 68 37
93 86 83 162 -4 31 -10 97 -14 146 -6 89 -7 92 -84 231 -42 78 -89 170 -103
205 -14 35 -55 122 -91 194 -36 71 -72 147 -79 168 -11 30 -14 125 -14 425 -1
415 6 541 39 695 22 109 50 161 190 362 61 88 79 122 89 168 24 120 147 294
265 375 40 27 116 70 170 95 55 26 114 60 133 77 92 80 299 144 679 210 61 10
169 30 240 44 73 14 205 30 300 37 94 6 180 13 192 15 13 3 32 21 45 44 16 28
28 39 40 36 22 -5 34 10 43 54 4 19 19 62 33 95 25 57 26 69 26 245 1 227 -6
274 -55 370 -39 76 -128 173 -229 251 -25 19 -75 62 -112 95 -40 37 -103 80
-156 108 l-90 46 -334 -2 c-183 -1 -382 -5 -443 -10z"/>
<path d="M8558 17714 l-37 -24 4 -76 c5 -111 35 -135 79 -65 22 35 49 60 141
135 25 20 28 26 16 40 -10 12 -31 16 -90 15 -63 0 -82 -4 -113 -25z"/>
<path d="M8530 16668 c-189 -49 -196 -52 -241 -93 -68 -64 -168 -109 -394
-179 -66 -21 -136 -43 -155 -51 -19 -7 -76 -20 -125 -30 -94 -17 -270 -63
-342 -89 -23 -8 -63 -17 -90 -21 -26 -3 -68 -11 -93 -16 -25 -5 -61 -12 -80
-14 -19 -3 -71 -10 -115 -16 -113 -16 -579 -17 -694 -2 -73 10 -99 17 -118 35
-31 29 -153 39 -181 15 -9 -8 -27 -18 -38 -21 -49 -15 -57 -37 -52 -153 6
-128 25 -190 79 -262 22 -28 39 -55 39 -59 0 -5 12 -20 28 -33 25 -23 38 -33
109 -80 68 -46 507 -51 695 -8 51 11 145 27 208 34 95 11 131 20 205 53 50 21
113 43 140 47 70 10 100 25 178 87 88 71 218 139 341 177 145 45 270 116 421
240 44 36 110 86 146 111 154 105 188 131 234 182 84 92 126 175 98 191 -5 2
-96 -18 -203 -45z"/>
<path d="M12057 14734 c-5 -6 -52 -13 -327 -55 -210 -31 -219 -35 -266 -137
-23 -50 -24 -59 -18 -200 5 -127 9 -155 31 -205 48 -113 39 -219 -27 -299 -43
-52 -206 -175 -303 -228 l-82 -45 3 -60 c5 -89 -36 -465 -60 -550 -6 -22 -14
-114 -18 -205 -6 -145 -11 -182 -43 -302 -38 -147 -66 -218 -157 -398 -31 -63
-72 -146 -91 -185 -18 -38 -54 -94 -79 -125 -25 -30 -63 -80 -85 -110 -22 -30
-62 -79 -89 -107 -55 -59 -54 -51 -8 -183 16 -47 40 -137 52 -200 12 -63 27
-125 33 -137 19 -41 66 -80 149 -123 46 -23 101 -55 123 -69 43 -30 76 -45
173 -85 82 -33 257 -40 308 -13 68 36 46 64 -76 98 -40 11 -85 26 -101 35 -40
20 -99 73 -120 107 -9 16 -39 43 -65 60 -62 41 -140 153 -152 219 -11 56 3
157 28 213 10 22 22 64 25 93 13 102 106 234 214 306 52 34 72 54 77 74 3 15
9 36 14 47 59 138 80 247 94 475 7 102 14 142 40 205 19 48 66 287 72 370 3
33 7 130 9 215 3 146 4 156 25 170 12 8 41 31 64 51 48 42 97 69 125 69 26 0
59 44 66 89 17 108 27 140 60 178 63 74 76 77 371 79 144 1 267 4 273 8 6 4
16 4 23 0 6 -4 5 2 -4 14 -25 36 -90 78 -157 101 -85 29 -106 41 -240 130 -63
42 -123 89 -133 106 -31 50 -41 104 -29 146 10 32 25 46 125 108 63 39 139 83
169 96 68 32 80 45 71 82 -13 53 -33 83 -58 83 -12 0 -25 -3 -29 -6z"/>
<path d="M3832 14596 c-29 -17 -76 -45 -105 -61 l-52 -30 -7 -85 c-9 -120 -45
-217 -89 -240 -30 -17 -49 -71 -49 -140 0 -70 -13 -106 -65 -181 -36 -52 -37
-57 -33 -126 5 -106 23 -126 119 -134 41 -3 101 -14 134 -24 64 -18 145 -16
171 6 9 7 14 32 14 70 0 66 10 98 48 152 20 31 26 52 27 100 3 98 54 177 137
211 20 9 39 20 42 25 3 5 1 31 -5 58 -14 59 6 144 45 190 27 32 27 33 -32 121
-29 42 -43 54 -76 63 -23 6 -60 22 -83 35 -53 31 -76 29 -141 -10z"/>
<path d="M6165 14291 c-33 -9 -71 -23 -85 -31 -43 -23 -132 -91 -202 -154 -55
-50 -68 -67 -68 -91 0 -17 -7 -57 -15 -88 -8 -32 -15 -77 -15 -100 0 -43 23
-175 45 -257 l12 -44 44 2 c95 6 94 5 128 102 48 132 103 239 153 295 67 75
87 108 94 154 4 25 12 41 20 41 8 0 14 5 14 10 0 6 -4 10 -9 10 -4 0 -11 32
-14 71 -5 64 -19 100 -36 98 -3 0 -33 -8 -66 -18z"/>
<path d="M6805 14024 c-39 -31 -121 -63 -180 -69 -75 -9 -227 -79 -286 -132
-45 -41 -103 -151 -133 -255 -17 -61 -20 -85 -5 -53 7 15 8 10 6 -23 -2 -31 1
-41 10 -38 7 3 13 0 13 -7 0 -7 16 -43 35 -82 19 -38 39 -92 44 -118 5 -26 11
-51 15 -54 10 -10 79 -4 86 8 4 6 15 50 25 97 38 189 130 361 246 465 92 82
153 132 180 149 l28 17 -18 53 c-19 57 -35 67 -66 42z"/>
<path d="M5915 12350 c-16 -6 -68 -15 -115 -21 -50 -7 -96 -20 -112 -31 -14
-10 -31 -18 -36 -18 -6 0 -37 -22 -69 -48 -32 -27 -78 -62 -103 -78 -26 -17
-65 -58 -92 -98 -62 -90 -115 -147 -221 -242 -49 -43 -109 -106 -133 -140 -25
-35 -89 -105 -143 -156 -54 -51 -127 -131 -164 -178 -36 -47 -108 -128 -159
-181 -51 -53 -127 -136 -167 -184 -41 -48 -100 -108 -130 -133 -31 -26 -81
-70 -112 -98 -30 -28 -78 -63 -107 -78 -41 -21 -61 -41 -104 -103 -34 -52 -54
-93 -59 -123 -24 -152 -57 -196 -199 -268 -155 -77 -205 -94 -276 -93 -105 3
-183 -57 -245 -186 -93 -193 -149 -444 -135 -609 9 -114 22 -204 36 -241 11
-30 9 -35 -40 -98 -60 -79 -76 -109 -129 -243 -68 -169 -92 -271 -103 -432
-20 -283 2 -507 60 -618 11 -22 25 -65 31 -96 16 -86 48 -151 101 -200 110
-103 286 -83 374 41 l29 42 -14 63 c-9 41 -14 118 -13 223 1 142 4 170 28 250
57 194 143 329 328 516 107 109 241 206 373 272 79 40 110 65 144 120 22 35
23 46 17 119 -4 45 -16 102 -27 129 -18 41 -31 53 -98 93 -43 25 -93 49 -112
52 -59 10 -89 26 -95 50 -13 52 20 84 88 84 24 0 41 10 72 44 23 24 59 55 82
70 46 30 143 135 166 181 26 51 30 90 14 130 -9 21 -16 45 -16 54 0 8 29 43
64 76 36 33 86 88 113 122 171 219 235 279 372 347 57 29 91 53 101 70 15 29
95 100 150 134 19 11 78 65 131 119 90 91 98 103 117 168 27 90 81 172 168
257 86 83 162 138 256 185 117 57 184 109 217 167 105 187 361 230 524 87 20
-18 51 -63 69 -99 32 -65 33 -69 37 -227 4 -195 -1 -182 173 -451 74 -114 186
-250 279 -341 165 -159 377 -335 442 -368 l69 -35 35 24 c19 13 42 34 50 46 8
12 26 25 39 30 35 14 59 104 45 168 -16 78 -28 101 -85 160 -154 164 -250 392
-291 692 -9 63 -20 148 -25 188 -20 149 -5 304 37 386 9 17 17 60 18 99 2 54
-3 77 -22 115 -13 25 -28 51 -33 56 -14 14 -12 29 2 20 7 -4 8 -3 4 4 -4 7
-14 12 -22 12 -8 0 -27 9 -42 19 -26 19 -50 20 -484 23 -455 3 -456 3 -487 26
-16 12 -34 22 -39 22 -12 0 -125 110 -144 140 -15 24 -20 25 -119 27 -57 1
-117 -2 -134 -7z"/>
<path d="M8344 10645 c-12 -8 -33 -39 -48 -69 -47 -95 -141 -157 -267 -175
-80 -11 -111 -26 -168 -83 -60 -59 -95 -116 -122 -198 l-23 -70 18 -142 c18
-153 49 -308 70 -361 8 -17 17 -57 21 -87 19 -162 51 -276 168 -602 19 -53 37
-120 41 -149 8 -60 65 -239 96 -298 11 -22 29 -65 41 -95 18 -49 52 -90 94
-114 8 -4 28 -50 44 -102 16 -52 34 -109 41 -125 11 -27 9 -40 -14 -104 -15
-41 -38 -87 -51 -103 -14 -16 -25 -42 -25 -57 0 -15 -7 -50 -15 -77 -16 -52
-18 -146 -7 -279 l7 -80 77 -74 c79 -74 92 -85 206 -166 34 -25 78 -67 97 -93
19 -27 46 -54 60 -60 25 -11 25 -13 25 -129 0 -142 14 -273 39 -368 23 -90 16
-182 -20 -240 -22 -37 -24 -51 -27 -209 -3 -147 -1 -179 18 -254 14 -56 25
-136 29 -227 4 -78 10 -146 14 -152 7 -12 32 -206 47 -366 5 -54 11 -101 14
-106 12 -18 21 -228 18 -411 -2 -107 1 -437 7 -734 7 -431 7 -544 -4 -570 -20
-50 -26 -128 -14 -181 6 -28 15 -144 19 -260 14 -347 18 -389 57 -510 20 -64
57 -149 89 -205 l55 -97 72 -31 c66 -29 81 -32 177 -32 64 0 100 4 91 9 -11 7
-9 10 7 15 39 13 59 64 65 167 4 73 12 113 35 171 64 167 157 265 365 391 99
60 310 153 391 173 17 4 57 24 90 45 111 69 257 109 402 109 46 0 54 10 54 65
0 40 -7 46 -100 80 -204 75 -198 74 -522 70 l-293 -4 -184 92 c-205 103 -263
149 -318 252 -44 85 -52 121 -63 290 -5 83 -14 166 -20 185 -13 46 -13 1209 0
1268 8 33 6 65 -6 130 -9 48 -20 130 -24 182 -5 52 -18 142 -30 200 -37 180
-40 201 -42 367 -3 150 -2 163 17 185 25 28 58 132 80 247 9 47 20 92 25 101
5 10 2 36 -9 71 -51 153 -54 349 -9 477 40 112 84 178 188 283 72 72 113 105
170 134 86 44 127 77 182 147 43 53 116 105 190 133 26 9 55 26 65 37 17 19
17 20 -2 34 -10 8 -24 14 -31 14 -20 0 -126 51 -203 99 l-74 46 -295 -2 c-273
-2 -300 -1 -356 18 -113 39 -229 137 -281 239 -40 78 -54 140 -79 337 -2 16
-9 39 -15 53 -6 14 -31 100 -56 192 -73 269 -118 384 -213 541 -63 103 -90
171 -72 182 5 3 10 17 10 30 0 48 29 81 168 192 l23 18 -20 123 c-11 67 -27
227 -36 354 -15 217 -18 233 -41 263 -37 49 -136 71 -180 40z"/>
<path d="M3320 6995 c-14 -7 -32 -25 -40 -39 -8 -16 -22 -26 -35 -26 -22 0
-54 -29 -74 -68 -22 -42 -3 -166 45 -289 55 -142 74 -224 74 -323 0 -101 24
-325 54 -515 14 -82 30 -206 35 -275 17 -189 31 -329 41 -390 15 -87 38 -591
35 -753 -3 -170 -6 -179 -86 -221 -30 -16 -97 -59 -149 -96 -114 -80 -157
-106 -190 -114 -22 -5 -21 -4 5 10 l30 15 -30 -7 c-16 -4 -58 -6 -92 -5 -59 2
-119 -11 -193 -42 -19 -8 -73 -20 -120 -26 -47 -7 -94 -16 -105 -21 -11 -4
-39 -14 -63 -21 -51 -15 -125 -63 -204 -131 -40 -34 -67 -69 -89 -114 -31 -63
-32 -66 -26 -170 4 -89 8 -110 25 -126 20 -20 20 -20 83 39 98 91 202 133 330
133 58 0 74 4 125 35 72 43 129 60 254 75 52 6 138 21 190 33 83 19 107 29
188 84 51 35 133 83 181 107 118 60 277 160 324 205 21 20 50 56 65 81 26 44
27 48 27 230 1 238 21 323 104 445 17 24 21 46 21 111 0 144 -65 589 -118 799
-13 55 -29 125 -34 155 -5 30 -19 102 -33 160 -13 58 -40 179 -60 269 -36 165
-66 253 -168 501 -31 74 -63 160 -70 190 -13 52 -18 57 -67 83 -59 31 -146 36
-190 12z"/>
<path d="M13260 3981 c-13 -9 -13 -11 0 -15 8 -3 31 -7 50 -8 32 -3 35 -6 38
-38 6 -88 24 -170 37 -170 10 0 12 22 9 96 l-3 97 39 -6 c22 -3 60 -15 85 -27
48 -23 58 -49 33 -83 -20 -25 -120 -82 -190 -107 -73 -27 -88 -37 -66 -45 19
-8 209 88 254 127 l34 30 0 -24 c0 -21 32 -68 46 -68 28 0 66 49 85 110 6 20
8 15 9 -25 2 -48 2 -49 12 -20 15 42 15 42 51 8 17 -16 40 -33 50 -36 29 -11
63 33 77 98 6 31 15 53 20 49 12 -14 20 -123 9 -129 -5 -4 -9 -13 -9 -21 0
-30 158 17 161 49 1 6 4 -1 8 -17 8 -40 31 -46 31 -8 0 22 6 31 22 35 25 7 38
-7 38 -40 0 -12 5 -25 11 -29 7 -4 10 8 8 36 -3 35 0 45 16 51 19 7 19 8 -2 8
-16 1 -25 11 -35 43 -8 23 -19 43 -26 46 -12 4 -42 -48 -42 -73 0 -18 -12 -19
-69 -2 l-44 14 54 19 c106 38 55 73 -81 55 -42 -5 -70 -5 -78 2 -18 14 -27 1
-12 -18 29 -34 -10 -145 -51 -145 -25 0 -65 42 -81 86 -8 22 -21 37 -40 43
-30 11 -48 -3 -29 -22 6 -6 11 -19 11 -29 0 -27 -38 -98 -57 -105 -22 -9 -43
23 -44 66 -1 49 -42 81 -148 115 -96 31 -169 41 -191 27z"/>
<path d="M14285 3930 c-12 -4 -27 -16 -35 -25 -12 -15 -12 -19 1 -29 18 -13
39 -68 39 -102 0 -13 5 -24 10 -24 13 0 13 23 0 90 -8 41 -7 56 2 62 22 14 33
9 13 -6 -19 -14 -19 -15 -2 -34 28 -31 137 -80 213 -96 38 -8 70 -13 72 -12 1
2 -37 19 -85 39 -49 21 -104 46 -123 58 l-34 21 27 20 c44 32 35 48 -25 47
-29 0 -62 -4 -73 -9z"/>
<path d="M1 125 l0 -90 42 -17 c57 -24 89 -22 120 6 37 34 43 68 20 113 -16
34 -23 39 -74 49 -52 10 -57 9 -69 -10 -12 -19 -13 -19 -25 10 -11 26 -13 21
-14 -61z"/>
<path d="M15321 186 c-87 -48 -50 -186 49 -186 51 0 100 49 100 100 0 73 -85
122 -149 86z"/>
</g>
</svg>
