<?xml version="1.0" standalone="no"?>
<!DOCTYPE svg PUBLIC "-//W3C//DTD SVG 20010904//EN"
 "http://www.w3.org/TR/2001/REC-SVG-20010904/DTD/svg10.dtd">
<svg version="1.0" xmlns="http://www.w3.org/2000/svg"
 width="1547.000000pt" height="2349.000000pt" viewBox="0 0 1547.000000 2349.000000"
 preserveAspectRatio="xMidYMid meet">
<metadata>
Created by potrace 1.16, written by Peter Selinger 2001-2019
</metadata>
<g transform="translate(0.000000,2349.000000) scale(0.100000,-0.100000)"
fill="#000000" stroke="none">
<path d="M49 23475 c-84 -46 -48 -185 48 -185 45 0 69 14 88 50 48 93 -44 185
-136 135z"/>
<path d="M15321 23476 c-87 -48 -50 -186 49 -186 51 0 100 49 100 99 0 75 -83
124 -149 87z"/>
<path d="M7977 18964 c-5 -5 -68 -9 -140 -10 -88 0 -161 -6 -217 -18 -126 -27
-155 -42 -185 -98 -15 -26 -24 -52 -21 -57 6 -9 -14 -21 -43 -27 -22 -4 -126
-111 -181 -184 -60 -81 -133 -227 -154 -307 -19 -73 -37 -238 -35 -312 3 -62
5 -60 -119 -128 -45 -24 -81 -50 -80 -56 5 -29 -25 -87 -55 -106 -30 -19 -36
-32 -40 -86 -2 -30 -45 -77 -155 -170 -44 -36 -74 -70 -77 -85 -5 -21 -15 -29
-52 -38 -143 -39 -308 -164 -432 -330 -101 -134 -171 -276 -171 -345 0 -49 75
-157 126 -182 22 -11 55 -32 73 -47 18 -16 40 -28 48 -28 13 0 12 -5 -6 -22
-71 -74 -103 -136 -116 -226 -15 -112 92 -334 209 -435 61 -53 68 -75 40 -128
-16 -32 -81 -68 -120 -69 -32 0 -43 -20 -46 -83 -2 -50 1 -61 24 -83 23 -24
30 -25 56 -16 17 6 39 8 50 5 15 -3 22 3 30 27 16 44 102 127 159 152 26 11
53 28 59 37 10 13 22 13 90 3 123 -19 239 -87 277 -161 7 -13 24 -33 38 -43
l26 -19 46 31 c51 34 57 55 32 100 -8 14 -14 35 -15 48 0 15 -9 26 -25 32 -22
8 -25 16 -25 55 0 53 -3 51 200 120 69 23 148 51 175 63 28 11 86 28 130 37
44 10 93 24 108 32 16 8 61 21 99 29 149 31 561 185 655 244 25 16 75 39 110
51 36 12 84 32 107 45 22 13 52 24 66 24 14 0 90 30 169 65 134 60 171 73 171
60 0 -9 -62 -115 -70 -120 -5 -3 -18 -31 -30 -63 -12 -31 -30 -66 -39 -77 -10
-11 -24 -45 -31 -75 -7 -30 -17 -60 -22 -67 -5 -6 -20 -51 -33 -100 -13 -48
-32 -108 -43 -133 -53 -124 -181 -283 -429 -536 -147 -150 -197 -194 -288
-253 -232 -152 -416 -218 -633 -228 -153 -7 -191 4 -242 71 -21 28 -52 59 -69
69 -25 15 -31 25 -31 54 0 27 -8 43 -34 69 l-35 35 -92 -7 c-51 -4 -112 -15
-137 -24 -41 -16 -47 -22 -59 -63 -19 -66 -48 -83 -169 -97 -95 -12 -103 -11
-145 8 -24 12 -53 28 -64 36 -18 13 -25 10 -88 -40 -37 -30 -85 -80 -108 -110
-85 -116 -177 -127 -258 -31 -56 66 -131 72 -175 14 -24 -31 -24 -36 -15 -107
5 -41 6 -83 3 -93 -9 -29 5 -87 21 -87 8 0 18 -6 22 -14 4 -7 49 -51 98 -96
50 -45 95 -91 102 -103 28 -50 11 -105 -50 -156 -15 -13 -42 -51 -59 -84 -43
-85 -79 -117 -133 -117 -35 0 -58 10 -132 58 -183 121 -204 151 -214 306 -6
86 -15 134 -41 211 -18 55 -37 100 -43 100 -5 0 -19 8 -30 17 -125 103 -127
104 -195 107 -36 1 -84 7 -107 13 -35 8 -47 7 -68 -6 -24 -16 -26 -15 -50 12
-14 16 -43 34 -64 41 -28 8 -42 19 -51 40 -6 16 -22 39 -36 52 -13 12 -24 30
-24 40 0 23 -37 49 -58 42 -11 -5 -13 -3 -7 6 5 10 2 11 -14 6 -13 -4 -29 -1
-38 7 -12 9 -15 9 -9 1 12 -21 -32 -15 -54 7 -25 25 -55 25 -140 0 -56 -17
-114 -54 -99 -63 2 -1 13 -7 24 -13 11 -6 30 -30 41 -55 26 -52 22 -47 113
-124 39 -33 71 -66 71 -75 1 -20 25 -52 33 -43 4 3 7 -8 7 -26 0 -21 12 -48
35 -78 19 -25 35 -51 35 -57 1 -6 23 -21 50 -34 29 -13 73 -49 110 -88 l61
-66 -6 -66 c-5 -50 -3 -76 9 -104 24 -56 20 -98 -19 -179 -75 -160 -112 -367
-86 -479 11 -48 -5 -98 -38 -123 -10 -7 -28 -32 -42 -57 -29 -53 -87 -90 -144
-90 -51 -1 -114 -29 -169 -77 l-43 -37 18 -49 c21 -56 42 -83 73 -93 11 -4 44
-26 71 -49 43 -36 65 -46 160 -69 100 -25 114 -31 155 -71 46 -45 235 -194
292 -231 18 -12 97 -54 176 -94 166 -84 165 -78 31 -155 -43 -25 -80 -49 -84
-55 -3 -5 -16 -10 -29 -10 -45 0 -58 -30 -55 -127 2 -56 -1 -96 -9 -110 -7
-12 -12 -30 -12 -40 0 -25 -415 -432 -558 -547 -65 -51 -198 -173 -297 -270
-98 -97 -193 -186 -210 -196 -18 -11 -54 -43 -82 -72 l-49 -53 10 -85 c16
-137 10 -262 -19 -395 -7 -34 -77 -67 -135 -64 -41 2 -54 -1 -75 -21 -25 -23
-106 -42 -245 -56 -31 -4 -64 -12 -75 -20 -25 -19 -34 -89 -40 -333 -5 -151
-3 -194 11 -245 9 -33 22 -97 29 -141 7 -44 18 -96 24 -115 15 -47 14 -104 -3
-143 -7 -18 -39 -71 -70 -120 -107 -165 -145 -243 -170 -351 -71 -301 -69
-290 -62 -399 4 -56 11 -160 15 -232 7 -107 16 -155 50 -274 23 -79 55 -177
72 -218 36 -86 136 -256 195 -330 29 -36 43 -64 47 -96 4 -24 22 -100 41 -168
19 -68 42 -164 51 -214 9 -49 24 -115 35 -145 66 -190 132 -622 160 -1045 5
-82 14 -172 19 -200 6 -27 10 -85 10 -128 1 -43 6 -120 11 -172 11 -92 4 -218
-20 -385 -6 -36 -14 -108 -19 -160 -10 -99 -27 -160 -61 -215 -11 -18 -17 -34
-14 -37 4 -5 -101 -73 -166 -108 -8 -4 -14 -17 -13 -29 2 -17 -4 -23 -27 -28
-17 -3 -30 -9 -30 -14 0 -5 -12 -9 -26 -9 -19 0 -25 -4 -20 -15 4 -11 -3 -15
-27 -17 -18 -1 -48 -2 -67 -3 -19 -1 -71 -12 -115 -23 -44 -12 -134 -28 -199
-37 -78 -10 -137 -23 -172 -39 -29 -13 -54 -22 -57 -20 -2 3 -10 -2 -17 -11
-7 -8 -21 -15 -31 -15 -21 0 -34 -17 -17 -22 6 -2 -13 -14 -43 -26 -53 -22
-66 -28 -159 -80 -63 -35 -98 -70 -125 -122 -25 -50 -39 -147 -29 -207 l6 -39
106 -1 c90 0 120 -5 187 -27 87 -30 163 -72 244 -137 69 -55 223 -122 491
-213 376 -129 523 -185 680 -260 41 -20 80 -36 87 -36 7 0 68 -20 135 -44 278
-98 447 -147 708 -205 151 -33 322 -67 380 -76 58 -8 139 -20 180 -26 41 -6
103 -20 137 -30 34 -11 149 -42 255 -69 106 -28 218 -57 248 -65 58 -16 347
-66 515 -90 55 -7 168 -17 251 -20 l151 -8 36 34 c45 43 69 123 66 216 -2 58
0 68 14 67 23 -2 21 11 -4 28 -19 12 -22 25 -25 113 -3 55 -10 145 -16 200
-14 111 -13 227 2 255 27 51 64 426 51 528 -7 57 -7 79 2 84 9 6 9 8 0 8 -6 0
-14 18 -18 40 -8 48 3 123 17 114 5 -3 7 -13 3 -23 -5 -12 -3 -13 6 -4 19 19
6 232 -21 333 -19 73 -22 101 -17 196 3 60 1 132 -4 160 -5 27 -16 112 -25
189 -8 77 -21 167 -28 200 -8 33 -14 84 -15 114 -1 29 -3 56 -5 60 -2 3 -14
71 -26 151 -11 80 -32 179 -45 220 -33 102 -41 143 -59 304 -9 76 -24 160 -32
187 -9 27 -14 55 -11 63 3 8 -7 67 -24 131 -16 65 -29 126 -29 137 0 10 -38
101 -84 201 -46 100 -91 205 -99 232 -28 87 -68 277 -74 348 -5 61 -15 86 -88
225 -45 86 -88 182 -95 212 -7 30 -35 98 -64 150 -40 75 -74 119 -163 212 -62
64 -123 138 -136 165 -26 51 -47 133 -47 186 -1 18 -9 56 -19 86 l-19 53 89
177 c57 115 100 188 124 211 20 19 50 61 67 93 36 67 220 291 268 326 18 13
65 53 104 90 39 37 89 80 111 96 22 16 74 59 115 96 41 37 112 94 158 127 46
32 123 94 171 136 87 77 188 153 270 204 24 15 71 47 104 71 34 24 95 59 136
78 42 19 107 49 145 68 l70 34 64 -56 c35 -31 66 -62 69 -70 3 -7 -2 -36 -11
-64 l-17 -51 31 -48 c38 -58 110 -244 110 -281 0 -15 12 -71 26 -125 14 -55
32 -127 39 -160 7 -34 23 -81 35 -104 12 -23 36 -83 54 -133 18 -51 59 -164
90 -252 48 -132 59 -177 66 -255 10 -118 56 -279 121 -418 27 -57 49 -113 49
-123 0 -10 -9 -42 -21 -71 -11 -29 -34 -91 -51 -138 -16 -47 -43 -108 -59
-136 -37 -65 -29 -94 33 -122 50 -23 147 -115 185 -175 15 -23 57 -74 93 -114
91 -100 161 -198 176 -251 19 -62 18 -339 -1 -451 -22 -130 -40 -380 -39 -531
1 -118 5 -144 27 -205 27 -72 44 -152 57 -265 4 -36 15 -90 24 -120 32 -111
49 -268 42 -394 -6 -87 -4 -121 4 -126 7 -5 20 -73 30 -166 38 -342 43 -440
36 -794 -3 -190 -8 -493 -12 -675 l-5 -330 -40 -80 c-31 -61 -44 -104 -55
-175 -19 -127 -18 -190 6 -350 l20 -134 -28 -36 c-22 -28 -26 -41 -21 -65 4
-16 7 -58 8 -92 1 -60 2 -63 44 -96 68 -54 130 -95 157 -102 l25 -6 -25 21
-25 21 25 -12 c14 -6 39 -22 55 -34 17 -12 59 -37 95 -55 36 -18 91 -48 123
-68 32 -19 140 -66 240 -103 100 -37 236 -92 302 -123 107 -50 125 -56 163
-51 53 8 113 -14 247 -90 50 -28 104 -56 120 -62 107 -42 423 -103 529 -103
71 0 189 -16 301 -40 50 -11 142 -27 205 -36 143 -19 236 -43 370 -94 112 -43
157 -52 100 -19 l-35 20 30 -5 c17 -3 51 -8 77 -11 26 -3 50 -10 53 -16 4 -5
95 -9 214 -9 l208 0 6 78 c3 55 13 98 33 143 22 51 28 80 28 139 1 75 1 75 54
143 29 38 71 102 93 143 22 40 45 76 50 79 5 3 21 45 35 93 15 48 44 125 65
172 63 140 84 324 58 510 -6 41 -12 91 -14 110 -4 49 -38 135 -81 206 -120
195 -212 483 -265 824 -10 69 -21 130 -23 136 -5 13 -40 226 -51 308 -8 59
-60 291 -73 326 -6 15 -6 35 -1 48 6 17 0 59 -22 145 -43 166 -41 161 -122
242 -98 97 -125 149 -298 576 -50 124 -67 228 -69 419 -3 196 -4 186 20 210
28 28 74 25 147 -9 l62 -30 -23 67 c-61 176 -129 433 -120 455 6 16 -12 61
-48 119 -13 20 -47 78 -76 129 -29 50 -92 150 -139 222 -120 182 -209 376
-254 550 -6 23 -14 91 -18 151 -11 148 8 234 78 355 28 49 58 107 65 129 8 23
25 55 37 71 l22 30 -33 38 c-18 21 -90 97 -159 168 -101 103 -129 139 -140
175 -8 25 -22 71 -33 102 -20 63 -23 123 -8 162 8 23 103 103 198 167 44 30
62 82 41 120 -7 14 -9 42 -5 73 3 30 -1 80 -9 121 -8 38 -15 93 -15 122 0 128
-47 387 -87 479 -16 38 -22 72 -42 269 -6 55 -13 112 -16 126 l-6 26 123 -1
c139 -1 168 8 261 86 l47 40 65 -12 c52 -10 85 -10 167 1 100 13 104 15 159
61 31 26 66 60 78 76 31 44 81 154 81 178 0 11 11 43 25 70 27 54 29 57 18 51
-5 -3 -8 7 -9 21 0 15 -4 63 -8 107 -6 61 -3 111 13 212 12 72 21 134 21 137
0 3 20 14 45 25 44 19 45 21 45 66 0 36 12 71 55 157 30 60 55 119 55 129 0
10 7 19 15 19 8 0 15 6 15 13 0 8 12 20 26 27 34 19 53 58 65 133 11 75 42
182 75 258 13 31 24 62 24 68 0 6 18 50 39 98 21 49 53 135 71 193 17 58 49
141 71 185 21 44 50 123 64 175 15 52 42 138 61 190 20 52 40 115 44 140 5 25
15 63 23 85 l14 39 -59 88 c-63 95 -70 127 -35 161 12 13 28 36 35 52 7 16 26
45 41 64 48 61 68 112 90 226 12 61 29 139 37 174 8 36 19 144 24 240 l9 176
-28 41 c-37 53 -44 78 -37 117 5 27 16 36 65 60 62 30 141 106 141 135 0 23
-69 189 -101 242 -15 25 -44 83 -63 130 -48 114 -87 188 -108 207 -10 9 -18
24 -18 33 0 23 -36 54 -90 77 -44 19 -110 82 -110 105 0 14 -63 137 -98 193
-48 75 -103 180 -134 254 -17 40 -47 94 -66 120 -38 50 -132 207 -132 221 0 5
-6 13 -13 17 -22 14 -135 200 -128 211 1 1 -7 12 -18 23 -25 27 -81 132 -81
152 0 9 -38 66 -85 129 -47 62 -91 130 -97 151 -14 48 2 179 25 205 20 22 120
57 142 49 24 -10 28 15 17 101 -6 42 -16 120 -22 172 -19 161 -100 453 -156
563 -38 73 -130 191 -197 251 -105 94 -142 119 -237 155 -47 18 -99 40 -117
48 -53 26 -287 22 -393 -6 -92 -25 -149 -24 -228 4 -29 10 -79 15 -160 14 -64
0 -142 5 -172 11 -218 46 -473 24 -700 -61 -73 -27 -180 -56 -270 -73 -14 -2
-46 -14 -71 -25 -26 -12 -89 -32 -141 -46 -52 -13 -148 -43 -214 -66 -119 -42
-314 -97 -346 -98 -12 -1 -18 11 -23 42 -27 179 -32 191 -149 397 -41 71 -111
149 -166 185 -25 16 -40 36 -53 73 -14 41 -23 52 -50 62 -39 14 -389 26 -400
14z m489 -1417 c-19 -67 -101 -150 -162 -165 -61 -16 -164 -24 -164 -14 0 5
48 44 108 87 59 43 134 98 167 122 33 24 61 39 63 34 2 -6 -3 -35 -12 -64z
m-1001 -33 c50 -35 118 -84 152 -107 35 -23 63 -45 63 -48 1 -42 -262 38 -288
87 -19 36 -42 116 -37 125 10 15 15 12 110 -57z m1560 -221 c11 -7 39 -31 63
-56 37 -38 45 -53 54 -109 10 -56 9 -72 -6 -111 -22 -59 -49 -92 -99 -124 -64
-40 -495 -223 -587 -249 -30 -9 -72 -27 -92 -40 -41 -26 -96 -32 -104 -10 -3
8 0 41 6 74 7 40 7 75 1 104 -6 27 -6 60 0 88 5 25 13 66 17 91 11 60 35 97
97 148 31 26 52 51 55 69 9 47 42 41 83 -15 45 -62 103 -82 164 -57 62 26 150
87 169 118 9 16 32 46 51 66 30 34 36 37 70 30 21 -3 47 -11 58 -17z m-1835
-253 c73 -36 133 -49 200 -45 74 6 100 -9 122 -69 20 -57 44 -317 34 -371 -5
-26 -16 -42 -39 -55 -45 -28 -71 -25 -141 14 -100 55 -149 67 -267 64 -124 -3
-160 10 -202 74 -36 56 -42 94 -26 191 13 89 43 159 81 193 32 30 44 33 118
32 49 -1 79 -8 120 -28z m3804 -3858 c11 -21 12 -38 6 -68 -5 -21 -10 -88 -10
-149 0 -95 -4 -122 -29 -200 -34 -104 -55 -213 -46 -237 19 -48 -55 -320 -100
-372 -14 -16 -25 -36 -25 -43 0 -24 -25 -8 -28 18 -4 27 -42 138 -52 154 -4 6
-10 29 -13 52 -7 58 -57 118 -116 139 -25 10 -116 50 -202 90 -86 39 -174 77
-195 84 -22 7 -52 24 -68 39 -34 32 -86 119 -86 145 0 19 66 86 85 86 6 0 29
15 52 34 23 18 90 54 148 80 118 53 105 51 365 46 130 -3 160 -1 188 14 21 11
32 24 32 39 0 20 53 76 72 77 4 0 14 -13 22 -28z m-2472 -156 c82 -39 150
-104 181 -174 32 -71 48 -175 41 -262 -4 -45 1 -96 15 -168 12 -57 21 -128 21
-158 0 -96 78 -304 169 -453 33 -53 79 -136 104 -186 25 -49 59 -108 77 -130
65 -81 83 -122 90 -208 8 -84 30 -139 108 -277 29 -50 46 -97 22 -60 -8 12
-10 9 -10 -13 0 -16 4 -26 9 -23 5 4 12 -7 16 -22 3 -16 22 -53 42 -83 48 -74
119 -216 128 -259 4 -19 18 -61 31 -92 13 -31 35 -94 48 -140 14 -46 46 -139
71 -208 26 -69 52 -143 57 -165 6 -22 35 -106 65 -187 36 -100 53 -163 53
-195 0 -62 20 -144 77 -322 32 -102 43 -146 34 -149 -9 -3 -9 -8 1 -20 11 -13
10 -15 -4 -9 -9 3 -22 -1 -28 -8 -19 -23 -74 -29 -109 -11 -50 26 -153 5 -265
-54 -50 -27 -111 -54 -136 -60 -25 -7 -59 -19 -77 -27 -28 -12 -37 -12 -65 0
-65 28 -69 40 -73 199 -3 160 -11 210 -66 420 -12 47 -48 67 -111 65 -41 -2
-49 2 -86 41 -28 29 -43 55 -47 80 -30 201 -52 297 -85 367 -15 33 -33 80 -40
105 -14 54 -64 146 -137 253 -29 43 -53 87 -53 97 0 10 -5 22 -11 25 -6 4 -30
37 -53 74 -24 36 -56 77 -71 91 -38 35 -134 166 -151 206 -8 18 -14 46 -14 62
0 15 -18 73 -41 127 -93 228 -108 344 -109 830 0 165 -4 305 -8 311 -4 6 -28
25 -54 42 -62 42 -133 124 -165 192 -21 44 -27 70 -27 130 -1 88 9 116 81 227
76 116 138 161 268 195 101 26 213 20 287 -16z"/>
<path d="M4020 14641 c-33 -24 -123 -53 -153 -49 -17 2 -45 -14 -95 -55 -69
-55 -72 -60 -72 -100 0 -25 10 -62 24 -90 30 -59 23 -86 -35 -142 -62 -58 -69
-75 -76 -169 -6 -80 -4 -88 17 -111 21 -22 21 -45 -1 -45 -23 0 -89 -65 -103
-101 -9 -22 -16 -66 -16 -99 l0 -60 50 -25 c27 -14 63 -25 79 -25 36 0 111 31
130 54 10 12 17 14 27 5 8 -6 14 -17 14 -23 0 -17 143 -109 239 -156 126 -60
171 -55 227 26 l37 53 -12 139 c-14 150 -7 217 27 296 11 23 30 77 42 119 22
75 22 78 6 116 -10 21 -16 48 -14 61 2 16 -11 38 -49 76 -28 30 -56 54 -62 54
-13 0 -91 81 -91 95 0 5 -23 44 -50 84 -28 41 -50 79 -50 83 0 12 -13 9 -40
-11z"/>
<path d="M13260 3981 c-13 -9 -13 -11 0 -15 8 -3 31 -7 50 -8 32 -3 35 -6 38
-38 6 -88 24 -170 37 -170 10 0 12 22 9 96 l-3 97 39 -6 c22 -3 60 -15 85 -27
48 -23 58 -49 33 -83 -20 -25 -120 -82 -190 -107 -73 -27 -88 -37 -66 -45 19
-8 209 88 254 127 l34 30 0 -24 c0 -21 32 -68 46 -68 28 0 66 49 85 110 6 20
8 15 9 -25 2 -48 2 -49 12 -20 15 42 15 42 51 8 17 -16 40 -33 50 -36 29 -11
63 33 77 98 6 31 15 53 20 49 12 -14 20 -123 9 -129 -5 -4 -9 -13 -9 -21 0
-30 158 17 161 49 1 6 4 -1 8 -17 8 -40 31 -46 31 -8 0 22 6 31 22 35 25 7 38
-7 38 -40 0 -12 5 -25 11 -29 7 -4 10 8 8 36 -3 35 0 45 16 51 19 7 19 8 -2 8
-16 1 -25 11 -35 43 -8 23 -19 43 -26 46 -12 4 -42 -48 -42 -73 0 -18 -12 -19
-69 -2 l-44 14 54 19 c106 38 55 73 -81 55 -42 -5 -70 -5 -78 2 -18 14 -27 1
-12 -18 29 -34 -10 -145 -51 -145 -25 0 -65 42 -81 86 -8 22 -21 37 -40 43
-30 11 -48 -3 -29 -22 6 -6 11 -19 11 -29 0 -27 -38 -98 -57 -105 -22 -9 -43
23 -44 66 -1 49 -42 81 -148 115 -96 31 -169 41 -191 27z"/>
<path d="M14285 3930 c-12 -4 -27 -16 -35 -25 -12 -15 -12 -19 1 -29 18 -13
39 -68 39 -102 0 -13 5 -24 10 -24 13 0 13 23 0 90 -8 41 -7 56 2 62 22 14 33
9 13 -6 -19 -14 -19 -15 -2 -34 28 -31 137 -80 213 -96 38 -8 70 -13 72 -12 1
2 -37 19 -85 39 -49 21 -104 46 -123 58 l-34 21 27 20 c44 32 35 48 -25 47
-29 0 -62 -4 -73 -9z"/>
<path d="M51 186 c-87 -48 -50 -186 49 -186 51 0 100 49 100 99 0 75 -83 124
-149 87z"/>
<path d="M15321 186 c-44 -25 -65 -92 -41 -137 13 -24 61 -49 96 -49 35 0 94
59 94 95 0 78 -82 128 -149 91z"/>
</g>
</svg>
