<?xml version="1.0" standalone="no"?>
<!DOCTYPE svg PUBLIC "-//W3C//DTD SVG 20010904//EN"
 "http://www.w3.org/TR/2001/REC-SVG-20010904/DTD/svg10.dtd">
<svg version="1.0" xmlns="http://www.w3.org/2000/svg"
 width="1547.000000pt" height="2349.000000pt" viewBox="0 0 1547.000000 2349.000000"
 preserveAspectRatio="xMidYMid meet">
<metadata>
Created by potrace 1.16, written by Peter Selinger 2001-2019
</metadata>
<g transform="translate(0.000000,2349.000000) scale(0.100000,-0.100000)"
fill="#000000" stroke="none">
<path d="M51 23476 c-87 -48 -50 -186 49 -186 51 0 100 49 100 99 0 75 -83
124 -149 87z"/>
<path d="M15321 23476 c-87 -48 -50 -186 49 -186 51 0 100 49 100 99 0 75 -83
124 -149 87z"/>
<path d="M8685 16269 c-44 -16 -102 -34 -130 -40 -86 -18 -145 -40 -158 -60
-40 -56 -1082 -423 -1377 -484 -19 -4 -41 -11 -50 -15 -8 -4 -37 -18 -65 -30
-83 -36 -94 -49 -88 -104 5 -40 10 -49 37 -63 17 -9 36 -23 43 -32 27 -35 7
-97 -42 -134 -24 -17 -25 -17 -39 10 -24 47 -108 126 -165 157 -63 34 -147 55
-219 56 -33 0 -51 4 -50 11 2 7 -23 18 -57 25 -88 21 -120 41 -180 116 -59 73
-91 135 -126 243 -20 60 -37 103 -85 211 -20 48 -76 -8 -111 -111 -9 -27 -45
-95 -81 -150 -64 -98 -132 -228 -132 -251 0 -7 -13 -41 -30 -76 -16 -35 -30
-76 -30 -91 0 -15 0 -39 0 -54 0 -15 -5 -30 -11 -33 -25 -16 -54 -470 -30
-470 5 0 12 -23 16 -50 6 -43 15 -59 57 -103 28 -29 62 -69 76 -90 20 -30 30
-37 46 -33 12 3 50 6 86 6 40 0 60 4 51 9 -11 7 -11 9 0 14 8 3 -12 6 -43 6
-52 1 -62 5 -107 44 -27 23 -60 62 -73 87 -13 25 -32 58 -43 73 -14 22 -15 31
-6 36 9 6 12 44 10 142 -5 241 -4 255 14 282 10 16 17 47 17 79 1 29 7 70 14
91 13 36 64 119 77 125 3 1 4 15 2 30 -3 21 6 39 40 78 25 27 52 67 61 87 8
21 26 42 41 49 18 8 24 16 19 27 -17 39 -14 68 9 110 14 23 27 39 30 34 2 -4
13 -42 22 -83 21 -89 39 -127 100 -212 70 -98 77 -106 122 -117 26 -7 51 -23
66 -42 21 -27 32 -31 85 -36 64 -6 73 -17 22 -28 -16 -4 -52 -27 -81 -52 -44
-40 -70 -76 -126 -176 -17 -30 -16 -72 3 -108 21 -41 43 -34 64 21 54 138 196
206 380 181 97 -13 137 -32 146 -69 4 -15 9 -31 13 -37 3 -5 5 -19 6 -30 0
-26 42 -46 80 -39 44 9 108 48 143 88 55 63 51 164 -8 221 -41 39 -39 62 8 74
20 6 46 11 57 11 22 0 280 84 308 100 34 20 185 70 210 70 14 0 51 14 82 30
43 22 70 30 104 29 36 -2 64 7 127 38 44 22 91 44 105 48 13 4 125 48 248 96
140 56 238 89 261 89 21 0 57 7 80 15 23 8 44 15 46 15 2 0 -9 -12 -23 -26
-41 -42 -333 -170 -566 -250 -55 -18 -105 -38 -112 -44 -7 -6 -26 -12 -41 -14
-45 -6 -64 -17 -64 -35 0 -9 -16 -33 -36 -52 -20 -18 -52 -57 -70 -86 -30 -45
-41 -54 -87 -68 -49 -15 -165 -31 -267 -37 -37 -3 -45 -6 -45 -23 0 -23 24
-24 225 -11 172 10 226 39 269 139 11 26 34 68 51 92 16 24 30 51 30 59 0 9 4
16 10 16 5 0 7 -7 4 -15 -9 -22 0 -19 71 20 35 20 102 49 150 65 48 16 142 53
209 81 243 103 282 119 289 119 14 0 7 -41 -18 -102 -24 -60 -29 -65 -103
-110 -98 -59 -117 -68 -227 -111 -49 -20 -111 -45 -136 -56 -58 -26 -285 -82
-304 -75 -14 6 -52 -42 -41 -53 3 -3 18 -1 33 6 14 7 70 16 123 21 53 4 110
15 126 23 16 8 79 31 139 52 109 36 230 95 292 141 40 30 63 32 56 3 -3 -11
-27 -35 -53 -52 -26 -18 -47 -34 -46 -37 2 -13 -79 -141 -105 -166 -16 -15
-43 -33 -61 -40 -18 -6 -55 -21 -83 -32 -76 -31 -168 -49 -300 -62 -66 -6
-142 -16 -169 -22 -36 -8 -50 -7 -55 1 -5 8 -13 6 -24 -7 -16 -18 -16 -19 6
-31 18 -10 48 -10 133 -2 191 19 267 29 349 50 44 12 86 21 94 21 8 0 22 6 30
14 9 8 35 20 58 28 95 32 264 286 299 448 8 36 20 83 28 105 12 34 19 40 47
43 32 3 94 46 94 64 0 5 9 17 21 26 67 55 73 154 10 151 -12 0 -57 -14 -101
-30z"/>
<path d="M7586 15463 c-10 -3 -14 -8 -9 -12 18 -11 -6 -70 -35 -85 -15 -8 -35
-23 -44 -33 -15 -17 -26 -18 -85 -12 -120 14 -135 12 -131 -13 3 -20 12 -24
82 -35 43 -7 80 -14 83 -16 2 -3 -7 -13 -22 -24 -14 -10 -38 -28 -53 -39 -26
-21 -30 -21 -107 -8 -121 20 -135 19 -135 -10 0 -28 28 -40 119 -53 30 -5 56
-13 58 -19 2 -6 -19 -21 -47 -34 l-50 -23 -67 31 c-96 44 -120 48 -143 27 -15
-14 -17 -21 -9 -32 13 -15 5 -17 -20 -3 -13 6 -24 5 -37 -4 -17 -13 -15 -15
27 -36 24 -12 55 -33 69 -45 14 -13 37 -28 51 -34 22 -8 30 -6 48 13 17 18 18
25 8 36 -10 10 -9 11 2 5 28 -16 119 -17 143 -1 21 13 30 11 113 -26 94 -41
194 -68 257 -68 39 0 195 74 231 109 17 16 16 17 -26 16 -29 -1 -64 -14 -110
-39 -64 -36 -72 -38 -140 -34 -62 3 -87 10 -164 48 -98 48 -109 64 -73 100 11
11 20 26 20 33 0 7 18 24 41 36 29 16 46 36 59 66 10 23 42 64 70 91 93 87
105 147 26 127z"/>
<path d="M8129 15281 c-24 -15 -61 -42 -82 -59 -65 -53 -190 -67 -376 -43 -84
11 -111 11 -142 1 -22 -7 -39 -16 -39 -20 0 -4 35 -10 78 -14 42 -4 120 -14
172 -22 135 -23 208 -15 295 31 97 51 155 100 155 131 0 31 -6 30 -61 -5z"/>
<path d="M6828 14997 c-16 -10 -14 -14 15 -42 18 -17 44 -52 59 -77 35 -62
135 -135 196 -144 59 -9 189 13 172 30 -6 6 -47 12 -93 13 -45 1 -95 2 -111 2
-21 1 -40 14 -74 51 -25 28 -51 50 -59 50 -18 0 -17 21 3 48 9 13 14 25 13 26
-10 8 -96 56 -100 55 -2 0 -12 -5 -21 -12z"/>
<path d="M7172 14922 c-25 -17 -31 -45 -6 -35 9 3 21 -3 30 -15 8 -12 37 -33
64 -48 28 -15 50 -31 50 -36 0 -10 38 -6 156 18 82 16 104 23 104 34 0 17 -55
17 -96 -1 -43 -20 -44 -20 -119 2 -54 16 -88 33 -118 59 -39 35 -43 36 -65 22z"/>
<path d="M13260 3981 c-13 -9 -13 -11 0 -15 8 -3 31 -7 50 -8 32 -3 35 -6 38
-38 6 -88 24 -170 37 -170 10 0 12 22 9 96 l-3 97 39 -6 c22 -3 60 -15 85 -27
48 -23 58 -49 33 -83 -20 -25 -120 -82 -190 -107 -73 -27 -88 -37 -66 -45 19
-8 209 88 254 127 l34 30 0 -24 c0 -21 32 -68 46 -68 28 0 66 49 85 110 6 20
8 15 9 -25 2 -48 2 -49 12 -20 15 42 15 42 51 8 17 -16 40 -33 50 -36 29 -11
63 33 77 98 6 31 15 53 20 49 12 -14 20 -123 9 -129 -5 -4 -9 -13 -9 -21 0
-30 158 17 161 49 1 6 4 -1 8 -17 8 -40 31 -46 31 -8 0 22 6 31 22 35 25 7 38
-7 38 -40 0 -12 5 -25 11 -29 7 -4 10 8 8 36 -3 35 0 45 16 51 19 7 19 8 -2 8
-16 1 -25 11 -35 43 -8 23 -19 43 -26 46 -12 4 -42 -48 -42 -73 0 -18 -12 -19
-69 -2 l-44 14 54 19 c106 38 55 73 -81 55 -42 -5 -70 -5 -78 2 -18 14 -27 1
-12 -18 29 -34 -10 -145 -51 -145 -25 0 -65 42 -81 86 -8 22 -21 37 -40 43
-30 11 -48 -3 -29 -22 6 -6 11 -19 11 -29 0 -27 -38 -98 -57 -105 -22 -9 -43
23 -44 66 -1 49 -42 81 -148 115 -96 31 -169 41 -191 27z"/>
<path d="M14285 3930 c-12 -4 -27 -16 -35 -25 -12 -15 -12 -19 1 -29 18 -13
39 -68 39 -102 0 -13 5 -24 10 -24 13 0 13 23 0 90 -8 41 -7 56 2 62 22 14 33
9 13 -6 -19 -14 -19 -15 -2 -34 28 -31 137 -80 213 -96 38 -8 70 -13 72 -12 1
2 -37 19 -85 39 -49 21 -104 46 -123 58 l-34 21 27 20 c44 32 35 48 -25 47
-29 0 -62 -4 -73 -9z"/>
<path d="M1 125 l0 -90 42 -17 c58 -24 89 -22 121 7 28 26 32 56 16 116 -11
40 -33 53 -109 64 -36 5 -42 3 -33 -8 9 -10 9 -16 0 -25 -9 -9 -15 -6 -24 16
-10 23 -12 16 -13 -63z"/>
<path d="M15321 186 c-87 -48 -50 -186 49 -186 51 0 100 49 100 100 0 73 -85
122 -149 86z"/>
</g>
</svg>
