<?xml version="1.0" standalone="no"?>
<!DOCTYPE svg PUBLIC "-//W3C//DTD SVG 20010904//EN"
 "http://www.w3.org/TR/2001/REC-SVG-20010904/DTD/svg10.dtd">
<svg version="1.0" xmlns="http://www.w3.org/2000/svg"
 width="1547.000000pt" height="2349.000000pt" viewBox="0 0 1547.000000 2349.000000"
 preserveAspectRatio="xMidYMid meet">
<metadata>
Created by potrace 1.16, written by Peter Selinger 2001-2019
</metadata>
<g transform="translate(0.000000,2349.000000) scale(0.100000,-0.100000)"
fill="#000000" stroke="none">
<path d="M51 23476 c-87 -48 -50 -186 49 -186 51 0 100 49 100 99 0 75 -83
124 -149 87z"/>
<path d="M15321 23476 c-87 -48 -50 -186 49 -186 51 0 100 49 100 99 0 75 -83
124 -149 87z"/>
<path d="M10128 17506 c-20 -7 -73 -34 -117 -59 -45 -25 -81 -41 -81 -36 0 5
-17 -1 -37 -12 -52 -29 -64 -40 -56 -52 3 -5 2 -7 -4 -4 -5 3 -25 -10 -44 -29
-19 -19 -55 -48 -80 -65 -26 -16 -67 -55 -91 -87 -25 -31 -78 -95 -117 -142
-71 -83 -153 -200 -204 -290 -14 -25 -35 -85 -46 -133 -12 -48 -28 -104 -37
-125 -18 -43 -54 -204 -54 -244 0 -15 -4 -29 -10 -33 -5 -3 -7 -12 -4 -19 3
-8 1 -49 -5 -92 -10 -77 -3 -302 18 -549 13 -157 73 -447 116 -560 13 -33 26
-76 30 -95 8 -42 67 -194 105 -270 16 -31 33 -76 39 -100 7 -25 20 -67 31 -95
10 -27 21 -67 25 -89 3 -21 18 -64 32 -95 29 -65 96 -239 124 -325 10 -32 28
-71 39 -86 11 -16 36 -64 56 -107 49 -108 50 -108 68 -105 9 2 15 -1 14 -6 -2
-5 13 -22 32 -38 32 -28 39 -29 125 -28 77 0 98 4 128 23 20 12 39 31 43 43
16 51 78 140 151 214 43 44 94 103 113 132 41 60 156 157 250 209 36 20 79 48
95 63 17 15 62 48 100 75 39 27 92 68 118 93 53 49 162 103 247 122 30 7 78
24 105 38 28 14 88 39 135 57 47 18 108 42 135 53 233 96 381 134 600 153 209
18 548 18 600 0 83 -29 192 -85 245 -126 30 -24 78 -57 106 -73 l50 -29 51 19
c28 10 72 37 97 59 39 35 46 46 46 77 0 50 -68 221 -123 313 -25 41 -48 86
-52 100 -9 36 -125 209 -155 231 -70 51 -552 95 -770 70 -131 -15 -446 -70
-530 -92 -247 -65 -703 -277 -945 -440 -38 -26 -99 -65 -135 -86 -86 -52 -340
-240 -452 -334 -50 -41 -110 -91 -135 -111 -24 -19 -50 -45 -56 -56 -7 -11
-22 -39 -35 -62 -48 -89 -97 -107 -131 -48 -11 17 -31 48 -46 67 -45 60 -103
165 -129 233 -13 35 -36 89 -49 118 -94 198 -149 349 -198 539 -16 63 -38 147
-49 187 -29 106 -50 234 -50 316 -1 40 -8 108 -17 152 -12 62 -14 111 -9 215
11 215 23 352 34 390 6 19 13 62 17 95 20 183 97 353 231 511 30 35 55 72 57
83 2 11 7 24 12 28 4 5 5 2 0 -6 -5 -10 -4 -12 4 -7 6 4 9 11 6 16 -3 5 11 26
31 47 20 21 29 28 19 16 -28 -35 -4 -27 38 12 20 19 76 61 124 93 81 53 235
163 258 183 13 13 -3 11 -47 -5z"/>
<path d="M13260 3981 c-13 -9 -13 -11 0 -15 8 -3 31 -7 50 -8 32 -3 35 -6 38
-38 6 -88 24 -170 37 -170 10 0 12 22 9 96 l-3 97 39 -6 c22 -3 60 -15 85 -27
48 -23 58 -49 33 -83 -20 -25 -120 -82 -190 -107 -73 -27 -88 -37 -66 -45 19
-8 209 88 254 127 l34 30 0 -24 c0 -21 32 -68 46 -68 28 0 66 49 85 110 6 20
8 15 9 -25 2 -48 2 -49 12 -20 15 42 15 42 51 8 17 -16 40 -33 50 -36 29 -11
63 33 77 98 6 31 15 53 20 49 12 -14 20 -123 9 -129 -5 -4 -9 -13 -9 -21 0
-30 158 17 161 49 1 6 4 -1 8 -17 8 -40 31 -46 31 -8 0 22 6 31 22 35 25 7 38
-7 38 -40 0 -12 5 -25 11 -29 7 -4 10 8 8 36 -3 35 0 45 16 51 19 7 19 8 -2 8
-16 1 -25 11 -35 43 -8 23 -19 43 -26 46 -12 4 -42 -48 -42 -73 0 -18 -12 -19
-69 -2 l-44 14 54 19 c106 38 55 73 -81 55 -42 -5 -70 -5 -78 2 -18 14 -27 1
-12 -18 29 -34 -10 -145 -51 -145 -25 0 -65 42 -81 86 -8 22 -21 37 -40 43
-30 11 -48 -3 -29 -22 6 -6 11 -19 11 -29 0 -27 -38 -98 -57 -105 -22 -9 -43
23 -44 66 -1 49 -42 81 -148 115 -96 31 -169 41 -191 27z"/>
<path d="M14285 3930 c-12 -4 -27 -16 -35 -25 -12 -15 -12 -19 1 -29 18 -13
39 -68 39 -102 0 -13 5 -24 10 -24 13 0 13 23 0 90 -8 41 -7 56 2 62 22 14 33
9 13 -6 -19 -14 -19 -15 -2 -34 28 -31 137 -80 213 -96 38 -8 70 -13 72 -12 1
2 -37 19 -85 39 -49 21 -104 46 -123 58 l-34 21 27 20 c44 32 35 48 -25 47
-29 0 -62 -4 -73 -9z"/>
<path d="M1 125 l0 -90 42 -17 c57 -24 89 -22 120 6 39 37 47 91 19 134 -5 7
-35 19 -68 27 -66 16 -80 18 -71 9 3 -3 0 -12 -6 -19 -10 -10 -14 -7 -23 14
-10 22 -12 12 -13 -64z"/>
<path d="M15321 186 c-87 -48 -50 -186 49 -186 51 0 100 49 100 100 0 73 -85
122 -149 86z"/>
</g>
</svg>
