<?xml version="1.0" standalone="no"?>
<!DOCTYPE svg PUBLIC "-//W3C//DTD SVG 20010904//EN"
 "http://www.w3.org/TR/2001/REC-SVG-20010904/DTD/svg10.dtd">
<svg version="1.0" xmlns="http://www.w3.org/2000/svg"
 width="1547.000000pt" height="2349.000000pt" viewBox="0 0 1547.000000 2349.000000"
 preserveAspectRatio="xMidYMid meet">

<g transform="translate(0.000000,2349.000000) scale(0.100000,-0.100000)"
fill="#000000" stroke="none">
<path d="M51 23476 c-87 -48 -50 -186 49 -186 51 0 100 49 100 99 0 75 -83
124 -149 87z"/>
<path d="M15321 23476 c-87 -48 -50 -186 49 -186 51 0 100 49 100 99 0 75 -83
124 -149 87z"/>
<path d="M8645 12359 c-83 -53 -129 -74 -210 -99 -76 -23 -99 -26 -248 -36
-129 -9 -130 -10 -94 -191 8 -40 12 -75 9 -78 -3 -3 -1 -5 5 -5 7 0 9 -15 6
-42 -4 -29 -3 -39 5 -34 14 8 16 -5 4 -19 -18 -23 12 -374 48 -565 9 -43 10
-65 2 -68 -11 -3 7 -62 20 -62 4 0 8 -17 8 -37 0 -40 66 -282 81 -298 5 -5 9
-17 9 -26 0 -10 30 -41 68 -70 37 -29 92 -76 123 -103 107 -97 134 -120 142
-118 5 2 6 -2 3 -7 -4 -5 3 -26 15 -45 21 -37 36 -48 25 -20 -3 9 -2 12 5 9 6
-4 8 -14 5 -21 -3 -8 7 -38 23 -67 35 -62 66 -161 75 -240 4 -31 14 -64 22
-71 12 -13 47 -186 69 -348 4 -29 16 -60 31 -77 13 -16 24 -34 24 -41 0 -7 9
-27 20 -45 19 -31 25 -33 93 -40 74 -6 142 -35 158 -65 11 -22 41 -337 38
-408 -2 -45 3 -71 17 -97 10 -19 22 -35 26 -35 13 0 142 72 164 91 11 11 26
19 32 19 7 0 17 11 22 25 10 25 35 34 42 15 2 -7 33 -4 88 9 60 14 131 21 237
23 l152 3 -3 90 c-2 76 -8 101 -34 160 -79 178 -107 259 -187 535 -93 322
-113 390 -140 495 -15 55 -36 123 -47 150 -11 28 -32 87 -48 133 -16 46 -45
106 -65 133 -19 27 -53 87 -74 132 -21 46 -54 109 -74 140 -43 66 -94 168
-127 250 -12 32 -31 64 -41 71 -10 7 -16 16 -13 19 4 3 -14 46 -39 94 -24 48
-52 112 -61 140 -10 29 -22 55 -27 58 -5 4 -9 17 -9 31 0 13 -5 24 -11 24 -6
0 -8 7 -5 16 3 8 2 12 -4 9 -6 -4 -10 6 -10 23 0 33 -25 62 -33 40 -3 -8 -10
0 -17 17 -12 31 -30 70 -123 270 -31 66 -67 157 -80 202 -13 46 -25 84 -28 86
-2 3 -31 -13 -64 -34z"/>
<path d="M6835 7205 c-76 -14 -344 -100 -359 -115 -6 -6 -20 -10 -33 -10 -13
0 -50 -13 -83 -30 l-59 -30 30 -72 c17 -40 50 -127 74 -193 24 -66 63 -162 85
-214 58 -134 84 -253 94 -438 1 -31 9 -60 19 -71 9 -10 23 -46 31 -81 8 -35
20 -69 25 -74 6 -6 11 -18 11 -26 0 -10 -7 -8 -25 9 -14 13 -25 19 -25 13 0
-5 11 -20 25 -33 25 -24 41 -65 49 -131 2 -20 16 -96 31 -170 24 -113 32 -137
54 -156 30 -26 153 -93 170 -93 7 0 31 -9 53 -20 23 -11 44 -18 46 -15 3 2 9
28 13 57 5 29 14 66 20 81 16 38 26 20 37 -62 7 -49 6 -61 -6 -66 -12 -4 -10
-10 9 -29 13 -13 32 -35 42 -50 10 -14 41 -41 70 -59 53 -34 112 -94 176 -180
19 -26 43 -50 53 -53 10 -3 18 -12 18 -20 0 -17 26 -19 33 -1 5 13 19 100 38
232 6 44 15 88 21 98 7 13 2 26 -21 54 -17 20 -29 38 -27 40 1 2 17 -4 35 -13
28 -14 34 -14 55 -1 23 15 23 16 18 199 -2 101 -9 192 -15 203 -6 11 -11 34
-11 50 -1 26 -11 37 -77 80 -42 28 -91 63 -109 78 -59 50 -518 268 -607 287
-26 6 -54 17 -63 25 -8 7 -34 18 -57 24 -85 23 -129 85 -121 170 11 108 75
147 265 163 71 6 162 10 203 10 72 0 80 -3 206 -66 72 -36 136 -66 142 -66 7
0 12 -4 12 -10 0 -5 5 -10 10 -10 14 0 12 28 -5 78 -8 23 -13 53 -9 66 3 13
-1 39 -9 58 -8 20 -15 51 -15 70 0 37 -51 197 -84 263 -32 63 -116 172 -162
209 -68 55 -152 67 -291 41z"/>
<path d="M14348 5494 c-3 -3 -40 -7 -81 -9 -41 -2 -84 -8 -95 -14 -11 -6 -39
-11 -62 -11 -26 0 -53 -9 -78 -25 -20 -13 -80 -42 -133 -63 -108 -43 -237
-116 -304 -171 -24 -20 -104 -72 -177 -116 -73 -44 -149 -92 -168 -107 -19
-15 -46 -33 -60 -40 -14 -8 -50 -30 -80 -49 -30 -20 -73 -42 -95 -49 -22 -7
-56 -24 -75 -37 -79 -54 -284 -92 -468 -88 -102 2 -104 2 -159 41 -68 47 -104
91 -85 103 9 5 -3 12 -35 21 -26 7 -71 24 -99 37 -49 24 -53 24 -82 9 l-30
-16 18 -37 c10 -21 21 -54 25 -73 5 -19 10 -29 13 -21 2 7 19 -24 37 -70 26
-70 39 -89 71 -110 21 -15 44 -25 51 -22 7 3 13 -1 13 -8 0 -19 69 -74 101
-82 16 -4 29 -16 33 -29 5 -18 8 -20 15 -9 7 10 13 11 30 2 11 -7 21 -16 21
-21 0 -5 6 -7 14 -4 13 5 74 -20 86 -35 11 -13 96 -51 115 -51 14 0 24 10 32
30 8 22 18 30 35 30 25 0 67 -25 81 -47 11 -17 63 9 72 36 6 19 33 36 43 26 3
-2 -1 -11 -8 -20 -7 -9 -10 -19 -6 -23 4 -4 26 15 49 41 23 27 67 65 98 85 31
20 90 62 130 93 41 31 97 64 124 74 28 10 64 31 82 46 17 15 38 31 45 36 7 4
25 26 40 48 48 72 147 165 202 191 29 13 87 28 128 34 41 5 87 14 104 20 36
14 205 15 299 1 105 -15 178 -44 284 -113 115 -75 177 -90 212 -52 18 19 20
30 14 61 -4 21 -9 50 -12 65 -4 20 1 30 21 43 21 14 31 15 61 5 20 -7 52 -25
71 -42 l33 -30 33 26 c18 14 57 50 86 80 68 68 66 96 -6 141 -26 16 -65 46
-87 66 -60 55 -191 146 -242 169 -50 22 -134 19 -185 -6 -40 -21 -85 -18 -98
6 -6 11 -8 25 -5 30 7 11 2 14 -7 4z"/>
<path d="M12041 4744 c0 -11 3 -14 6 -6 3 7 2 16 -1 19 -3 4 -6 -2 -5 -13z"/>
<path d="M12050 4715 c0 -5 5 -17 10 -25 5 -8 10 -10 10 -5 0 6 -5 17 -10 25
-5 8 -10 11 -10 5z"/>
<path d="M13260 3981 c-13 -9 -13 -11 0 -15 8 -3 31 -7 50 -8 32 -3 35 -6 38
-38 6 -88 24 -170 37 -170 10 0 12 22 9 96 l-3 97 39 -6 c22 -3 60 -15 85 -27
48 -23 58 -49 33 -83 -20 -25 -120 -82 -190 -107 -73 -27 -88 -37 -66 -45 19
-8 209 88 254 127 l34 30 0 -24 c0 -21 32 -68 46 -68 28 0 66 49 85 110 6 20
8 15 9 -25 2 -48 2 -49 12 -20 15 42 15 42 51 8 17 -16 40 -33 50 -36 29 -11
63 33 77 98 6 31 15 53 20 49 12 -14 20 -123 9 -129 -5 -4 -9 -13 -9 -21 0
-30 158 17 161 49 1 6 4 -1 8 -17 8 -40 31 -46 31 -8 0 22 6 31 22 35 25 7 38
-7 38 -40 0 -12 5 -25 11 -29 7 -4 10 8 8 36 -3 35 0 45 16 51 19 7 19 8 -2 8
-16 1 -25 11 -35 43 -8 23 -19 43 -26 46 -12 4 -42 -48 -42 -73 0 -18 -12 -19
-69 -2 l-44 14 54 19 c106 38 55 73 -81 55 -42 -5 -70 -5 -78 2 -18 14 -27 1
-12 -18 29 -34 -10 -145 -51 -145 -25 0 -65 42 -81 86 -8 22 -21 37 -40 43
-30 11 -48 -3 -29 -22 6 -6 11 -19 11 -29 0 -27 -38 -98 -57 -105 -22 -9 -43
23 -44 66 -1 49 -42 81 -148 115 -96 31 -169 41 -191 27z m801 -52 c-53 -21
-101 -28 -101 -14 0 16 21 23 80 23 39 1 42 -1 21 -9z m112 -49 c4 -15 0 -20
-14 -20 -20 0 -23 8 -13 34 7 20 20 13 27 -14z m-153 -24 c25 -7 45 -19 45
-27 0 -15 -80 -47 -91 -37 -10 10 -17 78 -7 78 4 0 28 -6 53 -14z"/>
<path d="M14285 3930 c-12 -4 -27 -16 -35 -25 -12 -15 -12 -19 1 -29 18 -13
39 -68 39 -102 0 -13 5 -24 10 -24 13 0 13 23 0 90 -8 41 -7 56 2 62 22 14 33
9 13 -6 -19 -14 -19 -15 -2 -34 28 -31 137 -80 213 -96 38 -8 70 -13 72 -12 1
2 -37 19 -85 39 -49 21 -104 46 -123 58 l-34 21 27 20 c44 32 35 48 -25 47
-29 0 -62 -4 -73 -9z"/>
<path d="M14618 3743 c7 -3 16 -2 19 1 4 3 -2 6 -13 5 -11 0 -14 -3 -6 -6z"/>
<path d="M14665 3730 c11 -5 34 -8 50 -8 29 0 29 0 5 8 -14 4 -36 8 -50 8 -23
1 -23 0 -5 -8z"/>
<path d="M13890 3656 c0 -33 -2 -35 -37 -38 -47 -4 -46 -22 2 -26 30 -3 35 -7
35 -28 0 -33 18 -31 22 4 3 23 8 27 38 30 55 5 61 22 7 22 l-47 0 0 35 c0 19
-4 35 -10 35 -5 0 -10 -15 -10 -34z"/>
<path d="M1 158 l0 -123 42 -18 c49 -20 77 -22 77 -6 0 11 -17 118 -26 167 -2
12 -12 22 -20 22 -14 0 -14 3 -3 16 11 13 9 15 -12 10 -30 -8 -61 10 -41 22
10 7 10 11 -2 21 -14 12 -16 -1 -15 -111z m37 15 c-10 -13 -13 -12 -19 4 -15
36 -10 47 11 28 16 -14 18 -21 8 -32z"/>
<path d="M15321 186 c-87 -48 -50 -186 49 -186 51 0 100 49 100 100 0 73 -85
122 -149 86z"/>
</g>
</svg>
