<?xml version="1.0" standalone="no"?>
<!DOCTYPE svg PUBLIC "-//W3C//DTD SVG 20010904//EN"
 "http://www.w3.org/TR/2001/REC-SVG-20010904/DTD/svg10.dtd">
<svg version="1.0" xmlns="http://www.w3.org/2000/svg"
 width="1547.000000pt" height="2349.000000pt" viewBox="0 0 1547.000000 2349.000000"
 preserveAspectRatio="xMidYMid meet">
<metadata>
Created by potrace 1.16, written by Peter Selinger 2001-2019
</metadata>
<g transform="translate(0.000000,2349.000000) scale(0.100000,-0.100000)"
fill="#000000" stroke="none">
<path d="M51 23476 c-87 -48 -50 -186 49 -186 51 0 100 49 100 99 0 75 -83
124 -149 87z"/>
<path d="M15321 23476 c-87 -48 -50 -186 49 -186 51 0 100 49 100 99 0 75 -83
124 -149 87z"/>
<path d="M1503 19993 c-53 -29 -81 -60 -108 -115 -44 -91 -28 -131 111 -269
48 -48 82 -89 76 -93 -12 -7 -276 273 -299 317 -20 40 -48 62 -101 83 -54 21
-161 14 -226 -15 -24 -12 -52 -21 -60 -21 -9 0 -16 -7 -16 -15 0 -8 -13 -23
-29 -33 -33 -20 -106 -106 -139 -164 -24 -44 -42 -142 -35 -198 11 -93 13 -98
91 -177 42 -44 89 -100 103 -125 15 -25 50 -64 77 -86 28 -22 76 -67 108 -101
61 -67 63 -76 24 -140 l-21 -33 -77 83 c-42 45 -92 102 -111 126 -18 24 -36
43 -40 43 -3 0 -21 14 -40 30 -30 27 -60 33 -46 9 4 -5 -7 -14 -22 -21 -54
-23 -114 -69 -106 -81 4 -7 8 -33 9 -58 0 -25 8 -57 18 -70 9 -13 86 -95 172
-182 l156 -158 -25 -57 -26 -57 16 -90 c12 -69 13 -93 4 -108 -10 -16 -4 -27
47 -80 93 -98 243 -264 290 -323 25 -30 52 -54 62 -54 10 0 22 -4 25 -10 3 -6
26 -1 57 11 27 11 58 17 68 14 30 -10 49 -95 21 -95 -3 0 -18 -21 -31 -46 -24
-43 -24 -46 -7 -58 9 -7 17 -18 17 -25 0 -6 60 -73 133 -148 307 -318 342
-355 350 -369 5 -9 25 -14 53 -14 55 0 64 -16 36 -64 -19 -32 -19 -36 -4 -58
9 -12 22 -29 30 -37 7 -8 32 -38 53 -68 43 -58 48 -59 111 -27 15 8 33 11 42
8 12 -5 10 -12 -10 -41 -32 -47 -30 -61 11 -106 19 -22 43 -51 54 -65 12 -17
29 -26 50 -28 32 -2 61 -19 61 -36 0 -5 -7 -16 -15 -24 -8 -9 -15 -20 -15 -25
0 -5 31 -42 69 -82 61 -63 72 -71 89 -60 16 9 23 7 47 -19 21 -22 25 -32 16
-41 -17 -17 -13 -44 13 -86 40 -63 112 -102 131 -71 11 17 23 11 51 -25 21
-28 24 -38 14 -50 -19 -23 -3 -50 63 -110 54 -49 66 -56 92 -51 17 4 36 14 42
23 12 15 14 15 33 -2 24 -22 26 -58 4 -79 -19 -20 -12 -21 -84 10 l-61 27 -44
-25 c-25 -13 -67 -45 -94 -71 -39 -38 -53 -60 -66 -105 -20 -72 -73 -197 -96
-226 -9 -12 -19 -31 -21 -41 -1 -11 -9 -25 -17 -31 -12 -10 -10 -15 11 -37
l26 -26 -42 -25 c-24 -14 -50 -36 -59 -50 -18 -27 -115 -86 -143 -86 -11 -1
-48 -16 -84 -34 l-64 -33 -28 44 c-15 24 -28 49 -28 55 0 26 -146 -35 -154
-65 -2 -7 -9 -41 -15 -77 -7 -36 -23 -96 -36 -135 -20 -58 -21 -72 -10 -84 8
-8 11 -27 8 -50 -6 -45 40 -153 61 -145 29 11 46 -36 40 -106 -5 -57 -3 -69
18 -100 13 -19 38 -42 55 -50 25 -12 31 -19 26 -35 -18 -59 11 -129 66 -157
41 -20 65 -62 51 -88 -6 -10 -10 -27 -10 -38 0 -24 38 -74 51 -67 5 4 9 1 9
-6 0 -6 7 -17 16 -24 14 -9 14 -15 5 -34 -18 -34 -4 -76 35 -106 20 -15 44
-47 55 -71 10 -25 25 -47 33 -50 8 -3 38 11 68 30 29 20 62 36 74 36 13 0 26
11 34 28 61 121 84 149 155 188 38 21 90 46 114 55 24 8 72 38 105 67 34 28
99 81 146 118 47 37 107 86 133 108 l49 41 19 -24 c11 -13 17 -31 14 -40 -3
-8 -3 -12 1 -8 4 4 13 -1 19 -10 12 -16 16 -15 51 12 22 16 57 46 79 65 22 20
56 47 75 60 58 40 218 190 241 226 l21 34 20 -25 c11 -14 28 -25 38 -25 10 0
22 -5 25 -10 4 -7 14 -5 28 5 28 19 57 19 57 -1 0 -8 5 -12 11 -9 13 8 49 -23
49 -42 0 -17 22 -56 37 -66 6 -4 35 -37 64 -75 29 -37 64 -80 79 -97 26 -30
26 -31 19 -135 -21 -305 -47 -521 -71 -598 -6 -22 -6 -37 0 -45 7 -8 7 -30 0
-65 -17 -85 -33 -85 -180 -5 -68 37 -141 81 -163 98 -22 17 -52 38 -66 47 -33
21 -147 51 -165 44 -8 -3 -25 -30 -39 -59 -13 -30 -36 -65 -50 -78 -54 -50
-71 -130 -32 -150 35 -19 137 -102 244 -199 54 -50 111 -96 127 -104 16 -8 52
-37 81 -65 49 -48 54 -51 79 -40 14 7 26 15 26 19 0 4 17 10 37 13 49 6 322
150 358 187 25 26 45 84 47 135 5 132 70 471 105 542 26 55 26 99 -1 109 -12
5 -11 15 5 62 29 85 36 165 15 196 -9 14 -16 32 -16 39 0 10 -19 16 -65 21
-111 11 -126 17 -178 67 -49 47 -50 48 -45 99 5 47 3 52 -19 61 -28 10 -93 61
-93 71 0 5 -31 39 -70 78 -38 38 -79 88 -90 110 l-21 41 40 45 c23 24 41 48
41 54 0 5 6 10 13 10 6 0 58 23 114 51 112 56 127 56 131 -1 9 -121 234 -355
402 -420 65 -25 179 -95 180 -109 0 -8 23 -37 52 -64 50 -46 52 -50 49 -96 -1
-27 4 -64 12 -82 10 -24 11 -42 5 -59 -8 -21 -5 -29 20 -51 17 -15 36 -31 44
-35 24 -15 100 -117 120 -161 14 -31 27 -45 46 -49 15 -4 51 -18 79 -31 44
-20 60 -23 95 -16 27 5 47 16 53 28 22 43 63 94 157 195 l99 105 -28 20 c-39
29 -70 63 -114 125 -21 30 -60 82 -85 114 -36 46 -47 69 -50 102 -1 24 -9 58
-18 76 -42 89 -43 101 -34 383 7 221 13 281 28 330 30 95 43 192 37 274 -7 84
-49 212 -91 279 -14 23 -33 61 -43 84 -9 24 -24 52 -33 63 -30 37 -50 74 -50
96 0 11 -10 30 -22 40 l-23 20 27 -16 c15 -9 32 -14 38 -10 20 12 49 -6 74
-49 14 -24 32 -46 41 -50 8 -3 15 -10 15 -17 0 -35 128 -149 168 -149 29 0 85
26 103 47 29 33 51 87 56 137 3 28 12 60 20 72 15 23 61 44 96 44 33 0 94 57
112 105 30 78 6 148 -77 217 -75 63 -89 79 -127 141 -18 31 -37 54 -41 52 -5
-3 -12 4 -15 16 -4 11 -37 52 -73 91 -37 39 -67 78 -67 87 0 9 15 29 32 44 38
33 40 46 16 76 -22 26 -83 40 -83 20 0 -8 -17 -25 -37 -38 -32 -21 -38 -22
-47 -8 -6 9 -35 50 -64 91 -37 52 -53 83 -50 100 2 17 -11 40 -48 82 -27 33
-71 86 -97 119 -76 98 -97 121 -97 107 0 -7 -4 -11 -9 -8 -5 4 -12 0 -15 -6
-7 -18 -49 33 -89 107 -17 33 -62 90 -99 127 -45 45 -68 75 -68 90 0 40 -32
89 -140 217 -58 68 -119 142 -136 165 -45 60 -59 70 -74 51 -18 -21 -27 -19
-44 13 -8 15 -37 50 -64 78 -63 66 -88 64 -164 -10 -63 -62 -106 -139 -144
-261 -25 -79 -29 -106 -29 -215 0 -114 9 -177 42 -290 2 -8 5 -17 5 -20 4 -33
378 -445 378 -416 0 4 10 0 22 -9 13 -8 23 -22 23 -30 0 -15 87 -122 183 -225
28 -31 52 -60 52 -65 0 -10 -32 -34 -47 -35 -6 0 -33 27 -60 60 -26 33 -54 60
-60 60 -7 0 -20 14 -29 32 -9 17 -64 82 -123 143 -107 111 -278 300 -425 469
-43 50 -84 96 -90 102 -6 7 -42 49 -81 95 -69 81 -294 338 -343 391 l-26 28
27 52 27 52 -27 30 c-93 104 -95 106 -117 94 -12 -6 -31 -20 -43 -31 -34 -31
-37 -16 -7 41 l26 51 -52 60 c-59 67 -80 74 -125 39 l-27 -21 18 34 c19 38 25
69 12 69 -4 0 -7 4 -6 8 2 4 -15 31 -36 59 -39 51 -39 51 -65 35 -14 -8 -36
-25 -48 -36 -33 -28 -36 -16 -12 38 17 39 19 52 9 74 -13 31 -86 112 -101 112
-6 0 -24 -13 -42 -29 -40 -38 -52 -30 -27 18 26 53 22 77 -25 128 l-40 45 -48
-27 c-64 -36 -79 -23 -39 36 l30 43 -28 41 c-15 22 -40 51 -54 64 -24 22 -27
23 -39 8 -11 -14 -67 -42 -67 -33 0 2 7 20 15 40 15 36 15 38 -14 79 -16 23
-39 51 -51 62 -46 41 -59 72 -71 161 -10 85 -10 92 10 125 29 47 27 80 -7 112
l-28 27 -79 -56 c-44 -31 -96 -71 -115 -90 l-35 -33 -40 38 c-22 20 -62 63
-89 94 -56 64 -86 71 -122 30 l-20 -24 -50 38 c-75 58 -157 143 -200 208 -22
33 -50 65 -64 72 -36 18 -110 16 -147 -4z m-276 -465 c12 -6 27 -23 33 -39 10
-24 9 -32 -10 -59 -22 -30 -67 -60 -93 -60 -7 0 -25 13 -40 28 -25 26 -26 31
-16 67 21 78 57 96 126 63z"/>
<path d="M13260 3981 c-13 -9 -13 -11 0 -15 8 -3 31 -7 50 -8 32 -3 35 -6 38
-38 6 -88 24 -170 37 -170 10 0 12 22 9 96 l-3 97 39 -6 c22 -3 60 -15 85 -27
48 -23 58 -49 33 -83 -20 -25 -120 -82 -190 -107 -73 -27 -88 -37 -66 -45 19
-8 209 88 254 127 l34 30 0 -24 c0 -21 32 -68 46 -68 28 0 66 49 85 110 6 20
8 15 9 -25 2 -48 2 -49 12 -20 15 42 15 42 51 8 17 -16 40 -33 50 -36 29 -11
63 33 77 98 6 31 15 53 20 49 12 -14 20 -123 9 -129 -5 -4 -9 -13 -9 -21 0
-30 158 17 161 49 1 6 4 -1 8 -17 8 -40 31 -46 31 -8 0 22 6 31 22 35 25 7 38
-7 38 -40 0 -12 5 -25 11 -29 7 -4 10 8 8 36 -3 35 0 45 16 51 19 7 19 8 -2 8
-16 1 -25 11 -35 43 -8 23 -19 43 -26 46 -12 4 -42 -48 -42 -73 0 -18 -12 -19
-69 -2 l-44 14 54 19 c106 38 55 73 -81 55 -42 -5 -70 -5 -78 2 -18 14 -27 1
-12 -18 29 -34 -10 -145 -51 -145 -25 0 -65 42 -81 86 -8 22 -21 37 -40 43
-30 11 -48 -3 -29 -22 6 -6 11 -19 11 -29 0 -27 -38 -98 -57 -105 -22 -9 -43
23 -44 66 -1 49 -42 81 -148 115 -96 31 -169 41 -191 27z"/>
<path d="M14285 3930 c-12 -4 -27 -16 -35 -25 -12 -15 -12 -19 1 -29 18 -13
39 -68 39 -102 0 -13 5 -24 10 -24 13 0 13 23 0 90 -8 41 -7 56 2 62 22 14 33
9 13 -6 -19 -14 -19 -15 -2 -34 28 -31 137 -80 213 -96 38 -8 70 -13 72 -12 1
2 -37 19 -85 39 -49 21 -104 46 -123 58 l-34 21 27 20 c44 32 35 48 -25 47
-29 0 -62 -4 -73 -9z"/>
<path d="M0 244 c0 -9 11 -25 25 -36 21 -16 23 -23 14 -35 -11 -12 -14 -10
-25 14 -10 25 -12 18 -13 -62 l0 -90 42 -17 c53 -22 86 -22 113 0 83 66 39
182 -68 182 -27 0 -29 2 -17 17 12 15 12 16 -5 10 -27 -10 -56 1 -49 19 3 7 0
14 -6 14 -6 0 -11 -7 -11 -16z"/>
<path d="M15321 186 c-87 -48 -50 -186 49 -186 51 0 100 49 100 100 0 73 -85
122 -149 86z"/>
</g>
</svg>
