<?xml version="1.0" standalone="no"?>
<!DOCTYPE svg PUBLIC "-//W3C//DTD SVG 20010904//EN"
 "http://www.w3.org/TR/2001/REC-SVG-20010904/DTD/svg10.dtd">
<svg version="1.0" xmlns="http://www.w3.org/2000/svg"
 width="1547.000000pt" height="2349.000000pt" viewBox="0 0 1547.000000 2349.000000"
 preserveAspectRatio="xMidYMid meet">
<metadata>
Created by potrace 1.16, written by Peter Selinger 2001-2019
</metadata>
<g transform="translate(0.000000,2349.000000) scale(0.100000,-0.100000)"
fill="#000000" stroke="none">
<path d="M51 23476 c-87 -48 -50 -186 49 -186 51 0 100 49 100 99 0 75 -83
124 -149 87z"/>
<path d="M15321 23476 c-87 -48 -50 -186 49 -186 51 0 100 49 100 99 0 75 -83
124 -149 87z"/>
<path d="M13260 3981 c-13 -9 -13 -11 0 -15 8 -3 31 -7 50 -8 32 -3 35 -6 38
-38 6 -88 24 -170 37 -170 10 0 12 22 9 96 l-3 97 39 -6 c22 -3 60 -15 85 -27
48 -23 58 -49 33 -83 -20 -25 -120 -82 -190 -107 -73 -27 -88 -37 -66 -45 19
-8 209 88 254 127 l34 30 0 -24 c0 -21 32 -68 46 -68 28 0 66 49 85 110 6 20
8 15 9 -25 2 -48 2 -49 12 -20 15 42 15 42 51 8 17 -16 40 -33 50 -36 29 -11
63 33 77 98 6 31 15 53 20 49 12 -14 20 -123 9 -129 -5 -4 -9 -13 -9 -21 0
-30 158 17 161 49 1 6 4 -1 8 -17 8 -40 31 -46 31 -8 0 22 6 31 22 35 25 7 38
-7 38 -40 0 -12 5 -25 11 -29 7 -4 10 8 8 36 -3 35 0 45 16 51 19 7 19 8 -2 8
-16 1 -25 11 -35 43 -8 23 -19 43 -26 46 -12 4 -42 -48 -42 -73 0 -18 -12 -19
-69 -2 l-44 14 54 19 c106 38 55 73 -81 55 -42 -5 -70 -5 -78 2 -18 14 -27 1
-12 -18 29 -34 -10 -145 -51 -145 -25 0 -65 42 -81 86 -8 22 -21 37 -40 43
-30 11 -48 -3 -29 -22 6 -6 11 -19 11 -29 0 -27 -38 -98 -57 -105 -22 -9 -43
23 -44 66 -1 49 -42 81 -148 115 -96 31 -169 41 -191 27z"/>
<path d="M14285 3930 c-12 -4 -27 -16 -35 -25 -12 -15 -12 -19 1 -29 18 -13
39 -68 39 -102 0 -13 5 -24 10 -24 13 0 13 23 0 90 -8 41 -7 56 2 62 22 14 33
9 13 -6 -19 -14 -19 -15 -2 -34 28 -31 137 -80 213 -96 38 -8 70 -13 72 -12 1
2 -37 19 -85 39 -49 21 -104 46 -123 58 l-34 21 27 20 c44 32 35 48 -25 47
-29 0 -62 -4 -73 -9z"/>
<path d="M2140 3307 c-46 -13 -82 -82 -88 -170 -4 -54 -11 -71 -55 -137 -27
-41 -68 -99 -90 -128 -26 -34 -37 -56 -30 -60 7 -4 -29 -42 -84 -92 -159 -141
-257 -248 -248 -271 3 -8 19 -20 36 -28 17 -7 52 -30 77 -49 26 -20 76 -51
112 -70 36 -18 81 -45 100 -61 61 -48 161 -113 167 -108 2 3 -5 10 -16 17 -30
16 -26 32 7 24 68 -17 161 -93 194 -157 11 -22 17 -41 15 -43 -5 -6 -211 78
-288 117 -74 37 -248 88 -325 96 -69 6 -106 -8 -146 -55 -14 -16 -34 -32 -44
-36 -29 -9 -84 -68 -113 -123 -24 -44 -36 -53 -169 -123 -163 -86 -242 -148
-369 -292 -47 -53 -91 -99 -98 -102 -25 -9 -118 -197 -140 -281 -8 -32 -15
-78 -15 -101 0 -39 -3 -43 -57 -79 -31 -21 -77 -57 -102 -80 -25 -23 -62 -51
-82 -63 -48 -29 -74 -58 -59 -67 7 -4 25 5 42 21 27 26 26 23 -11 -32 -40 -60
-71 -131 -91 -210 -9 -37 -14 -42 -62 -57 -67 -22 -95 -44 -103 -82 -4 -19 -3
-25 2 -17 5 7 29 19 54 27 l44 15 -39 -6 c-37 -5 -39 -4 -25 12 13 16 48 34
98 49 22 7 23 6 17 -36 -14 -104 -16 -107 -58 -123 -21 -9 -43 -14 -48 -11 -5
3 -12 0 -15 -6 -4 -5 -13 -8 -21 -5 -12 4 -14 -20 -13 -142 l0 -147 42 -18
c49 -20 88 -22 105 -5 9 9 15 9 24 0 9 -9 1643 -12 7290 -12 l7278 0 -10 26
c-14 36 -343 367 -411 414 -31 22 -79 68 -106 103 -59 75 -136 129 -217 152
-77 23 -291 104 -391 149 -75 34 -86 36 -175 35 -92 -2 -97 -1 -179 40 -47 22
-91 41 -98 41 -7 0 -17 9 -23 20 -32 60 -172 68 -325 19 -52 -16 -100 -27
-106 -24 -5 4 -47 -11 -92 -33 -62 -30 -98 -41 -149 -44 -43 -4 -79 -13 -101
-27 -19 -11 -44 -21 -57 -21 -33 0 -230 -49 -269 -67 -77 -35 -262 6 -303 67
-49 71 -138 87 -279 50 -41 -10 -136 -27 -212 -37 -134 -17 -139 -17 -205 2
-39 12 -108 21 -166 23 -76 3 -106 8 -125 21 -31 22 -367 194 -466 238 -38 18
-92 48 -118 67 -69 51 -112 60 -247 52 -63 -4 -131 -9 -150 -10 -50 -5 -132
39 -254 138 -128 103 -224 163 -371 231 -78 36 -129 66 -154 92 -20 21 -78 71
-129 111 -80 63 -102 76 -168 93 -85 22 -167 20 -282 -8 l-62 -15 -37 33 c-81
71 -235 116 -348 103 -51 -6 -58 -5 -83 18 -44 41 -66 48 -157 48 -70 0 -94
-4 -133 -24 -26 -13 -63 -26 -84 -29 -34 -5 -39 -2 -108 69 -40 41 -76 74 -81
74 -5 0 -9 5 -9 11 0 5 -4 8 -9 5 -5 -3 -14 0 -20 8 -22 26 -116 59 -211 73
-164 25 -180 26 -195 13 -9 -8 -15 -8 -15 -2 0 11 -37 5 -55 -8 -20 -15 -529
9 -610 29 -22 5 -67 11 -100 13 -33 2 -62 6 -65 9 -3 3 -36 13 -75 21 -38 9
-115 28 -169 42 -105 28 -136 34 -228 45 -48 6 -64 13 -95 43 -37 35 -91 68
-113 68 -10 0 -67 25 -185 81 -23 10 -63 22 -90 25 -28 4 -56 11 -63 17 -7 5
-15 7 -18 5 -3 -3 -30 1 -60 8 -30 8 -58 13 -62 11 -4 -3 -32 -1 -62 3 -30 5
-86 13 -124 19 -38 5 -73 15 -77 22 -4 7 -29 13 -56 15 -26 1 -69 12 -96 23
-102 44 -432 132 -550 147 -65 8 -121 15 -125 16 -4 1 -17 -1 -29 -6 -15 -5
-43 1 -85 19 -105 43 -248 94 -308 110 -32 8 -177 26 -322 40 -146 13 -272 27
-282 31 -12 5 -14 10 -6 19 13 16 -40 40 -70 32 -11 -3 -20 -2 -20 2 0 16
-164 93 -227 106 -77 16 -230 18 -283 2z"/>
<path d="M15321 186 c-87 -48 -50 -186 49 -186 51 0 100 49 100 100 0 73 -85
122 -149 86z"/>
</g>
</svg>
