<?xml version="1.0" standalone="no"?>
<!DOCTYPE svg PUBLIC "-//W3C//DTD SVG 20010904//EN"
 "http://www.w3.org/TR/2001/REC-SVG-20010904/DTD/svg10.dtd">
<svg version="1.0" xmlns="http://www.w3.org/2000/svg"
 width="1547.000000pt" height="2349.000000pt" viewBox="0 0 1547.000000 2349.000000"
 preserveAspectRatio="xMidYMid meet">
<metadata>
Created by potrace 1.16, written by Peter Selinger 2001-2019
</metadata>
<g transform="translate(0.000000,2349.000000) scale(0.100000,-0.100000)"
fill="#000000" stroke="none">
<path d="M51 23476 c-87 -48 -50 -186 49 -186 51 0 100 49 100 99 0 75 -83
124 -149 87z"/>
<path d="M15321 23476 c-87 -48 -50 -186 49 -186 51 0 100 49 100 99 0 75 -83
124 -149 87z"/>
<path d="M8825 16340 c-16 -5 -73 -27 -125 -50 -52 -23 -140 -60 -195 -82 -55
-21 -134 -54 -175 -72 -226 -100 -713 -282 -847 -317 -40 -10 -142 -40 -225
-67 -84 -27 -169 -53 -188 -57 -19 -3 -64 -16 -98 -27 -35 -11 -89 -26 -120
-33 -32 -7 -91 -23 -132 -34 -104 -29 -301 -44 -397 -29 -76 11 -77 11 -149
82 -97 96 -132 175 -200 454 -16 66 -34 95 -34 55 0 -9 -3 -13 -6 -10 -13 13
-45 -16 -84 -76 -23 -34 -43 -73 -46 -87 -8 -34 -49 -112 -98 -185 -23 -33
-54 -89 -70 -125 -15 -36 -44 -99 -63 -140 -34 -72 -35 -80 -39 -215 -3 -77
-12 -177 -21 -222 -20 -104 -7 -210 38 -308 43 -95 95 -143 200 -182 47 -18
91 -33 97 -33 24 0 163 108 197 153 20 26 44 51 55 57 24 13 67 13 75 0 13
-21 69 -38 90 -27 11 6 75 16 142 22 68 7 129 18 137 25 10 7 13 22 10 40 -10
49 8 66 78 73 58 6 66 10 99 48 l37 42 45 -38 c33 -28 46 -47 51 -74 12 -76
121 -182 212 -206 76 -20 103 -19 199 6 114 30 133 33 150 19 12 -10 33 -4
117 36 97 46 342 203 463 296 153 117 346 315 434 443 75 110 192 349 195 400
0 13 3 21 5 19 2 -2 14 22 27 53 13 30 36 72 52 92 15 20 39 56 52 81 13 25
41 65 61 90 20 25 39 62 43 83 8 40 5 41 -49 27z"/>
<path d="M13260 3981 c-13 -9 -13 -11 0 -15 8 -3 31 -7 50 -8 32 -3 35 -6 38
-38 6 -88 24 -170 37 -170 10 0 12 22 9 96 l-3 97 39 -6 c22 -3 60 -15 85 -27
48 -23 58 -49 33 -83 -20 -25 -120 -82 -190 -107 -73 -27 -88 -37 -66 -45 19
-8 209 88 254 127 l34 30 0 -24 c0 -21 32 -68 46 -68 28 0 66 49 85 110 6 20
8 15 9 -25 2 -48 2 -49 12 -20 15 42 15 42 51 8 17 -16 40 -33 50 -36 29 -11
63 33 77 98 6 31 15 53 20 49 12 -14 20 -123 9 -129 -5 -4 -9 -13 -9 -21 0
-30 158 17 161 49 1 6 4 -1 8 -17 8 -40 31 -46 31 -8 0 22 6 31 22 35 25 7 38
-7 38 -40 0 -12 5 -25 11 -29 7 -4 10 8 8 36 -3 35 0 45 16 51 19 7 19 8 -2 8
-16 1 -25 11 -35 43 -8 23 -19 43 -26 46 -12 4 -42 -48 -42 -73 0 -18 -12 -19
-69 -2 l-44 14 54 19 c106 38 55 73 -81 55 -42 -5 -70 -5 -78 2 -18 14 -27 1
-12 -18 29 -34 -10 -145 -51 -145 -25 0 -65 42 -81 86 -8 22 -21 37 -40 43
-30 11 -48 -3 -29 -22 6 -6 11 -19 11 -29 0 -27 -38 -98 -57 -105 -22 -9 -43
23 -44 66 -1 49 -42 81 -148 115 -96 31 -169 41 -191 27z"/>
<path d="M14285 3930 c-12 -4 -27 -16 -35 -25 -12 -15 -12 -19 1 -29 18 -13
39 -68 39 -102 0 -13 5 -24 10 -24 13 0 13 23 0 90 -8 41 -7 56 2 62 22 14 33
9 13 -6 -19 -14 -19 -15 -2 -34 28 -31 137 -80 213 -96 38 -8 70 -13 72 -12 1
2 -37 19 -85 39 -49 21 -104 46 -123 58 l-34 21 27 20 c44 32 35 48 -25 47
-29 0 -62 -4 -73 -9z"/>
<path d="M1 130 l0 -95 42 -18 c50 -20 91 -22 104 -4 6 6 13 47 17 89 l7 77
-38 10 c-84 21 -109 24 -96 10 10 -10 10 -16 1 -27 -10 -12 -14 -8 -24 19 -11
31 -12 25 -13 -61z"/>
<path d="M15321 186 c-87 -48 -50 -186 49 -186 51 0 100 49 100 100 0 73 -85
122 -149 86z"/>
</g>
</svg>
