<?xml version="1.0" standalone="no"?>
<!DOCTYPE svg PUBLIC "-//W3C//DTD SVG 20010904//EN"
 "http://www.w3.org/TR/2001/REC-SVG-20010904/DTD/svg10.dtd">
<svg version="1.0" xmlns="http://www.w3.org/2000/svg"
 width="1547.000000pt" height="2349.000000pt" viewBox="0 0 1547.000000 2349.000000"
 preserveAspectRatio="xMidYMid meet">

<g transform="translate(0.000000,2349.000000) scale(0.100000,-0.100000)"
fill="#000000" stroke="none">
<path d="M51 23476 c-87 -48 -50 -186 49 -186 51 0 100 49 100 99 0 75 -83
124 -149 87z"/>
<path d="M15321 23476 c-87 -48 -50 -186 49 -186 51 0 100 49 100 99 0 75 -83
124 -149 87z"/>
<path d="M8361 17559 c-63 -43 -118 -84 -123 -91 -4 -7 -8 -9 -8 -4 0 5 -12
-3 -26 -18 -15 -14 -31 -27 -35 -27 -5 -1 -13 -2 -18 -3 -15 -2 -53 -55 -47
-65 13 -20 70 -20 143 0 95 25 153 59 199 115 29 36 37 54 41 102 3 33 2 61
-3 64 -5 3 -60 -30 -123 -73z"/>
<path d="M7334 17585 c-4 -9 -3 -28 0 -43 4 -15 8 -37 10 -49 5 -28 50 -87 83
-109 64 -41 257 -62 269 -29 6 16 -38 65 -57 65 -16 0 -120 71 -158 107 -18
18 -37 31 -41 28 -4 -2 -18 7 -30 20 -26 28 -68 33 -76 10z"/>
<path d="M13260 3981 c-13 -9 -13 -11 0 -15 8 -3 31 -7 50 -8 32 -3 35 -6 38
-38 6 -88 24 -170 37 -170 10 0 12 22 9 96 l-3 97 39 -6 c22 -3 60 -15 85 -27
48 -23 58 -49 33 -83 -20 -25 -120 -82 -190 -107 -73 -27 -88 -37 -66 -45 19
-8 209 88 254 127 l34 30 0 -24 c0 -21 32 -68 46 -68 28 0 66 49 85 110 6 20
8 15 9 -25 2 -48 2 -49 12 -20 15 42 15 42 51 8 17 -16 40 -33 50 -36 29 -11
63 33 77 98 6 31 15 53 20 49 12 -14 20 -123 9 -129 -5 -4 -9 -13 -9 -21 0
-30 158 17 161 49 1 6 4 -1 8 -17 8 -40 31 -46 31 -8 0 22 6 31 22 35 25 7 38
-7 38 -40 0 -12 5 -25 11 -29 7 -4 10 8 8 36 -3 35 0 45 16 51 19 7 19 8 -2 8
-16 1 -25 11 -35 43 -8 23 -19 43 -26 46 -12 4 -42 -48 -42 -73 0 -18 -12 -19
-69 -2 l-44 14 54 19 c106 38 55 73 -81 55 -42 -5 -70 -5 -78 2 -18 14 -27 1
-12 -18 29 -34 -10 -145 -51 -145 -25 0 -65 42 -81 86 -8 22 -21 37 -40 43
-30 11 -48 -3 -29 -22 6 -6 11 -19 11 -29 0 -27 -38 -98 -57 -105 -22 -9 -43
23 -44 66 -1 49 -42 81 -148 115 -96 31 -169 41 -191 27z m801 -52 c-53 -21
-101 -28 -101 -14 0 16 21 23 80 23 39 1 42 -1 21 -9z m112 -49 c4 -15 0 -20
-14 -20 -20 0 -23 8 -13 34 7 20 20 13 27 -14z m-153 -24 c25 -7 45 -19 45
-27 0 -15 -80 -47 -91 -37 -10 10 -17 78 -7 78 4 0 28 -6 53 -14z"/>
<path d="M14285 3930 c-12 -4 -27 -16 -35 -25 -12 -15 -12 -19 1 -29 18 -13
39 -68 39 -102 0 -13 5 -24 10 -24 13 0 13 23 0 90 -8 41 -7 56 2 62 22 14 33
9 13 -6 -19 -14 -19 -15 -2 -34 28 -31 137 -80 213 -96 38 -8 70 -13 72 -12 1
2 -37 19 -85 39 -49 21 -104 46 -123 58 l-34 21 27 20 c44 32 35 48 -25 47
-29 0 -62 -4 -73 -9z"/>
<path d="M14618 3743 c7 -3 16 -2 19 1 4 3 -2 6 -13 5 -11 0 -14 -3 -6 -6z"/>
<path d="M14665 3730 c11 -5 34 -8 50 -8 29 0 29 0 5 8 -14 4 -36 8 -50 8 -23
1 -23 0 -5 -8z"/>
<path d="M13890 3656 c0 -33 -2 -35 -37 -38 -47 -4 -46 -22 2 -26 30 -3 35 -7
35 -28 0 -33 18 -31 22 4 3 23 8 27 38 30 55 5 61 22 7 22 l-47 0 0 35 c0 19
-4 35 -10 35 -5 0 -10 -15 -10 -34z"/>
<path d="M15321 186 c-87 -48 -50 -186 49 -186 51 0 100 49 100 100 0 73 -85
122 -149 86z"/>
<path d="M1 114 l-1 -79 43 -17 c23 -10 54 -18 68 -18 28 0 79 40 79 62 0 8
-24 26 -53 41 -83 43 -120 65 -128 78 -4 7 -7 -23 -8 -67z"/>
</g>
</svg>
